<svg width="1043" height="736" viewBox="0 0 1043 736" fill="none" xmlns="http://www.w3.org/2000/svg">
<ellipse cx="844" cy="690.5" rx="199" ry="45.5" fill="url(#paint0_radial_894_581)"/>
<ellipse cx="243.5" cy="428" rx="243.5" ry="173" fill="#9747FF"/>
<path d="M451 466.501L572 399.5L420.5 528.5L451 466.501Z" fill="#9747FF"/>
<path d="M111.869 368.338C111.869 369.533 111.67 370.641 111.271 371.66C110.873 372.668 110.281 373.541 109.496 374.279C108.711 375.018 107.732 375.592 106.561 376.002C105.389 376.412 104.029 376.617 102.482 376.617H100.285V384H95.9258V361.025H102.658C104.146 361.025 105.459 361.189 106.596 361.518C107.744 361.834 108.705 362.303 109.479 362.924C110.264 363.545 110.855 364.312 111.254 365.227C111.664 366.129 111.869 367.166 111.869 368.338ZM107.334 368.637C107.334 368.027 107.234 367.477 107.035 366.984C106.848 366.48 106.555 366.053 106.156 365.701C105.77 365.35 105.277 365.08 104.68 364.893C104.082 364.705 103.373 364.611 102.553 364.611H100.285V373.031H102.693C103.443 373.031 104.105 372.932 104.68 372.732C105.254 372.521 105.734 372.223 106.121 371.836C106.52 371.449 106.818 370.986 107.018 370.447C107.229 369.908 107.334 369.305 107.334 368.637ZM126.986 384L126.881 381.662C126.506 382.061 126.113 382.43 125.703 382.77C125.293 383.098 124.842 383.385 124.35 383.631C123.857 383.877 123.318 384.064 122.732 384.193C122.158 384.334 121.525 384.404 120.834 384.404C119.92 384.404 119.117 384.27 118.426 384C117.734 383.73 117.154 383.355 116.686 382.875C116.217 382.395 115.859 381.814 115.613 381.135C115.379 380.455 115.262 379.705 115.262 378.885C115.262 378.041 115.438 377.262 115.789 376.547C116.152 375.832 116.697 375.217 117.424 374.701C118.162 374.186 119.076 373.781 120.166 373.488C121.268 373.195 122.557 373.049 124.033 373.049H126.371V371.977C126.371 371.52 126.307 371.109 126.178 370.746C126.049 370.371 125.838 370.055 125.545 369.797C125.264 369.539 124.895 369.34 124.438 369.199C123.98 369.059 123.418 368.988 122.75 368.988C121.695 368.988 120.652 369.111 119.621 369.357C118.602 369.592 117.611 369.926 116.65 370.359V366.932C117.506 366.592 118.49 366.311 119.604 366.088C120.729 365.865 121.895 365.754 123.102 365.754C124.426 365.754 125.562 365.883 126.512 366.141C127.461 366.387 128.24 366.762 128.85 367.266C129.471 367.77 129.928 368.402 130.221 369.164C130.514 369.914 130.66 370.793 130.66 371.801V384H126.986ZM126.371 376.107H123.752C123.025 376.107 122.41 376.178 121.906 376.318C121.402 376.459 120.992 376.652 120.676 376.898C120.359 377.145 120.125 377.432 119.973 377.76C119.832 378.076 119.762 378.416 119.762 378.779C119.762 379.506 119.996 380.062 120.465 380.449C120.934 380.824 121.572 381.012 122.381 381.012C122.979 381.012 123.6 380.795 124.244 380.361C124.889 379.928 125.598 379.307 126.371 378.498V376.107ZM147.078 373.084C147.102 372.416 147.066 371.848 146.973 371.379C146.891 370.91 146.75 370.523 146.551 370.219C146.363 369.914 146.129 369.691 145.848 369.551C145.566 369.41 145.244 369.34 144.881 369.34C144.248 369.34 143.592 369.604 142.912 370.131C142.244 370.646 141.506 371.502 140.697 372.697V384H136.303V366.141H140.188L140.346 368.742C140.639 368.285 140.967 367.875 141.33 367.512C141.705 367.148 142.115 366.838 142.561 366.58C143.018 366.311 143.521 366.105 144.072 365.965C144.623 365.824 145.227 365.754 145.883 365.754C146.785 365.754 147.582 365.912 148.273 366.229C148.977 366.533 149.562 366.99 150.031 367.6C150.512 368.209 150.863 368.977 151.086 369.902C151.32 370.816 151.42 371.877 151.385 373.084H147.078ZM166.572 384L166.467 381.662C166.092 382.061 165.699 382.43 165.289 382.77C164.879 383.098 164.428 383.385 163.936 383.631C163.443 383.877 162.904 384.064 162.318 384.193C161.744 384.334 161.111 384.404 160.42 384.404C159.506 384.404 158.703 384.27 158.012 384C157.32 383.73 156.74 383.355 156.271 382.875C155.803 382.395 155.445 381.814 155.199 381.135C154.965 380.455 154.848 379.705 154.848 378.885C154.848 378.041 155.023 377.262 155.375 376.547C155.738 375.832 156.283 375.217 157.01 374.701C157.748 374.186 158.662 373.781 159.752 373.488C160.854 373.195 162.143 373.049 163.619 373.049H165.957V371.977C165.957 371.52 165.893 371.109 165.764 370.746C165.635 370.371 165.424 370.055 165.131 369.797C164.85 369.539 164.48 369.34 164.023 369.199C163.566 369.059 163.004 368.988 162.336 368.988C161.281 368.988 160.238 369.111 159.207 369.357C158.188 369.592 157.197 369.926 156.236 370.359V366.932C157.092 366.592 158.076 366.311 159.189 366.088C160.314 365.865 161.48 365.754 162.688 365.754C164.012 365.754 165.148 365.883 166.098 366.141C167.047 366.387 167.826 366.762 168.436 367.266C169.057 367.77 169.514 368.402 169.807 369.164C170.1 369.914 170.246 370.793 170.246 371.801V384H166.572ZM165.957 376.107H163.338C162.611 376.107 161.996 376.178 161.492 376.318C160.988 376.459 160.578 376.652 160.262 376.898C159.945 377.145 159.711 377.432 159.559 377.76C159.418 378.076 159.348 378.416 159.348 378.779C159.348 379.506 159.582 380.062 160.051 380.449C160.52 380.824 161.158 381.012 161.967 381.012C162.564 381.012 163.186 380.795 163.83 380.361C164.475 379.928 165.184 379.307 165.957 378.498V376.107ZM206.158 384L206.053 381.662C205.678 382.061 205.285 382.43 204.875 382.77C204.465 383.098 204.014 383.385 203.521 383.631C203.029 383.877 202.49 384.064 201.904 384.193C201.33 384.334 200.697 384.404 200.006 384.404C199.092 384.404 198.289 384.27 197.598 384C196.906 383.73 196.326 383.355 195.857 382.875C195.389 382.395 195.031 381.814 194.785 381.135C194.551 380.455 194.434 379.705 194.434 378.885C194.434 378.041 194.609 377.262 194.961 376.547C195.324 375.832 195.869 375.217 196.596 374.701C197.334 374.186 198.248 373.781 199.338 373.488C200.439 373.195 201.729 373.049 203.205 373.049H205.543V371.977C205.543 371.52 205.479 371.109 205.35 370.746C205.221 370.371 205.01 370.055 204.717 369.797C204.436 369.539 204.066 369.34 203.609 369.199C203.152 369.059 202.59 368.988 201.922 368.988C200.867 368.988 199.824 369.111 198.793 369.357C197.773 369.592 196.783 369.926 195.822 370.359V366.932C196.678 366.592 197.662 366.311 198.775 366.088C199.9 365.865 201.066 365.754 202.273 365.754C203.598 365.754 204.734 365.883 205.684 366.141C206.633 366.387 207.412 366.762 208.021 367.266C208.643 367.77 209.1 368.402 209.393 369.164C209.686 369.914 209.832 370.793 209.832 371.801V384H206.158ZM205.543 376.107H202.924C202.197 376.107 201.582 376.178 201.078 376.318C200.574 376.459 200.164 376.652 199.848 376.898C199.531 377.145 199.297 377.432 199.145 377.76C199.004 378.076 198.934 378.416 198.934 378.779C198.934 379.506 199.168 380.062 199.637 380.449C200.105 380.824 200.744 381.012 201.553 381.012C202.15 381.012 202.771 380.795 203.416 380.361C204.061 379.928 204.77 379.307 205.543 378.498V376.107ZM229.203 383.314C228.359 383.654 227.486 383.906 226.584 384.07C225.682 384.234 224.738 384.316 223.754 384.316C222.336 384.316 221.064 384.123 219.939 383.736C218.814 383.35 217.859 382.775 217.074 382.014C216.289 381.252 215.686 380.309 215.264 379.184C214.854 378.059 214.648 376.758 214.648 375.281C214.648 373.852 214.871 372.557 215.316 371.396C215.773 370.236 216.412 369.246 217.232 368.426C218.053 367.605 219.037 366.973 220.186 366.527C221.346 366.082 222.635 365.859 224.053 365.859C225.213 365.859 226.186 365.924 226.971 366.053C227.768 366.17 228.482 366.322 229.115 366.51V370.676C228.389 370.312 227.598 370.031 226.742 369.832C225.898 369.633 225.096 369.533 224.334 369.533C223.537 369.533 222.822 369.668 222.189 369.938C221.557 370.207 221.023 370.582 220.59 371.062C220.156 371.543 219.822 372.129 219.588 372.82C219.365 373.5 219.254 374.25 219.254 375.07C219.254 375.926 219.377 376.693 219.623 377.373C219.869 378.053 220.215 378.633 220.66 379.113C221.117 379.582 221.662 379.945 222.295 380.203C222.928 380.449 223.631 380.572 224.404 380.572C224.779 380.572 225.172 380.549 225.582 380.502C226.004 380.443 226.42 380.367 226.83 380.273C227.252 380.168 227.662 380.051 228.061 379.922C228.471 379.793 228.852 379.652 229.203 379.5V383.314ZM250.104 373.699C250.104 373.992 250.092 374.373 250.068 374.842C250.057 375.311 250.033 375.75 249.998 376.16H238.256C238.256 376.945 238.373 377.637 238.607 378.234C238.854 378.832 239.193 379.336 239.627 379.746C240.072 380.145 240.6 380.449 241.209 380.66C241.83 380.871 242.516 380.977 243.266 380.977C244.133 380.977 245.059 380.912 246.043 380.783C247.039 380.643 248.07 380.42 249.137 380.115V383.525C248.68 383.654 248.182 383.771 247.643 383.877C247.104 383.982 246.553 384.076 245.99 384.158C245.428 384.24 244.859 384.299 244.285 384.334C243.711 384.381 243.154 384.404 242.615 384.404C241.256 384.404 240.037 384.211 238.959 383.824C237.881 383.438 236.967 382.869 236.217 382.119C235.467 381.357 234.893 380.42 234.494 379.307C234.096 378.193 233.896 376.904 233.896 375.439C233.896 373.986 234.096 372.668 234.494 371.484C234.893 370.289 235.455 369.27 236.182 368.426C236.908 367.57 237.787 366.914 238.818 366.457C239.861 365.988 241.021 365.754 242.299 365.754C243.564 365.754 244.684 365.953 245.656 366.352C246.629 366.738 247.443 367.283 248.1 367.986C248.756 368.689 249.254 369.527 249.594 370.5C249.934 371.473 250.104 372.539 250.104 373.699ZM245.744 373.084C245.756 372.381 245.668 371.771 245.48 371.256C245.293 370.729 245.035 370.295 244.707 369.955C244.391 369.615 244.016 369.363 243.582 369.199C243.16 369.035 242.703 368.953 242.211 368.953C241.133 368.953 240.248 369.316 239.557 370.043C238.865 370.758 238.455 371.771 238.326 373.084H245.744ZM269.07 378.744C269.07 379.764 268.842 380.637 268.385 381.363C267.939 382.078 267.342 382.664 266.592 383.121C265.854 383.566 265.01 383.889 264.061 384.088C263.123 384.299 262.162 384.404 261.178 384.404C259.865 384.404 258.682 384.34 257.627 384.211C256.572 384.094 255.576 383.918 254.639 383.684V379.816C255.74 380.273 256.836 380.607 257.926 380.818C259.027 381.018 260.064 381.117 261.037 381.117C262.162 381.117 263 380.941 263.551 380.59C264.113 380.227 264.395 379.758 264.395 379.184C264.395 378.914 264.336 378.668 264.219 378.445C264.102 378.223 263.879 378.012 263.551 377.812C263.234 377.602 262.783 377.391 262.197 377.18C261.611 376.957 260.844 376.711 259.895 376.441C259.016 376.195 258.242 375.92 257.574 375.615C256.918 375.299 256.373 374.93 255.939 374.508C255.506 374.086 255.178 373.6 254.955 373.049C254.744 372.486 254.639 371.83 254.639 371.08C254.639 370.354 254.803 369.668 255.131 369.023C255.459 368.379 255.945 367.816 256.59 367.336C257.246 366.844 258.061 366.457 259.033 366.176C260.006 365.895 261.143 365.754 262.443 365.754C263.568 365.754 264.564 365.812 265.432 365.93C266.299 366.047 267.066 366.176 267.734 366.316V369.814C266.715 369.486 265.754 369.258 264.852 369.129C263.961 368.988 263.076 368.918 262.197 368.918C261.318 368.918 260.609 369.076 260.07 369.393C259.543 369.709 259.279 370.148 259.279 370.711C259.279 370.98 259.332 371.221 259.438 371.432C259.543 371.643 259.748 371.848 260.053 372.047C260.369 372.246 260.803 372.457 261.354 372.68C261.916 372.891 262.654 373.125 263.568 373.383C264.6 373.676 265.467 373.992 266.17 374.332C266.873 374.66 267.436 375.035 267.857 375.457C268.291 375.879 268.602 376.359 268.789 376.898C268.977 377.438 269.07 378.053 269.07 378.744ZM288.863 378.744C288.863 379.764 288.635 380.637 288.178 381.363C287.732 382.078 287.135 382.664 286.385 383.121C285.646 383.566 284.803 383.889 283.854 384.088C282.916 384.299 281.955 384.404 280.971 384.404C279.658 384.404 278.475 384.34 277.42 384.211C276.365 384.094 275.369 383.918 274.432 383.684V379.816C275.533 380.273 276.629 380.607 277.719 380.818C278.82 381.018 279.857 381.117 280.83 381.117C281.955 381.117 282.793 380.941 283.344 380.59C283.906 380.227 284.188 379.758 284.188 379.184C284.188 378.914 284.129 378.668 284.012 378.445C283.895 378.223 283.672 378.012 283.344 377.812C283.027 377.602 282.576 377.391 281.99 377.18C281.404 376.957 280.637 376.711 279.688 376.441C278.809 376.195 278.035 375.92 277.367 375.615C276.711 375.299 276.166 374.93 275.732 374.508C275.299 374.086 274.971 373.6 274.748 373.049C274.537 372.486 274.432 371.83 274.432 371.08C274.432 370.354 274.596 369.668 274.924 369.023C275.252 368.379 275.738 367.816 276.383 367.336C277.039 366.844 277.854 366.457 278.826 366.176C279.799 365.895 280.936 365.754 282.236 365.754C283.361 365.754 284.357 365.812 285.225 365.93C286.092 366.047 286.859 366.176 287.527 366.316V369.814C286.508 369.486 285.547 369.258 284.645 369.129C283.754 368.988 282.869 368.918 281.99 368.918C281.111 368.918 280.402 369.076 279.863 369.393C279.336 369.709 279.072 370.148 279.072 370.711C279.072 370.98 279.125 371.221 279.23 371.432C279.336 371.643 279.541 371.848 279.846 372.047C280.162 372.246 280.596 372.457 281.146 372.68C281.709 372.891 282.447 373.125 283.361 373.383C284.393 373.676 285.26 373.992 285.963 374.332C286.666 374.66 287.229 375.035 287.65 375.457C288.084 375.879 288.395 376.359 288.582 376.898C288.77 377.438 288.863 378.053 288.863 378.744ZM305.123 384L305.018 381.662C304.643 382.061 304.25 382.43 303.84 382.77C303.43 383.098 302.979 383.385 302.486 383.631C301.994 383.877 301.455 384.064 300.869 384.193C300.295 384.334 299.662 384.404 298.971 384.404C298.057 384.404 297.254 384.27 296.562 384C295.871 383.73 295.291 383.355 294.822 382.875C294.354 382.395 293.996 381.814 293.75 381.135C293.516 380.455 293.398 379.705 293.398 378.885C293.398 378.041 293.574 377.262 293.926 376.547C294.289 375.832 294.834 375.217 295.561 374.701C296.299 374.186 297.213 373.781 298.303 373.488C299.404 373.195 300.693 373.049 302.17 373.049H304.508V371.977C304.508 371.52 304.443 371.109 304.314 370.746C304.186 370.371 303.975 370.055 303.682 369.797C303.4 369.539 303.031 369.34 302.574 369.199C302.117 369.059 301.555 368.988 300.887 368.988C299.832 368.988 298.789 369.111 297.758 369.357C296.738 369.592 295.748 369.926 294.787 370.359V366.932C295.643 366.592 296.627 366.311 297.74 366.088C298.865 365.865 300.031 365.754 301.238 365.754C302.562 365.754 303.699 365.883 304.648 366.141C305.598 366.387 306.377 366.762 306.986 367.266C307.607 367.77 308.064 368.402 308.357 369.164C308.65 369.914 308.797 370.793 308.797 371.801V384H305.123ZM304.508 376.107H301.889C301.162 376.107 300.547 376.178 300.043 376.318C299.539 376.459 299.129 376.652 298.812 376.898C298.496 377.145 298.262 377.432 298.109 377.76C297.969 378.076 297.898 378.416 297.898 378.779C297.898 379.506 298.133 380.062 298.602 380.449C299.07 380.824 299.709 381.012 300.518 381.012C301.115 381.012 301.736 380.795 302.381 380.361C303.025 379.928 303.734 379.307 304.508 378.498V376.107ZM325.215 373.084C325.238 372.416 325.203 371.848 325.109 371.379C325.027 370.91 324.887 370.523 324.688 370.219C324.5 369.914 324.266 369.691 323.984 369.551C323.703 369.41 323.381 369.34 323.018 369.34C322.385 369.34 321.729 369.604 321.049 370.131C320.381 370.646 319.643 371.502 318.834 372.697V384H314.439V366.141H318.324L318.482 368.742C318.775 368.285 319.104 367.875 319.467 367.512C319.842 367.148 320.252 366.838 320.697 366.58C321.154 366.311 321.658 366.105 322.209 365.965C322.76 365.824 323.363 365.754 324.02 365.754C324.922 365.754 325.719 365.912 326.41 366.229C327.113 366.533 327.699 366.99 328.168 367.6C328.648 368.209 329 368.977 329.223 369.902C329.457 370.816 329.557 371.877 329.521 373.084H325.215ZM364.502 384L364.396 381.662C364.021 382.061 363.629 382.43 363.219 382.77C362.809 383.098 362.357 383.385 361.865 383.631C361.373 383.877 360.834 384.064 360.248 384.193C359.674 384.334 359.041 384.404 358.35 384.404C357.436 384.404 356.633 384.27 355.941 384C355.25 383.73 354.67 383.355 354.201 382.875C353.732 382.395 353.375 381.814 353.129 381.135C352.895 380.455 352.777 379.705 352.777 378.885C352.777 378.041 352.953 377.262 353.305 376.547C353.668 375.832 354.213 375.217 354.939 374.701C355.678 374.186 356.592 373.781 357.682 373.488C358.783 373.195 360.072 373.049 361.549 373.049H363.887V371.977C363.887 371.52 363.822 371.109 363.693 370.746C363.564 370.371 363.354 370.055 363.061 369.797C362.779 369.539 362.41 369.34 361.953 369.199C361.496 369.059 360.934 368.988 360.266 368.988C359.211 368.988 358.168 369.111 357.137 369.357C356.117 369.592 355.127 369.926 354.166 370.359V366.932C355.021 366.592 356.006 366.311 357.119 366.088C358.244 365.865 359.41 365.754 360.617 365.754C361.941 365.754 363.078 365.883 364.027 366.141C364.977 366.387 365.756 366.762 366.365 367.266C366.986 367.77 367.443 368.402 367.736 369.164C368.029 369.914 368.176 370.793 368.176 371.801V384H364.502ZM363.887 376.107H361.268C360.541 376.107 359.926 376.178 359.422 376.318C358.918 376.459 358.508 376.652 358.191 376.898C357.875 377.145 357.641 377.432 357.488 377.76C357.348 378.076 357.277 378.416 357.277 378.779C357.277 379.506 357.512 380.062 357.98 380.449C358.449 380.824 359.088 381.012 359.896 381.012C360.494 381.012 361.115 380.795 361.76 380.361C362.404 379.928 363.113 379.307 363.887 378.498V376.107ZM358.279 359.162L362.885 363.768H358.596L352.479 359.162H358.279ZM387.828 378.744C387.828 379.764 387.6 380.637 387.143 381.363C386.697 382.078 386.1 382.664 385.35 383.121C384.611 383.566 383.768 383.889 382.818 384.088C381.881 384.299 380.92 384.404 379.936 384.404C378.623 384.404 377.439 384.34 376.385 384.211C375.33 384.094 374.334 383.918 373.396 383.684V379.816C374.498 380.273 375.594 380.607 376.684 380.818C377.785 381.018 378.822 381.117 379.795 381.117C380.92 381.117 381.758 380.941 382.309 380.59C382.871 380.227 383.152 379.758 383.152 379.184C383.152 378.914 383.094 378.668 382.977 378.445C382.859 378.223 382.637 378.012 382.309 377.812C381.992 377.602 381.541 377.391 380.955 377.18C380.369 376.957 379.602 376.711 378.652 376.441C377.773 376.195 377 375.92 376.332 375.615C375.676 375.299 375.131 374.93 374.697 374.508C374.264 374.086 373.936 373.6 373.713 373.049C373.502 372.486 373.396 371.83 373.396 371.08C373.396 370.354 373.561 369.668 373.889 369.023C374.217 368.379 374.703 367.816 375.348 367.336C376.004 366.844 376.818 366.457 377.791 366.176C378.764 365.895 379.9 365.754 381.201 365.754C382.326 365.754 383.322 365.812 384.189 365.93C385.057 366.047 385.824 366.176 386.492 366.316V369.814C385.473 369.486 384.512 369.258 383.609 369.129C382.719 368.988 381.834 368.918 380.955 368.918C380.076 368.918 379.367 369.076 378.828 369.393C378.301 369.709 378.037 370.148 378.037 370.711C378.037 370.98 378.09 371.221 378.195 371.432C378.301 371.643 378.506 371.848 378.811 372.047C379.127 372.246 379.561 372.457 380.111 372.68C380.674 372.891 381.412 373.125 382.326 373.383C383.357 373.676 384.225 373.992 384.928 374.332C385.631 374.66 386.193 375.035 386.615 375.457C387.049 375.879 387.359 376.359 387.547 376.898C387.734 377.438 387.828 378.053 387.828 378.744ZM57.7109 426L57.6055 423.662C57.2305 424.061 56.8379 424.43 56.4277 424.77C56.0176 425.098 55.5664 425.385 55.0742 425.631C54.582 425.877 54.043 426.064 53.457 426.193C52.8828 426.334 52.25 426.404 51.5586 426.404C50.6445 426.404 49.8418 426.27 49.1504 426C48.459 425.73 47.8789 425.355 47.4102 424.875C46.9414 424.395 46.584 423.814 46.3379 423.135C46.1035 422.455 45.9863 421.705 45.9863 420.885C45.9863 420.041 46.1621 419.262 46.5137 418.547C46.877 417.832 47.4219 417.217 48.1484 416.701C48.8867 416.186 49.8008 415.781 50.8906 415.488C51.9922 415.195 53.2812 415.049 54.7578 415.049H57.0957V413.977C57.0957 413.52 57.0312 413.109 56.9023 412.746C56.7734 412.371 56.5625 412.055 56.2695 411.797C55.9883 411.539 55.6191 411.34 55.1621 411.199C54.7051 411.059 54.1426 410.988 53.4746 410.988C52.4199 410.988 51.377 411.111 50.3457 411.357C49.3262 411.592 48.3359 411.926 47.375 412.359V408.932C48.2305 408.592 49.2148 408.311 50.3281 408.088C51.4531 407.865 52.6191 407.754 53.8262 407.754C55.1504 407.754 56.2871 407.883 57.2363 408.141C58.1855 408.387 58.9648 408.762 59.5742 409.266C60.1953 409.77 60.6523 410.402 60.9453 411.164C61.2383 411.914 61.3848 412.793 61.3848 413.801V426H57.7109ZM57.0957 418.107H54.4766C53.75 418.107 53.1348 418.178 52.6309 418.318C52.127 418.459 51.7168 418.652 51.4004 418.898C51.084 419.145 50.8496 419.432 50.6973 419.76C50.5566 420.076 50.4863 420.416 50.4863 420.779C50.4863 421.506 50.7207 422.062 51.1895 422.449C51.6582 422.824 52.2969 423.012 53.1055 423.012C53.7031 423.012 54.3242 422.795 54.9688 422.361C55.6133 421.928 56.3223 421.307 57.0957 420.498V418.107ZM70.5605 408.141V419.777C70.5605 420.75 70.7422 421.488 71.1055 421.992C71.4688 422.484 72.0195 422.73 72.7578 422.73C73.4727 422.73 74.1582 422.438 74.8145 421.852C75.4824 421.254 76.1855 420.451 76.9238 419.443V408.141H81.2129V426H77.5039L77.3984 423.363C77.0234 423.82 76.6426 424.236 76.2559 424.611C75.8691 424.986 75.4473 425.309 74.9902 425.578C74.5449 425.836 74.0527 426.035 73.5137 426.176C72.9863 426.328 72.4004 426.404 71.7559 426.404C70.8418 426.404 70.0391 426.258 69.3477 425.965C68.668 425.66 68.0996 425.232 67.6426 424.682C67.1855 424.131 66.8398 423.475 66.6055 422.713C66.3828 421.939 66.2715 421.078 66.2715 420.129V408.141H70.5605ZM91.8652 404.502H86.8203V401.162H96.2598V422.66H101.41V426H86.2051V422.66H91.8652V404.502ZM117.09 426L116.984 423.662C116.609 424.061 116.217 424.43 115.807 424.77C115.396 425.098 114.945 425.385 114.453 425.631C113.961 425.877 113.422 426.064 112.836 426.193C112.262 426.334 111.629 426.404 110.938 426.404C110.023 426.404 109.221 426.27 108.529 426C107.838 425.73 107.258 425.355 106.789 424.875C106.32 424.395 105.963 423.814 105.717 423.135C105.482 422.455 105.365 421.705 105.365 420.885C105.365 420.041 105.541 419.262 105.893 418.547C106.256 417.832 106.801 417.217 107.527 416.701C108.266 416.186 109.18 415.781 110.27 415.488C111.371 415.195 112.66 415.049 114.137 415.049H116.475V413.977C116.475 413.52 116.41 413.109 116.281 412.746C116.152 412.371 115.941 412.055 115.648 411.797C115.367 411.539 114.998 411.34 114.541 411.199C114.084 411.059 113.521 410.988 112.854 410.988C111.799 410.988 110.756 411.111 109.725 411.357C108.705 411.592 107.715 411.926 106.754 412.359V408.932C107.609 408.592 108.594 408.311 109.707 408.088C110.832 407.865 111.998 407.754 113.205 407.754C114.529 407.754 115.666 407.883 116.615 408.141C117.564 408.387 118.344 408.762 118.953 409.266C119.574 409.77 120.031 410.402 120.324 411.164C120.617 411.914 120.764 412.793 120.764 413.801V426H117.09ZM116.475 418.107H113.855C113.129 418.107 112.514 418.178 112.01 418.318C111.506 418.459 111.096 418.652 110.779 418.898C110.463 419.145 110.229 419.432 110.076 419.76C109.936 420.076 109.865 420.416 109.865 420.779C109.865 421.506 110.1 422.062 110.568 422.449C111.037 422.824 111.676 423.012 112.484 423.012C113.082 423.012 113.703 422.795 114.348 422.361C114.992 421.928 115.701 421.307 116.475 420.498V418.107ZM140.416 420.744C140.416 421.764 140.188 422.637 139.73 423.363C139.285 424.078 138.688 424.664 137.938 425.121C137.199 425.566 136.355 425.889 135.406 426.088C134.469 426.299 133.508 426.404 132.523 426.404C131.211 426.404 130.027 426.34 128.973 426.211C127.918 426.094 126.922 425.918 125.984 425.684V421.816C127.086 422.273 128.182 422.607 129.271 422.818C130.373 423.018 131.41 423.117 132.383 423.117C133.508 423.117 134.346 422.941 134.896 422.59C135.459 422.227 135.74 421.758 135.74 421.184C135.74 420.914 135.682 420.668 135.564 420.445C135.447 420.223 135.225 420.012 134.896 419.812C134.58 419.602 134.129 419.391 133.543 419.18C132.957 418.957 132.189 418.711 131.24 418.441C130.361 418.195 129.588 417.92 128.92 417.615C128.264 417.299 127.719 416.93 127.285 416.508C126.852 416.086 126.523 415.6 126.301 415.049C126.09 414.486 125.984 413.83 125.984 413.08C125.984 412.354 126.148 411.668 126.477 411.023C126.805 410.379 127.291 409.816 127.936 409.336C128.592 408.844 129.406 408.457 130.379 408.176C131.352 407.895 132.488 407.754 133.789 407.754C134.914 407.754 135.91 407.812 136.777 407.93C137.645 408.047 138.412 408.176 139.08 408.316V411.814C138.061 411.486 137.1 411.258 136.197 411.129C135.307 410.988 134.422 410.918 133.543 410.918C132.664 410.918 131.955 411.076 131.416 411.393C130.889 411.709 130.625 412.148 130.625 412.711C130.625 412.98 130.678 413.221 130.783 413.432C130.889 413.643 131.094 413.848 131.398 414.047C131.715 414.246 132.148 414.457 132.699 414.68C133.262 414.891 134 415.125 134.914 415.383C135.945 415.676 136.812 415.992 137.516 416.332C138.219 416.66 138.781 417.035 139.203 417.457C139.637 417.879 139.947 418.359 140.135 418.898C140.322 419.438 140.416 420.053 140.416 420.744ZM176.504 426L176.398 423.363C176.023 423.82 175.637 424.236 175.238 424.611C174.84 424.986 174.412 425.309 173.955 425.578C173.498 425.836 173.006 426.035 172.479 426.176C171.963 426.328 171.389 426.404 170.756 426.404C169.701 426.404 168.764 426.193 167.943 425.771C167.123 425.35 166.432 424.752 165.869 423.979C165.318 423.193 164.896 422.244 164.604 421.131C164.311 420.018 164.164 418.775 164.164 417.404C164.164 415.764 164.393 414.346 164.85 413.15C165.318 411.943 165.963 410.947 166.783 410.162C167.604 409.365 168.576 408.779 169.701 408.404C170.826 408.018 172.051 407.824 173.375 407.824C173.82 407.824 174.266 407.854 174.711 407.912C175.168 407.971 175.572 408.047 175.924 408.141V401.162H180.213V426H176.504ZM168.664 417.211C168.664 418.195 168.729 419.039 168.857 419.742C168.998 420.434 169.197 421.002 169.455 421.447C169.725 421.893 170.053 422.221 170.439 422.432C170.826 422.631 171.266 422.73 171.758 422.73C172.484 422.73 173.176 422.438 173.832 421.852C174.488 421.266 175.186 420.463 175.924 419.443V411.639C175.584 411.51 175.162 411.404 174.658 411.322C174.166 411.24 173.668 411.199 173.164 411.199C172.473 411.199 171.852 411.34 171.301 411.621C170.75 411.902 170.275 412.301 169.877 412.816C169.49 413.332 169.191 413.965 168.98 414.715C168.77 415.453 168.664 416.285 168.664 417.211ZM201.148 416.93C201.148 418.336 200.949 419.625 200.551 420.797C200.152 421.957 199.578 422.953 198.828 423.785C198.078 424.617 197.158 425.262 196.068 425.719C194.979 426.176 193.736 426.404 192.342 426.404C191.018 426.404 189.834 426.211 188.791 425.824C187.748 425.438 186.863 424.863 186.137 424.102C185.41 423.328 184.854 422.367 184.467 421.219C184.08 420.059 183.887 418.711 183.887 417.176C183.887 415.758 184.086 414.469 184.484 413.309C184.895 412.148 185.475 411.158 186.225 410.338C186.986 409.518 187.912 408.885 189.002 408.439C190.092 407.982 191.322 407.754 192.693 407.754C194.029 407.754 195.219 407.953 196.262 408.352C197.305 408.738 198.189 409.318 198.916 410.092C199.643 410.865 200.193 411.826 200.568 412.975C200.955 414.111 201.148 415.43 201.148 416.93ZM196.684 417.035C196.684 415.184 196.332 413.795 195.629 412.869C194.938 411.932 193.912 411.463 192.553 411.463C191.803 411.463 191.164 411.609 190.637 411.902C190.109 412.195 189.676 412.6 189.336 413.115C188.996 413.619 188.744 414.211 188.58 414.891C188.428 415.57 188.352 416.297 188.352 417.07C188.352 418.934 188.727 420.34 189.477 421.289C190.227 422.227 191.252 422.695 192.553 422.695C193.268 422.695 193.889 422.555 194.416 422.273C194.943 421.98 195.371 421.582 195.699 421.078C196.027 420.562 196.273 419.959 196.438 419.268C196.602 418.576 196.684 417.832 196.684 417.035ZM239.381 420.744C239.381 421.764 239.152 422.637 238.695 423.363C238.25 424.078 237.652 424.664 236.902 425.121C236.164 425.566 235.32 425.889 234.371 426.088C233.434 426.299 232.473 426.404 231.488 426.404C230.176 426.404 228.992 426.34 227.938 426.211C226.883 426.094 225.887 425.918 224.949 425.684V421.816C226.051 422.273 227.146 422.607 228.236 422.818C229.338 423.018 230.375 423.117 231.348 423.117C232.473 423.117 233.311 422.941 233.861 422.59C234.424 422.227 234.705 421.758 234.705 421.184C234.705 420.914 234.646 420.668 234.529 420.445C234.412 420.223 234.189 420.012 233.861 419.812C233.545 419.602 233.094 419.391 232.508 419.18C231.922 418.957 231.154 418.711 230.205 418.441C229.326 418.195 228.553 417.92 227.885 417.615C227.229 417.299 226.684 416.93 226.25 416.508C225.816 416.086 225.488 415.6 225.266 415.049C225.055 414.486 224.949 413.83 224.949 413.08C224.949 412.354 225.113 411.668 225.441 411.023C225.77 410.379 226.256 409.816 226.9 409.336C227.557 408.844 228.371 408.457 229.344 408.176C230.316 407.895 231.453 407.754 232.754 407.754C233.879 407.754 234.875 407.812 235.742 407.93C236.609 408.047 237.377 408.176 238.045 408.316V411.814C237.025 411.486 236.064 411.258 235.162 411.129C234.271 410.988 233.387 410.918 232.508 410.918C231.629 410.918 230.92 411.076 230.381 411.393C229.854 411.709 229.59 412.148 229.59 412.711C229.59 412.98 229.643 413.221 229.748 413.432C229.854 413.643 230.059 413.848 230.363 414.047C230.68 414.246 231.113 414.457 231.664 414.68C232.227 414.891 232.965 415.125 233.879 415.383C234.91 415.676 235.777 415.992 236.48 416.332C237.184 416.66 237.746 417.035 238.168 417.457C238.602 417.879 238.912 418.359 239.1 418.898C239.287 419.438 239.381 420.053 239.381 420.744ZM260 415.699C260 415.992 259.988 416.373 259.965 416.842C259.953 417.311 259.93 417.75 259.895 418.16H248.152C248.152 418.945 248.27 419.637 248.504 420.234C248.75 420.832 249.09 421.336 249.523 421.746C249.969 422.145 250.496 422.449 251.105 422.66C251.727 422.871 252.412 422.977 253.162 422.977C254.029 422.977 254.955 422.912 255.939 422.783C256.936 422.643 257.967 422.42 259.033 422.115V425.525C258.576 425.654 258.078 425.771 257.539 425.877C257 425.982 256.449 426.076 255.887 426.158C255.324 426.24 254.756 426.299 254.182 426.334C253.607 426.381 253.051 426.404 252.512 426.404C251.152 426.404 249.934 426.211 248.855 425.824C247.777 425.438 246.863 424.869 246.113 424.119C245.363 423.357 244.789 422.42 244.391 421.307C243.992 420.193 243.793 418.904 243.793 417.439C243.793 415.986 243.992 414.668 244.391 413.484C244.789 412.289 245.352 411.27 246.078 410.426C246.805 409.57 247.684 408.914 248.715 408.457C249.758 407.988 250.918 407.754 252.195 407.754C253.461 407.754 254.58 407.953 255.553 408.352C256.525 408.738 257.34 409.283 257.996 409.986C258.652 410.689 259.15 411.527 259.49 412.5C259.83 413.473 260 414.539 260 415.699ZM255.641 415.084C255.652 414.381 255.564 413.771 255.377 413.256C255.189 412.729 254.932 412.295 254.604 411.955C254.287 411.615 253.912 411.363 253.479 411.199C253.057 411.035 252.6 410.953 252.107 410.953C251.029 410.953 250.145 411.316 249.453 412.043C248.762 412.758 248.352 413.771 248.223 415.084H255.641ZM268.49 408.141V419.777C268.49 420.75 268.672 421.488 269.035 421.992C269.398 422.484 269.949 422.73 270.688 422.73C271.402 422.73 272.088 422.438 272.744 421.852C273.412 421.254 274.115 420.451 274.854 419.443V408.141H279.143V426H275.434L275.328 423.363C274.953 423.82 274.572 424.236 274.186 424.611C273.799 424.986 273.377 425.309 272.92 425.578C272.475 425.836 271.982 426.035 271.443 426.176C270.916 426.328 270.33 426.404 269.686 426.404C268.771 426.404 267.969 426.258 267.277 425.965C266.598 425.66 266.029 425.232 265.572 424.682C265.115 424.131 264.77 423.475 264.535 422.713C264.312 421.939 264.201 421.078 264.201 420.129V408.141H268.49ZM316.426 426V413.836C316.426 413.391 316.414 413.004 316.391 412.676C316.367 412.336 316.32 412.055 316.25 411.832C316.18 411.609 316.074 411.445 315.934 411.34C315.805 411.223 315.623 411.164 315.389 411.164C315.025 411.164 314.668 411.41 314.316 411.902C313.965 412.395 313.566 413.232 313.121 414.416V426H309.447V413.836C309.447 413.391 309.436 413.004 309.412 412.676C309.389 412.336 309.342 412.055 309.271 411.832C309.201 411.609 309.096 411.445 308.955 411.34C308.814 411.223 308.627 411.164 308.393 411.164C308.088 411.164 307.748 411.41 307.373 411.902C306.998 412.395 306.582 413.232 306.125 414.416V426H302.416V408.141H305.598L305.668 410.742C305.926 410.215 306.184 409.764 306.441 409.389C306.699 409.014 306.975 408.709 307.268 408.475C307.561 408.229 307.871 408.053 308.199 407.947C308.539 407.842 308.92 407.789 309.342 407.789C310.338 407.789 311.094 408.053 311.609 408.58C312.137 409.096 312.436 409.816 312.506 410.742C312.787 410.215 313.062 409.764 313.332 409.389C313.613 409.014 313.9 408.709 314.193 408.475C314.498 408.229 314.82 408.053 315.16 407.947C315.512 407.842 315.898 407.789 316.32 407.789C317.621 407.789 318.582 408.246 319.203 409.16C319.824 410.062 320.135 411.404 320.135 413.186V426H316.426ZM339.699 416.93C339.699 418.336 339.5 419.625 339.102 420.797C338.703 421.957 338.129 422.953 337.379 423.785C336.629 424.617 335.709 425.262 334.619 425.719C333.529 426.176 332.287 426.404 330.893 426.404C329.568 426.404 328.385 426.211 327.342 425.824C326.299 425.438 325.414 424.863 324.688 424.102C323.961 423.328 323.404 422.367 323.018 421.219C322.631 420.059 322.438 418.711 322.438 417.176C322.438 415.758 322.637 414.469 323.035 413.309C323.445 412.148 324.025 411.158 324.775 410.338C325.537 409.518 326.463 408.885 327.553 408.439C328.643 407.982 329.873 407.754 331.244 407.754C332.58 407.754 333.77 407.953 334.812 408.352C335.855 408.738 336.74 409.318 337.467 410.092C338.193 410.865 338.744 411.826 339.119 412.975C339.506 414.111 339.699 415.43 339.699 416.93ZM335.234 417.035C335.234 415.184 334.883 413.795 334.18 412.869C333.488 411.932 332.463 411.463 331.104 411.463C330.354 411.463 329.715 411.609 329.188 411.902C328.66 412.195 328.227 412.6 327.887 413.115C327.547 413.619 327.295 414.211 327.131 414.891C326.979 415.57 326.902 416.297 326.902 417.07C326.902 418.934 327.277 420.34 328.027 421.289C328.777 422.227 329.803 422.695 331.104 422.695C331.818 422.695 332.439 422.555 332.967 422.273C333.494 421.98 333.922 421.582 334.25 421.078C334.578 420.562 334.824 419.959 334.988 419.268C335.152 418.576 335.234 417.832 335.234 417.035ZM333.195 405.768H328.906L333.512 401.162H339.312L333.195 405.768ZM354.641 426L354.535 423.363C354.16 423.82 353.773 424.236 353.375 424.611C352.977 424.986 352.549 425.309 352.092 425.578C351.635 425.836 351.143 426.035 350.615 426.176C350.1 426.328 349.525 426.404 348.893 426.404C347.838 426.404 346.9 426.193 346.08 425.771C345.26 425.35 344.568 424.752 344.006 423.979C343.455 423.193 343.033 422.244 342.74 421.131C342.447 420.018 342.301 418.775 342.301 417.404C342.301 415.764 342.529 414.346 342.986 413.15C343.455 411.943 344.1 410.947 344.92 410.162C345.74 409.365 346.713 408.779 347.838 408.404C348.963 408.018 350.188 407.824 351.512 407.824C351.957 407.824 352.402 407.854 352.848 407.912C353.305 407.971 353.709 408.047 354.061 408.141V401.162H358.35V426H354.641ZM346.801 417.211C346.801 418.195 346.865 419.039 346.994 419.742C347.135 420.434 347.334 421.002 347.592 421.447C347.861 421.893 348.189 422.221 348.576 422.432C348.963 422.631 349.402 422.73 349.895 422.73C350.621 422.73 351.312 422.438 351.969 421.852C352.625 421.266 353.322 420.463 354.061 419.443V411.639C353.721 411.51 353.299 411.404 352.795 411.322C352.303 411.24 351.805 411.199 351.301 411.199C350.609 411.199 349.988 411.34 349.438 411.621C348.887 411.902 348.412 412.301 348.014 412.816C347.627 413.332 347.328 413.965 347.117 414.715C346.906 415.453 346.801 416.285 346.801 417.211ZM367.455 408.141V419.777C367.455 420.75 367.637 421.488 368 421.992C368.363 422.484 368.914 422.73 369.652 422.73C370.367 422.73 371.053 422.438 371.709 421.852C372.377 421.254 373.08 420.451 373.818 419.443V408.141H378.107V426H374.398L374.293 423.363C373.918 423.82 373.537 424.236 373.15 424.611C372.764 424.986 372.342 425.309 371.885 425.578C371.439 425.836 370.947 426.035 370.408 426.176C369.881 426.328 369.295 426.404 368.65 426.404C367.736 426.404 366.934 426.258 366.242 425.965C365.562 425.66 364.994 425.232 364.537 424.682C364.08 424.131 363.734 423.475 363.5 422.713C363.277 421.939 363.166 421.078 363.166 420.129V408.141H367.455ZM388.76 404.502H383.715V401.162H393.154V422.66H398.305V426H383.1V422.66H388.76V404.502ZM418.871 416.93C418.871 418.336 418.672 419.625 418.273 420.797C417.875 421.957 417.301 422.953 416.551 423.785C415.801 424.617 414.881 425.262 413.791 425.719C412.701 426.176 411.459 426.404 410.064 426.404C408.74 426.404 407.557 426.211 406.514 425.824C405.471 425.438 404.586 424.863 403.859 424.102C403.133 423.328 402.576 422.367 402.189 421.219C401.803 420.059 401.609 418.711 401.609 417.176C401.609 415.758 401.809 414.469 402.207 413.309C402.617 412.148 403.197 411.158 403.947 410.338C404.709 409.518 405.635 408.885 406.725 408.439C407.814 407.982 409.045 407.754 410.416 407.754C411.752 407.754 412.941 407.953 413.984 408.352C415.027 408.738 415.912 409.318 416.639 410.092C417.365 410.865 417.916 411.826 418.291 412.975C418.678 414.111 418.871 415.43 418.871 416.93ZM414.406 417.035C414.406 415.184 414.055 413.795 413.352 412.869C412.66 411.932 411.635 411.463 410.275 411.463C409.525 411.463 408.887 411.609 408.359 411.902C407.832 412.195 407.398 412.6 407.059 413.115C406.719 413.619 406.467 414.211 406.303 414.891C406.15 415.57 406.074 416.297 406.074 417.07C406.074 418.934 406.449 420.34 407.199 421.289C407.949 422.227 408.975 422.695 410.275 422.695C410.99 422.695 411.611 422.555 412.139 422.273C412.666 421.98 413.094 421.582 413.422 421.078C413.75 420.562 413.996 419.959 414.16 419.268C414.324 418.576 414.406 417.832 414.406 417.035ZM423.846 429.393C424.549 429.416 425.205 429.375 425.814 429.27C426.424 429.164 426.951 428.994 427.396 428.76C427.854 428.537 428.211 428.25 428.469 427.898C428.727 427.547 428.855 427.131 428.855 426.65C428.855 426.311 428.803 426.023 428.697 425.789C428.604 425.543 428.48 425.326 428.328 425.139C428.176 424.939 428.012 424.752 427.836 424.576C427.672 424.389 427.514 424.195 427.361 423.996C427.209 423.785 427.08 423.551 426.975 423.293C426.881 423.023 426.834 422.701 426.834 422.326C426.834 421.963 426.898 421.611 427.027 421.271C427.156 420.92 427.344 420.609 427.59 420.34C427.836 420.07 428.135 419.854 428.486 419.689C428.85 419.525 429.26 419.443 429.717 419.443C430.291 419.443 430.807 419.578 431.264 419.848C431.721 420.105 432.107 420.463 432.424 420.92C432.74 421.365 432.98 421.881 433.145 422.467C433.309 423.041 433.391 423.645 433.391 424.277C433.391 425.367 433.191 426.393 432.793 427.354C432.395 428.314 431.797 429.152 431 429.867C430.203 430.582 429.207 431.145 428.012 431.555C426.828 431.977 425.439 432.188 423.846 432.188V429.393ZM90.6523 467.314C89.8086 467.654 88.9355 467.906 88.0332 468.07C87.1309 468.234 86.1875 468.316 85.2031 468.316C83.7852 468.316 82.5137 468.123 81.3887 467.736C80.2637 467.35 79.3086 466.775 78.5234 466.014C77.7383 465.252 77.1348 464.309 76.7129 463.184C76.3027 462.059 76.0977 460.758 76.0977 459.281C76.0977 457.852 76.3203 456.557 76.7656 455.396C77.2227 454.236 77.8613 453.246 78.6816 452.426C79.502 451.605 80.4863 450.973 81.6348 450.527C82.7949 450.082 84.084 449.859 85.502 449.859C86.6621 449.859 87.6348 449.924 88.4199 450.053C89.2168 450.17 89.9316 450.322 90.5645 450.51V454.676C89.8379 454.312 89.0469 454.031 88.1914 453.832C87.3477 453.633 86.5449 453.533 85.7832 453.533C84.9863 453.533 84.2715 453.668 83.6387 453.938C83.0059 454.207 82.4727 454.582 82.0391 455.062C81.6055 455.543 81.2715 456.129 81.0371 456.82C80.8145 457.5 80.7031 458.25 80.7031 459.07C80.7031 459.926 80.8262 460.693 81.0723 461.373C81.3184 462.053 81.6641 462.633 82.1094 463.113C82.5664 463.582 83.1113 463.945 83.7441 464.203C84.377 464.449 85.0801 464.572 85.8535 464.572C86.2285 464.572 86.6211 464.549 87.0312 464.502C87.4531 464.443 87.8691 464.367 88.2793 464.273C88.7012 464.168 89.1113 464.051 89.5098 463.922C89.9199 463.793 90.3008 463.652 90.6523 463.5V467.314ZM101.762 446.502H96.7168V443.162H106.156V464.66H111.307V468H96.1016V464.66H101.762V446.502ZM126.301 445.254C126.301 445.641 126.23 446.004 126.09 446.344C125.949 446.684 125.75 446.982 125.492 447.24C125.246 447.486 124.953 447.686 124.613 447.838C124.273 447.979 123.904 448.049 123.506 448.049C123.107 448.049 122.732 447.979 122.381 447.838C122.041 447.686 121.742 447.486 121.484 447.24C121.238 446.982 121.045 446.684 120.904 446.344C120.764 446.004 120.693 445.641 120.693 445.254C120.693 444.867 120.764 444.504 120.904 444.164C121.045 443.824 121.238 443.525 121.484 443.268C121.742 443.01 122.041 442.811 122.381 442.67C122.732 442.518 123.107 442.441 123.506 442.441C123.904 442.441 124.273 442.518 124.613 442.67C124.953 442.811 125.246 443.01 125.492 443.268C125.75 443.525 125.949 443.824 126.09 444.164C126.23 444.504 126.301 444.867 126.301 445.254ZM121.555 453.48H116.51V450.141H125.949V464.66H131.1V468H115.895V464.66H121.555V453.48ZM146.234 474.979V469.107L146.428 465.627C146.1 466.037 145.748 466.412 145.373 466.752C145.01 467.092 144.605 467.385 144.16 467.631C143.727 467.877 143.252 468.064 142.736 468.193C142.221 468.334 141.664 468.404 141.066 468.404C140.012 468.404 139.074 468.193 138.254 467.771C137.434 467.35 136.742 466.752 136.18 465.979C135.629 465.193 135.207 464.244 134.914 463.131C134.621 462.018 134.475 460.775 134.475 459.404C134.475 457.986 134.668 456.691 135.055 455.52C135.441 454.336 136.016 453.322 136.777 452.479C137.551 451.635 138.512 450.984 139.66 450.527C140.809 450.059 142.15 449.824 143.686 449.824C143.979 449.824 144.301 449.842 144.652 449.877C145.004 449.912 145.355 449.959 145.707 450.018C146.059 450.064 146.393 450.129 146.709 450.211C147.037 450.281 147.324 450.357 147.57 450.439L150.523 449.789V474.979H146.234ZM138.975 459.211C138.975 460.195 139.039 461.039 139.168 461.742C139.309 462.434 139.508 463.002 139.766 463.447C140.035 463.893 140.363 464.221 140.75 464.432C141.137 464.631 141.576 464.73 142.068 464.73C142.795 464.73 143.486 464.438 144.143 463.852C144.799 463.266 145.496 462.463 146.234 461.443V453.639C145.895 453.51 145.473 453.404 144.969 453.322C144.477 453.24 143.979 453.199 143.475 453.199C142.783 453.199 142.162 453.34 141.611 453.621C141.061 453.902 140.586 454.301 140.188 454.816C139.801 455.332 139.502 455.965 139.291 456.715C139.08 457.453 138.975 458.285 138.975 459.211ZM159.629 450.141V461.777C159.629 462.75 159.811 463.488 160.174 463.992C160.537 464.484 161.088 464.73 161.826 464.73C162.541 464.73 163.227 464.438 163.883 463.852C164.551 463.254 165.254 462.451 165.992 461.443V450.141H170.281V468H166.572L166.467 465.363C166.092 465.82 165.711 466.236 165.324 466.611C164.938 466.986 164.516 467.309 164.059 467.578C163.613 467.836 163.121 468.035 162.582 468.176C162.055 468.328 161.469 468.404 160.824 468.404C159.91 468.404 159.107 468.258 158.416 467.965C157.736 467.66 157.168 467.232 156.711 466.682C156.254 466.131 155.908 465.475 155.674 464.713C155.451 463.939 155.34 463.078 155.34 462.129V450.141H159.629ZM190.725 457.699C190.725 457.992 190.713 458.373 190.689 458.842C190.678 459.311 190.654 459.75 190.619 460.16H178.877C178.877 460.945 178.994 461.637 179.229 462.234C179.475 462.832 179.814 463.336 180.248 463.746C180.693 464.145 181.221 464.449 181.83 464.66C182.451 464.871 183.137 464.977 183.887 464.977C184.754 464.977 185.68 464.912 186.664 464.783C187.66 464.643 188.691 464.42 189.758 464.115V467.525C189.301 467.654 188.803 467.771 188.264 467.877C187.725 467.982 187.174 468.076 186.611 468.158C186.049 468.24 185.48 468.299 184.906 468.334C184.332 468.381 183.775 468.404 183.236 468.404C181.877 468.404 180.658 468.211 179.58 467.824C178.502 467.438 177.588 466.869 176.838 466.119C176.088 465.357 175.514 464.42 175.115 463.307C174.717 462.193 174.518 460.904 174.518 459.439C174.518 457.986 174.717 456.668 175.115 455.484C175.514 454.289 176.076 453.27 176.803 452.426C177.529 451.57 178.408 450.914 179.439 450.457C180.482 449.988 181.643 449.754 182.92 449.754C184.186 449.754 185.305 449.953 186.277 450.352C187.25 450.738 188.064 451.283 188.721 451.986C189.377 452.689 189.875 453.527 190.215 454.5C190.555 455.473 190.725 456.539 190.725 457.699ZM186.365 457.084C186.377 456.381 186.289 455.771 186.102 455.256C185.914 454.729 185.656 454.295 185.328 453.955C185.012 453.615 184.637 453.363 184.203 453.199C183.781 453.035 183.324 452.953 182.832 452.953C181.754 452.953 180.869 453.316 180.178 454.043C179.486 454.758 179.076 455.771 178.947 457.084H186.365ZM225.406 468V456.363C225.406 454.406 224.68 453.428 223.227 453.428C222.5 453.428 221.803 453.721 221.135 454.307C220.479 454.893 219.781 455.689 219.043 456.697V468H214.754V450.141H218.463L218.568 452.777C218.932 452.32 219.307 451.904 219.693 451.529C220.092 451.154 220.52 450.838 220.977 450.58C221.434 450.311 221.926 450.105 222.453 449.965C222.98 449.824 223.572 449.754 224.229 449.754C225.143 449.754 225.939 449.906 226.619 450.211C227.299 450.504 227.867 450.926 228.324 451.477C228.781 452.016 229.121 452.672 229.344 453.445C229.578 454.207 229.695 455.062 229.695 456.012V468H225.406ZM250.104 457.699C250.104 457.992 250.092 458.373 250.068 458.842C250.057 459.311 250.033 459.75 249.998 460.16H238.256C238.256 460.945 238.373 461.637 238.607 462.234C238.854 462.832 239.193 463.336 239.627 463.746C240.072 464.145 240.6 464.449 241.209 464.66C241.83 464.871 242.516 464.977 243.266 464.977C244.133 464.977 245.059 464.912 246.043 464.783C247.039 464.643 248.07 464.42 249.137 464.115V467.525C248.68 467.654 248.182 467.771 247.643 467.877C247.104 467.982 246.553 468.076 245.99 468.158C245.428 468.24 244.859 468.299 244.285 468.334C243.711 468.381 243.154 468.404 242.615 468.404C241.256 468.404 240.037 468.211 238.959 467.824C237.881 467.438 236.967 466.869 236.217 466.119C235.467 465.357 234.893 464.42 234.494 463.307C234.096 462.193 233.896 460.904 233.896 459.439C233.896 457.986 234.096 456.668 234.494 455.484C234.893 454.289 235.455 453.27 236.182 452.426C236.908 451.57 237.787 450.914 238.818 450.457C239.861 449.988 241.021 449.754 242.299 449.754C243.564 449.754 244.684 449.953 245.656 450.352C246.629 450.738 247.443 451.283 248.1 451.986C248.756 452.689 249.254 453.527 249.594 454.5C249.934 455.473 250.104 456.539 250.104 457.699ZM245.744 457.084C245.756 456.381 245.668 455.771 245.48 455.256C245.293 454.729 245.035 454.295 244.707 453.955C244.391 453.615 244.016 453.363 243.582 453.199C243.16 453.035 242.703 452.953 242.211 452.953C241.133 452.953 240.248 453.316 239.557 454.043C238.865 454.758 238.455 455.771 238.326 457.084H245.744ZM269.07 462.744C269.07 463.764 268.842 464.637 268.385 465.363C267.939 466.078 267.342 466.664 266.592 467.121C265.854 467.566 265.01 467.889 264.061 468.088C263.123 468.299 262.162 468.404 261.178 468.404C259.865 468.404 258.682 468.34 257.627 468.211C256.572 468.094 255.576 467.918 254.639 467.684V463.816C255.74 464.273 256.836 464.607 257.926 464.818C259.027 465.018 260.064 465.117 261.037 465.117C262.162 465.117 263 464.941 263.551 464.59C264.113 464.227 264.395 463.758 264.395 463.184C264.395 462.914 264.336 462.668 264.219 462.445C264.102 462.223 263.879 462.012 263.551 461.812C263.234 461.602 262.783 461.391 262.197 461.18C261.611 460.957 260.844 460.711 259.895 460.441C259.016 460.195 258.242 459.92 257.574 459.615C256.918 459.299 256.373 458.93 255.939 458.508C255.506 458.086 255.178 457.6 254.955 457.049C254.744 456.486 254.639 455.83 254.639 455.08C254.639 454.354 254.803 453.668 255.131 453.023C255.459 452.379 255.945 451.816 256.59 451.336C257.246 450.844 258.061 450.457 259.033 450.176C260.006 449.895 261.143 449.754 262.443 449.754C263.568 449.754 264.564 449.812 265.432 449.93C266.299 450.047 267.066 450.176 267.734 450.316V453.814C266.715 453.486 265.754 453.258 264.852 453.129C263.961 452.988 263.076 452.918 262.197 452.918C261.318 452.918 260.609 453.076 260.07 453.393C259.543 453.709 259.279 454.148 259.279 454.711C259.279 454.98 259.332 455.221 259.438 455.432C259.543 455.643 259.748 455.848 260.053 456.047C260.369 456.246 260.803 456.457 261.354 456.68C261.916 456.891 262.654 457.125 263.568 457.383C264.6 457.676 265.467 457.992 266.17 458.332C266.873 458.66 267.436 459.035 267.857 459.457C268.291 459.879 268.602 460.359 268.789 460.898C268.977 461.438 269.07 462.053 269.07 462.744ZM288.863 467.824C288.09 468 287.311 468.141 286.525 468.246C285.74 468.352 284.996 468.404 284.293 468.404C283.121 468.404 282.107 468.281 281.252 468.035C280.408 467.789 279.705 467.414 279.143 466.91C278.592 466.406 278.182 465.768 277.912 464.994C277.654 464.209 277.525 463.277 277.525 462.199V453.48H272.727V450.141H277.525V445.57L281.92 444.428V450.141H288.863V453.48H281.92V461.883C281.92 462.902 282.154 463.676 282.623 464.203C283.092 464.719 283.877 464.977 284.979 464.977C285.682 464.977 286.367 464.918 287.035 464.801C287.703 464.684 288.312 464.549 288.863 464.396V467.824ZM309.482 457.699C309.482 457.992 309.471 458.373 309.447 458.842C309.436 459.311 309.412 459.75 309.377 460.16H297.635C297.635 460.945 297.752 461.637 297.986 462.234C298.232 462.832 298.572 463.336 299.006 463.746C299.451 464.145 299.979 464.449 300.588 464.66C301.209 464.871 301.895 464.977 302.645 464.977C303.512 464.977 304.438 464.912 305.422 464.783C306.418 464.643 307.449 464.42 308.516 464.115V467.525C308.059 467.654 307.561 467.771 307.021 467.877C306.482 467.982 305.932 468.076 305.369 468.158C304.807 468.24 304.238 468.299 303.664 468.334C303.09 468.381 302.533 468.404 301.994 468.404C300.635 468.404 299.416 468.211 298.338 467.824C297.26 467.438 296.346 466.869 295.596 466.119C294.846 465.357 294.271 464.42 293.873 463.307C293.475 462.193 293.275 460.904 293.275 459.439C293.275 457.986 293.475 456.668 293.873 455.484C294.271 454.289 294.834 453.27 295.561 452.426C296.287 451.57 297.166 450.914 298.197 450.457C299.24 449.988 300.4 449.754 301.678 449.754C302.943 449.754 304.062 449.953 305.035 450.352C306.008 450.738 306.822 451.283 307.479 451.986C308.135 452.689 308.633 453.527 308.973 454.5C309.312 455.473 309.482 456.539 309.482 457.699ZM305.123 457.084C305.135 456.381 305.047 455.771 304.859 455.256C304.672 454.729 304.414 454.295 304.086 453.955C303.77 453.615 303.395 453.363 302.961 453.199C302.539 453.035 302.082 452.953 301.59 452.953C300.512 452.953 299.627 453.316 298.936 454.043C298.244 454.758 297.834 455.771 297.705 457.084H305.123ZM346.115 468V455.836C346.115 455.391 346.104 455.004 346.08 454.676C346.057 454.336 346.01 454.055 345.939 453.832C345.869 453.609 345.764 453.445 345.623 453.34C345.494 453.223 345.312 453.164 345.078 453.164C344.715 453.164 344.357 453.41 344.006 453.902C343.654 454.395 343.256 455.232 342.811 456.416V468H339.137V455.836C339.137 455.391 339.125 455.004 339.102 454.676C339.078 454.336 339.031 454.055 338.961 453.832C338.891 453.609 338.785 453.445 338.645 453.34C338.504 453.223 338.316 453.164 338.082 453.164C337.777 453.164 337.438 453.41 337.062 453.902C336.688 454.395 336.271 455.232 335.814 456.416V468H332.105V450.141H335.287L335.357 452.742C335.615 452.215 335.873 451.764 336.131 451.389C336.389 451.014 336.664 450.709 336.957 450.475C337.25 450.229 337.561 450.053 337.889 449.947C338.229 449.842 338.609 449.789 339.031 449.789C340.027 449.789 340.783 450.053 341.299 450.58C341.826 451.096 342.125 451.816 342.195 452.742C342.477 452.215 342.752 451.764 343.021 451.389C343.303 451.014 343.59 450.709 343.883 450.475C344.188 450.229 344.51 450.053 344.85 449.947C345.201 449.842 345.588 449.789 346.01 449.789C347.311 449.789 348.271 450.246 348.893 451.16C349.514 452.062 349.824 453.404 349.824 455.186V468H346.115ZM368.861 457.699C368.861 457.992 368.85 458.373 368.826 458.842C368.814 459.311 368.791 459.75 368.756 460.16H357.014C357.014 460.945 357.131 461.637 357.365 462.234C357.611 462.832 357.951 463.336 358.385 463.746C358.83 464.145 359.357 464.449 359.967 464.66C360.588 464.871 361.273 464.977 362.023 464.977C362.891 464.977 363.816 464.912 364.801 464.783C365.797 464.643 366.828 464.42 367.895 464.115V467.525C367.438 467.654 366.939 467.771 366.4 467.877C365.861 467.982 365.311 468.076 364.748 468.158C364.186 468.24 363.617 468.299 363.043 468.334C362.469 468.381 361.912 468.404 361.373 468.404C360.014 468.404 358.795 468.211 357.717 467.824C356.639 467.438 355.725 466.869 354.975 466.119C354.225 465.357 353.65 464.42 353.252 463.307C352.854 462.193 352.654 460.904 352.654 459.439C352.654 457.986 352.854 456.668 353.252 455.484C353.65 454.289 354.213 453.27 354.939 452.426C355.666 451.57 356.545 450.914 357.576 450.457C358.619 449.988 359.779 449.754 361.057 449.754C362.322 449.754 363.441 449.953 364.414 450.352C365.387 450.738 366.201 451.283 366.857 451.986C367.514 452.689 368.012 453.527 368.352 454.5C368.691 455.473 368.861 456.539 368.861 457.699ZM364.502 457.084C364.514 456.381 364.426 455.771 364.238 455.256C364.051 454.729 363.793 454.295 363.465 453.955C363.148 453.615 362.773 453.363 362.34 453.199C361.918 453.035 361.461 452.953 360.969 452.953C359.891 452.953 359.006 453.316 358.314 454.043C357.623 454.758 357.213 455.771 357.084 457.084H364.502ZM383.75 468V456.363C383.75 454.406 383.023 453.428 381.57 453.428C380.844 453.428 380.146 453.721 379.479 454.307C378.822 454.893 378.125 455.689 377.387 456.697V468H373.098V450.141H376.807L376.912 452.777C377.275 452.32 377.65 451.904 378.037 451.529C378.436 451.154 378.863 450.838 379.32 450.58C379.777 450.311 380.27 450.105 380.797 449.965C381.324 449.824 381.916 449.754 382.572 449.754C383.486 449.754 384.283 449.906 384.963 450.211C385.643 450.504 386.211 450.926 386.668 451.477C387.125 452.016 387.465 452.672 387.688 453.445C387.922 454.207 388.039 455.062 388.039 456.012V468H383.75ZM397.145 450.141V461.777C397.145 462.75 397.326 463.488 397.689 463.992C398.053 464.484 398.604 464.73 399.342 464.73C400.057 464.73 400.742 464.438 401.398 463.852C402.066 463.254 402.77 462.451 403.508 461.443V450.141H407.797V468H404.088L403.982 465.363C403.607 465.82 403.227 466.236 402.84 466.611C402.453 466.986 402.031 467.309 401.574 467.578C401.129 467.836 400.637 468.035 400.098 468.176C399.57 468.328 398.984 468.404 398.34 468.404C397.426 468.404 396.623 468.258 395.932 467.965C395.252 467.66 394.684 467.232 394.227 466.682C393.77 466.131 393.424 465.475 393.189 464.713C392.967 463.939 392.855 463.078 392.855 462.129V450.141H397.145ZM180.934 488.502H175.889V485.162H185.328V506.66H190.479V510H175.273V506.66H180.934V488.502ZM206.158 510L206.053 507.662C205.678 508.061 205.285 508.43 204.875 508.77C204.465 509.098 204.014 509.385 203.521 509.631C203.029 509.877 202.49 510.064 201.904 510.193C201.33 510.334 200.697 510.404 200.006 510.404C199.092 510.404 198.289 510.27 197.598 510C196.906 509.73 196.326 509.355 195.857 508.875C195.389 508.395 195.031 507.814 194.785 507.135C194.551 506.455 194.434 505.705 194.434 504.885C194.434 504.041 194.609 503.262 194.961 502.547C195.324 501.832 195.869 501.217 196.596 500.701C197.334 500.186 198.248 499.781 199.338 499.488C200.439 499.195 201.729 499.049 203.205 499.049H205.543V497.977C205.543 497.52 205.479 497.109 205.35 496.746C205.221 496.371 205.01 496.055 204.717 495.797C204.436 495.539 204.066 495.34 203.609 495.199C203.152 495.059 202.59 494.988 201.922 494.988C200.867 494.988 199.824 495.111 198.793 495.357C197.773 495.592 196.783 495.926 195.822 496.359V492.932C196.678 492.592 197.662 492.311 198.775 492.088C199.9 491.865 201.066 491.754 202.273 491.754C203.598 491.754 204.734 491.883 205.684 492.141C206.633 492.387 207.412 492.762 208.021 493.266C208.643 493.77 209.1 494.402 209.393 495.164C209.686 495.914 209.832 496.793 209.832 497.801V510H206.158ZM205.543 502.107H202.924C202.197 502.107 201.582 502.178 201.078 502.318C200.574 502.459 200.164 502.652 199.848 502.898C199.531 503.145 199.297 503.432 199.145 503.76C199.004 504.076 198.934 504.416 198.934 504.779C198.934 505.506 199.168 506.062 199.637 506.449C200.105 506.824 200.744 507.012 201.553 507.012C202.15 507.012 202.771 506.795 203.416 506.361C204.061 505.928 204.77 505.307 205.543 504.498V502.107ZM229.484 509.824C228.711 510 227.932 510.141 227.146 510.246C226.361 510.352 225.617 510.404 224.914 510.404C223.742 510.404 222.729 510.281 221.873 510.035C221.029 509.789 220.326 509.414 219.764 508.91C219.213 508.406 218.803 507.768 218.533 506.994C218.275 506.209 218.146 505.277 218.146 504.199V495.48H213.348V492.141H218.146V487.57L222.541 486.428V492.141H229.484V495.48H222.541V503.883C222.541 504.902 222.775 505.676 223.244 506.203C223.713 506.719 224.498 506.977 225.6 506.977C226.303 506.977 226.988 506.918 227.656 506.801C228.324 506.684 228.934 506.549 229.484 506.396V509.824ZM250.104 499.699C250.104 499.992 250.092 500.373 250.068 500.842C250.057 501.311 250.033 501.75 249.998 502.16H238.256C238.256 502.945 238.373 503.637 238.607 504.234C238.854 504.832 239.193 505.336 239.627 505.746C240.072 506.145 240.6 506.449 241.209 506.66C241.83 506.871 242.516 506.977 243.266 506.977C244.133 506.977 245.059 506.912 246.043 506.783C247.039 506.643 248.07 506.42 249.137 506.115V509.525C248.68 509.654 248.182 509.771 247.643 509.877C247.104 509.982 246.553 510.076 245.99 510.158C245.428 510.24 244.859 510.299 244.285 510.334C243.711 510.381 243.154 510.404 242.615 510.404C241.256 510.404 240.037 510.211 238.959 509.824C237.881 509.438 236.967 508.869 236.217 508.119C235.467 507.357 234.893 506.42 234.494 505.307C234.096 504.193 233.896 502.904 233.896 501.439C233.896 499.986 234.096 498.668 234.494 497.484C234.893 496.289 235.455 495.27 236.182 494.426C236.908 493.57 237.787 492.914 238.818 492.457C239.861 491.988 241.021 491.754 242.299 491.754C243.564 491.754 244.684 491.953 245.656 492.352C246.629 492.738 247.443 493.283 248.1 493.986C248.756 494.689 249.254 495.527 249.594 496.5C249.934 497.473 250.104 498.539 250.104 499.699ZM245.744 499.084C245.756 498.381 245.668 497.771 245.48 497.256C245.293 496.729 245.035 496.295 244.707 495.955C244.391 495.615 244.016 495.363 243.582 495.199C243.16 495.035 242.703 494.953 242.211 494.953C241.133 494.953 240.248 495.316 239.557 496.043C238.865 496.758 238.455 497.771 238.326 499.084H245.744ZM265.836 499.084C265.859 498.416 265.824 497.848 265.73 497.379C265.648 496.91 265.508 496.523 265.309 496.219C265.121 495.914 264.887 495.691 264.605 495.551C264.324 495.41 264.002 495.34 263.639 495.34C263.006 495.34 262.35 495.604 261.67 496.131C261.002 496.646 260.264 497.502 259.455 498.697V510H255.061V492.141H258.945L259.104 494.742C259.396 494.285 259.725 493.875 260.088 493.512C260.463 493.148 260.873 492.838 261.318 492.58C261.775 492.311 262.279 492.105 262.83 491.965C263.381 491.824 263.984 491.754 264.641 491.754C265.543 491.754 266.34 491.912 267.031 492.229C267.734 492.533 268.32 492.99 268.789 493.6C269.27 494.209 269.621 494.977 269.844 495.902C270.078 496.816 270.178 497.877 270.143 499.084H265.836ZM285.33 510L285.225 507.662C284.85 508.061 284.457 508.43 284.047 508.77C283.637 509.098 283.186 509.385 282.693 509.631C282.201 509.877 281.662 510.064 281.076 510.193C280.502 510.334 279.869 510.404 279.178 510.404C278.264 510.404 277.461 510.27 276.77 510C276.078 509.73 275.498 509.355 275.029 508.875C274.561 508.395 274.203 507.814 273.957 507.135C273.723 506.455 273.605 505.705 273.605 504.885C273.605 504.041 273.781 503.262 274.133 502.547C274.496 501.832 275.041 501.217 275.768 500.701C276.506 500.186 277.42 499.781 278.51 499.488C279.611 499.195 280.9 499.049 282.377 499.049H284.715V497.977C284.715 497.52 284.65 497.109 284.521 496.746C284.393 496.371 284.182 496.055 283.889 495.797C283.607 495.539 283.238 495.34 282.781 495.199C282.324 495.059 281.762 494.988 281.094 494.988C280.039 494.988 278.996 495.111 277.965 495.357C276.945 495.592 275.955 495.926 274.994 496.359V492.932C275.85 492.592 276.834 492.311 277.947 492.088C279.072 491.865 280.238 491.754 281.445 491.754C282.77 491.754 283.906 491.883 284.855 492.141C285.805 492.387 286.584 492.762 287.193 493.266C287.814 493.77 288.271 494.402 288.564 495.164C288.857 495.914 289.004 496.793 289.004 497.801V510H285.33ZM284.715 502.107H282.096C281.369 502.107 280.754 502.178 280.25 502.318C279.746 502.459 279.336 502.652 279.02 502.898C278.703 503.145 278.469 503.432 278.316 503.76C278.176 504.076 278.105 504.416 278.105 504.779C278.105 505.506 278.34 506.062 278.809 506.449C279.277 506.824 279.916 507.012 280.725 507.012C281.322 507.012 281.943 506.795 282.588 506.361C283.232 505.928 283.941 505.307 284.715 504.498V502.107ZM299.691 488.502H294.646V485.162H304.086V506.66H309.236V510H294.031V506.66H299.691V488.502Z" fill="white"/>
<path d="M907.294 347.445C918.481 426.713 910.508 572.45 836.523 572.45C762.538 572.45 625.826 432.279 625.826 361.411C625.826 290.542 657.041 221.442 731.026 221.442C807.439 205.925 868.515 235.098 907.294 347.445Z" fill="url(#paint1_linear_894_581)"/>
<ellipse cx="673.936" cy="77.768" rx="33.8095" ry="76.7302" transform="rotate(45.7342 673.936 77.768)" fill="url(#paint2_linear_894_581)"/>
<rect x="557.631" y="102.415" width="250.069" height="198.424" rx="99.212" transform="rotate(-5.99249 557.631 102.415)" fill="url(#paint3_linear_894_581)"/>
<path d="M568.614 207.015C565.438 171.544 592.297 140.503 627.857 138.549L712.117 133.918C744.501 132.138 772.589 156.069 775.975 188.324V188.324C779.484 221.748 755.233 251.687 721.809 255.195L637.883 264.005C602.933 267.674 571.748 242.017 568.614 207.015V207.015Z" fill="#100051"/>
<ellipse cx="807.713" cy="91.6169" rx="33.8089" ry="76.7286" transform="rotate(23.9925 807.713 91.6169)" fill="url(#paint4_linear_894_581)"/>
<ellipse cx="491.641" cy="263.54" rx="40.3636" ry="88.9216" transform="rotate(-64.6579 491.641 263.54)" fill="url(#paint5_linear_894_581)"/>
<path d="M600.846 183.726C601.353 179.641 604.784 176.588 608.894 176.347V176.347C614.322 176.027 618.716 180.646 618.352 186.071C617.47 199.218 617.979 209.109 620.328 221.338C621.333 226.572 617.623 231.62 612.303 231.933V231.933C608.159 232.177 604.422 229.408 603.525 225.355C600.163 210.154 598.913 199.275 600.846 183.726Z" fill="#00FFD1"/>
<path d="M689.067 172.702C689.575 168.616 693.006 165.564 697.116 165.322V165.322C702.543 165.003 706.938 169.622 706.574 175.047C705.692 188.194 706.201 198.084 708.549 210.314C709.555 215.548 705.845 220.596 700.525 220.909V220.909C696.381 221.152 692.643 218.384 691.747 214.331C688.384 199.129 687.135 188.25 689.067 172.702Z" fill="#00FFD1"/>
<line x1="599.475" y1="192.559" x2="625.333" y2="191.039" stroke="#100051" stroke-width="5"/>
<line x1="688.951" y1="202.868" x2="714.809" y2="201.348" stroke="#100051" stroke-width="5"/>
<line x1="682.64" y1="183.779" x2="708.498" y2="182.259" stroke="#100051" stroke-width="5"/>
<line x1="600.615" y1="211.953" x2="626.473" y2="210.433" stroke="#100051" stroke-width="5"/>
<circle cx="757.606" cy="322.812" r="6.79945" fill="#00DEB6"/>
<circle cx="764.729" cy="345.477" r="6.79945" fill="#00DEB6"/>
<rect x="719.723" y="327.385" width="25.9027" height="10.3611" rx="5.18053" transform="rotate(-13.8293 719.723 327.385)" fill="white"/>
<rect x="730.817" y="346.492" width="19.1463" height="10.3611" rx="5.18053" transform="rotate(-13.8293 730.817 346.492)" fill="white"/>
<ellipse cx="930.272" cy="348.926" rx="40.3636" ry="93.4904" transform="rotate(-46.7092 930.272 348.926)" fill="url(#paint6_linear_894_581)"/>
<defs>
<radialGradient id="paint0_radial_894_581" cx="0" cy="0" r="1" gradientUnits="userSpaceOnUse" gradientTransform="translate(844 681.5) rotate(89.9999) scale(28 135.348)">
<stop stop-color="#9F9F9F"/>
<stop offset="1" stop-color="#D9D9D9" stop-opacity="0"/>
</radialGradient>
<linearGradient id="paint1_linear_894_581" x1="841.465" y1="204.955" x2="554.917" y2="440.346" gradientUnits="userSpaceOnUse">
<stop stop-color="#E8AA14"/>
<stop offset="1" stop-color="#F96800"/>
</linearGradient>
<linearGradient id="paint2_linear_894_581" x1="673.936" y1="1.03783" x2="673.936" y2="154.498" gradientUnits="userSpaceOnUse">
<stop stop-color="#E8AA14"/>
<stop offset="1" stop-color="#F96800"/>
</linearGradient>
<linearGradient id="paint3_linear_894_581" x1="804.953" y1="102.231" x2="554.642" y2="294.082" gradientUnits="userSpaceOnUse">
<stop stop-color="#E8AA14"/>
<stop offset="1" stop-color="#F96800"/>
</linearGradient>
<linearGradient id="paint4_linear_894_581" x1="813.295" y1="56.1874" x2="733.345" y2="61.292" gradientUnits="userSpaceOnUse">
<stop stop-color="#E8AA14"/>
<stop offset="1" stop-color="#F96800"/>
</linearGradient>
<linearGradient id="paint5_linear_894_581" x1="443.091" y1="305.493" x2="578.671" y2="133.057" gradientUnits="userSpaceOnUse">
<stop stop-color="#F9A400"/>
<stop offset="1" stop-color="#FFD878"/>
</linearGradient>
<linearGradient id="paint6_linear_894_581" x1="889.734" y1="379.834" x2="998.534" y2="335.571" gradientUnits="userSpaceOnUse">
<stop stop-color="#F9A400"/>
<stop offset="1" stop-color="#FFD878"/>
</linearGradient>
</defs>
</svg>
