<svg width="1160" height="729" viewBox="0 0 1160 729" fill="none" xmlns="http://www.w3.org/2000/svg">
<ellipse cx="840" cy="683.5" rx="320" ry="45.5" fill="url(#paint0_radial_894_580)"/>
<ellipse cx="243.5" cy="376" rx="243.5" ry="173" fill="#9747FF"/>
<path d="M451 414.5L577.5 414.501L420.5 476.499L451 414.5Z" fill="#9747FF"/>
<path d="M111.869 316.338C111.869 317.533 111.67 318.641 111.271 319.66C110.873 320.668 110.281 321.541 109.496 322.279C108.711 323.018 107.732 323.592 106.561 324.002C105.389 324.412 104.029 324.617 102.482 324.617H100.285V332H95.9258V309.025H102.658C104.146 309.025 105.459 309.189 106.596 309.518C107.744 309.834 108.705 310.303 109.479 310.924C110.264 311.545 110.855 312.312 111.254 313.227C111.664 314.129 111.869 315.166 111.869 316.338ZM107.334 316.637C107.334 316.027 107.234 315.477 107.035 314.984C106.848 314.48 106.555 314.053 106.156 313.701C105.77 313.35 105.277 313.08 104.68 312.893C104.082 312.705 103.373 312.611 102.553 312.611H100.285V321.031H102.693C103.443 321.031 104.105 320.932 104.68 320.732C105.254 320.521 105.734 320.223 106.121 319.836C106.52 319.449 106.818 318.986 107.018 318.447C107.229 317.908 107.334 317.305 107.334 316.637ZM126.986 332L126.881 329.662C126.506 330.061 126.113 330.43 125.703 330.77C125.293 331.098 124.842 331.385 124.35 331.631C123.857 331.877 123.318 332.064 122.732 332.193C122.158 332.334 121.525 332.404 120.834 332.404C119.92 332.404 119.117 332.27 118.426 332C117.734 331.73 117.154 331.355 116.686 330.875C116.217 330.395 115.859 329.814 115.613 329.135C115.379 328.455 115.262 327.705 115.262 326.885C115.262 326.041 115.438 325.262 115.789 324.547C116.152 323.832 116.697 323.217 117.424 322.701C118.162 322.186 119.076 321.781 120.166 321.488C121.268 321.195 122.557 321.049 124.033 321.049H126.371V319.977C126.371 319.52 126.307 319.109 126.178 318.746C126.049 318.371 125.838 318.055 125.545 317.797C125.264 317.539 124.895 317.34 124.438 317.199C123.98 317.059 123.418 316.988 122.75 316.988C121.695 316.988 120.652 317.111 119.621 317.357C118.602 317.592 117.611 317.926 116.65 318.359V314.932C117.506 314.592 118.49 314.311 119.604 314.088C120.729 313.865 121.895 313.754 123.102 313.754C124.426 313.754 125.562 313.883 126.512 314.141C127.461 314.387 128.24 314.762 128.85 315.266C129.471 315.77 129.928 316.402 130.221 317.164C130.514 317.914 130.66 318.793 130.66 319.801V332H126.986ZM126.371 324.107H123.752C123.025 324.107 122.41 324.178 121.906 324.318C121.402 324.459 120.992 324.652 120.676 324.898C120.359 325.145 120.125 325.432 119.973 325.76C119.832 326.076 119.762 326.416 119.762 326.779C119.762 327.506 119.996 328.062 120.465 328.449C120.934 328.824 121.572 329.012 122.381 329.012C122.979 329.012 123.6 328.795 124.244 328.361C124.889 327.928 125.598 327.307 126.371 326.498V324.107ZM147.078 321.084C147.102 320.416 147.066 319.848 146.973 319.379C146.891 318.91 146.75 318.523 146.551 318.219C146.363 317.914 146.129 317.691 145.848 317.551C145.566 317.41 145.244 317.34 144.881 317.34C144.248 317.34 143.592 317.604 142.912 318.131C142.244 318.646 141.506 319.502 140.697 320.697V332H136.303V314.141H140.188L140.346 316.742C140.639 316.285 140.967 315.875 141.33 315.512C141.705 315.148 142.115 314.838 142.561 314.58C143.018 314.311 143.521 314.105 144.072 313.965C144.623 313.824 145.227 313.754 145.883 313.754C146.785 313.754 147.582 313.912 148.273 314.229C148.977 314.533 149.562 314.99 150.031 315.6C150.512 316.209 150.863 316.977 151.086 317.902C151.32 318.816 151.42 319.877 151.385 321.084H147.078ZM166.572 332L166.467 329.662C166.092 330.061 165.699 330.43 165.289 330.77C164.879 331.098 164.428 331.385 163.936 331.631C163.443 331.877 162.904 332.064 162.318 332.193C161.744 332.334 161.111 332.404 160.42 332.404C159.506 332.404 158.703 332.27 158.012 332C157.32 331.73 156.74 331.355 156.271 330.875C155.803 330.395 155.445 329.814 155.199 329.135C154.965 328.455 154.848 327.705 154.848 326.885C154.848 326.041 155.023 325.262 155.375 324.547C155.738 323.832 156.283 323.217 157.01 322.701C157.748 322.186 158.662 321.781 159.752 321.488C160.854 321.195 162.143 321.049 163.619 321.049H165.957V319.977C165.957 319.52 165.893 319.109 165.764 318.746C165.635 318.371 165.424 318.055 165.131 317.797C164.85 317.539 164.48 317.34 164.023 317.199C163.566 317.059 163.004 316.988 162.336 316.988C161.281 316.988 160.238 317.111 159.207 317.357C158.188 317.592 157.197 317.926 156.236 318.359V314.932C157.092 314.592 158.076 314.311 159.189 314.088C160.314 313.865 161.48 313.754 162.688 313.754C164.012 313.754 165.148 313.883 166.098 314.141C167.047 314.387 167.826 314.762 168.436 315.266C169.057 315.77 169.514 316.402 169.807 317.164C170.1 317.914 170.246 318.793 170.246 319.801V332H166.572ZM165.957 324.107H163.338C162.611 324.107 161.996 324.178 161.492 324.318C160.988 324.459 160.578 324.652 160.262 324.898C159.945 325.145 159.711 325.432 159.559 325.76C159.418 326.076 159.348 326.416 159.348 326.779C159.348 327.506 159.582 328.062 160.051 328.449C160.52 328.824 161.158 329.012 161.967 329.012C162.564 329.012 163.186 328.795 163.83 328.361C164.475 327.928 165.184 327.307 165.957 326.498V324.107ZM206.158 332L206.053 329.662C205.678 330.061 205.285 330.43 204.875 330.77C204.465 331.098 204.014 331.385 203.521 331.631C203.029 331.877 202.49 332.064 201.904 332.193C201.33 332.334 200.697 332.404 200.006 332.404C199.092 332.404 198.289 332.27 197.598 332C196.906 331.73 196.326 331.355 195.857 330.875C195.389 330.395 195.031 329.814 194.785 329.135C194.551 328.455 194.434 327.705 194.434 326.885C194.434 326.041 194.609 325.262 194.961 324.547C195.324 323.832 195.869 323.217 196.596 322.701C197.334 322.186 198.248 321.781 199.338 321.488C200.439 321.195 201.729 321.049 203.205 321.049H205.543V319.977C205.543 319.52 205.479 319.109 205.35 318.746C205.221 318.371 205.01 318.055 204.717 317.797C204.436 317.539 204.066 317.34 203.609 317.199C203.152 317.059 202.59 316.988 201.922 316.988C200.867 316.988 199.824 317.111 198.793 317.357C197.773 317.592 196.783 317.926 195.822 318.359V314.932C196.678 314.592 197.662 314.311 198.775 314.088C199.9 313.865 201.066 313.754 202.273 313.754C203.598 313.754 204.734 313.883 205.684 314.141C206.633 314.387 207.412 314.762 208.021 315.266C208.643 315.77 209.1 316.402 209.393 317.164C209.686 317.914 209.832 318.793 209.832 319.801V332H206.158ZM205.543 324.107H202.924C202.197 324.107 201.582 324.178 201.078 324.318C200.574 324.459 200.164 324.652 199.848 324.898C199.531 325.145 199.297 325.432 199.145 325.76C199.004 326.076 198.934 326.416 198.934 326.779C198.934 327.506 199.168 328.062 199.637 328.449C200.105 328.824 200.744 329.012 201.553 329.012C202.15 329.012 202.771 328.795 203.416 328.361C204.061 327.928 204.77 327.307 205.543 326.498V324.107ZM229.203 331.314C228.359 331.654 227.486 331.906 226.584 332.07C225.682 332.234 224.738 332.316 223.754 332.316C222.336 332.316 221.064 332.123 219.939 331.736C218.814 331.35 217.859 330.775 217.074 330.014C216.289 329.252 215.686 328.309 215.264 327.184C214.854 326.059 214.648 324.758 214.648 323.281C214.648 321.852 214.871 320.557 215.316 319.396C215.773 318.236 216.412 317.246 217.232 316.426C218.053 315.605 219.037 314.973 220.186 314.527C221.346 314.082 222.635 313.859 224.053 313.859C225.213 313.859 226.186 313.924 226.971 314.053C227.768 314.17 228.482 314.322 229.115 314.51V318.676C228.389 318.312 227.598 318.031 226.742 317.832C225.898 317.633 225.096 317.533 224.334 317.533C223.537 317.533 222.822 317.668 222.189 317.938C221.557 318.207 221.023 318.582 220.59 319.062C220.156 319.543 219.822 320.129 219.588 320.82C219.365 321.5 219.254 322.25 219.254 323.07C219.254 323.926 219.377 324.693 219.623 325.373C219.869 326.053 220.215 326.633 220.66 327.113C221.117 327.582 221.662 327.945 222.295 328.203C222.928 328.449 223.631 328.572 224.404 328.572C224.779 328.572 225.172 328.549 225.582 328.502C226.004 328.443 226.42 328.367 226.83 328.273C227.252 328.168 227.662 328.051 228.061 327.922C228.471 327.793 228.852 327.652 229.203 327.5V331.314ZM250.104 321.699C250.104 321.992 250.092 322.373 250.068 322.842C250.057 323.311 250.033 323.75 249.998 324.16H238.256C238.256 324.945 238.373 325.637 238.607 326.234C238.854 326.832 239.193 327.336 239.627 327.746C240.072 328.145 240.6 328.449 241.209 328.66C241.83 328.871 242.516 328.977 243.266 328.977C244.133 328.977 245.059 328.912 246.043 328.783C247.039 328.643 248.07 328.42 249.137 328.115V331.525C248.68 331.654 248.182 331.771 247.643 331.877C247.104 331.982 246.553 332.076 245.99 332.158C245.428 332.24 244.859 332.299 244.285 332.334C243.711 332.381 243.154 332.404 242.615 332.404C241.256 332.404 240.037 332.211 238.959 331.824C237.881 331.438 236.967 330.869 236.217 330.119C235.467 329.357 234.893 328.42 234.494 327.307C234.096 326.193 233.896 324.904 233.896 323.439C233.896 321.986 234.096 320.668 234.494 319.484C234.893 318.289 235.455 317.27 236.182 316.426C236.908 315.57 237.787 314.914 238.818 314.457C239.861 313.988 241.021 313.754 242.299 313.754C243.564 313.754 244.684 313.953 245.656 314.352C246.629 314.738 247.443 315.283 248.1 315.986C248.756 316.689 249.254 317.527 249.594 318.5C249.934 319.473 250.104 320.539 250.104 321.699ZM245.744 321.084C245.756 320.381 245.668 319.771 245.48 319.256C245.293 318.729 245.035 318.295 244.707 317.955C244.391 317.615 244.016 317.363 243.582 317.199C243.16 317.035 242.703 316.953 242.211 316.953C241.133 316.953 240.248 317.316 239.557 318.043C238.865 318.758 238.455 319.771 238.326 321.084H245.744ZM269.07 326.744C269.07 327.764 268.842 328.637 268.385 329.363C267.939 330.078 267.342 330.664 266.592 331.121C265.854 331.566 265.01 331.889 264.061 332.088C263.123 332.299 262.162 332.404 261.178 332.404C259.865 332.404 258.682 332.34 257.627 332.211C256.572 332.094 255.576 331.918 254.639 331.684V327.816C255.74 328.273 256.836 328.607 257.926 328.818C259.027 329.018 260.064 329.117 261.037 329.117C262.162 329.117 263 328.941 263.551 328.59C264.113 328.227 264.395 327.758 264.395 327.184C264.395 326.914 264.336 326.668 264.219 326.445C264.102 326.223 263.879 326.012 263.551 325.812C263.234 325.602 262.783 325.391 262.197 325.18C261.611 324.957 260.844 324.711 259.895 324.441C259.016 324.195 258.242 323.92 257.574 323.615C256.918 323.299 256.373 322.93 255.939 322.508C255.506 322.086 255.178 321.6 254.955 321.049C254.744 320.486 254.639 319.83 254.639 319.08C254.639 318.354 254.803 317.668 255.131 317.023C255.459 316.379 255.945 315.816 256.59 315.336C257.246 314.844 258.061 314.457 259.033 314.176C260.006 313.895 261.143 313.754 262.443 313.754C263.568 313.754 264.564 313.812 265.432 313.93C266.299 314.047 267.066 314.176 267.734 314.316V317.814C266.715 317.486 265.754 317.258 264.852 317.129C263.961 316.988 263.076 316.918 262.197 316.918C261.318 316.918 260.609 317.076 260.07 317.393C259.543 317.709 259.279 318.148 259.279 318.711C259.279 318.98 259.332 319.221 259.438 319.432C259.543 319.643 259.748 319.848 260.053 320.047C260.369 320.246 260.803 320.457 261.354 320.68C261.916 320.891 262.654 321.125 263.568 321.383C264.6 321.676 265.467 321.992 266.17 322.332C266.873 322.66 267.436 323.035 267.857 323.457C268.291 323.879 268.602 324.359 268.789 324.898C268.977 325.438 269.07 326.053 269.07 326.744ZM288.863 326.744C288.863 327.764 288.635 328.637 288.178 329.363C287.732 330.078 287.135 330.664 286.385 331.121C285.646 331.566 284.803 331.889 283.854 332.088C282.916 332.299 281.955 332.404 280.971 332.404C279.658 332.404 278.475 332.34 277.42 332.211C276.365 332.094 275.369 331.918 274.432 331.684V327.816C275.533 328.273 276.629 328.607 277.719 328.818C278.82 329.018 279.857 329.117 280.83 329.117C281.955 329.117 282.793 328.941 283.344 328.59C283.906 328.227 284.188 327.758 284.188 327.184C284.188 326.914 284.129 326.668 284.012 326.445C283.895 326.223 283.672 326.012 283.344 325.812C283.027 325.602 282.576 325.391 281.99 325.18C281.404 324.957 280.637 324.711 279.688 324.441C278.809 324.195 278.035 323.92 277.367 323.615C276.711 323.299 276.166 322.93 275.732 322.508C275.299 322.086 274.971 321.6 274.748 321.049C274.537 320.486 274.432 319.83 274.432 319.08C274.432 318.354 274.596 317.668 274.924 317.023C275.252 316.379 275.738 315.816 276.383 315.336C277.039 314.844 277.854 314.457 278.826 314.176C279.799 313.895 280.936 313.754 282.236 313.754C283.361 313.754 284.357 313.812 285.225 313.93C286.092 314.047 286.859 314.176 287.527 314.316V317.814C286.508 317.486 285.547 317.258 284.645 317.129C283.754 316.988 282.869 316.918 281.99 316.918C281.111 316.918 280.402 317.076 279.863 317.393C279.336 317.709 279.072 318.148 279.072 318.711C279.072 318.98 279.125 319.221 279.23 319.432C279.336 319.643 279.541 319.848 279.846 320.047C280.162 320.246 280.596 320.457 281.146 320.68C281.709 320.891 282.447 321.125 283.361 321.383C284.393 321.676 285.26 321.992 285.963 322.332C286.666 322.66 287.229 323.035 287.65 323.457C288.084 323.879 288.395 324.359 288.582 324.898C288.77 325.438 288.863 326.053 288.863 326.744ZM305.123 332L305.018 329.662C304.643 330.061 304.25 330.43 303.84 330.77C303.43 331.098 302.979 331.385 302.486 331.631C301.994 331.877 301.455 332.064 300.869 332.193C300.295 332.334 299.662 332.404 298.971 332.404C298.057 332.404 297.254 332.27 296.562 332C295.871 331.73 295.291 331.355 294.822 330.875C294.354 330.395 293.996 329.814 293.75 329.135C293.516 328.455 293.398 327.705 293.398 326.885C293.398 326.041 293.574 325.262 293.926 324.547C294.289 323.832 294.834 323.217 295.561 322.701C296.299 322.186 297.213 321.781 298.303 321.488C299.404 321.195 300.693 321.049 302.17 321.049H304.508V319.977C304.508 319.52 304.443 319.109 304.314 318.746C304.186 318.371 303.975 318.055 303.682 317.797C303.4 317.539 303.031 317.34 302.574 317.199C302.117 317.059 301.555 316.988 300.887 316.988C299.832 316.988 298.789 317.111 297.758 317.357C296.738 317.592 295.748 317.926 294.787 318.359V314.932C295.643 314.592 296.627 314.311 297.74 314.088C298.865 313.865 300.031 313.754 301.238 313.754C302.562 313.754 303.699 313.883 304.648 314.141C305.598 314.387 306.377 314.762 306.986 315.266C307.607 315.77 308.064 316.402 308.357 317.164C308.65 317.914 308.797 318.793 308.797 319.801V332H305.123ZM304.508 324.107H301.889C301.162 324.107 300.547 324.178 300.043 324.318C299.539 324.459 299.129 324.652 298.812 324.898C298.496 325.145 298.262 325.432 298.109 325.76C297.969 326.076 297.898 326.416 297.898 326.779C297.898 327.506 298.133 328.062 298.602 328.449C299.07 328.824 299.709 329.012 300.518 329.012C301.115 329.012 301.736 328.795 302.381 328.361C303.025 327.928 303.734 327.307 304.508 326.498V324.107ZM325.215 321.084C325.238 320.416 325.203 319.848 325.109 319.379C325.027 318.91 324.887 318.523 324.688 318.219C324.5 317.914 324.266 317.691 323.984 317.551C323.703 317.41 323.381 317.34 323.018 317.34C322.385 317.34 321.729 317.604 321.049 318.131C320.381 318.646 319.643 319.502 318.834 320.697V332H314.439V314.141H318.324L318.482 316.742C318.775 316.285 319.104 315.875 319.467 315.512C319.842 315.148 320.252 314.838 320.697 314.58C321.154 314.311 321.658 314.105 322.209 313.965C322.76 313.824 323.363 313.754 324.02 313.754C324.922 313.754 325.719 313.912 326.41 314.229C327.113 314.533 327.699 314.99 328.168 315.6C328.648 316.209 329 316.977 329.223 317.902C329.457 318.816 329.557 319.877 329.521 321.084H325.215ZM364.502 332L364.396 329.662C364.021 330.061 363.629 330.43 363.219 330.77C362.809 331.098 362.357 331.385 361.865 331.631C361.373 331.877 360.834 332.064 360.248 332.193C359.674 332.334 359.041 332.404 358.35 332.404C357.436 332.404 356.633 332.27 355.941 332C355.25 331.73 354.67 331.355 354.201 330.875C353.732 330.395 353.375 329.814 353.129 329.135C352.895 328.455 352.777 327.705 352.777 326.885C352.777 326.041 352.953 325.262 353.305 324.547C353.668 323.832 354.213 323.217 354.939 322.701C355.678 322.186 356.592 321.781 357.682 321.488C358.783 321.195 360.072 321.049 361.549 321.049H363.887V319.977C363.887 319.52 363.822 319.109 363.693 318.746C363.564 318.371 363.354 318.055 363.061 317.797C362.779 317.539 362.41 317.34 361.953 317.199C361.496 317.059 360.934 316.988 360.266 316.988C359.211 316.988 358.168 317.111 357.137 317.357C356.117 317.592 355.127 317.926 354.166 318.359V314.932C355.021 314.592 356.006 314.311 357.119 314.088C358.244 313.865 359.41 313.754 360.617 313.754C361.941 313.754 363.078 313.883 364.027 314.141C364.977 314.387 365.756 314.762 366.365 315.266C366.986 315.77 367.443 316.402 367.736 317.164C368.029 317.914 368.176 318.793 368.176 319.801V332H364.502ZM363.887 324.107H361.268C360.541 324.107 359.926 324.178 359.422 324.318C358.918 324.459 358.508 324.652 358.191 324.898C357.875 325.145 357.641 325.432 357.488 325.76C357.348 326.076 357.277 326.416 357.277 326.779C357.277 327.506 357.512 328.062 357.98 328.449C358.449 328.824 359.088 329.012 359.896 329.012C360.494 329.012 361.115 328.795 361.76 328.361C362.404 327.928 363.113 327.307 363.887 326.498V324.107ZM358.279 307.162L362.885 311.768H358.596L352.479 307.162H358.279ZM387.828 326.744C387.828 327.764 387.6 328.637 387.143 329.363C386.697 330.078 386.1 330.664 385.35 331.121C384.611 331.566 383.768 331.889 382.818 332.088C381.881 332.299 380.92 332.404 379.936 332.404C378.623 332.404 377.439 332.34 376.385 332.211C375.33 332.094 374.334 331.918 373.396 331.684V327.816C374.498 328.273 375.594 328.607 376.684 328.818C377.785 329.018 378.822 329.117 379.795 329.117C380.92 329.117 381.758 328.941 382.309 328.59C382.871 328.227 383.152 327.758 383.152 327.184C383.152 326.914 383.094 326.668 382.977 326.445C382.859 326.223 382.637 326.012 382.309 325.812C381.992 325.602 381.541 325.391 380.955 325.18C380.369 324.957 379.602 324.711 378.652 324.441C377.773 324.195 377 323.92 376.332 323.615C375.676 323.299 375.131 322.93 374.697 322.508C374.264 322.086 373.936 321.6 373.713 321.049C373.502 320.486 373.396 319.83 373.396 319.08C373.396 318.354 373.561 317.668 373.889 317.023C374.217 316.379 374.703 315.816 375.348 315.336C376.004 314.844 376.818 314.457 377.791 314.176C378.764 313.895 379.9 313.754 381.201 313.754C382.326 313.754 383.322 313.812 384.189 313.93C385.057 314.047 385.824 314.176 386.492 314.316V317.814C385.473 317.486 384.512 317.258 383.609 317.129C382.719 316.988 381.834 316.918 380.955 316.918C380.076 316.918 379.367 317.076 378.828 317.393C378.301 317.709 378.037 318.148 378.037 318.711C378.037 318.98 378.09 319.221 378.195 319.432C378.301 319.643 378.506 319.848 378.811 320.047C379.127 320.246 379.561 320.457 380.111 320.68C380.674 320.891 381.412 321.125 382.326 321.383C383.357 321.676 384.225 321.992 384.928 322.332C385.631 322.66 386.193 323.035 386.615 323.457C387.049 323.879 387.359 324.359 387.547 324.898C387.734 325.438 387.828 326.053 387.828 326.744ZM57.7109 374L57.6055 371.662C57.2305 372.061 56.8379 372.43 56.4277 372.77C56.0176 373.098 55.5664 373.385 55.0742 373.631C54.582 373.877 54.043 374.064 53.457 374.193C52.8828 374.334 52.25 374.404 51.5586 374.404C50.6445 374.404 49.8418 374.27 49.1504 374C48.459 373.73 47.8789 373.355 47.4102 372.875C46.9414 372.395 46.584 371.814 46.3379 371.135C46.1035 370.455 45.9863 369.705 45.9863 368.885C45.9863 368.041 46.1621 367.262 46.5137 366.547C46.877 365.832 47.4219 365.217 48.1484 364.701C48.8867 364.186 49.8008 363.781 50.8906 363.488C51.9922 363.195 53.2812 363.049 54.7578 363.049H57.0957V361.977C57.0957 361.52 57.0312 361.109 56.9023 360.746C56.7734 360.371 56.5625 360.055 56.2695 359.797C55.9883 359.539 55.6191 359.34 55.1621 359.199C54.7051 359.059 54.1426 358.988 53.4746 358.988C52.4199 358.988 51.377 359.111 50.3457 359.357C49.3262 359.592 48.3359 359.926 47.375 360.359V356.932C48.2305 356.592 49.2148 356.311 50.3281 356.088C51.4531 355.865 52.6191 355.754 53.8262 355.754C55.1504 355.754 56.2871 355.883 57.2363 356.141C58.1855 356.387 58.9648 356.762 59.5742 357.266C60.1953 357.77 60.6523 358.402 60.9453 359.164C61.2383 359.914 61.3848 360.793 61.3848 361.801V374H57.7109ZM57.0957 366.107H54.4766C53.75 366.107 53.1348 366.178 52.6309 366.318C52.127 366.459 51.7168 366.652 51.4004 366.898C51.084 367.145 50.8496 367.432 50.6973 367.76C50.5566 368.076 50.4863 368.416 50.4863 368.779C50.4863 369.506 50.7207 370.062 51.1895 370.449C51.6582 370.824 52.2969 371.012 53.1055 371.012C53.7031 371.012 54.3242 370.795 54.9688 370.361C55.6133 369.928 56.3223 369.307 57.0957 368.498V366.107ZM70.5605 356.141V367.777C70.5605 368.75 70.7422 369.488 71.1055 369.992C71.4688 370.484 72.0195 370.73 72.7578 370.73C73.4727 370.73 74.1582 370.438 74.8145 369.852C75.4824 369.254 76.1855 368.451 76.9238 367.443V356.141H81.2129V374H77.5039L77.3984 371.363C77.0234 371.82 76.6426 372.236 76.2559 372.611C75.8691 372.986 75.4473 373.309 74.9902 373.578C74.5449 373.836 74.0527 374.035 73.5137 374.176C72.9863 374.328 72.4004 374.404 71.7559 374.404C70.8418 374.404 70.0391 374.258 69.3477 373.965C68.668 373.66 68.0996 373.232 67.6426 372.682C67.1855 372.131 66.8398 371.475 66.6055 370.713C66.3828 369.939 66.2715 369.078 66.2715 368.129V356.141H70.5605ZM91.8652 352.502H86.8203V349.162H96.2598V370.66H101.41V374H86.2051V370.66H91.8652V352.502ZM117.09 374L116.984 371.662C116.609 372.061 116.217 372.43 115.807 372.77C115.396 373.098 114.945 373.385 114.453 373.631C113.961 373.877 113.422 374.064 112.836 374.193C112.262 374.334 111.629 374.404 110.938 374.404C110.023 374.404 109.221 374.27 108.529 374C107.838 373.73 107.258 373.355 106.789 372.875C106.32 372.395 105.963 371.814 105.717 371.135C105.482 370.455 105.365 369.705 105.365 368.885C105.365 368.041 105.541 367.262 105.893 366.547C106.256 365.832 106.801 365.217 107.527 364.701C108.266 364.186 109.18 363.781 110.27 363.488C111.371 363.195 112.66 363.049 114.137 363.049H116.475V361.977C116.475 361.52 116.41 361.109 116.281 360.746C116.152 360.371 115.941 360.055 115.648 359.797C115.367 359.539 114.998 359.34 114.541 359.199C114.084 359.059 113.521 358.988 112.854 358.988C111.799 358.988 110.756 359.111 109.725 359.357C108.705 359.592 107.715 359.926 106.754 360.359V356.932C107.609 356.592 108.594 356.311 109.707 356.088C110.832 355.865 111.998 355.754 113.205 355.754C114.529 355.754 115.666 355.883 116.615 356.141C117.564 356.387 118.344 356.762 118.953 357.266C119.574 357.77 120.031 358.402 120.324 359.164C120.617 359.914 120.764 360.793 120.764 361.801V374H117.09ZM116.475 366.107H113.855C113.129 366.107 112.514 366.178 112.01 366.318C111.506 366.459 111.096 366.652 110.779 366.898C110.463 367.145 110.229 367.432 110.076 367.76C109.936 368.076 109.865 368.416 109.865 368.779C109.865 369.506 110.1 370.062 110.568 370.449C111.037 370.824 111.676 371.012 112.484 371.012C113.082 371.012 113.703 370.795 114.348 370.361C114.992 369.928 115.701 369.307 116.475 368.498V366.107ZM140.416 368.744C140.416 369.764 140.188 370.637 139.73 371.363C139.285 372.078 138.688 372.664 137.938 373.121C137.199 373.566 136.355 373.889 135.406 374.088C134.469 374.299 133.508 374.404 132.523 374.404C131.211 374.404 130.027 374.34 128.973 374.211C127.918 374.094 126.922 373.918 125.984 373.684V369.816C127.086 370.273 128.182 370.607 129.271 370.818C130.373 371.018 131.41 371.117 132.383 371.117C133.508 371.117 134.346 370.941 134.896 370.59C135.459 370.227 135.74 369.758 135.74 369.184C135.74 368.914 135.682 368.668 135.564 368.445C135.447 368.223 135.225 368.012 134.896 367.812C134.58 367.602 134.129 367.391 133.543 367.18C132.957 366.957 132.189 366.711 131.24 366.441C130.361 366.195 129.588 365.92 128.92 365.615C128.264 365.299 127.719 364.93 127.285 364.508C126.852 364.086 126.523 363.6 126.301 363.049C126.09 362.486 125.984 361.83 125.984 361.08C125.984 360.354 126.148 359.668 126.477 359.023C126.805 358.379 127.291 357.816 127.936 357.336C128.592 356.844 129.406 356.457 130.379 356.176C131.352 355.895 132.488 355.754 133.789 355.754C134.914 355.754 135.91 355.812 136.777 355.93C137.645 356.047 138.412 356.176 139.08 356.316V359.814C138.061 359.486 137.1 359.258 136.197 359.129C135.307 358.988 134.422 358.918 133.543 358.918C132.664 358.918 131.955 359.076 131.416 359.393C130.889 359.709 130.625 360.148 130.625 360.711C130.625 360.98 130.678 361.221 130.783 361.432C130.889 361.643 131.094 361.848 131.398 362.047C131.715 362.246 132.148 362.457 132.699 362.68C133.262 362.891 134 363.125 134.914 363.383C135.945 363.676 136.812 363.992 137.516 364.332C138.219 364.66 138.781 365.035 139.203 365.457C139.637 365.879 139.947 366.359 140.135 366.898C140.322 367.438 140.416 368.053 140.416 368.744ZM176.504 374L176.398 371.363C176.023 371.82 175.637 372.236 175.238 372.611C174.84 372.986 174.412 373.309 173.955 373.578C173.498 373.836 173.006 374.035 172.479 374.176C171.963 374.328 171.389 374.404 170.756 374.404C169.701 374.404 168.764 374.193 167.943 373.771C167.123 373.35 166.432 372.752 165.869 371.979C165.318 371.193 164.896 370.244 164.604 369.131C164.311 368.018 164.164 366.775 164.164 365.404C164.164 363.764 164.393 362.346 164.85 361.15C165.318 359.943 165.963 358.947 166.783 358.162C167.604 357.365 168.576 356.779 169.701 356.404C170.826 356.018 172.051 355.824 173.375 355.824C173.82 355.824 174.266 355.854 174.711 355.912C175.168 355.971 175.572 356.047 175.924 356.141V349.162H180.213V374H176.504ZM168.664 365.211C168.664 366.195 168.729 367.039 168.857 367.742C168.998 368.434 169.197 369.002 169.455 369.447C169.725 369.893 170.053 370.221 170.439 370.432C170.826 370.631 171.266 370.73 171.758 370.73C172.484 370.73 173.176 370.438 173.832 369.852C174.488 369.266 175.186 368.463 175.924 367.443V359.639C175.584 359.51 175.162 359.404 174.658 359.322C174.166 359.24 173.668 359.199 173.164 359.199C172.473 359.199 171.852 359.34 171.301 359.621C170.75 359.902 170.275 360.301 169.877 360.816C169.49 361.332 169.191 361.965 168.98 362.715C168.77 363.453 168.664 364.285 168.664 365.211ZM201.148 364.93C201.148 366.336 200.949 367.625 200.551 368.797C200.152 369.957 199.578 370.953 198.828 371.785C198.078 372.617 197.158 373.262 196.068 373.719C194.979 374.176 193.736 374.404 192.342 374.404C191.018 374.404 189.834 374.211 188.791 373.824C187.748 373.438 186.863 372.863 186.137 372.102C185.41 371.328 184.854 370.367 184.467 369.219C184.08 368.059 183.887 366.711 183.887 365.176C183.887 363.758 184.086 362.469 184.484 361.309C184.895 360.148 185.475 359.158 186.225 358.338C186.986 357.518 187.912 356.885 189.002 356.439C190.092 355.982 191.322 355.754 192.693 355.754C194.029 355.754 195.219 355.953 196.262 356.352C197.305 356.738 198.189 357.318 198.916 358.092C199.643 358.865 200.193 359.826 200.568 360.975C200.955 362.111 201.148 363.43 201.148 364.93ZM196.684 365.035C196.684 363.184 196.332 361.795 195.629 360.869C194.938 359.932 193.912 359.463 192.553 359.463C191.803 359.463 191.164 359.609 190.637 359.902C190.109 360.195 189.676 360.6 189.336 361.115C188.996 361.619 188.744 362.211 188.58 362.891C188.428 363.57 188.352 364.297 188.352 365.07C188.352 366.934 188.727 368.34 189.477 369.289C190.227 370.227 191.252 370.695 192.553 370.695C193.268 370.695 193.889 370.555 194.416 370.273C194.943 369.98 195.371 369.582 195.699 369.078C196.027 368.562 196.273 367.959 196.438 367.268C196.602 366.576 196.684 365.832 196.684 365.035ZM239.381 368.744C239.381 369.764 239.152 370.637 238.695 371.363C238.25 372.078 237.652 372.664 236.902 373.121C236.164 373.566 235.32 373.889 234.371 374.088C233.434 374.299 232.473 374.404 231.488 374.404C230.176 374.404 228.992 374.34 227.938 374.211C226.883 374.094 225.887 373.918 224.949 373.684V369.816C226.051 370.273 227.146 370.607 228.236 370.818C229.338 371.018 230.375 371.117 231.348 371.117C232.473 371.117 233.311 370.941 233.861 370.59C234.424 370.227 234.705 369.758 234.705 369.184C234.705 368.914 234.646 368.668 234.529 368.445C234.412 368.223 234.189 368.012 233.861 367.812C233.545 367.602 233.094 367.391 232.508 367.18C231.922 366.957 231.154 366.711 230.205 366.441C229.326 366.195 228.553 365.92 227.885 365.615C227.229 365.299 226.684 364.93 226.25 364.508C225.816 364.086 225.488 363.6 225.266 363.049C225.055 362.486 224.949 361.83 224.949 361.08C224.949 360.354 225.113 359.668 225.441 359.023C225.77 358.379 226.256 357.816 226.9 357.336C227.557 356.844 228.371 356.457 229.344 356.176C230.316 355.895 231.453 355.754 232.754 355.754C233.879 355.754 234.875 355.812 235.742 355.93C236.609 356.047 237.377 356.176 238.045 356.316V359.814C237.025 359.486 236.064 359.258 235.162 359.129C234.271 358.988 233.387 358.918 232.508 358.918C231.629 358.918 230.92 359.076 230.381 359.393C229.854 359.709 229.59 360.148 229.59 360.711C229.59 360.98 229.643 361.221 229.748 361.432C229.854 361.643 230.059 361.848 230.363 362.047C230.68 362.246 231.113 362.457 231.664 362.68C232.227 362.891 232.965 363.125 233.879 363.383C234.91 363.676 235.777 363.992 236.48 364.332C237.184 364.66 237.746 365.035 238.168 365.457C238.602 365.879 238.912 366.359 239.1 366.898C239.287 367.438 239.381 368.053 239.381 368.744ZM260 363.699C260 363.992 259.988 364.373 259.965 364.842C259.953 365.311 259.93 365.75 259.895 366.16H248.152C248.152 366.945 248.27 367.637 248.504 368.234C248.75 368.832 249.09 369.336 249.523 369.746C249.969 370.145 250.496 370.449 251.105 370.66C251.727 370.871 252.412 370.977 253.162 370.977C254.029 370.977 254.955 370.912 255.939 370.783C256.936 370.643 257.967 370.42 259.033 370.115V373.525C258.576 373.654 258.078 373.771 257.539 373.877C257 373.982 256.449 374.076 255.887 374.158C255.324 374.24 254.756 374.299 254.182 374.334C253.607 374.381 253.051 374.404 252.512 374.404C251.152 374.404 249.934 374.211 248.855 373.824C247.777 373.438 246.863 372.869 246.113 372.119C245.363 371.357 244.789 370.42 244.391 369.307C243.992 368.193 243.793 366.904 243.793 365.439C243.793 363.986 243.992 362.668 244.391 361.484C244.789 360.289 245.352 359.27 246.078 358.426C246.805 357.57 247.684 356.914 248.715 356.457C249.758 355.988 250.918 355.754 252.195 355.754C253.461 355.754 254.58 355.953 255.553 356.352C256.525 356.738 257.34 357.283 257.996 357.986C258.652 358.689 259.15 359.527 259.49 360.5C259.83 361.473 260 362.539 260 363.699ZM255.641 363.084C255.652 362.381 255.564 361.771 255.377 361.256C255.189 360.729 254.932 360.295 254.604 359.955C254.287 359.615 253.912 359.363 253.479 359.199C253.057 359.035 252.6 358.953 252.107 358.953C251.029 358.953 250.145 359.316 249.453 360.043C248.762 360.758 248.352 361.771 248.223 363.084H255.641ZM268.49 356.141V367.777C268.49 368.75 268.672 369.488 269.035 369.992C269.398 370.484 269.949 370.73 270.688 370.73C271.402 370.73 272.088 370.438 272.744 369.852C273.412 369.254 274.115 368.451 274.854 367.443V356.141H279.143V374H275.434L275.328 371.363C274.953 371.82 274.572 372.236 274.186 372.611C273.799 372.986 273.377 373.309 272.92 373.578C272.475 373.836 271.982 374.035 271.443 374.176C270.916 374.328 270.33 374.404 269.686 374.404C268.771 374.404 267.969 374.258 267.277 373.965C266.598 373.66 266.029 373.232 265.572 372.682C265.115 372.131 264.77 371.475 264.535 370.713C264.312 369.939 264.201 369.078 264.201 368.129V356.141H268.49ZM316.426 374V361.836C316.426 361.391 316.414 361.004 316.391 360.676C316.367 360.336 316.32 360.055 316.25 359.832C316.18 359.609 316.074 359.445 315.934 359.34C315.805 359.223 315.623 359.164 315.389 359.164C315.025 359.164 314.668 359.41 314.316 359.902C313.965 360.395 313.566 361.232 313.121 362.416V374H309.447V361.836C309.447 361.391 309.436 361.004 309.412 360.676C309.389 360.336 309.342 360.055 309.271 359.832C309.201 359.609 309.096 359.445 308.955 359.34C308.814 359.223 308.627 359.164 308.393 359.164C308.088 359.164 307.748 359.41 307.373 359.902C306.998 360.395 306.582 361.232 306.125 362.416V374H302.416V356.141H305.598L305.668 358.742C305.926 358.215 306.184 357.764 306.441 357.389C306.699 357.014 306.975 356.709 307.268 356.475C307.561 356.229 307.871 356.053 308.199 355.947C308.539 355.842 308.92 355.789 309.342 355.789C310.338 355.789 311.094 356.053 311.609 356.58C312.137 357.096 312.436 357.816 312.506 358.742C312.787 358.215 313.062 357.764 313.332 357.389C313.613 357.014 313.9 356.709 314.193 356.475C314.498 356.229 314.82 356.053 315.16 355.947C315.512 355.842 315.898 355.789 316.32 355.789C317.621 355.789 318.582 356.246 319.203 357.16C319.824 358.062 320.135 359.404 320.135 361.186V374H316.426ZM339.699 364.93C339.699 366.336 339.5 367.625 339.102 368.797C338.703 369.957 338.129 370.953 337.379 371.785C336.629 372.617 335.709 373.262 334.619 373.719C333.529 374.176 332.287 374.404 330.893 374.404C329.568 374.404 328.385 374.211 327.342 373.824C326.299 373.438 325.414 372.863 324.688 372.102C323.961 371.328 323.404 370.367 323.018 369.219C322.631 368.059 322.438 366.711 322.438 365.176C322.438 363.758 322.637 362.469 323.035 361.309C323.445 360.148 324.025 359.158 324.775 358.338C325.537 357.518 326.463 356.885 327.553 356.439C328.643 355.982 329.873 355.754 331.244 355.754C332.58 355.754 333.77 355.953 334.812 356.352C335.855 356.738 336.74 357.318 337.467 358.092C338.193 358.865 338.744 359.826 339.119 360.975C339.506 362.111 339.699 363.43 339.699 364.93ZM335.234 365.035C335.234 363.184 334.883 361.795 334.18 360.869C333.488 359.932 332.463 359.463 331.104 359.463C330.354 359.463 329.715 359.609 329.188 359.902C328.66 360.195 328.227 360.6 327.887 361.115C327.547 361.619 327.295 362.211 327.131 362.891C326.979 363.57 326.902 364.297 326.902 365.07C326.902 366.934 327.277 368.34 328.027 369.289C328.777 370.227 329.803 370.695 331.104 370.695C331.818 370.695 332.439 370.555 332.967 370.273C333.494 369.98 333.922 369.582 334.25 369.078C334.578 368.562 334.824 367.959 334.988 367.268C335.152 366.576 335.234 365.832 335.234 365.035ZM333.195 353.768H328.906L333.512 349.162H339.312L333.195 353.768ZM354.641 374L354.535 371.363C354.16 371.82 353.773 372.236 353.375 372.611C352.977 372.986 352.549 373.309 352.092 373.578C351.635 373.836 351.143 374.035 350.615 374.176C350.1 374.328 349.525 374.404 348.893 374.404C347.838 374.404 346.9 374.193 346.08 373.771C345.26 373.35 344.568 372.752 344.006 371.979C343.455 371.193 343.033 370.244 342.74 369.131C342.447 368.018 342.301 366.775 342.301 365.404C342.301 363.764 342.529 362.346 342.986 361.15C343.455 359.943 344.1 358.947 344.92 358.162C345.74 357.365 346.713 356.779 347.838 356.404C348.963 356.018 350.188 355.824 351.512 355.824C351.957 355.824 352.402 355.854 352.848 355.912C353.305 355.971 353.709 356.047 354.061 356.141V349.162H358.35V374H354.641ZM346.801 365.211C346.801 366.195 346.865 367.039 346.994 367.742C347.135 368.434 347.334 369.002 347.592 369.447C347.861 369.893 348.189 370.221 348.576 370.432C348.963 370.631 349.402 370.73 349.895 370.73C350.621 370.73 351.312 370.438 351.969 369.852C352.625 369.266 353.322 368.463 354.061 367.443V359.639C353.721 359.51 353.299 359.404 352.795 359.322C352.303 359.24 351.805 359.199 351.301 359.199C350.609 359.199 349.988 359.34 349.438 359.621C348.887 359.902 348.412 360.301 348.014 360.816C347.627 361.332 347.328 361.965 347.117 362.715C346.906 363.453 346.801 364.285 346.801 365.211ZM367.455 356.141V367.777C367.455 368.75 367.637 369.488 368 369.992C368.363 370.484 368.914 370.73 369.652 370.73C370.367 370.73 371.053 370.438 371.709 369.852C372.377 369.254 373.08 368.451 373.818 367.443V356.141H378.107V374H374.398L374.293 371.363C373.918 371.82 373.537 372.236 373.15 372.611C372.764 372.986 372.342 373.309 371.885 373.578C371.439 373.836 370.947 374.035 370.408 374.176C369.881 374.328 369.295 374.404 368.65 374.404C367.736 374.404 366.934 374.258 366.242 373.965C365.562 373.66 364.994 373.232 364.537 372.682C364.08 372.131 363.734 371.475 363.5 370.713C363.277 369.939 363.166 369.078 363.166 368.129V356.141H367.455ZM388.76 352.502H383.715V349.162H393.154V370.66H398.305V374H383.1V370.66H388.76V352.502ZM418.871 364.93C418.871 366.336 418.672 367.625 418.273 368.797C417.875 369.957 417.301 370.953 416.551 371.785C415.801 372.617 414.881 373.262 413.791 373.719C412.701 374.176 411.459 374.404 410.064 374.404C408.74 374.404 407.557 374.211 406.514 373.824C405.471 373.438 404.586 372.863 403.859 372.102C403.133 371.328 402.576 370.367 402.189 369.219C401.803 368.059 401.609 366.711 401.609 365.176C401.609 363.758 401.809 362.469 402.207 361.309C402.617 360.148 403.197 359.158 403.947 358.338C404.709 357.518 405.635 356.885 406.725 356.439C407.814 355.982 409.045 355.754 410.416 355.754C411.752 355.754 412.941 355.953 413.984 356.352C415.027 356.738 415.912 357.318 416.639 358.092C417.365 358.865 417.916 359.826 418.291 360.975C418.678 362.111 418.871 363.43 418.871 364.93ZM414.406 365.035C414.406 363.184 414.055 361.795 413.352 360.869C412.66 359.932 411.635 359.463 410.275 359.463C409.525 359.463 408.887 359.609 408.359 359.902C407.832 360.195 407.398 360.6 407.059 361.115C406.719 361.619 406.467 362.211 406.303 362.891C406.15 363.57 406.074 364.297 406.074 365.07C406.074 366.934 406.449 368.34 407.199 369.289C407.949 370.227 408.975 370.695 410.275 370.695C410.99 370.695 411.611 370.555 412.139 370.273C412.666 369.98 413.094 369.582 413.422 369.078C413.75 368.562 413.996 367.959 414.16 367.268C414.324 366.576 414.406 365.832 414.406 365.035ZM423.846 377.393C424.549 377.416 425.205 377.375 425.814 377.27C426.424 377.164 426.951 376.994 427.396 376.76C427.854 376.537 428.211 376.25 428.469 375.898C428.727 375.547 428.855 375.131 428.855 374.65C428.855 374.311 428.803 374.023 428.697 373.789C428.604 373.543 428.48 373.326 428.328 373.139C428.176 372.939 428.012 372.752 427.836 372.576C427.672 372.389 427.514 372.195 427.361 371.996C427.209 371.785 427.08 371.551 426.975 371.293C426.881 371.023 426.834 370.701 426.834 370.326C426.834 369.963 426.898 369.611 427.027 369.271C427.156 368.92 427.344 368.609 427.59 368.34C427.836 368.07 428.135 367.854 428.486 367.689C428.85 367.525 429.26 367.443 429.717 367.443C430.291 367.443 430.807 367.578 431.264 367.848C431.721 368.105 432.107 368.463 432.424 368.92C432.74 369.365 432.98 369.881 433.145 370.467C433.309 371.041 433.391 371.645 433.391 372.277C433.391 373.367 433.191 374.393 432.793 375.354C432.395 376.314 431.797 377.152 431 377.867C430.203 378.582 429.207 379.145 428.012 379.555C426.828 379.977 425.439 380.188 423.846 380.188V377.393ZM90.6523 415.314C89.8086 415.654 88.9355 415.906 88.0332 416.07C87.1309 416.234 86.1875 416.316 85.2031 416.316C83.7852 416.316 82.5137 416.123 81.3887 415.736C80.2637 415.35 79.3086 414.775 78.5234 414.014C77.7383 413.252 77.1348 412.309 76.7129 411.184C76.3027 410.059 76.0977 408.758 76.0977 407.281C76.0977 405.852 76.3203 404.557 76.7656 403.396C77.2227 402.236 77.8613 401.246 78.6816 400.426C79.502 399.605 80.4863 398.973 81.6348 398.527C82.7949 398.082 84.084 397.859 85.502 397.859C86.6621 397.859 87.6348 397.924 88.4199 398.053C89.2168 398.17 89.9316 398.322 90.5645 398.51V402.676C89.8379 402.312 89.0469 402.031 88.1914 401.832C87.3477 401.633 86.5449 401.533 85.7832 401.533C84.9863 401.533 84.2715 401.668 83.6387 401.938C83.0059 402.207 82.4727 402.582 82.0391 403.062C81.6055 403.543 81.2715 404.129 81.0371 404.82C80.8145 405.5 80.7031 406.25 80.7031 407.07C80.7031 407.926 80.8262 408.693 81.0723 409.373C81.3184 410.053 81.6641 410.633 82.1094 411.113C82.5664 411.582 83.1113 411.945 83.7441 412.203C84.377 412.449 85.0801 412.572 85.8535 412.572C86.2285 412.572 86.6211 412.549 87.0312 412.502C87.4531 412.443 87.8691 412.367 88.2793 412.273C88.7012 412.168 89.1113 412.051 89.5098 411.922C89.9199 411.793 90.3008 411.652 90.6523 411.5V415.314ZM101.762 394.502H96.7168V391.162H106.156V412.66H111.307V416H96.1016V412.66H101.762V394.502ZM126.301 393.254C126.301 393.641 126.23 394.004 126.09 394.344C125.949 394.684 125.75 394.982 125.492 395.24C125.246 395.486 124.953 395.686 124.613 395.838C124.273 395.979 123.904 396.049 123.506 396.049C123.107 396.049 122.732 395.979 122.381 395.838C122.041 395.686 121.742 395.486 121.484 395.24C121.238 394.982 121.045 394.684 120.904 394.344C120.764 394.004 120.693 393.641 120.693 393.254C120.693 392.867 120.764 392.504 120.904 392.164C121.045 391.824 121.238 391.525 121.484 391.268C121.742 391.01 122.041 390.811 122.381 390.67C122.732 390.518 123.107 390.441 123.506 390.441C123.904 390.441 124.273 390.518 124.613 390.67C124.953 390.811 125.246 391.01 125.492 391.268C125.75 391.525 125.949 391.824 126.09 392.164C126.23 392.504 126.301 392.867 126.301 393.254ZM121.555 401.48H116.51V398.141H125.949V412.66H131.1V416H115.895V412.66H121.555V401.48ZM146.234 422.979V417.107L146.428 413.627C146.1 414.037 145.748 414.412 145.373 414.752C145.01 415.092 144.605 415.385 144.16 415.631C143.727 415.877 143.252 416.064 142.736 416.193C142.221 416.334 141.664 416.404 141.066 416.404C140.012 416.404 139.074 416.193 138.254 415.771C137.434 415.35 136.742 414.752 136.18 413.979C135.629 413.193 135.207 412.244 134.914 411.131C134.621 410.018 134.475 408.775 134.475 407.404C134.475 405.986 134.668 404.691 135.055 403.52C135.441 402.336 136.016 401.322 136.777 400.479C137.551 399.635 138.512 398.984 139.66 398.527C140.809 398.059 142.15 397.824 143.686 397.824C143.979 397.824 144.301 397.842 144.652 397.877C145.004 397.912 145.355 397.959 145.707 398.018C146.059 398.064 146.393 398.129 146.709 398.211C147.037 398.281 147.324 398.357 147.57 398.439L150.523 397.789V422.979H146.234ZM138.975 407.211C138.975 408.195 139.039 409.039 139.168 409.742C139.309 410.434 139.508 411.002 139.766 411.447C140.035 411.893 140.363 412.221 140.75 412.432C141.137 412.631 141.576 412.73 142.068 412.73C142.795 412.73 143.486 412.438 144.143 411.852C144.799 411.266 145.496 410.463 146.234 409.443V401.639C145.895 401.51 145.473 401.404 144.969 401.322C144.477 401.24 143.979 401.199 143.475 401.199C142.783 401.199 142.162 401.34 141.611 401.621C141.061 401.902 140.586 402.301 140.188 402.816C139.801 403.332 139.502 403.965 139.291 404.715C139.08 405.453 138.975 406.285 138.975 407.211ZM159.629 398.141V409.777C159.629 410.75 159.811 411.488 160.174 411.992C160.537 412.484 161.088 412.73 161.826 412.73C162.541 412.73 163.227 412.438 163.883 411.852C164.551 411.254 165.254 410.451 165.992 409.443V398.141H170.281V416H166.572L166.467 413.363C166.092 413.82 165.711 414.236 165.324 414.611C164.938 414.986 164.516 415.309 164.059 415.578C163.613 415.836 163.121 416.035 162.582 416.176C162.055 416.328 161.469 416.404 160.824 416.404C159.91 416.404 159.107 416.258 158.416 415.965C157.736 415.66 157.168 415.232 156.711 414.682C156.254 414.131 155.908 413.475 155.674 412.713C155.451 411.939 155.34 411.078 155.34 410.129V398.141H159.629ZM190.725 405.699C190.725 405.992 190.713 406.373 190.689 406.842C190.678 407.311 190.654 407.75 190.619 408.16H178.877C178.877 408.945 178.994 409.637 179.229 410.234C179.475 410.832 179.814 411.336 180.248 411.746C180.693 412.145 181.221 412.449 181.83 412.66C182.451 412.871 183.137 412.977 183.887 412.977C184.754 412.977 185.68 412.912 186.664 412.783C187.66 412.643 188.691 412.42 189.758 412.115V415.525C189.301 415.654 188.803 415.771 188.264 415.877C187.725 415.982 187.174 416.076 186.611 416.158C186.049 416.24 185.48 416.299 184.906 416.334C184.332 416.381 183.775 416.404 183.236 416.404C181.877 416.404 180.658 416.211 179.58 415.824C178.502 415.438 177.588 414.869 176.838 414.119C176.088 413.357 175.514 412.42 175.115 411.307C174.717 410.193 174.518 408.904 174.518 407.439C174.518 405.986 174.717 404.668 175.115 403.484C175.514 402.289 176.076 401.27 176.803 400.426C177.529 399.57 178.408 398.914 179.439 398.457C180.482 397.988 181.643 397.754 182.92 397.754C184.186 397.754 185.305 397.953 186.277 398.352C187.25 398.738 188.064 399.283 188.721 399.986C189.377 400.689 189.875 401.527 190.215 402.5C190.555 403.473 190.725 404.539 190.725 405.699ZM186.365 405.084C186.377 404.381 186.289 403.771 186.102 403.256C185.914 402.729 185.656 402.295 185.328 401.955C185.012 401.615 184.637 401.363 184.203 401.199C183.781 401.035 183.324 400.953 182.832 400.953C181.754 400.953 180.869 401.316 180.178 402.043C179.486 402.758 179.076 403.771 178.947 405.084H186.365ZM225.406 416V404.363C225.406 402.406 224.68 401.428 223.227 401.428C222.5 401.428 221.803 401.721 221.135 402.307C220.479 402.893 219.781 403.689 219.043 404.697V416H214.754V398.141H218.463L218.568 400.777C218.932 400.32 219.307 399.904 219.693 399.529C220.092 399.154 220.52 398.838 220.977 398.58C221.434 398.311 221.926 398.105 222.453 397.965C222.98 397.824 223.572 397.754 224.229 397.754C225.143 397.754 225.939 397.906 226.619 398.211C227.299 398.504 227.867 398.926 228.324 399.477C228.781 400.016 229.121 400.672 229.344 401.445C229.578 402.207 229.695 403.062 229.695 404.012V416H225.406ZM250.104 405.699C250.104 405.992 250.092 406.373 250.068 406.842C250.057 407.311 250.033 407.75 249.998 408.16H238.256C238.256 408.945 238.373 409.637 238.607 410.234C238.854 410.832 239.193 411.336 239.627 411.746C240.072 412.145 240.6 412.449 241.209 412.66C241.83 412.871 242.516 412.977 243.266 412.977C244.133 412.977 245.059 412.912 246.043 412.783C247.039 412.643 248.07 412.42 249.137 412.115V415.525C248.68 415.654 248.182 415.771 247.643 415.877C247.104 415.982 246.553 416.076 245.99 416.158C245.428 416.24 244.859 416.299 244.285 416.334C243.711 416.381 243.154 416.404 242.615 416.404C241.256 416.404 240.037 416.211 238.959 415.824C237.881 415.438 236.967 414.869 236.217 414.119C235.467 413.357 234.893 412.42 234.494 411.307C234.096 410.193 233.896 408.904 233.896 407.439C233.896 405.986 234.096 404.668 234.494 403.484C234.893 402.289 235.455 401.27 236.182 400.426C236.908 399.57 237.787 398.914 238.818 398.457C239.861 397.988 241.021 397.754 242.299 397.754C243.564 397.754 244.684 397.953 245.656 398.352C246.629 398.738 247.443 399.283 248.1 399.986C248.756 400.689 249.254 401.527 249.594 402.5C249.934 403.473 250.104 404.539 250.104 405.699ZM245.744 405.084C245.756 404.381 245.668 403.771 245.48 403.256C245.293 402.729 245.035 402.295 244.707 401.955C244.391 401.615 244.016 401.363 243.582 401.199C243.16 401.035 242.703 400.953 242.211 400.953C241.133 400.953 240.248 401.316 239.557 402.043C238.865 402.758 238.455 403.771 238.326 405.084H245.744ZM269.07 410.744C269.07 411.764 268.842 412.637 268.385 413.363C267.939 414.078 267.342 414.664 266.592 415.121C265.854 415.566 265.01 415.889 264.061 416.088C263.123 416.299 262.162 416.404 261.178 416.404C259.865 416.404 258.682 416.34 257.627 416.211C256.572 416.094 255.576 415.918 254.639 415.684V411.816C255.74 412.273 256.836 412.607 257.926 412.818C259.027 413.018 260.064 413.117 261.037 413.117C262.162 413.117 263 412.941 263.551 412.59C264.113 412.227 264.395 411.758 264.395 411.184C264.395 410.914 264.336 410.668 264.219 410.445C264.102 410.223 263.879 410.012 263.551 409.812C263.234 409.602 262.783 409.391 262.197 409.18C261.611 408.957 260.844 408.711 259.895 408.441C259.016 408.195 258.242 407.92 257.574 407.615C256.918 407.299 256.373 406.93 255.939 406.508C255.506 406.086 255.178 405.6 254.955 405.049C254.744 404.486 254.639 403.83 254.639 403.08C254.639 402.354 254.803 401.668 255.131 401.023C255.459 400.379 255.945 399.816 256.59 399.336C257.246 398.844 258.061 398.457 259.033 398.176C260.006 397.895 261.143 397.754 262.443 397.754C263.568 397.754 264.564 397.812 265.432 397.93C266.299 398.047 267.066 398.176 267.734 398.316V401.814C266.715 401.486 265.754 401.258 264.852 401.129C263.961 400.988 263.076 400.918 262.197 400.918C261.318 400.918 260.609 401.076 260.07 401.393C259.543 401.709 259.279 402.148 259.279 402.711C259.279 402.98 259.332 403.221 259.438 403.432C259.543 403.643 259.748 403.848 260.053 404.047C260.369 404.246 260.803 404.457 261.354 404.68C261.916 404.891 262.654 405.125 263.568 405.383C264.6 405.676 265.467 405.992 266.17 406.332C266.873 406.66 267.436 407.035 267.857 407.457C268.291 407.879 268.602 408.359 268.789 408.898C268.977 409.438 269.07 410.053 269.07 410.744ZM288.863 415.824C288.09 416 287.311 416.141 286.525 416.246C285.74 416.352 284.996 416.404 284.293 416.404C283.121 416.404 282.107 416.281 281.252 416.035C280.408 415.789 279.705 415.414 279.143 414.91C278.592 414.406 278.182 413.768 277.912 412.994C277.654 412.209 277.525 411.277 277.525 410.199V401.48H272.727V398.141H277.525V393.57L281.92 392.428V398.141H288.863V401.48H281.92V409.883C281.92 410.902 282.154 411.676 282.623 412.203C283.092 412.719 283.877 412.977 284.979 412.977C285.682 412.977 286.367 412.918 287.035 412.801C287.703 412.684 288.312 412.549 288.863 412.396V415.824ZM309.482 405.699C309.482 405.992 309.471 406.373 309.447 406.842C309.436 407.311 309.412 407.75 309.377 408.16H297.635C297.635 408.945 297.752 409.637 297.986 410.234C298.232 410.832 298.572 411.336 299.006 411.746C299.451 412.145 299.979 412.449 300.588 412.66C301.209 412.871 301.895 412.977 302.645 412.977C303.512 412.977 304.438 412.912 305.422 412.783C306.418 412.643 307.449 412.42 308.516 412.115V415.525C308.059 415.654 307.561 415.771 307.021 415.877C306.482 415.982 305.932 416.076 305.369 416.158C304.807 416.24 304.238 416.299 303.664 416.334C303.09 416.381 302.533 416.404 301.994 416.404C300.635 416.404 299.416 416.211 298.338 415.824C297.26 415.438 296.346 414.869 295.596 414.119C294.846 413.357 294.271 412.42 293.873 411.307C293.475 410.193 293.275 408.904 293.275 407.439C293.275 405.986 293.475 404.668 293.873 403.484C294.271 402.289 294.834 401.27 295.561 400.426C296.287 399.57 297.166 398.914 298.197 398.457C299.24 397.988 300.4 397.754 301.678 397.754C302.943 397.754 304.062 397.953 305.035 398.352C306.008 398.738 306.822 399.283 307.479 399.986C308.135 400.689 308.633 401.527 308.973 402.5C309.312 403.473 309.482 404.539 309.482 405.699ZM305.123 405.084C305.135 404.381 305.047 403.771 304.859 403.256C304.672 402.729 304.414 402.295 304.086 401.955C303.77 401.615 303.395 401.363 302.961 401.199C302.539 401.035 302.082 400.953 301.59 400.953C300.512 400.953 299.627 401.316 298.936 402.043C298.244 402.758 297.834 403.771 297.705 405.084H305.123ZM346.115 416V403.836C346.115 403.391 346.104 403.004 346.08 402.676C346.057 402.336 346.01 402.055 345.939 401.832C345.869 401.609 345.764 401.445 345.623 401.34C345.494 401.223 345.312 401.164 345.078 401.164C344.715 401.164 344.357 401.41 344.006 401.902C343.654 402.395 343.256 403.232 342.811 404.416V416H339.137V403.836C339.137 403.391 339.125 403.004 339.102 402.676C339.078 402.336 339.031 402.055 338.961 401.832C338.891 401.609 338.785 401.445 338.645 401.34C338.504 401.223 338.316 401.164 338.082 401.164C337.777 401.164 337.438 401.41 337.062 401.902C336.688 402.395 336.271 403.232 335.814 404.416V416H332.105V398.141H335.287L335.357 400.742C335.615 400.215 335.873 399.764 336.131 399.389C336.389 399.014 336.664 398.709 336.957 398.475C337.25 398.229 337.561 398.053 337.889 397.947C338.229 397.842 338.609 397.789 339.031 397.789C340.027 397.789 340.783 398.053 341.299 398.58C341.826 399.096 342.125 399.816 342.195 400.742C342.477 400.215 342.752 399.764 343.021 399.389C343.303 399.014 343.59 398.709 343.883 398.475C344.188 398.229 344.51 398.053 344.85 397.947C345.201 397.842 345.588 397.789 346.01 397.789C347.311 397.789 348.271 398.246 348.893 399.16C349.514 400.062 349.824 401.404 349.824 403.186V416H346.115ZM368.861 405.699C368.861 405.992 368.85 406.373 368.826 406.842C368.814 407.311 368.791 407.75 368.756 408.16H357.014C357.014 408.945 357.131 409.637 357.365 410.234C357.611 410.832 357.951 411.336 358.385 411.746C358.83 412.145 359.357 412.449 359.967 412.66C360.588 412.871 361.273 412.977 362.023 412.977C362.891 412.977 363.816 412.912 364.801 412.783C365.797 412.643 366.828 412.42 367.895 412.115V415.525C367.438 415.654 366.939 415.771 366.4 415.877C365.861 415.982 365.311 416.076 364.748 416.158C364.186 416.24 363.617 416.299 363.043 416.334C362.469 416.381 361.912 416.404 361.373 416.404C360.014 416.404 358.795 416.211 357.717 415.824C356.639 415.438 355.725 414.869 354.975 414.119C354.225 413.357 353.65 412.42 353.252 411.307C352.854 410.193 352.654 408.904 352.654 407.439C352.654 405.986 352.854 404.668 353.252 403.484C353.65 402.289 354.213 401.27 354.939 400.426C355.666 399.57 356.545 398.914 357.576 398.457C358.619 397.988 359.779 397.754 361.057 397.754C362.322 397.754 363.441 397.953 364.414 398.352C365.387 398.738 366.201 399.283 366.857 399.986C367.514 400.689 368.012 401.527 368.352 402.5C368.691 403.473 368.861 404.539 368.861 405.699ZM364.502 405.084C364.514 404.381 364.426 403.771 364.238 403.256C364.051 402.729 363.793 402.295 363.465 401.955C363.148 401.615 362.773 401.363 362.34 401.199C361.918 401.035 361.461 400.953 360.969 400.953C359.891 400.953 359.006 401.316 358.314 402.043C357.623 402.758 357.213 403.771 357.084 405.084H364.502ZM383.75 416V404.363C383.75 402.406 383.023 401.428 381.57 401.428C380.844 401.428 380.146 401.721 379.479 402.307C378.822 402.893 378.125 403.689 377.387 404.697V416H373.098V398.141H376.807L376.912 400.777C377.275 400.32 377.65 399.904 378.037 399.529C378.436 399.154 378.863 398.838 379.32 398.58C379.777 398.311 380.27 398.105 380.797 397.965C381.324 397.824 381.916 397.754 382.572 397.754C383.486 397.754 384.283 397.906 384.963 398.211C385.643 398.504 386.211 398.926 386.668 399.477C387.125 400.016 387.465 400.672 387.688 401.445C387.922 402.207 388.039 403.062 388.039 404.012V416H383.75ZM397.145 398.141V409.777C397.145 410.75 397.326 411.488 397.689 411.992C398.053 412.484 398.604 412.73 399.342 412.73C400.057 412.73 400.742 412.438 401.398 411.852C402.066 411.254 402.77 410.451 403.508 409.443V398.141H407.797V416H404.088L403.982 413.363C403.607 413.82 403.227 414.236 402.84 414.611C402.453 414.986 402.031 415.309 401.574 415.578C401.129 415.836 400.637 416.035 400.098 416.176C399.57 416.328 398.984 416.404 398.34 416.404C397.426 416.404 396.623 416.258 395.932 415.965C395.252 415.66 394.684 415.232 394.227 414.682C393.77 414.131 393.424 413.475 393.189 412.713C392.967 411.939 392.855 411.078 392.855 410.129V398.141H397.145ZM180.934 436.502H175.889V433.162H185.328V454.66H190.479V458H175.273V454.66H180.934V436.502ZM206.158 458L206.053 455.662C205.678 456.061 205.285 456.43 204.875 456.77C204.465 457.098 204.014 457.385 203.521 457.631C203.029 457.877 202.49 458.064 201.904 458.193C201.33 458.334 200.697 458.404 200.006 458.404C199.092 458.404 198.289 458.27 197.598 458C196.906 457.73 196.326 457.355 195.857 456.875C195.389 456.395 195.031 455.814 194.785 455.135C194.551 454.455 194.434 453.705 194.434 452.885C194.434 452.041 194.609 451.262 194.961 450.547C195.324 449.832 195.869 449.217 196.596 448.701C197.334 448.186 198.248 447.781 199.338 447.488C200.439 447.195 201.729 447.049 203.205 447.049H205.543V445.977C205.543 445.52 205.479 445.109 205.35 444.746C205.221 444.371 205.01 444.055 204.717 443.797C204.436 443.539 204.066 443.34 203.609 443.199C203.152 443.059 202.59 442.988 201.922 442.988C200.867 442.988 199.824 443.111 198.793 443.357C197.773 443.592 196.783 443.926 195.822 444.359V440.932C196.678 440.592 197.662 440.311 198.775 440.088C199.9 439.865 201.066 439.754 202.273 439.754C203.598 439.754 204.734 439.883 205.684 440.141C206.633 440.387 207.412 440.762 208.021 441.266C208.643 441.77 209.1 442.402 209.393 443.164C209.686 443.914 209.832 444.793 209.832 445.801V458H206.158ZM205.543 450.107H202.924C202.197 450.107 201.582 450.178 201.078 450.318C200.574 450.459 200.164 450.652 199.848 450.898C199.531 451.145 199.297 451.432 199.145 451.76C199.004 452.076 198.934 452.416 198.934 452.779C198.934 453.506 199.168 454.062 199.637 454.449C200.105 454.824 200.744 455.012 201.553 455.012C202.15 455.012 202.771 454.795 203.416 454.361C204.061 453.928 204.77 453.307 205.543 452.498V450.107ZM229.484 457.824C228.711 458 227.932 458.141 227.146 458.246C226.361 458.352 225.617 458.404 224.914 458.404C223.742 458.404 222.729 458.281 221.873 458.035C221.029 457.789 220.326 457.414 219.764 456.91C219.213 456.406 218.803 455.768 218.533 454.994C218.275 454.209 218.146 453.277 218.146 452.199V443.48H213.348V440.141H218.146V435.57L222.541 434.428V440.141H229.484V443.48H222.541V451.883C222.541 452.902 222.775 453.676 223.244 454.203C223.713 454.719 224.498 454.977 225.6 454.977C226.303 454.977 226.988 454.918 227.656 454.801C228.324 454.684 228.934 454.549 229.484 454.396V457.824ZM250.104 447.699C250.104 447.992 250.092 448.373 250.068 448.842C250.057 449.311 250.033 449.75 249.998 450.16H238.256C238.256 450.945 238.373 451.637 238.607 452.234C238.854 452.832 239.193 453.336 239.627 453.746C240.072 454.145 240.6 454.449 241.209 454.66C241.83 454.871 242.516 454.977 243.266 454.977C244.133 454.977 245.059 454.912 246.043 454.783C247.039 454.643 248.07 454.42 249.137 454.115V457.525C248.68 457.654 248.182 457.771 247.643 457.877C247.104 457.982 246.553 458.076 245.99 458.158C245.428 458.24 244.859 458.299 244.285 458.334C243.711 458.381 243.154 458.404 242.615 458.404C241.256 458.404 240.037 458.211 238.959 457.824C237.881 457.438 236.967 456.869 236.217 456.119C235.467 455.357 234.893 454.42 234.494 453.307C234.096 452.193 233.896 450.904 233.896 449.439C233.896 447.986 234.096 446.668 234.494 445.484C234.893 444.289 235.455 443.27 236.182 442.426C236.908 441.57 237.787 440.914 238.818 440.457C239.861 439.988 241.021 439.754 242.299 439.754C243.564 439.754 244.684 439.953 245.656 440.352C246.629 440.738 247.443 441.283 248.1 441.986C248.756 442.689 249.254 443.527 249.594 444.5C249.934 445.473 250.104 446.539 250.104 447.699ZM245.744 447.084C245.756 446.381 245.668 445.771 245.48 445.256C245.293 444.729 245.035 444.295 244.707 443.955C244.391 443.615 244.016 443.363 243.582 443.199C243.16 443.035 242.703 442.953 242.211 442.953C241.133 442.953 240.248 443.316 239.557 444.043C238.865 444.758 238.455 445.771 238.326 447.084H245.744ZM265.836 447.084C265.859 446.416 265.824 445.848 265.73 445.379C265.648 444.91 265.508 444.523 265.309 444.219C265.121 443.914 264.887 443.691 264.605 443.551C264.324 443.41 264.002 443.34 263.639 443.34C263.006 443.34 262.35 443.604 261.67 444.131C261.002 444.646 260.264 445.502 259.455 446.697V458H255.061V440.141H258.945L259.104 442.742C259.396 442.285 259.725 441.875 260.088 441.512C260.463 441.148 260.873 440.838 261.318 440.58C261.775 440.311 262.279 440.105 262.83 439.965C263.381 439.824 263.984 439.754 264.641 439.754C265.543 439.754 266.34 439.912 267.031 440.229C267.734 440.533 268.32 440.99 268.789 441.6C269.27 442.209 269.621 442.977 269.844 443.902C270.078 444.816 270.178 445.877 270.143 447.084H265.836ZM285.33 458L285.225 455.662C284.85 456.061 284.457 456.43 284.047 456.77C283.637 457.098 283.186 457.385 282.693 457.631C282.201 457.877 281.662 458.064 281.076 458.193C280.502 458.334 279.869 458.404 279.178 458.404C278.264 458.404 277.461 458.27 276.77 458C276.078 457.73 275.498 457.355 275.029 456.875C274.561 456.395 274.203 455.814 273.957 455.135C273.723 454.455 273.605 453.705 273.605 452.885C273.605 452.041 273.781 451.262 274.133 450.547C274.496 449.832 275.041 449.217 275.768 448.701C276.506 448.186 277.42 447.781 278.51 447.488C279.611 447.195 280.9 447.049 282.377 447.049H284.715V445.977C284.715 445.52 284.65 445.109 284.521 444.746C284.393 444.371 284.182 444.055 283.889 443.797C283.607 443.539 283.238 443.34 282.781 443.199C282.324 443.059 281.762 442.988 281.094 442.988C280.039 442.988 278.996 443.111 277.965 443.357C276.945 443.592 275.955 443.926 274.994 444.359V440.932C275.85 440.592 276.834 440.311 277.947 440.088C279.072 439.865 280.238 439.754 281.445 439.754C282.77 439.754 283.906 439.883 284.855 440.141C285.805 440.387 286.584 440.762 287.193 441.266C287.814 441.77 288.271 442.402 288.564 443.164C288.857 443.914 289.004 444.793 289.004 445.801V458H285.33ZM284.715 450.107H282.096C281.369 450.107 280.754 450.178 280.25 450.318C279.746 450.459 279.336 450.652 279.02 450.898C278.703 451.145 278.469 451.432 278.316 451.76C278.176 452.076 278.105 452.416 278.105 452.779C278.105 453.506 278.34 454.062 278.809 454.449C279.277 454.824 279.916 455.012 280.725 455.012C281.322 455.012 281.943 454.795 282.588 454.361C283.232 453.928 283.941 453.307 284.715 452.498V450.107ZM299.691 436.502H294.646V433.162H304.086V454.66H309.236V458H294.031V454.66H299.691V436.502Z" fill="white"/>
<rect x="417" y="164.647" width="19.9983" height="61.7569" rx="9.99913" transform="rotate(-61.9399 417 164.647)" fill="url(#paint1_linear_894_580)"/>
<rect x="471" y="133.753" width="19.9983" height="61.7569" rx="9.99913" transform="rotate(-43.4469 471 133.753)" fill="url(#paint2_linear_894_580)"/>
<path d="M572.488 157.663C590.851 163.427 594.895 187.675 587.537 205.46C587.157 206.38 586.806 207.305 586.489 208.231C586.223 209.011 585.977 209.803 585.751 210.603C580.57 228.935 563.337 246.081 545.426 239.592C523.971 231.818 505.64 223.707 482.751 213.338C475.209 209.922 469.706 202.988 468.713 194.769C466.157 173.611 469.132 162.954 483.378 147.389C488.684 141.592 496.708 139.177 504.441 140.573C528.32 144.882 548.265 150.06 572.488 157.663Z" fill="url(#paint3_linear_894_580)"/>
<path d="M557.639 242.836C550.295 240.327 549.971 221.82 556.915 201.501C563.859 181.182 575.441 166.744 582.785 169.254C590.129 171.764 594.218 185.461 585.889 209.832C577.561 234.204 564.983 245.346 557.639 242.836Z" fill="#D9D9D9"/>
<path d="M547.123 150.969C547.283 158.244 548.538 165.548 529.326 170.003C529.326 170.003 515.474 172.202 512.399 179.931C509.324 187.66 519.248 195.338 519.248 195.338C534.357 207.727 517.821 224.625 516.032 229.122" stroke="#D9D9D9" stroke-width="5"/>
<path d="M827.215 536.183C827.215 518.924 827.215 510.294 823.153 503.304C822.661 502.459 822.129 501.638 821.557 500.844C816.832 494.284 808.952 490.765 793.194 483.726C755.051 466.69 735.979 458.172 722.626 466.081C721.099 466.986 719.656 468.024 718.312 469.183C706.564 479.324 708.569 500.115 712.579 541.697L721 629.018C722.534 644.927 723.301 652.882 728.749 659.799C728.808 659.874 728.905 659.996 728.965 660.07C734.492 666.924 740.185 668.818 751.572 672.607C767.425 677.881 781.567 677.747 797.936 671.731C810.194 667.226 816.324 664.973 821.712 657.352C821.77 657.27 821.864 657.136 821.921 657.053C827.215 649.367 827.215 640.798 827.215 623.661V536.183Z" fill="url(#paint4_linear_894_580)"/>
<path d="M848.39 533.291C848.39 516.107 848.39 507.515 852.425 500.543C852.905 499.714 853.425 498.908 853.981 498.129C858.665 491.575 866.49 488.027 882.14 480.931C920.407 463.58 939.54 454.905 952.965 462.816C954.473 463.705 955.9 464.723 957.23 465.86C969.075 475.987 967.088 496.9 963.115 538.728L954.544 628.951C953.042 644.764 952.291 652.671 946.905 659.574C946.847 659.648 946.75 659.77 946.691 659.844C941.227 666.684 935.585 668.609 924.301 672.459C908.226 677.944 893.93 677.8 877.321 671.53C865.194 666.952 859.13 664.662 853.817 657.076C853.76 656.994 853.667 656.861 853.611 656.778C848.39 649.128 848.39 640.628 848.39 623.627V533.291Z" fill="url(#paint5_linear_894_580)"/>
<ellipse cx="800.159" cy="203.217" rx="29.4092" ry="13.2341" fill="#D9D9D9"/>
<rect x="1035.15" y="443.49" width="19.9983" height="61.7569" rx="9.99913" transform="rotate(1.92609 1035.15 443.49)" fill="url(#paint6_linear_894_580)"/>
<path d="M717.093 208.876C720.761 209.49 722.878 213.805 721.202 216.971C712.682 233.06 711.917 245.187 718.067 263.507C719.293 267.161 716.651 270.686 712.98 270.071L604.795 251.941C603.213 251.676 601.772 250.658 600.952 249.195C587.067 224.419 587.389 211.12 604.774 192.042C605.77 190.95 607.271 190.472 608.803 190.729L717.093 208.876Z" fill="url(#paint7_linear_894_580)"/>
<ellipse cx="30.6028" cy="15.3798" rx="30.6028" ry="15.3798" transform="matrix(-0.0819498 0.996636 -0.98314 -0.182853 731.293 213.882)" fill="#D9D9D9"/>
<rect x="442" y="150.877" width="19.9983" height="43.6299" rx="9.99913" transform="rotate(-63.3689 442 150.877)" fill="url(#paint8_linear_894_580)"/>
<path d="M958.463 473.927C961.732 491.375 938.298 506.955 905.05 513.185C871.801 519.414 842.198 510.32 838.928 492.872C835.659 475.424 859.963 456.229 893.211 450C926.46 443.77 955.194 456.479 958.463 473.927Z" fill="#D9D9D9"/>
<path d="M825.364 501.584C822.458 517.093 797.182 522.303 766.523 516.56C735.863 510.816 713.364 493.589 716.269 478.08C719.174 462.572 746.384 454.656 777.043 460.399C807.702 466.142 828.269 486.076 825.364 501.584Z" fill="#D9D9D9"/>
<ellipse cx="829.861" cy="346.147" rx="139.694" ry="167.927" fill="url(#paint9_linear_894_580)"/>
<path d="M1026.82 338.897C998.184 337.382 985.558 343.544 968.976 366.493L910.184 243.259C924.459 214.441 936.818 207.693 968.029 215.663L1026.82 338.897Z" fill="url(#paint10_linear_894_580)"/>
<ellipse cx="997.26" cy="351.294" rx="32.2365" ry="17.4158" transform="rotate(155.444 997.26 351.294)" fill="#D9D9D9"/>
<path d="M973.549 402.569C967.603 384.264 985.021 366.915 1003.78 362.603C1004.75 362.38 1005.71 362.13 1006.64 361.851C1007.43 361.616 1008.22 361.357 1009 361.078C1026.95 354.674 1050.91 358.781 1056 377.138C1062.1 399.127 1066.11 418.766 1070.93 443.429C1072.52 451.555 1070.06 460.059 1063.93 465.631C1048.17 479.976 1037.76 483.728 1016.82 481.14C1009.02 480.176 1002.41 475.037 999.06 467.926C988.733 445.969 981.393 426.716 973.549 402.569Z" fill="url(#paint11_linear_894_580)"/>
<path d="M1048.78 373.786C1050.99 381.225 1035.7 392.331 1014.64 398.592C993.575 404.853 974.706 403.898 972.495 396.459C970.284 389.02 979.337 377.672 1004.6 370.162C1029.87 362.653 1046.56 366.347 1048.78 373.786Z" fill="#FFFCFC"/>
<rect x="999.915" y="454.077" width="19.9983" height="43.6299" rx="9.99913" transform="rotate(3.57611 999.915 454.077)" fill="url(#paint12_linear_894_580)"/>
<rect x="1053.07" y="446.311" width="19.9983" height="61.7569" rx="9.99913" transform="rotate(-6.40466 1053.07 446.311)" fill="url(#paint13_linear_894_580)"/>
<path d="M751.841 132.222C749.929 136.2 745.449 138.155 741.141 137.197L719.69 132.424C716.326 131.675 713.548 129.256 712.541 125.96C708.277 112.007 708.265 101.612 712.684 85.2315C713.617 81.7755 716.433 79.1674 719.92 78.3591L740.423 73.6069C745.061 72.5318 749.851 74.8627 751.652 79.2707C760.088 99.9238 760.812 113.553 751.841 132.222Z" fill="url(#paint14_linear_894_580)"/>
<ellipse cx="824.567" cy="104.991" rx="99.1091" ry="104.991" fill="url(#paint15_linear_894_580)"/>
<path d="M741.762 85.3967C743.925 48.7189 769.995 21.4371 806.73 20.7785C844.252 20.1059 880.558 50.0107 883.284 87.4399L885.264 114.621C887.059 139.264 870.655 162.133 846.16 165.37C822.615 168.483 802.084 168.419 778.58 164.963C756.4 161.701 740.69 141.975 740.754 119.556C740.788 107.533 741.111 96.4453 741.762 85.3967Z" fill="url(#paint16_linear_894_580)"/>
<circle cx="829.175" cy="85.1751" r="15.1751" stroke="white" stroke-width="2"/>
<circle cx="769.175" cy="85.1751" r="15.1751" stroke="white" stroke-width="2"/>
<path d="M785 117C795.075 119.952 800.868 119.976 811.468 117V120.666C800.726 123.704 794.952 123.536 785 120.666V117Z" fill="#FFFCFC"/>
<path d="M905.998 78.3469C907.909 74.3692 912.39 72.414 916.698 73.3725L935.728 77.6069C940.302 78.6247 943.556 82.6822 943.556 87.3682V122.956C943.556 127.609 940.347 131.647 935.814 132.698L917.416 136.962C912.778 138.038 907.988 135.707 906.187 131.299C897.751 110.646 897.027 97.0164 905.998 78.3469Z" fill="url(#paint17_linear_894_580)"/>
<path d="M947.502 104.877C947.502 118.717 942.931 129.936 937.293 129.936C931.654 129.936 927.083 118.717 927.083 104.877C927.083 91.0368 931.654 79.8174 937.293 79.8174C942.931 79.8174 947.502 91.0368 947.502 104.877Z" fill="#FFD571"/>
<path d="M723.519 296.244C725.901 288.227 733.262 282.653 741.601 282.653H766.641C778.305 282.653 786.819 293.263 784.242 304.626C782.121 313.973 780.301 323.025 779.697 332.236C778.89 344.557 769.77 355.823 757.942 355.823H732.25C724.051 355.823 716.832 350.521 716.095 342.757C714.596 326.957 718.72 312.393 723.519 296.244Z" stroke="#D9D9D9" stroke-width="3"/>
<rect x="731.341" y="262.332" width="56.4657" height="11.7637" rx="5.88184" fill="url(#paint18_linear_894_580)"/>
<rect x="747.222" y="247.038" width="43.5256" height="11.7637" rx="5.88184" fill="url(#paint19_linear_894_580)"/>
<path d="M719.871 615.535C728.422 612.71 736.491 608.859 750.838 624.996C750.838 624.996 759.98 637.004 770.596 637.004C781.212 637.004 785.635 624.996 785.635 624.996C793.198 606.455 821.038 615.535 827.214 615.535" stroke="#D9D9D9" stroke-width="5"/>
<path d="M848.684 617.299C857.051 614.474 881.408 610.279 895.445 626.416C895.445 626.416 903.785 638.474 914.171 638.474C924.557 638.474 928.971 628.524 928.971 628.524C936.371 609.983 953.986 621.108 954.851 618.812" stroke="#D9D9D9" stroke-width="5"/>
<path d="M981.972 427.056C987.715 422.587 992.827 417.222 1007.87 429.981C1007.87 429.981 1017.89 439.786 1025.93 437.642C1033.97 435.497 1034.21 422.953 1034.21 422.953C1035.14 403.435 1058.56 406.623 1063.24 405.375" stroke="#D9D9D9" stroke-width="5"/>
<defs>
<radialGradient id="paint0_radial_894_580" cx="0" cy="0" r="1" gradientUnits="userSpaceOnUse" gradientTransform="translate(840 674.5) rotate(89.9999) scale(40 310.923)">
<stop stop-color="#9F9F9F"/>
<stop offset="1" stop-color="#D9D9D9" stop-opacity="0"/>
</radialGradient>
<linearGradient id="paint1_linear_894_580" x1="432.559" y1="178.946" x2="404.941" y2="248.351" gradientUnits="userSpaceOnUse">
<stop stop-color="#FFD571"/>
<stop offset="1" stop-color="#F96800"/>
</linearGradient>
<linearGradient id="paint2_linear_894_580" x1="480.721" y1="264.576" x2="488.989" y2="186.087" gradientUnits="userSpaceOnUse">
<stop stop-color="#FFD571"/>
<stop offset="1" stop-color="#F97700"/>
</linearGradient>
<linearGradient id="paint3_linear_894_580" x1="514.519" y1="154.629" x2="549.786" y2="244.625" gradientUnits="userSpaceOnUse">
<stop stop-color="#FFFCFC"/>
<stop offset="1" stop-color="#CEE8FF"/>
</linearGradient>
<linearGradient id="paint4_linear_894_580" x1="721.048" y1="575.244" x2="838.391" y2="559.951" gradientUnits="userSpaceOnUse">
<stop stop-color="#FFFCFC"/>
<stop offset="1" stop-color="#CEE8FF"/>
</linearGradient>
<linearGradient id="paint5_linear_894_580" x1="996.318" y1="558.187" x2="843.685" y2="564.657" gradientUnits="userSpaceOnUse">
<stop stop-color="#FFFCFC"/>
<stop offset="1" stop-color="#CEE8FF"/>
</linearGradient>
<linearGradient id="paint6_linear_894_580" x1="1044.87" y1="574.313" x2="1053.14" y2="495.824" gradientUnits="userSpaceOnUse">
<stop stop-color="#FFD571"/>
<stop offset="1" stop-color="#F97700"/>
</linearGradient>
<linearGradient id="paint7_linear_894_580" x1="676.142" y1="179.756" x2="698.725" y2="279.683" gradientUnits="userSpaceOnUse">
<stop stop-color="#FFFCFC"/>
<stop offset="1" stop-color="#CEE8FF"/>
</linearGradient>
<linearGradient id="paint8_linear_894_580" x1="422.976" y1="218.399" x2="478.048" y2="168.169" gradientUnits="userSpaceOnUse">
<stop stop-color="#F96800"/>
<stop offset="1" stop-color="#FFD571"/>
</linearGradient>
<linearGradient id="paint9_linear_894_580" x1="903.678" y1="149.694" x2="996.612" y2="434.081" gradientUnits="userSpaceOnUse">
<stop stop-color="#CEE8FF"/>
<stop offset="0.380208" stop-color="#FFFCFC"/>
<stop offset="0.635417" stop-color="#FFFCFC"/>
<stop offset="1" stop-color="#CEE8FF"/>
</linearGradient>
<linearGradient id="paint10_linear_894_580" x1="986.898" y1="262.918" x2="898.965" y2="337.03" gradientUnits="userSpaceOnUse">
<stop stop-color="#FFFCFC"/>
<stop offset="1" stop-color="#CEE8FF"/>
</linearGradient>
<linearGradient id="paint11_linear_894_580" x1="1026.05" y1="397.898" x2="1049.87" y2="479.656" gradientUnits="userSpaceOnUse">
<stop stop-color="#FFFCFC"/>
<stop offset="1" stop-color="#CEE8FF"/>
</linearGradient>
<linearGradient id="paint12_linear_894_580" x1="980.891" y1="521.599" x2="1035.96" y2="471.369" gradientUnits="userSpaceOnUse">
<stop stop-color="#F96800"/>
<stop offset="1" stop-color="#FFD571"/>
</linearGradient>
<linearGradient id="paint13_linear_894_580" x1="1068.63" y1="460.609" x2="1041.01" y2="530.014" gradientUnits="userSpaceOnUse">
<stop stop-color="#FFD571"/>
<stop offset="1" stop-color="#F96800"/>
</linearGradient>
<linearGradient id="paint14_linear_894_580" x1="733.132" y1="138.812" x2="729.699" y2="29.7068" gradientUnits="userSpaceOnUse">
<stop stop-color="#FFD571"/>
<stop offset="1" stop-color="#F96800"/>
</linearGradient>
<linearGradient id="paint15_linear_894_580" x1="844.271" y1="87.3454" x2="867.799" y2="202.041" gradientUnits="userSpaceOnUse">
<stop stop-color="#FFFCFC"/>
<stop offset="1" stop-color="#CEE8FF"/>
</linearGradient>
<linearGradient id="paint16_linear_894_580" x1="913.524" y1="157.47" x2="721.371" y2="-3.3829" gradientUnits="userSpaceOnUse">
<stop stop-color="#9747FF"/>
<stop offset="1" stop-color="#1789FC"/>
</linearGradient>
<linearGradient id="paint17_linear_894_580" x1="924.707" y1="71.7578" x2="928.14" y2="180.862" gradientUnits="userSpaceOnUse">
<stop stop-color="#FFD571"/>
<stop offset="1" stop-color="#F96800"/>
</linearGradient>
<linearGradient id="paint18_linear_894_580" x1="731.341" y1="252.921" x2="787.807" y2="283.507" gradientUnits="userSpaceOnUse">
<stop stop-color="#F96800"/>
<stop offset="1" stop-color="#FFD571"/>
</linearGradient>
<linearGradient id="paint19_linear_894_580" x1="747.222" y1="237.627" x2="795.16" y2="257.643" gradientUnits="userSpaceOnUse">
<stop stop-color="#F96800"/>
<stop offset="1" stop-color="#FFD571"/>
</linearGradient>
</defs>
</svg>
