<svg width="1061" height="792" viewBox="0 0 1061 792" fill="none" xmlns="http://www.w3.org/2000/svg">
<ellipse cx="780.5" cy="746.5" rx="234.5" ry="45.5" fill="url(#paint0_radial_894_579)"/>
<ellipse cx="777.469" cy="628.428" rx="20.9648" ry="26.878" fill="url(#paint1_linear_894_579)"/>
<path fill-rule="evenodd" clip-rule="evenodd" d="M763.223 746.69C817.998 746.69 862.402 694.825 862.402 630.846C862.402 566.867 817.998 515.002 763.223 515.002C708.447 515.002 664.043 566.867 664.043 630.846C664.043 694.825 708.447 746.69 763.223 746.69ZM776.93 710.136C803.353 710.136 824.773 675.479 824.773 632.727C824.773 589.976 803.353 555.319 776.93 555.319C750.507 555.319 729.087 589.976 729.087 632.727C729.087 675.479 750.507 710.136 776.93 710.136Z" fill="#0A1722"/>
<path d="M1052.55 254.286L1042.61 280.626L1020.03 283.314L1025.41 258.586L1052.55 254.286Z" fill="#FFDDDD"/>
<path d="M945.724 321.86L1025.51 258.587C1028.63 272.133 1032.45 276.882 1042.88 280.489L963.093 343.762L945.724 321.86Z" fill="url(#paint2_linear_894_579)"/>
<path d="M633.307 471.504L642.886 435.56C602.145 431.723 573.373 431.19 527.9 371.921L504.519 403.736C540.756 451.75 579.75 468.769 633.307 471.504Z" fill="url(#paint3_linear_894_579)"/>
<path d="M862.85 457.387L850.488 422.347C890.48 415.724 918.899 413.21 959.12 351.203L984.803 381.189C952.813 431.379 915.607 450.974 862.85 457.387Z" fill="url(#paint4_linear_894_579)"/>
<path d="M767.939 184.668L781.378 190.75C768.023 208.879 763.003 220.683 755.579 242.759L742.14 236.677C749.782 213.612 754.31 200.955 767.939 184.668Z" fill="#100051"/>
<path fill-rule="evenodd" clip-rule="evenodd" d="M809.973 595.779C845.19 582.897 872.336 555.419 880.396 519.367C893.813 459.355 849.258 398.313 780.881 383.026C712.504 367.74 646.197 403.997 632.78 464.01C619.555 523.165 662.658 583.321 729.381 599.668C719.646 588.703 715.105 573.894 718.408 559.123C724.06 533.84 750.548 518.242 777.57 524.283C804.592 530.324 821.915 555.717 816.263 580.999C815.054 586.408 812.891 591.374 809.973 595.779Z" fill="url(#paint5_linear_894_579)"/>
<rect x="619.963" y="236.548" width="258.029" height="188.683" rx="40" fill="url(#paint6_linear_894_579)"/>
<circle cx="659.205" cy="313.417" r="96.2231" fill="url(#paint7_linear_894_579)"/>
<circle cx="659.205" cy="313.417" r="70.4203" fill="white"/>
<circle cx="841.438" cy="313.417" r="96.2231" fill="url(#paint8_linear_894_579)"/>
<circle cx="841.438" cy="313.417" r="70.4203" fill="white"/>
<circle cx="782.575" cy="172.309" r="22.3087" fill="url(#paint9_linear_894_579)"/>
<ellipse cx="634.716" cy="301.404" rx="31.716" ry="34.4038" fill="black"/>
<circle cx="659.443" cy="301.404" r="13.439" fill="white"/>
<ellipse cx="823.716" cy="301.404" rx="31.716" ry="34.4038" fill="black"/>
<circle cx="848.444" cy="301.404" r="13.439" fill="white"/>
<path fill-rule="evenodd" clip-rule="evenodd" d="M458.382 400.516C460.802 425.784 483.248 444.306 508.516 441.886C533.784 439.466 552.306 417.02 549.886 391.752C547.466 366.484 525.02 347.962 499.752 350.382C490.258 351.291 481.717 355.028 474.88 360.678L512.986 378.62L496.499 413.637L458.172 395.591C458.155 397.217 458.223 398.861 458.382 400.516Z" fill="url(#paint10_linear_894_579)"/>
<path fill-rule="evenodd" clip-rule="evenodd" d="M983.617 296.309C958.236 296.658 937.943 317.516 938.291 342.897C938.64 368.279 959.498 388.572 984.879 388.223C1010.26 387.874 1030.55 367.016 1030.21 341.635C1030.07 332.098 1027.05 323.28 1021.97 316.006L1000.98 352.52L967.426 333.228L988.542 296.502C986.923 296.352 985.28 296.286 983.617 296.309Z" fill="url(#paint11_linear_894_579)"/>
<path d="M1052.53 254.343L1047.99 266.382C1043.25 263.815 1040.72 260.985 1039.65 256.168L1052.53 254.343Z" fill="black"/>
<path d="M796.552 533.011C801.928 538.655 806.765 537.58 805.421 561.77C759.729 535.161 732.846 581.456 728.013 629.502L666.731 605.85C677.482 538.655 742.258 502.907 796.552 533.011Z" fill="#0A1722"/>
<ellipse cx="243.5" cy="173" rx="243.5" ry="173" fill="#9747FF"/>
<path d="M416.5 251.5L487 331.5L349.5 295L416.5 251.5Z" fill="#9747FF"/>
<path d="M111.869 113.338C111.869 114.533 111.67 115.641 111.271 116.66C110.873 117.668 110.281 118.541 109.496 119.279C108.711 120.018 107.732 120.592 106.561 121.002C105.389 121.412 104.029 121.617 102.482 121.617H100.285V129H95.9258V106.025H102.658C104.146 106.025 105.459 106.189 106.596 106.518C107.744 106.834 108.705 107.303 109.479 107.924C110.264 108.545 110.855 109.312 111.254 110.227C111.664 111.129 111.869 112.166 111.869 113.338ZM107.334 113.637C107.334 113.027 107.234 112.477 107.035 111.984C106.848 111.48 106.555 111.053 106.156 110.701C105.77 110.35 105.277 110.08 104.68 109.893C104.082 109.705 103.373 109.611 102.553 109.611H100.285V118.031H102.693C103.443 118.031 104.105 117.932 104.68 117.732C105.254 117.521 105.734 117.223 106.121 116.836C106.52 116.449 106.818 115.986 107.018 115.447C107.229 114.908 107.334 114.305 107.334 113.637ZM126.986 129L126.881 126.662C126.506 127.061 126.113 127.43 125.703 127.77C125.293 128.098 124.842 128.385 124.35 128.631C123.857 128.877 123.318 129.064 122.732 129.193C122.158 129.334 121.525 129.404 120.834 129.404C119.92 129.404 119.117 129.27 118.426 129C117.734 128.73 117.154 128.355 116.686 127.875C116.217 127.395 115.859 126.814 115.613 126.135C115.379 125.455 115.262 124.705 115.262 123.885C115.262 123.041 115.438 122.262 115.789 121.547C116.152 120.832 116.697 120.217 117.424 119.701C118.162 119.186 119.076 118.781 120.166 118.488C121.268 118.195 122.557 118.049 124.033 118.049H126.371V116.977C126.371 116.52 126.307 116.109 126.178 115.746C126.049 115.371 125.838 115.055 125.545 114.797C125.264 114.539 124.895 114.34 124.438 114.199C123.98 114.059 123.418 113.988 122.75 113.988C121.695 113.988 120.652 114.111 119.621 114.357C118.602 114.592 117.611 114.926 116.65 115.359V111.932C117.506 111.592 118.49 111.311 119.604 111.088C120.729 110.865 121.895 110.754 123.102 110.754C124.426 110.754 125.562 110.883 126.512 111.141C127.461 111.387 128.24 111.762 128.85 112.266C129.471 112.77 129.928 113.402 130.221 114.164C130.514 114.914 130.66 115.793 130.66 116.801V129H126.986ZM126.371 121.107H123.752C123.025 121.107 122.41 121.178 121.906 121.318C121.402 121.459 120.992 121.652 120.676 121.898C120.359 122.145 120.125 122.432 119.973 122.76C119.832 123.076 119.762 123.416 119.762 123.779C119.762 124.506 119.996 125.062 120.465 125.449C120.934 125.824 121.572 126.012 122.381 126.012C122.979 126.012 123.6 125.795 124.244 125.361C124.889 124.928 125.598 124.307 126.371 123.498V121.107ZM147.078 118.084C147.102 117.416 147.066 116.848 146.973 116.379C146.891 115.91 146.75 115.523 146.551 115.219C146.363 114.914 146.129 114.691 145.848 114.551C145.566 114.41 145.244 114.34 144.881 114.34C144.248 114.34 143.592 114.604 142.912 115.131C142.244 115.646 141.506 116.502 140.697 117.697V129H136.303V111.141H140.188L140.346 113.742C140.639 113.285 140.967 112.875 141.33 112.512C141.705 112.148 142.115 111.838 142.561 111.58C143.018 111.311 143.521 111.105 144.072 110.965C144.623 110.824 145.227 110.754 145.883 110.754C146.785 110.754 147.582 110.912 148.273 111.229C148.977 111.533 149.562 111.99 150.031 112.6C150.512 113.209 150.863 113.977 151.086 114.902C151.32 115.816 151.42 116.877 151.385 118.084H147.078ZM166.572 129L166.467 126.662C166.092 127.061 165.699 127.43 165.289 127.77C164.879 128.098 164.428 128.385 163.936 128.631C163.443 128.877 162.904 129.064 162.318 129.193C161.744 129.334 161.111 129.404 160.42 129.404C159.506 129.404 158.703 129.27 158.012 129C157.32 128.73 156.74 128.355 156.271 127.875C155.803 127.395 155.445 126.814 155.199 126.135C154.965 125.455 154.848 124.705 154.848 123.885C154.848 123.041 155.023 122.262 155.375 121.547C155.738 120.832 156.283 120.217 157.01 119.701C157.748 119.186 158.662 118.781 159.752 118.488C160.854 118.195 162.143 118.049 163.619 118.049H165.957V116.977C165.957 116.52 165.893 116.109 165.764 115.746C165.635 115.371 165.424 115.055 165.131 114.797C164.85 114.539 164.48 114.34 164.023 114.199C163.566 114.059 163.004 113.988 162.336 113.988C161.281 113.988 160.238 114.111 159.207 114.357C158.188 114.592 157.197 114.926 156.236 115.359V111.932C157.092 111.592 158.076 111.311 159.189 111.088C160.314 110.865 161.48 110.754 162.688 110.754C164.012 110.754 165.148 110.883 166.098 111.141C167.047 111.387 167.826 111.762 168.436 112.266C169.057 112.77 169.514 113.402 169.807 114.164C170.1 114.914 170.246 115.793 170.246 116.801V129H166.572ZM165.957 121.107H163.338C162.611 121.107 161.996 121.178 161.492 121.318C160.988 121.459 160.578 121.652 160.262 121.898C159.945 122.145 159.711 122.432 159.559 122.76C159.418 123.076 159.348 123.416 159.348 123.779C159.348 124.506 159.582 125.062 160.051 125.449C160.52 125.824 161.158 126.012 161.967 126.012C162.564 126.012 163.186 125.795 163.83 125.361C164.475 124.928 165.184 124.307 165.957 123.498V121.107ZM206.158 129L206.053 126.662C205.678 127.061 205.285 127.43 204.875 127.77C204.465 128.098 204.014 128.385 203.521 128.631C203.029 128.877 202.49 129.064 201.904 129.193C201.33 129.334 200.697 129.404 200.006 129.404C199.092 129.404 198.289 129.27 197.598 129C196.906 128.73 196.326 128.355 195.857 127.875C195.389 127.395 195.031 126.814 194.785 126.135C194.551 125.455 194.434 124.705 194.434 123.885C194.434 123.041 194.609 122.262 194.961 121.547C195.324 120.832 195.869 120.217 196.596 119.701C197.334 119.186 198.248 118.781 199.338 118.488C200.439 118.195 201.729 118.049 203.205 118.049H205.543V116.977C205.543 116.52 205.479 116.109 205.35 115.746C205.221 115.371 205.01 115.055 204.717 114.797C204.436 114.539 204.066 114.34 203.609 114.199C203.152 114.059 202.59 113.988 201.922 113.988C200.867 113.988 199.824 114.111 198.793 114.357C197.773 114.592 196.783 114.926 195.822 115.359V111.932C196.678 111.592 197.662 111.311 198.775 111.088C199.9 110.865 201.066 110.754 202.273 110.754C203.598 110.754 204.734 110.883 205.684 111.141C206.633 111.387 207.412 111.762 208.021 112.266C208.643 112.77 209.1 113.402 209.393 114.164C209.686 114.914 209.832 115.793 209.832 116.801V129H206.158ZM205.543 121.107H202.924C202.197 121.107 201.582 121.178 201.078 121.318C200.574 121.459 200.164 121.652 199.848 121.898C199.531 122.145 199.297 122.432 199.145 122.76C199.004 123.076 198.934 123.416 198.934 123.779C198.934 124.506 199.168 125.062 199.637 125.449C200.105 125.824 200.744 126.012 201.553 126.012C202.15 126.012 202.771 125.795 203.416 125.361C204.061 124.928 204.77 124.307 205.543 123.498V121.107ZM229.203 128.314C228.359 128.654 227.486 128.906 226.584 129.07C225.682 129.234 224.738 129.316 223.754 129.316C222.336 129.316 221.064 129.123 219.939 128.736C218.814 128.35 217.859 127.775 217.074 127.014C216.289 126.252 215.686 125.309 215.264 124.184C214.854 123.059 214.648 121.758 214.648 120.281C214.648 118.852 214.871 117.557 215.316 116.396C215.773 115.236 216.412 114.246 217.232 113.426C218.053 112.605 219.037 111.973 220.186 111.527C221.346 111.082 222.635 110.859 224.053 110.859C225.213 110.859 226.186 110.924 226.971 111.053C227.768 111.17 228.482 111.322 229.115 111.51V115.676C228.389 115.312 227.598 115.031 226.742 114.832C225.898 114.633 225.096 114.533 224.334 114.533C223.537 114.533 222.822 114.668 222.189 114.938C221.557 115.207 221.023 115.582 220.59 116.062C220.156 116.543 219.822 117.129 219.588 117.82C219.365 118.5 219.254 119.25 219.254 120.07C219.254 120.926 219.377 121.693 219.623 122.373C219.869 123.053 220.215 123.633 220.66 124.113C221.117 124.582 221.662 124.945 222.295 125.203C222.928 125.449 223.631 125.572 224.404 125.572C224.779 125.572 225.172 125.549 225.582 125.502C226.004 125.443 226.42 125.367 226.83 125.273C227.252 125.168 227.662 125.051 228.061 124.922C228.471 124.793 228.852 124.652 229.203 124.5V128.314ZM250.104 118.699C250.104 118.992 250.092 119.373 250.068 119.842C250.057 120.311 250.033 120.75 249.998 121.16H238.256C238.256 121.945 238.373 122.637 238.607 123.234C238.854 123.832 239.193 124.336 239.627 124.746C240.072 125.145 240.6 125.449 241.209 125.66C241.83 125.871 242.516 125.977 243.266 125.977C244.133 125.977 245.059 125.912 246.043 125.783C247.039 125.643 248.07 125.42 249.137 125.115V128.525C248.68 128.654 248.182 128.771 247.643 128.877C247.104 128.982 246.553 129.076 245.99 129.158C245.428 129.24 244.859 129.299 244.285 129.334C243.711 129.381 243.154 129.404 242.615 129.404C241.256 129.404 240.037 129.211 238.959 128.824C237.881 128.438 236.967 127.869 236.217 127.119C235.467 126.357 234.893 125.42 234.494 124.307C234.096 123.193 233.896 121.904 233.896 120.439C233.896 118.986 234.096 117.668 234.494 116.484C234.893 115.289 235.455 114.27 236.182 113.426C236.908 112.57 237.787 111.914 238.818 111.457C239.861 110.988 241.021 110.754 242.299 110.754C243.564 110.754 244.684 110.953 245.656 111.352C246.629 111.738 247.443 112.283 248.1 112.986C248.756 113.689 249.254 114.527 249.594 115.5C249.934 116.473 250.104 117.539 250.104 118.699ZM245.744 118.084C245.756 117.381 245.668 116.771 245.48 116.256C245.293 115.729 245.035 115.295 244.707 114.955C244.391 114.615 244.016 114.363 243.582 114.199C243.16 114.035 242.703 113.953 242.211 113.953C241.133 113.953 240.248 114.316 239.557 115.043C238.865 115.758 238.455 116.771 238.326 118.084H245.744ZM269.07 123.744C269.07 124.764 268.842 125.637 268.385 126.363C267.939 127.078 267.342 127.664 266.592 128.121C265.854 128.566 265.01 128.889 264.061 129.088C263.123 129.299 262.162 129.404 261.178 129.404C259.865 129.404 258.682 129.34 257.627 129.211C256.572 129.094 255.576 128.918 254.639 128.684V124.816C255.74 125.273 256.836 125.607 257.926 125.818C259.027 126.018 260.064 126.117 261.037 126.117C262.162 126.117 263 125.941 263.551 125.59C264.113 125.227 264.395 124.758 264.395 124.184C264.395 123.914 264.336 123.668 264.219 123.445C264.102 123.223 263.879 123.012 263.551 122.812C263.234 122.602 262.783 122.391 262.197 122.18C261.611 121.957 260.844 121.711 259.895 121.441C259.016 121.195 258.242 120.92 257.574 120.615C256.918 120.299 256.373 119.93 255.939 119.508C255.506 119.086 255.178 118.6 254.955 118.049C254.744 117.486 254.639 116.83 254.639 116.08C254.639 115.354 254.803 114.668 255.131 114.023C255.459 113.379 255.945 112.816 256.59 112.336C257.246 111.844 258.061 111.457 259.033 111.176C260.006 110.895 261.143 110.754 262.443 110.754C263.568 110.754 264.564 110.812 265.432 110.93C266.299 111.047 267.066 111.176 267.734 111.316V114.814C266.715 114.486 265.754 114.258 264.852 114.129C263.961 113.988 263.076 113.918 262.197 113.918C261.318 113.918 260.609 114.076 260.07 114.393C259.543 114.709 259.279 115.148 259.279 115.711C259.279 115.98 259.332 116.221 259.438 116.432C259.543 116.643 259.748 116.848 260.053 117.047C260.369 117.246 260.803 117.457 261.354 117.68C261.916 117.891 262.654 118.125 263.568 118.383C264.6 118.676 265.467 118.992 266.17 119.332C266.873 119.66 267.436 120.035 267.857 120.457C268.291 120.879 268.602 121.359 268.789 121.898C268.977 122.438 269.07 123.053 269.07 123.744ZM288.863 123.744C288.863 124.764 288.635 125.637 288.178 126.363C287.732 127.078 287.135 127.664 286.385 128.121C285.646 128.566 284.803 128.889 283.854 129.088C282.916 129.299 281.955 129.404 280.971 129.404C279.658 129.404 278.475 129.34 277.42 129.211C276.365 129.094 275.369 128.918 274.432 128.684V124.816C275.533 125.273 276.629 125.607 277.719 125.818C278.82 126.018 279.857 126.117 280.83 126.117C281.955 126.117 282.793 125.941 283.344 125.59C283.906 125.227 284.188 124.758 284.188 124.184C284.188 123.914 284.129 123.668 284.012 123.445C283.895 123.223 283.672 123.012 283.344 122.812C283.027 122.602 282.576 122.391 281.99 122.18C281.404 121.957 280.637 121.711 279.688 121.441C278.809 121.195 278.035 120.92 277.367 120.615C276.711 120.299 276.166 119.93 275.732 119.508C275.299 119.086 274.971 118.6 274.748 118.049C274.537 117.486 274.432 116.83 274.432 116.08C274.432 115.354 274.596 114.668 274.924 114.023C275.252 113.379 275.738 112.816 276.383 112.336C277.039 111.844 277.854 111.457 278.826 111.176C279.799 110.895 280.936 110.754 282.236 110.754C283.361 110.754 284.357 110.812 285.225 110.93C286.092 111.047 286.859 111.176 287.527 111.316V114.814C286.508 114.486 285.547 114.258 284.645 114.129C283.754 113.988 282.869 113.918 281.99 113.918C281.111 113.918 280.402 114.076 279.863 114.393C279.336 114.709 279.072 115.148 279.072 115.711C279.072 115.98 279.125 116.221 279.23 116.432C279.336 116.643 279.541 116.848 279.846 117.047C280.162 117.246 280.596 117.457 281.146 117.68C281.709 117.891 282.447 118.125 283.361 118.383C284.393 118.676 285.26 118.992 285.963 119.332C286.666 119.66 287.229 120.035 287.65 120.457C288.084 120.879 288.395 121.359 288.582 121.898C288.77 122.438 288.863 123.053 288.863 123.744ZM305.123 129L305.018 126.662C304.643 127.061 304.25 127.43 303.84 127.77C303.43 128.098 302.979 128.385 302.486 128.631C301.994 128.877 301.455 129.064 300.869 129.193C300.295 129.334 299.662 129.404 298.971 129.404C298.057 129.404 297.254 129.27 296.562 129C295.871 128.73 295.291 128.355 294.822 127.875C294.354 127.395 293.996 126.814 293.75 126.135C293.516 125.455 293.398 124.705 293.398 123.885C293.398 123.041 293.574 122.262 293.926 121.547C294.289 120.832 294.834 120.217 295.561 119.701C296.299 119.186 297.213 118.781 298.303 118.488C299.404 118.195 300.693 118.049 302.17 118.049H304.508V116.977C304.508 116.52 304.443 116.109 304.314 115.746C304.186 115.371 303.975 115.055 303.682 114.797C303.4 114.539 303.031 114.34 302.574 114.199C302.117 114.059 301.555 113.988 300.887 113.988C299.832 113.988 298.789 114.111 297.758 114.357C296.738 114.592 295.748 114.926 294.787 115.359V111.932C295.643 111.592 296.627 111.311 297.74 111.088C298.865 110.865 300.031 110.754 301.238 110.754C302.562 110.754 303.699 110.883 304.648 111.141C305.598 111.387 306.377 111.762 306.986 112.266C307.607 112.77 308.064 113.402 308.357 114.164C308.65 114.914 308.797 115.793 308.797 116.801V129H305.123ZM304.508 121.107H301.889C301.162 121.107 300.547 121.178 300.043 121.318C299.539 121.459 299.129 121.652 298.812 121.898C298.496 122.145 298.262 122.432 298.109 122.76C297.969 123.076 297.898 123.416 297.898 123.779C297.898 124.506 298.133 125.062 298.602 125.449C299.07 125.824 299.709 126.012 300.518 126.012C301.115 126.012 301.736 125.795 302.381 125.361C303.025 124.928 303.734 124.307 304.508 123.498V121.107ZM325.215 118.084C325.238 117.416 325.203 116.848 325.109 116.379C325.027 115.91 324.887 115.523 324.688 115.219C324.5 114.914 324.266 114.691 323.984 114.551C323.703 114.41 323.381 114.34 323.018 114.34C322.385 114.34 321.729 114.604 321.049 115.131C320.381 115.646 319.643 116.502 318.834 117.697V129H314.439V111.141H318.324L318.482 113.742C318.775 113.285 319.104 112.875 319.467 112.512C319.842 112.148 320.252 111.838 320.697 111.58C321.154 111.311 321.658 111.105 322.209 110.965C322.76 110.824 323.363 110.754 324.02 110.754C324.922 110.754 325.719 110.912 326.41 111.229C327.113 111.533 327.699 111.99 328.168 112.6C328.648 113.209 329 113.977 329.223 114.902C329.457 115.816 329.557 116.877 329.521 118.084H325.215ZM364.502 129L364.396 126.662C364.021 127.061 363.629 127.43 363.219 127.77C362.809 128.098 362.357 128.385 361.865 128.631C361.373 128.877 360.834 129.064 360.248 129.193C359.674 129.334 359.041 129.404 358.35 129.404C357.436 129.404 356.633 129.27 355.941 129C355.25 128.73 354.67 128.355 354.201 127.875C353.732 127.395 353.375 126.814 353.129 126.135C352.895 125.455 352.777 124.705 352.777 123.885C352.777 123.041 352.953 122.262 353.305 121.547C353.668 120.832 354.213 120.217 354.939 119.701C355.678 119.186 356.592 118.781 357.682 118.488C358.783 118.195 360.072 118.049 361.549 118.049H363.887V116.977C363.887 116.52 363.822 116.109 363.693 115.746C363.564 115.371 363.354 115.055 363.061 114.797C362.779 114.539 362.41 114.34 361.953 114.199C361.496 114.059 360.934 113.988 360.266 113.988C359.211 113.988 358.168 114.111 357.137 114.357C356.117 114.592 355.127 114.926 354.166 115.359V111.932C355.021 111.592 356.006 111.311 357.119 111.088C358.244 110.865 359.41 110.754 360.617 110.754C361.941 110.754 363.078 110.883 364.027 111.141C364.977 111.387 365.756 111.762 366.365 112.266C366.986 112.77 367.443 113.402 367.736 114.164C368.029 114.914 368.176 115.793 368.176 116.801V129H364.502ZM363.887 121.107H361.268C360.541 121.107 359.926 121.178 359.422 121.318C358.918 121.459 358.508 121.652 358.191 121.898C357.875 122.145 357.641 122.432 357.488 122.76C357.348 123.076 357.277 123.416 357.277 123.779C357.277 124.506 357.512 125.062 357.98 125.449C358.449 125.824 359.088 126.012 359.896 126.012C360.494 126.012 361.115 125.795 361.76 125.361C362.404 124.928 363.113 124.307 363.887 123.498V121.107ZM358.279 104.162L362.885 108.768H358.596L352.479 104.162H358.279ZM387.828 123.744C387.828 124.764 387.6 125.637 387.143 126.363C386.697 127.078 386.1 127.664 385.35 128.121C384.611 128.566 383.768 128.889 382.818 129.088C381.881 129.299 380.92 129.404 379.936 129.404C378.623 129.404 377.439 129.34 376.385 129.211C375.33 129.094 374.334 128.918 373.396 128.684V124.816C374.498 125.273 375.594 125.607 376.684 125.818C377.785 126.018 378.822 126.117 379.795 126.117C380.92 126.117 381.758 125.941 382.309 125.59C382.871 125.227 383.152 124.758 383.152 124.184C383.152 123.914 383.094 123.668 382.977 123.445C382.859 123.223 382.637 123.012 382.309 122.812C381.992 122.602 381.541 122.391 380.955 122.18C380.369 121.957 379.602 121.711 378.652 121.441C377.773 121.195 377 120.92 376.332 120.615C375.676 120.299 375.131 119.93 374.697 119.508C374.264 119.086 373.936 118.6 373.713 118.049C373.502 117.486 373.396 116.83 373.396 116.08C373.396 115.354 373.561 114.668 373.889 114.023C374.217 113.379 374.703 112.816 375.348 112.336C376.004 111.844 376.818 111.457 377.791 111.176C378.764 110.895 379.9 110.754 381.201 110.754C382.326 110.754 383.322 110.812 384.189 110.93C385.057 111.047 385.824 111.176 386.492 111.316V114.814C385.473 114.486 384.512 114.258 383.609 114.129C382.719 113.988 381.834 113.918 380.955 113.918C380.076 113.918 379.367 114.076 378.828 114.393C378.301 114.709 378.037 115.148 378.037 115.711C378.037 115.98 378.09 116.221 378.195 116.432C378.301 116.643 378.506 116.848 378.811 117.047C379.127 117.246 379.561 117.457 380.111 117.68C380.674 117.891 381.412 118.125 382.326 118.383C383.357 118.676 384.225 118.992 384.928 119.332C385.631 119.66 386.193 120.035 386.615 120.457C387.049 120.879 387.359 121.359 387.547 121.898C387.734 122.438 387.828 123.053 387.828 123.744ZM57.7109 171L57.6055 168.662C57.2305 169.061 56.8379 169.43 56.4277 169.77C56.0176 170.098 55.5664 170.385 55.0742 170.631C54.582 170.877 54.043 171.064 53.457 171.193C52.8828 171.334 52.25 171.404 51.5586 171.404C50.6445 171.404 49.8418 171.27 49.1504 171C48.459 170.73 47.8789 170.355 47.4102 169.875C46.9414 169.395 46.584 168.814 46.3379 168.135C46.1035 167.455 45.9863 166.705 45.9863 165.885C45.9863 165.041 46.1621 164.262 46.5137 163.547C46.877 162.832 47.4219 162.217 48.1484 161.701C48.8867 161.186 49.8008 160.781 50.8906 160.488C51.9922 160.195 53.2812 160.049 54.7578 160.049H57.0957V158.977C57.0957 158.52 57.0312 158.109 56.9023 157.746C56.7734 157.371 56.5625 157.055 56.2695 156.797C55.9883 156.539 55.6191 156.34 55.1621 156.199C54.7051 156.059 54.1426 155.988 53.4746 155.988C52.4199 155.988 51.377 156.111 50.3457 156.357C49.3262 156.592 48.3359 156.926 47.375 157.359V153.932C48.2305 153.592 49.2148 153.311 50.3281 153.088C51.4531 152.865 52.6191 152.754 53.8262 152.754C55.1504 152.754 56.2871 152.883 57.2363 153.141C58.1855 153.387 58.9648 153.762 59.5742 154.266C60.1953 154.77 60.6523 155.402 60.9453 156.164C61.2383 156.914 61.3848 157.793 61.3848 158.801V171H57.7109ZM57.0957 163.107H54.4766C53.75 163.107 53.1348 163.178 52.6309 163.318C52.127 163.459 51.7168 163.652 51.4004 163.898C51.084 164.145 50.8496 164.432 50.6973 164.76C50.5566 165.076 50.4863 165.416 50.4863 165.779C50.4863 166.506 50.7207 167.062 51.1895 167.449C51.6582 167.824 52.2969 168.012 53.1055 168.012C53.7031 168.012 54.3242 167.795 54.9688 167.361C55.6133 166.928 56.3223 166.307 57.0957 165.498V163.107ZM70.5605 153.141V164.777C70.5605 165.75 70.7422 166.488 71.1055 166.992C71.4688 167.484 72.0195 167.73 72.7578 167.73C73.4727 167.73 74.1582 167.438 74.8145 166.852C75.4824 166.254 76.1855 165.451 76.9238 164.443V153.141H81.2129V171H77.5039L77.3984 168.363C77.0234 168.82 76.6426 169.236 76.2559 169.611C75.8691 169.986 75.4473 170.309 74.9902 170.578C74.5449 170.836 74.0527 171.035 73.5137 171.176C72.9863 171.328 72.4004 171.404 71.7559 171.404C70.8418 171.404 70.0391 171.258 69.3477 170.965C68.668 170.66 68.0996 170.232 67.6426 169.682C67.1855 169.131 66.8398 168.475 66.6055 167.713C66.3828 166.939 66.2715 166.078 66.2715 165.129V153.141H70.5605ZM91.8652 149.502H86.8203V146.162H96.2598V167.66H101.41V171H86.2051V167.66H91.8652V149.502ZM117.09 171L116.984 168.662C116.609 169.061 116.217 169.43 115.807 169.77C115.396 170.098 114.945 170.385 114.453 170.631C113.961 170.877 113.422 171.064 112.836 171.193C112.262 171.334 111.629 171.404 110.938 171.404C110.023 171.404 109.221 171.27 108.529 171C107.838 170.73 107.258 170.355 106.789 169.875C106.32 169.395 105.963 168.814 105.717 168.135C105.482 167.455 105.365 166.705 105.365 165.885C105.365 165.041 105.541 164.262 105.893 163.547C106.256 162.832 106.801 162.217 107.527 161.701C108.266 161.186 109.18 160.781 110.27 160.488C111.371 160.195 112.66 160.049 114.137 160.049H116.475V158.977C116.475 158.52 116.41 158.109 116.281 157.746C116.152 157.371 115.941 157.055 115.648 156.797C115.367 156.539 114.998 156.34 114.541 156.199C114.084 156.059 113.521 155.988 112.854 155.988C111.799 155.988 110.756 156.111 109.725 156.357C108.705 156.592 107.715 156.926 106.754 157.359V153.932C107.609 153.592 108.594 153.311 109.707 153.088C110.832 152.865 111.998 152.754 113.205 152.754C114.529 152.754 115.666 152.883 116.615 153.141C117.564 153.387 118.344 153.762 118.953 154.266C119.574 154.77 120.031 155.402 120.324 156.164C120.617 156.914 120.764 157.793 120.764 158.801V171H117.09ZM116.475 163.107H113.855C113.129 163.107 112.514 163.178 112.01 163.318C111.506 163.459 111.096 163.652 110.779 163.898C110.463 164.145 110.229 164.432 110.076 164.76C109.936 165.076 109.865 165.416 109.865 165.779C109.865 166.506 110.1 167.062 110.568 167.449C111.037 167.824 111.676 168.012 112.484 168.012C113.082 168.012 113.703 167.795 114.348 167.361C114.992 166.928 115.701 166.307 116.475 165.498V163.107ZM140.416 165.744C140.416 166.764 140.188 167.637 139.73 168.363C139.285 169.078 138.688 169.664 137.938 170.121C137.199 170.566 136.355 170.889 135.406 171.088C134.469 171.299 133.508 171.404 132.523 171.404C131.211 171.404 130.027 171.34 128.973 171.211C127.918 171.094 126.922 170.918 125.984 170.684V166.816C127.086 167.273 128.182 167.607 129.271 167.818C130.373 168.018 131.41 168.117 132.383 168.117C133.508 168.117 134.346 167.941 134.896 167.59C135.459 167.227 135.74 166.758 135.74 166.184C135.74 165.914 135.682 165.668 135.564 165.445C135.447 165.223 135.225 165.012 134.896 164.812C134.58 164.602 134.129 164.391 133.543 164.18C132.957 163.957 132.189 163.711 131.24 163.441C130.361 163.195 129.588 162.92 128.92 162.615C128.264 162.299 127.719 161.93 127.285 161.508C126.852 161.086 126.523 160.6 126.301 160.049C126.09 159.486 125.984 158.83 125.984 158.08C125.984 157.354 126.148 156.668 126.477 156.023C126.805 155.379 127.291 154.816 127.936 154.336C128.592 153.844 129.406 153.457 130.379 153.176C131.352 152.895 132.488 152.754 133.789 152.754C134.914 152.754 135.91 152.812 136.777 152.93C137.645 153.047 138.412 153.176 139.08 153.316V156.814C138.061 156.486 137.1 156.258 136.197 156.129C135.307 155.988 134.422 155.918 133.543 155.918C132.664 155.918 131.955 156.076 131.416 156.393C130.889 156.709 130.625 157.148 130.625 157.711C130.625 157.98 130.678 158.221 130.783 158.432C130.889 158.643 131.094 158.848 131.398 159.047C131.715 159.246 132.148 159.457 132.699 159.68C133.262 159.891 134 160.125 134.914 160.383C135.945 160.676 136.812 160.992 137.516 161.332C138.219 161.66 138.781 162.035 139.203 162.457C139.637 162.879 139.947 163.359 140.135 163.898C140.322 164.438 140.416 165.053 140.416 165.744ZM176.504 171L176.398 168.363C176.023 168.82 175.637 169.236 175.238 169.611C174.84 169.986 174.412 170.309 173.955 170.578C173.498 170.836 173.006 171.035 172.479 171.176C171.963 171.328 171.389 171.404 170.756 171.404C169.701 171.404 168.764 171.193 167.943 170.771C167.123 170.35 166.432 169.752 165.869 168.979C165.318 168.193 164.896 167.244 164.604 166.131C164.311 165.018 164.164 163.775 164.164 162.404C164.164 160.764 164.393 159.346 164.85 158.15C165.318 156.943 165.963 155.947 166.783 155.162C167.604 154.365 168.576 153.779 169.701 153.404C170.826 153.018 172.051 152.824 173.375 152.824C173.82 152.824 174.266 152.854 174.711 152.912C175.168 152.971 175.572 153.047 175.924 153.141V146.162H180.213V171H176.504ZM168.664 162.211C168.664 163.195 168.729 164.039 168.857 164.742C168.998 165.434 169.197 166.002 169.455 166.447C169.725 166.893 170.053 167.221 170.439 167.432C170.826 167.631 171.266 167.73 171.758 167.73C172.484 167.73 173.176 167.438 173.832 166.852C174.488 166.266 175.186 165.463 175.924 164.443V156.639C175.584 156.51 175.162 156.404 174.658 156.322C174.166 156.24 173.668 156.199 173.164 156.199C172.473 156.199 171.852 156.34 171.301 156.621C170.75 156.902 170.275 157.301 169.877 157.816C169.49 158.332 169.191 158.965 168.98 159.715C168.77 160.453 168.664 161.285 168.664 162.211ZM201.148 161.93C201.148 163.336 200.949 164.625 200.551 165.797C200.152 166.957 199.578 167.953 198.828 168.785C198.078 169.617 197.158 170.262 196.068 170.719C194.979 171.176 193.736 171.404 192.342 171.404C191.018 171.404 189.834 171.211 188.791 170.824C187.748 170.438 186.863 169.863 186.137 169.102C185.41 168.328 184.854 167.367 184.467 166.219C184.08 165.059 183.887 163.711 183.887 162.176C183.887 160.758 184.086 159.469 184.484 158.309C184.895 157.148 185.475 156.158 186.225 155.338C186.986 154.518 187.912 153.885 189.002 153.439C190.092 152.982 191.322 152.754 192.693 152.754C194.029 152.754 195.219 152.953 196.262 153.352C197.305 153.738 198.189 154.318 198.916 155.092C199.643 155.865 200.193 156.826 200.568 157.975C200.955 159.111 201.148 160.43 201.148 161.93ZM196.684 162.035C196.684 160.184 196.332 158.795 195.629 157.869C194.938 156.932 193.912 156.463 192.553 156.463C191.803 156.463 191.164 156.609 190.637 156.902C190.109 157.195 189.676 157.6 189.336 158.115C188.996 158.619 188.744 159.211 188.58 159.891C188.428 160.57 188.352 161.297 188.352 162.07C188.352 163.934 188.727 165.34 189.477 166.289C190.227 167.227 191.252 167.695 192.553 167.695C193.268 167.695 193.889 167.555 194.416 167.273C194.943 166.98 195.371 166.582 195.699 166.078C196.027 165.562 196.273 164.959 196.438 164.268C196.602 163.576 196.684 162.832 196.684 162.035ZM239.381 165.744C239.381 166.764 239.152 167.637 238.695 168.363C238.25 169.078 237.652 169.664 236.902 170.121C236.164 170.566 235.32 170.889 234.371 171.088C233.434 171.299 232.473 171.404 231.488 171.404C230.176 171.404 228.992 171.34 227.938 171.211C226.883 171.094 225.887 170.918 224.949 170.684V166.816C226.051 167.273 227.146 167.607 228.236 167.818C229.338 168.018 230.375 168.117 231.348 168.117C232.473 168.117 233.311 167.941 233.861 167.59C234.424 167.227 234.705 166.758 234.705 166.184C234.705 165.914 234.646 165.668 234.529 165.445C234.412 165.223 234.189 165.012 233.861 164.812C233.545 164.602 233.094 164.391 232.508 164.18C231.922 163.957 231.154 163.711 230.205 163.441C229.326 163.195 228.553 162.92 227.885 162.615C227.229 162.299 226.684 161.93 226.25 161.508C225.816 161.086 225.488 160.6 225.266 160.049C225.055 159.486 224.949 158.83 224.949 158.08C224.949 157.354 225.113 156.668 225.441 156.023C225.77 155.379 226.256 154.816 226.9 154.336C227.557 153.844 228.371 153.457 229.344 153.176C230.316 152.895 231.453 152.754 232.754 152.754C233.879 152.754 234.875 152.812 235.742 152.93C236.609 153.047 237.377 153.176 238.045 153.316V156.814C237.025 156.486 236.064 156.258 235.162 156.129C234.271 155.988 233.387 155.918 232.508 155.918C231.629 155.918 230.92 156.076 230.381 156.393C229.854 156.709 229.59 157.148 229.59 157.711C229.59 157.98 229.643 158.221 229.748 158.432C229.854 158.643 230.059 158.848 230.363 159.047C230.68 159.246 231.113 159.457 231.664 159.68C232.227 159.891 232.965 160.125 233.879 160.383C234.91 160.676 235.777 160.992 236.48 161.332C237.184 161.66 237.746 162.035 238.168 162.457C238.602 162.879 238.912 163.359 239.1 163.898C239.287 164.438 239.381 165.053 239.381 165.744ZM260 160.699C260 160.992 259.988 161.373 259.965 161.842C259.953 162.311 259.93 162.75 259.895 163.16H248.152C248.152 163.945 248.27 164.637 248.504 165.234C248.75 165.832 249.09 166.336 249.523 166.746C249.969 167.145 250.496 167.449 251.105 167.66C251.727 167.871 252.412 167.977 253.162 167.977C254.029 167.977 254.955 167.912 255.939 167.783C256.936 167.643 257.967 167.42 259.033 167.115V170.525C258.576 170.654 258.078 170.771 257.539 170.877C257 170.982 256.449 171.076 255.887 171.158C255.324 171.24 254.756 171.299 254.182 171.334C253.607 171.381 253.051 171.404 252.512 171.404C251.152 171.404 249.934 171.211 248.855 170.824C247.777 170.438 246.863 169.869 246.113 169.119C245.363 168.357 244.789 167.42 244.391 166.307C243.992 165.193 243.793 163.904 243.793 162.439C243.793 160.986 243.992 159.668 244.391 158.484C244.789 157.289 245.352 156.27 246.078 155.426C246.805 154.57 247.684 153.914 248.715 153.457C249.758 152.988 250.918 152.754 252.195 152.754C253.461 152.754 254.58 152.953 255.553 153.352C256.525 153.738 257.34 154.283 257.996 154.986C258.652 155.689 259.15 156.527 259.49 157.5C259.83 158.473 260 159.539 260 160.699ZM255.641 160.084C255.652 159.381 255.564 158.771 255.377 158.256C255.189 157.729 254.932 157.295 254.604 156.955C254.287 156.615 253.912 156.363 253.479 156.199C253.057 156.035 252.6 155.953 252.107 155.953C251.029 155.953 250.145 156.316 249.453 157.043C248.762 157.758 248.352 158.771 248.223 160.084H255.641ZM268.49 153.141V164.777C268.49 165.75 268.672 166.488 269.035 166.992C269.398 167.484 269.949 167.73 270.688 167.73C271.402 167.73 272.088 167.438 272.744 166.852C273.412 166.254 274.115 165.451 274.854 164.443V153.141H279.143V171H275.434L275.328 168.363C274.953 168.82 274.572 169.236 274.186 169.611C273.799 169.986 273.377 170.309 272.92 170.578C272.475 170.836 271.982 171.035 271.443 171.176C270.916 171.328 270.33 171.404 269.686 171.404C268.771 171.404 267.969 171.258 267.277 170.965C266.598 170.66 266.029 170.232 265.572 169.682C265.115 169.131 264.77 168.475 264.535 167.713C264.312 166.939 264.201 166.078 264.201 165.129V153.141H268.49ZM316.426 171V158.836C316.426 158.391 316.414 158.004 316.391 157.676C316.367 157.336 316.32 157.055 316.25 156.832C316.18 156.609 316.074 156.445 315.934 156.34C315.805 156.223 315.623 156.164 315.389 156.164C315.025 156.164 314.668 156.41 314.316 156.902C313.965 157.395 313.566 158.232 313.121 159.416V171H309.447V158.836C309.447 158.391 309.436 158.004 309.412 157.676C309.389 157.336 309.342 157.055 309.271 156.832C309.201 156.609 309.096 156.445 308.955 156.34C308.814 156.223 308.627 156.164 308.393 156.164C308.088 156.164 307.748 156.41 307.373 156.902C306.998 157.395 306.582 158.232 306.125 159.416V171H302.416V153.141H305.598L305.668 155.742C305.926 155.215 306.184 154.764 306.441 154.389C306.699 154.014 306.975 153.709 307.268 153.475C307.561 153.229 307.871 153.053 308.199 152.947C308.539 152.842 308.92 152.789 309.342 152.789C310.338 152.789 311.094 153.053 311.609 153.58C312.137 154.096 312.436 154.816 312.506 155.742C312.787 155.215 313.062 154.764 313.332 154.389C313.613 154.014 313.9 153.709 314.193 153.475C314.498 153.229 314.82 153.053 315.16 152.947C315.512 152.842 315.898 152.789 316.32 152.789C317.621 152.789 318.582 153.246 319.203 154.16C319.824 155.062 320.135 156.404 320.135 158.186V171H316.426ZM339.699 161.93C339.699 163.336 339.5 164.625 339.102 165.797C338.703 166.957 338.129 167.953 337.379 168.785C336.629 169.617 335.709 170.262 334.619 170.719C333.529 171.176 332.287 171.404 330.893 171.404C329.568 171.404 328.385 171.211 327.342 170.824C326.299 170.438 325.414 169.863 324.688 169.102C323.961 168.328 323.404 167.367 323.018 166.219C322.631 165.059 322.438 163.711 322.438 162.176C322.438 160.758 322.637 159.469 323.035 158.309C323.445 157.148 324.025 156.158 324.775 155.338C325.537 154.518 326.463 153.885 327.553 153.439C328.643 152.982 329.873 152.754 331.244 152.754C332.58 152.754 333.77 152.953 334.812 153.352C335.855 153.738 336.74 154.318 337.467 155.092C338.193 155.865 338.744 156.826 339.119 157.975C339.506 159.111 339.699 160.43 339.699 161.93ZM335.234 162.035C335.234 160.184 334.883 158.795 334.18 157.869C333.488 156.932 332.463 156.463 331.104 156.463C330.354 156.463 329.715 156.609 329.188 156.902C328.66 157.195 328.227 157.6 327.887 158.115C327.547 158.619 327.295 159.211 327.131 159.891C326.979 160.57 326.902 161.297 326.902 162.07C326.902 163.934 327.277 165.34 328.027 166.289C328.777 167.227 329.803 167.695 331.104 167.695C331.818 167.695 332.439 167.555 332.967 167.273C333.494 166.98 333.922 166.582 334.25 166.078C334.578 165.562 334.824 164.959 334.988 164.268C335.152 163.576 335.234 162.832 335.234 162.035ZM333.195 150.768H328.906L333.512 146.162H339.312L333.195 150.768ZM354.641 171L354.535 168.363C354.16 168.82 353.773 169.236 353.375 169.611C352.977 169.986 352.549 170.309 352.092 170.578C351.635 170.836 351.143 171.035 350.615 171.176C350.1 171.328 349.525 171.404 348.893 171.404C347.838 171.404 346.9 171.193 346.08 170.771C345.26 170.35 344.568 169.752 344.006 168.979C343.455 168.193 343.033 167.244 342.74 166.131C342.447 165.018 342.301 163.775 342.301 162.404C342.301 160.764 342.529 159.346 342.986 158.15C343.455 156.943 344.1 155.947 344.92 155.162C345.74 154.365 346.713 153.779 347.838 153.404C348.963 153.018 350.188 152.824 351.512 152.824C351.957 152.824 352.402 152.854 352.848 152.912C353.305 152.971 353.709 153.047 354.061 153.141V146.162H358.35V171H354.641ZM346.801 162.211C346.801 163.195 346.865 164.039 346.994 164.742C347.135 165.434 347.334 166.002 347.592 166.447C347.861 166.893 348.189 167.221 348.576 167.432C348.963 167.631 349.402 167.73 349.895 167.73C350.621 167.73 351.312 167.438 351.969 166.852C352.625 166.266 353.322 165.463 354.061 164.443V156.639C353.721 156.51 353.299 156.404 352.795 156.322C352.303 156.24 351.805 156.199 351.301 156.199C350.609 156.199 349.988 156.34 349.438 156.621C348.887 156.902 348.412 157.301 348.014 157.816C347.627 158.332 347.328 158.965 347.117 159.715C346.906 160.453 346.801 161.285 346.801 162.211ZM367.455 153.141V164.777C367.455 165.75 367.637 166.488 368 166.992C368.363 167.484 368.914 167.73 369.652 167.73C370.367 167.73 371.053 167.438 371.709 166.852C372.377 166.254 373.08 165.451 373.818 164.443V153.141H378.107V171H374.398L374.293 168.363C373.918 168.82 373.537 169.236 373.15 169.611C372.764 169.986 372.342 170.309 371.885 170.578C371.439 170.836 370.947 171.035 370.408 171.176C369.881 171.328 369.295 171.404 368.65 171.404C367.736 171.404 366.934 171.258 366.242 170.965C365.562 170.66 364.994 170.232 364.537 169.682C364.08 169.131 363.734 168.475 363.5 167.713C363.277 166.939 363.166 166.078 363.166 165.129V153.141H367.455ZM388.76 149.502H383.715V146.162H393.154V167.66H398.305V171H383.1V167.66H388.76V149.502ZM418.871 161.93C418.871 163.336 418.672 164.625 418.273 165.797C417.875 166.957 417.301 167.953 416.551 168.785C415.801 169.617 414.881 170.262 413.791 170.719C412.701 171.176 411.459 171.404 410.064 171.404C408.74 171.404 407.557 171.211 406.514 170.824C405.471 170.438 404.586 169.863 403.859 169.102C403.133 168.328 402.576 167.367 402.189 166.219C401.803 165.059 401.609 163.711 401.609 162.176C401.609 160.758 401.809 159.469 402.207 158.309C402.617 157.148 403.197 156.158 403.947 155.338C404.709 154.518 405.635 153.885 406.725 153.439C407.814 152.982 409.045 152.754 410.416 152.754C411.752 152.754 412.941 152.953 413.984 153.352C415.027 153.738 415.912 154.318 416.639 155.092C417.365 155.865 417.916 156.826 418.291 157.975C418.678 159.111 418.871 160.43 418.871 161.93ZM414.406 162.035C414.406 160.184 414.055 158.795 413.352 157.869C412.66 156.932 411.635 156.463 410.275 156.463C409.525 156.463 408.887 156.609 408.359 156.902C407.832 157.195 407.398 157.6 407.059 158.115C406.719 158.619 406.467 159.211 406.303 159.891C406.15 160.57 406.074 161.297 406.074 162.07C406.074 163.934 406.449 165.34 407.199 166.289C407.949 167.227 408.975 167.695 410.275 167.695C410.99 167.695 411.611 167.555 412.139 167.273C412.666 166.98 413.094 166.582 413.422 166.078C413.75 165.562 413.996 164.959 414.16 164.268C414.324 163.576 414.406 162.832 414.406 162.035ZM423.846 174.393C424.549 174.416 425.205 174.375 425.814 174.27C426.424 174.164 426.951 173.994 427.396 173.76C427.854 173.537 428.211 173.25 428.469 172.898C428.727 172.547 428.855 172.131 428.855 171.65C428.855 171.311 428.803 171.023 428.697 170.789C428.604 170.543 428.48 170.326 428.328 170.139C428.176 169.939 428.012 169.752 427.836 169.576C427.672 169.389 427.514 169.195 427.361 168.996C427.209 168.785 427.08 168.551 426.975 168.293C426.881 168.023 426.834 167.701 426.834 167.326C426.834 166.963 426.898 166.611 427.027 166.271C427.156 165.92 427.344 165.609 427.59 165.34C427.836 165.07 428.135 164.854 428.486 164.689C428.85 164.525 429.26 164.443 429.717 164.443C430.291 164.443 430.807 164.578 431.264 164.848C431.721 165.105 432.107 165.463 432.424 165.92C432.74 166.365 432.98 166.881 433.145 167.467C433.309 168.041 433.391 168.645 433.391 169.277C433.391 170.367 433.191 171.393 432.793 172.354C432.395 173.314 431.797 174.152 431 174.867C430.203 175.582 429.207 176.145 428.012 176.555C426.828 176.977 425.439 177.188 423.846 177.188V174.393ZM90.6523 212.314C89.8086 212.654 88.9355 212.906 88.0332 213.07C87.1309 213.234 86.1875 213.316 85.2031 213.316C83.7852 213.316 82.5137 213.123 81.3887 212.736C80.2637 212.35 79.3086 211.775 78.5234 211.014C77.7383 210.252 77.1348 209.309 76.7129 208.184C76.3027 207.059 76.0977 205.758 76.0977 204.281C76.0977 202.852 76.3203 201.557 76.7656 200.396C77.2227 199.236 77.8613 198.246 78.6816 197.426C79.502 196.605 80.4863 195.973 81.6348 195.527C82.7949 195.082 84.084 194.859 85.502 194.859C86.6621 194.859 87.6348 194.924 88.4199 195.053C89.2168 195.17 89.9316 195.322 90.5645 195.51V199.676C89.8379 199.312 89.0469 199.031 88.1914 198.832C87.3477 198.633 86.5449 198.533 85.7832 198.533C84.9863 198.533 84.2715 198.668 83.6387 198.938C83.0059 199.207 82.4727 199.582 82.0391 200.062C81.6055 200.543 81.2715 201.129 81.0371 201.82C80.8145 202.5 80.7031 203.25 80.7031 204.07C80.7031 204.926 80.8262 205.693 81.0723 206.373C81.3184 207.053 81.6641 207.633 82.1094 208.113C82.5664 208.582 83.1113 208.945 83.7441 209.203C84.377 209.449 85.0801 209.572 85.8535 209.572C86.2285 209.572 86.6211 209.549 87.0312 209.502C87.4531 209.443 87.8691 209.367 88.2793 209.273C88.7012 209.168 89.1113 209.051 89.5098 208.922C89.9199 208.793 90.3008 208.652 90.6523 208.5V212.314ZM101.762 191.502H96.7168V188.162H106.156V209.66H111.307V213H96.1016V209.66H101.762V191.502ZM126.301 190.254C126.301 190.641 126.23 191.004 126.09 191.344C125.949 191.684 125.75 191.982 125.492 192.24C125.246 192.486 124.953 192.686 124.613 192.838C124.273 192.979 123.904 193.049 123.506 193.049C123.107 193.049 122.732 192.979 122.381 192.838C122.041 192.686 121.742 192.486 121.484 192.24C121.238 191.982 121.045 191.684 120.904 191.344C120.764 191.004 120.693 190.641 120.693 190.254C120.693 189.867 120.764 189.504 120.904 189.164C121.045 188.824 121.238 188.525 121.484 188.268C121.742 188.01 122.041 187.811 122.381 187.67C122.732 187.518 123.107 187.441 123.506 187.441C123.904 187.441 124.273 187.518 124.613 187.67C124.953 187.811 125.246 188.01 125.492 188.268C125.75 188.525 125.949 188.824 126.09 189.164C126.23 189.504 126.301 189.867 126.301 190.254ZM121.555 198.48H116.51V195.141H125.949V209.66H131.1V213H115.895V209.66H121.555V198.48ZM146.234 219.979V214.107L146.428 210.627C146.1 211.037 145.748 211.412 145.373 211.752C145.01 212.092 144.605 212.385 144.16 212.631C143.727 212.877 143.252 213.064 142.736 213.193C142.221 213.334 141.664 213.404 141.066 213.404C140.012 213.404 139.074 213.193 138.254 212.771C137.434 212.35 136.742 211.752 136.18 210.979C135.629 210.193 135.207 209.244 134.914 208.131C134.621 207.018 134.475 205.775 134.475 204.404C134.475 202.986 134.668 201.691 135.055 200.52C135.441 199.336 136.016 198.322 136.777 197.479C137.551 196.635 138.512 195.984 139.66 195.527C140.809 195.059 142.15 194.824 143.686 194.824C143.979 194.824 144.301 194.842 144.652 194.877C145.004 194.912 145.355 194.959 145.707 195.018C146.059 195.064 146.393 195.129 146.709 195.211C147.037 195.281 147.324 195.357 147.57 195.439L150.523 194.789V219.979H146.234ZM138.975 204.211C138.975 205.195 139.039 206.039 139.168 206.742C139.309 207.434 139.508 208.002 139.766 208.447C140.035 208.893 140.363 209.221 140.75 209.432C141.137 209.631 141.576 209.73 142.068 209.73C142.795 209.73 143.486 209.438 144.143 208.852C144.799 208.266 145.496 207.463 146.234 206.443V198.639C145.895 198.51 145.473 198.404 144.969 198.322C144.477 198.24 143.979 198.199 143.475 198.199C142.783 198.199 142.162 198.34 141.611 198.621C141.061 198.902 140.586 199.301 140.188 199.816C139.801 200.332 139.502 200.965 139.291 201.715C139.08 202.453 138.975 203.285 138.975 204.211ZM159.629 195.141V206.777C159.629 207.75 159.811 208.488 160.174 208.992C160.537 209.484 161.088 209.73 161.826 209.73C162.541 209.73 163.227 209.438 163.883 208.852C164.551 208.254 165.254 207.451 165.992 206.443V195.141H170.281V213H166.572L166.467 210.363C166.092 210.82 165.711 211.236 165.324 211.611C164.938 211.986 164.516 212.309 164.059 212.578C163.613 212.836 163.121 213.035 162.582 213.176C162.055 213.328 161.469 213.404 160.824 213.404C159.91 213.404 159.107 213.258 158.416 212.965C157.736 212.66 157.168 212.232 156.711 211.682C156.254 211.131 155.908 210.475 155.674 209.713C155.451 208.939 155.34 208.078 155.34 207.129V195.141H159.629ZM190.725 202.699C190.725 202.992 190.713 203.373 190.689 203.842C190.678 204.311 190.654 204.75 190.619 205.16H178.877C178.877 205.945 178.994 206.637 179.229 207.234C179.475 207.832 179.814 208.336 180.248 208.746C180.693 209.145 181.221 209.449 181.83 209.66C182.451 209.871 183.137 209.977 183.887 209.977C184.754 209.977 185.68 209.912 186.664 209.783C187.66 209.643 188.691 209.42 189.758 209.115V212.525C189.301 212.654 188.803 212.771 188.264 212.877C187.725 212.982 187.174 213.076 186.611 213.158C186.049 213.24 185.48 213.299 184.906 213.334C184.332 213.381 183.775 213.404 183.236 213.404C181.877 213.404 180.658 213.211 179.58 212.824C178.502 212.438 177.588 211.869 176.838 211.119C176.088 210.357 175.514 209.42 175.115 208.307C174.717 207.193 174.518 205.904 174.518 204.439C174.518 202.986 174.717 201.668 175.115 200.484C175.514 199.289 176.076 198.27 176.803 197.426C177.529 196.57 178.408 195.914 179.439 195.457C180.482 194.988 181.643 194.754 182.92 194.754C184.186 194.754 185.305 194.953 186.277 195.352C187.25 195.738 188.064 196.283 188.721 196.986C189.377 197.689 189.875 198.527 190.215 199.5C190.555 200.473 190.725 201.539 190.725 202.699ZM186.365 202.084C186.377 201.381 186.289 200.771 186.102 200.256C185.914 199.729 185.656 199.295 185.328 198.955C185.012 198.615 184.637 198.363 184.203 198.199C183.781 198.035 183.324 197.953 182.832 197.953C181.754 197.953 180.869 198.316 180.178 199.043C179.486 199.758 179.076 200.771 178.947 202.084H186.365ZM225.406 213V201.363C225.406 199.406 224.68 198.428 223.227 198.428C222.5 198.428 221.803 198.721 221.135 199.307C220.479 199.893 219.781 200.689 219.043 201.697V213H214.754V195.141H218.463L218.568 197.777C218.932 197.32 219.307 196.904 219.693 196.529C220.092 196.154 220.52 195.838 220.977 195.58C221.434 195.311 221.926 195.105 222.453 194.965C222.98 194.824 223.572 194.754 224.229 194.754C225.143 194.754 225.939 194.906 226.619 195.211C227.299 195.504 227.867 195.926 228.324 196.477C228.781 197.016 229.121 197.672 229.344 198.445C229.578 199.207 229.695 200.062 229.695 201.012V213H225.406ZM250.104 202.699C250.104 202.992 250.092 203.373 250.068 203.842C250.057 204.311 250.033 204.75 249.998 205.16H238.256C238.256 205.945 238.373 206.637 238.607 207.234C238.854 207.832 239.193 208.336 239.627 208.746C240.072 209.145 240.6 209.449 241.209 209.66C241.83 209.871 242.516 209.977 243.266 209.977C244.133 209.977 245.059 209.912 246.043 209.783C247.039 209.643 248.07 209.42 249.137 209.115V212.525C248.68 212.654 248.182 212.771 247.643 212.877C247.104 212.982 246.553 213.076 245.99 213.158C245.428 213.24 244.859 213.299 244.285 213.334C243.711 213.381 243.154 213.404 242.615 213.404C241.256 213.404 240.037 213.211 238.959 212.824C237.881 212.438 236.967 211.869 236.217 211.119C235.467 210.357 234.893 209.42 234.494 208.307C234.096 207.193 233.896 205.904 233.896 204.439C233.896 202.986 234.096 201.668 234.494 200.484C234.893 199.289 235.455 198.27 236.182 197.426C236.908 196.57 237.787 195.914 238.818 195.457C239.861 194.988 241.021 194.754 242.299 194.754C243.564 194.754 244.684 194.953 245.656 195.352C246.629 195.738 247.443 196.283 248.1 196.986C248.756 197.689 249.254 198.527 249.594 199.5C249.934 200.473 250.104 201.539 250.104 202.699ZM245.744 202.084C245.756 201.381 245.668 200.771 245.48 200.256C245.293 199.729 245.035 199.295 244.707 198.955C244.391 198.615 244.016 198.363 243.582 198.199C243.16 198.035 242.703 197.953 242.211 197.953C241.133 197.953 240.248 198.316 239.557 199.043C238.865 199.758 238.455 200.771 238.326 202.084H245.744ZM269.07 207.744C269.07 208.764 268.842 209.637 268.385 210.363C267.939 211.078 267.342 211.664 266.592 212.121C265.854 212.566 265.01 212.889 264.061 213.088C263.123 213.299 262.162 213.404 261.178 213.404C259.865 213.404 258.682 213.34 257.627 213.211C256.572 213.094 255.576 212.918 254.639 212.684V208.816C255.74 209.273 256.836 209.607 257.926 209.818C259.027 210.018 260.064 210.117 261.037 210.117C262.162 210.117 263 209.941 263.551 209.59C264.113 209.227 264.395 208.758 264.395 208.184C264.395 207.914 264.336 207.668 264.219 207.445C264.102 207.223 263.879 207.012 263.551 206.812C263.234 206.602 262.783 206.391 262.197 206.18C261.611 205.957 260.844 205.711 259.895 205.441C259.016 205.195 258.242 204.92 257.574 204.615C256.918 204.299 256.373 203.93 255.939 203.508C255.506 203.086 255.178 202.6 254.955 202.049C254.744 201.486 254.639 200.83 254.639 200.08C254.639 199.354 254.803 198.668 255.131 198.023C255.459 197.379 255.945 196.816 256.59 196.336C257.246 195.844 258.061 195.457 259.033 195.176C260.006 194.895 261.143 194.754 262.443 194.754C263.568 194.754 264.564 194.812 265.432 194.93C266.299 195.047 267.066 195.176 267.734 195.316V198.814C266.715 198.486 265.754 198.258 264.852 198.129C263.961 197.988 263.076 197.918 262.197 197.918C261.318 197.918 260.609 198.076 260.07 198.393C259.543 198.709 259.279 199.148 259.279 199.711C259.279 199.98 259.332 200.221 259.438 200.432C259.543 200.643 259.748 200.848 260.053 201.047C260.369 201.246 260.803 201.457 261.354 201.68C261.916 201.891 262.654 202.125 263.568 202.383C264.6 202.676 265.467 202.992 266.17 203.332C266.873 203.66 267.436 204.035 267.857 204.457C268.291 204.879 268.602 205.359 268.789 205.898C268.977 206.438 269.07 207.053 269.07 207.744ZM288.863 212.824C288.09 213 287.311 213.141 286.525 213.246C285.74 213.352 284.996 213.404 284.293 213.404C283.121 213.404 282.107 213.281 281.252 213.035C280.408 212.789 279.705 212.414 279.143 211.91C278.592 211.406 278.182 210.768 277.912 209.994C277.654 209.209 277.525 208.277 277.525 207.199V198.48H272.727V195.141H277.525V190.57L281.92 189.428V195.141H288.863V198.48H281.92V206.883C281.92 207.902 282.154 208.676 282.623 209.203C283.092 209.719 283.877 209.977 284.979 209.977C285.682 209.977 286.367 209.918 287.035 209.801C287.703 209.684 288.312 209.549 288.863 209.396V212.824ZM309.482 202.699C309.482 202.992 309.471 203.373 309.447 203.842C309.436 204.311 309.412 204.75 309.377 205.16H297.635C297.635 205.945 297.752 206.637 297.986 207.234C298.232 207.832 298.572 208.336 299.006 208.746C299.451 209.145 299.979 209.449 300.588 209.66C301.209 209.871 301.895 209.977 302.645 209.977C303.512 209.977 304.438 209.912 305.422 209.783C306.418 209.643 307.449 209.42 308.516 209.115V212.525C308.059 212.654 307.561 212.771 307.021 212.877C306.482 212.982 305.932 213.076 305.369 213.158C304.807 213.24 304.238 213.299 303.664 213.334C303.09 213.381 302.533 213.404 301.994 213.404C300.635 213.404 299.416 213.211 298.338 212.824C297.26 212.438 296.346 211.869 295.596 211.119C294.846 210.357 294.271 209.42 293.873 208.307C293.475 207.193 293.275 205.904 293.275 204.439C293.275 202.986 293.475 201.668 293.873 200.484C294.271 199.289 294.834 198.27 295.561 197.426C296.287 196.57 297.166 195.914 298.197 195.457C299.24 194.988 300.4 194.754 301.678 194.754C302.943 194.754 304.062 194.953 305.035 195.352C306.008 195.738 306.822 196.283 307.479 196.986C308.135 197.689 308.633 198.527 308.973 199.5C309.312 200.473 309.482 201.539 309.482 202.699ZM305.123 202.084C305.135 201.381 305.047 200.771 304.859 200.256C304.672 199.729 304.414 199.295 304.086 198.955C303.77 198.615 303.395 198.363 302.961 198.199C302.539 198.035 302.082 197.953 301.59 197.953C300.512 197.953 299.627 198.316 298.936 199.043C298.244 199.758 297.834 200.771 297.705 202.084H305.123ZM346.115 213V200.836C346.115 200.391 346.104 200.004 346.08 199.676C346.057 199.336 346.01 199.055 345.939 198.832C345.869 198.609 345.764 198.445 345.623 198.34C345.494 198.223 345.312 198.164 345.078 198.164C344.715 198.164 344.357 198.41 344.006 198.902C343.654 199.395 343.256 200.232 342.811 201.416V213H339.137V200.836C339.137 200.391 339.125 200.004 339.102 199.676C339.078 199.336 339.031 199.055 338.961 198.832C338.891 198.609 338.785 198.445 338.645 198.34C338.504 198.223 338.316 198.164 338.082 198.164C337.777 198.164 337.438 198.41 337.062 198.902C336.688 199.395 336.271 200.232 335.814 201.416V213H332.105V195.141H335.287L335.357 197.742C335.615 197.215 335.873 196.764 336.131 196.389C336.389 196.014 336.664 195.709 336.957 195.475C337.25 195.229 337.561 195.053 337.889 194.947C338.229 194.842 338.609 194.789 339.031 194.789C340.027 194.789 340.783 195.053 341.299 195.58C341.826 196.096 342.125 196.816 342.195 197.742C342.477 197.215 342.752 196.764 343.021 196.389C343.303 196.014 343.59 195.709 343.883 195.475C344.188 195.229 344.51 195.053 344.85 194.947C345.201 194.842 345.588 194.789 346.01 194.789C347.311 194.789 348.271 195.246 348.893 196.16C349.514 197.062 349.824 198.404 349.824 200.186V213H346.115ZM368.861 202.699C368.861 202.992 368.85 203.373 368.826 203.842C368.814 204.311 368.791 204.75 368.756 205.16H357.014C357.014 205.945 357.131 206.637 357.365 207.234C357.611 207.832 357.951 208.336 358.385 208.746C358.83 209.145 359.357 209.449 359.967 209.66C360.588 209.871 361.273 209.977 362.023 209.977C362.891 209.977 363.816 209.912 364.801 209.783C365.797 209.643 366.828 209.42 367.895 209.115V212.525C367.438 212.654 366.939 212.771 366.4 212.877C365.861 212.982 365.311 213.076 364.748 213.158C364.186 213.24 363.617 213.299 363.043 213.334C362.469 213.381 361.912 213.404 361.373 213.404C360.014 213.404 358.795 213.211 357.717 212.824C356.639 212.438 355.725 211.869 354.975 211.119C354.225 210.357 353.65 209.42 353.252 208.307C352.854 207.193 352.654 205.904 352.654 204.439C352.654 202.986 352.854 201.668 353.252 200.484C353.65 199.289 354.213 198.27 354.939 197.426C355.666 196.57 356.545 195.914 357.576 195.457C358.619 194.988 359.779 194.754 361.057 194.754C362.322 194.754 363.441 194.953 364.414 195.352C365.387 195.738 366.201 196.283 366.857 196.986C367.514 197.689 368.012 198.527 368.352 199.5C368.691 200.473 368.861 201.539 368.861 202.699ZM364.502 202.084C364.514 201.381 364.426 200.771 364.238 200.256C364.051 199.729 363.793 199.295 363.465 198.955C363.148 198.615 362.773 198.363 362.34 198.199C361.918 198.035 361.461 197.953 360.969 197.953C359.891 197.953 359.006 198.316 358.314 199.043C357.623 199.758 357.213 200.771 357.084 202.084H364.502ZM383.75 213V201.363C383.75 199.406 383.023 198.428 381.57 198.428C380.844 198.428 380.146 198.721 379.479 199.307C378.822 199.893 378.125 200.689 377.387 201.697V213H373.098V195.141H376.807L376.912 197.777C377.275 197.32 377.65 196.904 378.037 196.529C378.436 196.154 378.863 195.838 379.32 195.58C379.777 195.311 380.27 195.105 380.797 194.965C381.324 194.824 381.916 194.754 382.572 194.754C383.486 194.754 384.283 194.906 384.963 195.211C385.643 195.504 386.211 195.926 386.668 196.477C387.125 197.016 387.465 197.672 387.688 198.445C387.922 199.207 388.039 200.062 388.039 201.012V213H383.75ZM397.145 195.141V206.777C397.145 207.75 397.326 208.488 397.689 208.992C398.053 209.484 398.604 209.73 399.342 209.73C400.057 209.73 400.742 209.438 401.398 208.852C402.066 208.254 402.77 207.451 403.508 206.443V195.141H407.797V213H404.088L403.982 210.363C403.607 210.82 403.227 211.236 402.84 211.611C402.453 211.986 402.031 212.309 401.574 212.578C401.129 212.836 400.637 213.035 400.098 213.176C399.57 213.328 398.984 213.404 398.34 213.404C397.426 213.404 396.623 213.258 395.932 212.965C395.252 212.66 394.684 212.232 394.227 211.682C393.77 211.131 393.424 210.475 393.189 209.713C392.967 208.939 392.855 208.078 392.855 207.129V195.141H397.145ZM180.934 233.502H175.889V230.162H185.328V251.66H190.479V255H175.273V251.66H180.934V233.502ZM206.158 255L206.053 252.662C205.678 253.061 205.285 253.43 204.875 253.77C204.465 254.098 204.014 254.385 203.521 254.631C203.029 254.877 202.49 255.064 201.904 255.193C201.33 255.334 200.697 255.404 200.006 255.404C199.092 255.404 198.289 255.27 197.598 255C196.906 254.73 196.326 254.355 195.857 253.875C195.389 253.395 195.031 252.814 194.785 252.135C194.551 251.455 194.434 250.705 194.434 249.885C194.434 249.041 194.609 248.262 194.961 247.547C195.324 246.832 195.869 246.217 196.596 245.701C197.334 245.186 198.248 244.781 199.338 244.488C200.439 244.195 201.729 244.049 203.205 244.049H205.543V242.977C205.543 242.52 205.479 242.109 205.35 241.746C205.221 241.371 205.01 241.055 204.717 240.797C204.436 240.539 204.066 240.34 203.609 240.199C203.152 240.059 202.59 239.988 201.922 239.988C200.867 239.988 199.824 240.111 198.793 240.357C197.773 240.592 196.783 240.926 195.822 241.359V237.932C196.678 237.592 197.662 237.311 198.775 237.088C199.9 236.865 201.066 236.754 202.273 236.754C203.598 236.754 204.734 236.883 205.684 237.141C206.633 237.387 207.412 237.762 208.021 238.266C208.643 238.77 209.1 239.402 209.393 240.164C209.686 240.914 209.832 241.793 209.832 242.801V255H206.158ZM205.543 247.107H202.924C202.197 247.107 201.582 247.178 201.078 247.318C200.574 247.459 200.164 247.652 199.848 247.898C199.531 248.145 199.297 248.432 199.145 248.76C199.004 249.076 198.934 249.416 198.934 249.779C198.934 250.506 199.168 251.062 199.637 251.449C200.105 251.824 200.744 252.012 201.553 252.012C202.15 252.012 202.771 251.795 203.416 251.361C204.061 250.928 204.77 250.307 205.543 249.498V247.107ZM229.484 254.824C228.711 255 227.932 255.141 227.146 255.246C226.361 255.352 225.617 255.404 224.914 255.404C223.742 255.404 222.729 255.281 221.873 255.035C221.029 254.789 220.326 254.414 219.764 253.91C219.213 253.406 218.803 252.768 218.533 251.994C218.275 251.209 218.146 250.277 218.146 249.199V240.48H213.348V237.141H218.146V232.57L222.541 231.428V237.141H229.484V240.48H222.541V248.883C222.541 249.902 222.775 250.676 223.244 251.203C223.713 251.719 224.498 251.977 225.6 251.977C226.303 251.977 226.988 251.918 227.656 251.801C228.324 251.684 228.934 251.549 229.484 251.396V254.824ZM250.104 244.699C250.104 244.992 250.092 245.373 250.068 245.842C250.057 246.311 250.033 246.75 249.998 247.16H238.256C238.256 247.945 238.373 248.637 238.607 249.234C238.854 249.832 239.193 250.336 239.627 250.746C240.072 251.145 240.6 251.449 241.209 251.66C241.83 251.871 242.516 251.977 243.266 251.977C244.133 251.977 245.059 251.912 246.043 251.783C247.039 251.643 248.07 251.42 249.137 251.115V254.525C248.68 254.654 248.182 254.771 247.643 254.877C247.104 254.982 246.553 255.076 245.99 255.158C245.428 255.24 244.859 255.299 244.285 255.334C243.711 255.381 243.154 255.404 242.615 255.404C241.256 255.404 240.037 255.211 238.959 254.824C237.881 254.438 236.967 253.869 236.217 253.119C235.467 252.357 234.893 251.42 234.494 250.307C234.096 249.193 233.896 247.904 233.896 246.439C233.896 244.986 234.096 243.668 234.494 242.484C234.893 241.289 235.455 240.27 236.182 239.426C236.908 238.57 237.787 237.914 238.818 237.457C239.861 236.988 241.021 236.754 242.299 236.754C243.564 236.754 244.684 236.953 245.656 237.352C246.629 237.738 247.443 238.283 248.1 238.986C248.756 239.689 249.254 240.527 249.594 241.5C249.934 242.473 250.104 243.539 250.104 244.699ZM245.744 244.084C245.756 243.381 245.668 242.771 245.48 242.256C245.293 241.729 245.035 241.295 244.707 240.955C244.391 240.615 244.016 240.363 243.582 240.199C243.16 240.035 242.703 239.953 242.211 239.953C241.133 239.953 240.248 240.316 239.557 241.043C238.865 241.758 238.455 242.771 238.326 244.084H245.744ZM265.836 244.084C265.859 243.416 265.824 242.848 265.73 242.379C265.648 241.91 265.508 241.523 265.309 241.219C265.121 240.914 264.887 240.691 264.605 240.551C264.324 240.41 264.002 240.34 263.639 240.34C263.006 240.34 262.35 240.604 261.67 241.131C261.002 241.646 260.264 242.502 259.455 243.697V255H255.061V237.141H258.945L259.104 239.742C259.396 239.285 259.725 238.875 260.088 238.512C260.463 238.148 260.873 237.838 261.318 237.58C261.775 237.311 262.279 237.105 262.83 236.965C263.381 236.824 263.984 236.754 264.641 236.754C265.543 236.754 266.34 236.912 267.031 237.229C267.734 237.533 268.32 237.99 268.789 238.6C269.27 239.209 269.621 239.977 269.844 240.902C270.078 241.816 270.178 242.877 270.143 244.084H265.836ZM285.33 255L285.225 252.662C284.85 253.061 284.457 253.43 284.047 253.77C283.637 254.098 283.186 254.385 282.693 254.631C282.201 254.877 281.662 255.064 281.076 255.193C280.502 255.334 279.869 255.404 279.178 255.404C278.264 255.404 277.461 255.27 276.77 255C276.078 254.73 275.498 254.355 275.029 253.875C274.561 253.395 274.203 252.814 273.957 252.135C273.723 251.455 273.605 250.705 273.605 249.885C273.605 249.041 273.781 248.262 274.133 247.547C274.496 246.832 275.041 246.217 275.768 245.701C276.506 245.186 277.42 244.781 278.51 244.488C279.611 244.195 280.9 244.049 282.377 244.049H284.715V242.977C284.715 242.52 284.65 242.109 284.521 241.746C284.393 241.371 284.182 241.055 283.889 240.797C283.607 240.539 283.238 240.34 282.781 240.199C282.324 240.059 281.762 239.988 281.094 239.988C280.039 239.988 278.996 240.111 277.965 240.357C276.945 240.592 275.955 240.926 274.994 241.359V237.932C275.85 237.592 276.834 237.311 277.947 237.088C279.072 236.865 280.238 236.754 281.445 236.754C282.77 236.754 283.906 236.883 284.855 237.141C285.805 237.387 286.584 237.762 287.193 238.266C287.814 238.77 288.271 239.402 288.564 240.164C288.857 240.914 289.004 241.793 289.004 242.801V255H285.33ZM284.715 247.107H282.096C281.369 247.107 280.754 247.178 280.25 247.318C279.746 247.459 279.336 247.652 279.02 247.898C278.703 248.145 278.469 248.432 278.316 248.76C278.176 249.076 278.105 249.416 278.105 249.779C278.105 250.506 278.34 251.062 278.809 251.449C279.277 251.824 279.916 252.012 280.725 252.012C281.322 252.012 281.943 251.795 282.588 251.361C283.232 250.928 283.941 250.307 284.715 249.498V247.107ZM299.691 233.502H294.646V230.162H304.086V251.66H309.236V255H294.031V251.66H299.691V233.502Z" fill="white"/>
<defs>
<radialGradient id="paint0_radial_894_579" cx="0" cy="0" r="1" gradientUnits="userSpaceOnUse" gradientTransform="translate(780.5 746.5) rotate(90) scale(45.5 234.5)">
<stop stop-color="#9F9F9F"/>
<stop offset="1" stop-color="#D9D9D9" stop-opacity="0"/>
</radialGradient>
<linearGradient id="paint1_linear_894_579" x1="802.734" y1="611.763" x2="756.504" y2="663.638" gradientUnits="userSpaceOnUse">
<stop stop-color="white"/>
<stop offset="1" stop-color="#ABBDC2"/>
</linearGradient>
<linearGradient id="paint2_linear_894_579" x1="985.617" y1="290.224" x2="1002.99" y2="312.126" gradientUnits="userSpaceOnUse">
<stop stop-color="#FFD571"/>
<stop offset="1" stop-color="#E8AA14"/>
</linearGradient>
<linearGradient id="paint3_linear_894_579" x1="611.922" y1="451.332" x2="520.732" y2="396.083" gradientUnits="userSpaceOnUse">
<stop stop-color="#100051"/>
<stop offset="1" stop-color="#004A95"/>
</linearGradient>
<linearGradient id="paint4_linear_894_579" x1="916.696" y1="399.696" x2="1010.5" y2="431.95" gradientUnits="userSpaceOnUse">
<stop stop-color="#100051"/>
<stop offset="1" stop-color="#006EDD"/>
</linearGradient>
<linearGradient id="paint5_linear_894_579" x1="779.402" y1="420.031" x2="820.17" y2="638.512" gradientUnits="userSpaceOnUse">
<stop stop-color="#006EDD"/>
<stop offset="1" stop-color="#1789FC"/>
</linearGradient>
<linearGradient id="paint6_linear_894_579" x1="748.977" y1="236.548" x2="748.977" y2="400.235" gradientUnits="userSpaceOnUse">
<stop stop-color="#1789FC"/>
<stop offset="0.5" stop-color="#00468D"/>
<stop offset="1" stop-color="#1789FC"/>
</linearGradient>
<linearGradient id="paint7_linear_894_579" x1="771.824" y1="313.417" x2="826.117" y2="174.727" gradientUnits="userSpaceOnUse">
<stop stop-color="#100051"/>
<stop offset="0.984405" stop-color="#006CD9"/>
</linearGradient>
<linearGradient id="paint8_linear_894_579" x1="807.571" y1="329.275" x2="1059.15" y2="166.933" gradientUnits="userSpaceOnUse">
<stop stop-color="#100051"/>
<stop offset="1" stop-color="#006EDD"/>
</linearGradient>
<linearGradient id="paint9_linear_894_579" x1="796.014" y1="165.589" x2="763.761" y2="183.866" gradientUnits="userSpaceOnUse">
<stop stop-color="#E8AA14"/>
<stop offset="1" stop-color="#F96800"/>
</linearGradient>
<linearGradient id="paint10_linear_894_579" x1="428.818" y1="345.565" x2="581.684" y2="430.558" gradientUnits="userSpaceOnUse">
<stop stop-color="#100051"/>
<stop offset="1" stop-color="#004A95"/>
</linearGradient>
<linearGradient id="paint11_linear_894_579" x1="965.613" y1="290.302" x2="1018.83" y2="506.67" gradientUnits="userSpaceOnUse">
<stop stop-color="#100051"/>
<stop offset="1" stop-color="#006CD9"/>
</linearGradient>
</defs>
</svg>
