<svg width="118" height="144" viewBox="0 0 118 144" fill="none" xmlns="http://www.w3.org/2000/svg">
<circle cx="59" cy="85" r="59" fill="#9747FF"/>
<path d="M62.6892 56.7792L65.6829 58.134C62.7079 62.1723 61.5896 64.8019 59.9358 69.7195L56.9421 68.3647C58.6445 63.2267 59.6532 60.4073 62.6892 56.7792Z" fill="#100051"/>
<rect x="29.9614" y="67.5842" width="57.4784" height="42.0311" rx="15" fill="url(#paint0_linear_713_373)"/>
<circle cx="38.7032" cy="84.7079" r="21.4347" fill="url(#paint1_linear_713_373)"/>
<circle cx="38.7029" cy="84.7078" r="15.6868" fill="white"/>
<circle cx="79.297" cy="84.7079" r="21.4347" fill="url(#paint2_linear_713_373)"/>
<circle cx="79.2972" cy="84.7078" r="15.6868" fill="white"/>
<circle cx="66.1853" cy="53.2742" r="4.96949" fill="url(#paint3_linear_713_373)"/>
<ellipse cx="37.984" cy="84.7077" rx="7.06506" ry="7.66379" fill="black"/>
<circle cx="43.4927" cy="84.7078" r="2.99367" fill="white"/>
<ellipse cx="78.5787" cy="84.7077" rx="7.06506" ry="7.66379" fill="black"/>
<circle cx="84.0874" cy="84.7078" r="2.99367" fill="white"/>
<circle cx="101" cy="10" r="10" fill="#9747FF"/>
<defs>
<linearGradient id="paint0_linear_713_373" x1="58.7006" y1="67.5842" x2="58.7006" y2="104.047" gradientUnits="userSpaceOnUse">
<stop stop-color="#1789FC"/>
<stop offset="0.5" stop-color="#00468D"/>
<stop offset="1" stop-color="#1789FC"/>
</linearGradient>
<linearGradient id="paint1_linear_713_373" x1="63.7902" y1="84.7079" x2="75.8846" y2="53.8132" gradientUnits="userSpaceOnUse">
<stop stop-color="#100051"/>
<stop offset="0.984405" stop-color="#006CD9"/>
</linearGradient>
<linearGradient id="paint2_linear_713_373" x1="71.7529" y1="88.2404" x2="127.794" y2="52.0769" gradientUnits="userSpaceOnUse">
<stop stop-color="#100051"/>
<stop offset="1" stop-color="#006EDD"/>
</linearGradient>
<linearGradient id="paint3_linear_713_373" x1="69.179" y1="51.7773" x2="61.9942" y2="55.8487" gradientUnits="userSpaceOnUse">
<stop stop-color="#E8AA14"/>
<stop offset="1" stop-color="#F96800"/>
</linearGradient>
</defs>
</svg>
