<?xml version="1.0" encoding="UTF-8" standalone="no"?>
<svg
   width="612"
   height="466"
   viewBox="0 0 612 466"
   fill="none"
   version="1.1"
   id="svg1384"
   sodipodi:docname="curioso.svg"
   xml:space="preserve"
   inkscape:export-filename="uno\curioso.svg"
   inkscape:export-xdpi="96"
   inkscape:export-ydpi="96"
   inkscape:version="1.2.1 (9c6d41e410, 2022-07-14)"
   xmlns:inkscape="http://www.inkscape.org/namespaces/inkscape"
   xmlns:sodipodi="http://sodipodi.sourceforge.net/DTD/sodipodi-0.dtd"
   xmlns="http://www.w3.org/2000/svg"
   xmlns:svg="http://www.w3.org/2000/svg"><defs
     id="defs1388"><linearGradient
       id="paint0_linear_188_230"
       x1="218.228"
       y1="157.892"
       x2="-2.4362099"
       y2="338.80399"
       gradientUnits="userSpaceOnUse"><stop
         stop-color="#E8AA14"
         id="stop1424" /><stop
         offset="1"
         stop-color="#F96800"
         id="stop1426" /></linearGradient><linearGradient
       id="paint1_linear_188_230"
       x1="26.021"
       y1="0"
       x2="26.021"
       y2="118.103"
       gradientUnits="userSpaceOnUse"><stop
         stop-color="#E8AA14"
         id="stop1429" /><stop
         offset="1"
         stop-color="#F96800"
         id="stop1431" /></linearGradient><linearGradient
       id="paint2_linear_188_230"
       x1="190.16"
       y1="-0.141581"
       x2="-2.5727201"
       y2="147.29401"
       gradientUnits="userSpaceOnUse"><stop
         stop-color="#E8AA14"
         id="stop1434" /><stop
         offset="1"
         stop-color="#F96800"
         id="stop1436" /></linearGradient><linearGradient
       id="paint3_linear_188_230"
       x1="30.2964"
       y1="31.805401"
       x2="-31.194401"
       y2="35.7262"
       gradientUnits="userSpaceOnUse"><stop
         stop-color="#E8AA14"
         id="stop1439" /><stop
         offset="1"
         stop-color="#F96800"
         id="stop1441" /></linearGradient><linearGradient
       id="paint4_linear_188_230"
       x1="-6.2948599"
       y1="100.816"
       x2="98.1922"
       y2="-31.827801"
       gradientUnits="userSpaceOnUse"><stop
         stop-color="#F9A400"
         id="stop1444" /><stop
         offset="1"
         stop-color="#FFD878"
         id="stop1446" /></linearGradient><linearGradient
       id="paint5_linear_188_230"
       x1="-0.134666"
       y1="95.733299"
       x2="83.6017"
       y2="61.663502"
       gradientUnits="userSpaceOnUse"><stop
         stop-color="#F9A400"
         id="stop1449" /><stop
         offset="1"
         stop-color="#FFD878"
         id="stop1451" /></linearGradient></defs><sodipodi:namedview
     id="namedview1386"
     pagecolor="#505050"
     bordercolor="#eeeeee"
     borderopacity="1"
     inkscape:showpageshadow="0"
     inkscape:pageopacity="0"
     inkscape:pagecheckerboard="0"
     inkscape:deskcolor="#505050"
     showgrid="false"
     inkscape:zoom="1.7467811"
     inkscape:cx="305.9914"
     inkscape:cy="233"
     inkscape:window-width="1920"
     inkscape:window-height="1017"
     inkscape:window-x="-8"
     inkscape:window-y="-8"
     inkscape:window-maximized="1"
     inkscape:current-layer="svg1384" /><rect
     x="489.358"
     y="46.3801"
     width="24.6668"
     height="27.0539"
     rx="11"
     fill="#00deb6"
     id="rect1376" /><rect
     x="27.054001"
     y="370.23099"
     width="26.2582"
     height="24.6668"
     rx="11"
     fill="#00ffd1"
     id="rect1378" /><rect
     x="481.401"
     y="11.3691"
     width="15.9141"
     height="14.1458"
     rx="5"
     fill="#00deb6"
     id="rect1380" /><path
     fill-rule="evenodd"
     clip-rule="evenodd"
     d="M 446,25.2295 C 446,11.4224 434.807,0.229492 421,0.229492 H 25 C 11.1929,0.229492 0,11.4224 0,25.2295 V 327.726 c 0,13.807 11.1929,25 25,25 h 67.9697 c 13.8073,0 25.0003,11.193 25.0003,25 v 89.248 c 0,13.808 11.193,25 25,25 h 391.41 c 13.807,0 25,-11.192 25,-25 V 128 c 0,-13.807 -11.193,-25 -25,-25 H 471 c -13.807,0 -25,-11.1929 -25,-25 z"
     fill="#00ffd1"
     id="path1382" /><g
     style="fill:none"
     id="g1495"
     transform="matrix(-1,0,0,1,421.42977,-10.223705)"><path
       d="M 268.841,267.662 C 277.443,328.728 271.312,441 214.428,441 157.545,441 52.4321,333.016 52.4321,278.421 c 0,-54.595 24.0004,-107.828 80.8839,-107.828 58.751,-11.954 105.71,10.52 135.525,97.069 z"
       fill="url(#paint0_linear_188_230)"
       id="path1390"
       style="fill:url(#paint0_linear_188_230)" /><ellipse
       cx="26.021"
       cy="59.0513"
       rx="26.021"
       ry="59.0513"
       transform="matrix(0.697282,0.716797,-0.715422,0.698693,113.524,0)"
       fill="url(#paint1_linear_188_230)"
       id="ellipse1392"
       style="fill:url(#paint1_linear_188_230)" /><rect
       width="192.271"
       height="152.858"
       rx="76.428802"
       transform="matrix(0.994514,-0.104602,0.104195,0.994557,0,78.8984)"
       fill="url(#paint2_linear_188_230)"
       id="rect1394"
       x="0"
       y="0"
       style="fill:url(#paint2_linear_188_230)" /><path
       d="M 8.445,159.483 C 6.003,132.156 26.6996,108.237 54.0938,106.729 l 64.6012,-3.558 c 24.945,-1.373 46.577,17.059 49.18,41.907 v 0 c 2.698,25.75 -15.988,48.82 -41.737,51.528 l -64.3452,6.767 C 34.8716,206.205 10.8544,186.446 8.445,159.483 Z"
       fill="#100051"
       id="path1396" /><ellipse
       cx="26.002701"
       cy="59.0905"
       rx="26.002701"
       ry="59.0905"
       transform="matrix(0.913301,0.407285,-0.405948,0.913896,192.516,5.98633)"
       fill="url(#paint3_linear_188_230)"
       id="ellipse1398"
       style="fill:url(#paint3_linear_188_230)" /><ellipse
       cx="31.0357"
       cy="68.498802"
       rx="31.0357"
       ry="68.498802"
       transform="matrix(0.984717,0.174162,-0.173498,0.984834,29.8977,186.078)"
       fill="url(#paint4_linear_188_230)"
       id="ellipse1400"
       style="fill:url(#paint4_linear_188_230)" /><path
       d="m 33.2267,141.533 c 0.3905,-3.143 3.03,-5.493 6.1914,-5.679 v 0 c 4.1737,-0.247 7.5525,3.304 7.2722,7.476 -0.6812,10.14 -0.2907,17.764 1.5179,27.196 0.7717,4.025 -2.0821,7.907 -6.173,8.148 v 0 c -3.1879,0.188 -6.0626,-1.941 -6.7508,-5.059 -2.5861,-11.716 -3.5466,-20.098 -2.0577,-32.082 z"
       fill="#00ffd1"
       id="path1402" /><path
       d="m 101.057,133.04 c 0.39,-3.143 3.03,-5.492 6.191,-5.679 v 0 c 4.174,-0.246 7.552,3.304 7.272,7.476 -0.681,10.14 -0.291,17.765 1.518,27.197 0.772,4.024 -2.082,7.906 -6.173,8.148 v 0 c -3.188,0.188 -6.063,-1.942 -6.751,-5.06 -2.586,-11.716 -3.5463,-20.098 -2.057,-32.082 z"
       fill="#00ffd1"
       id="path1404" /><line
       y1="-2.5"
       x2="19.9156"
       y2="-2.5"
       transform="matrix(0.99827,-0.0587976,0.0585676,0.998283,32.2854,150.265)"
       stroke="#100051"
       stroke-width="5"
       id="line1406"
       x1="0" /><line
       y1="-2.5"
       x2="19.9156"
       y2="-2.5"
       transform="matrix(0.99827,-0.0587984,0.0585669,0.998283,101.08,158.207)"
       stroke="#100051"
       stroke-width="5"
       id="line1408"
       x1="0" /><line
       y1="-2.5"
       x2="19.9156"
       y2="-2.5"
       transform="matrix(0.99827,-0.0587976,0.0585676,0.998283,96.2268,143.501)"
       stroke="#100051"
       stroke-width="5"
       id="line1410"
       x1="0" /><line
       y1="-2.5"
       x2="19.9156"
       y2="-2.5"
       transform="matrix(0.99827,-0.0587976,0.0585676,0.998283,33.1616,165.205)"
       stroke="#100051"
       stroke-width="5"
       id="line1412"
       x1="0" /><ellipse
       cx="153.752"
       cy="248.686"
       rx="5.2278099"
       ry="5.2381201"
       fill="#00deb6"
       id="ellipse1414" /><ellipse
       cx="159.229"
       cy="266.146"
       rx="5.2278099"
       ry="5.2381301"
       fill="#00deb6"
       id="ellipse1416" /><rect
       width="19.9177"
       height="7.98101"
       rx="3.99051"
       transform="matrix(0.970903,-0.239475,0.238586,0.971121,124.626,252.208)"
       fill="#ffffff"
       id="rect1418"
       x="0"
       y="0" /><rect
       width="14.7224"
       height="7.9809899"
       rx="3.99049"
       transform="matrix(0.970903,-0.239474,0.238587,0.971121,133.156,266.928)"
       fill="#ffffff"
       id="rect1420"
       x="0"
       y="0" /><ellipse
       cx="31.066299"
       cy="71.947502"
       rx="31.066299"
       ry="71.947502"
       transform="matrix(0.684985,-0.728557,0.727208,0.686417,113.453,213.652)"
       fill="url(#paint5_linear_188_230)"
       id="ellipse1422"
       style="fill:url(#paint5_linear_188_230)" /></g></svg>
