<svg width="145" height="134" viewBox="0 0 145 134" fill="none" xmlns="http://www.w3.org/2000/svg">
<circle cx="77" cy="75" r="59" fill="#006EDD"/>
<path d="M54.1869 79.8333C53.0784 83.7221 48.7307 85.4107 44.7734 84.579C41.6076 83.9136 38.8108 81.7116 38.2592 78.5239C37.8744 76.2999 37.9163 74.1814 38.3946 71.6869C38.9831 68.6175 41.5689 66.3973 44.6219 65.7289C48.5895 64.8603 52.8349 66.7717 53.9842 70.6672C54.9515 73.9457 55.0579 76.7777 54.1869 79.8333Z" fill="url(#paint0_linear_713_375)"/>
<ellipse cx="77.5167" cy="75.0129" rx="33.9937" ry="34.0131" fill="url(#paint1_linear_713_375)"/>
<path d="M49.0482 69.7978C49.7487 57.2296 58.7547 47.9465 71.3405 47.732C84.2561 47.5119 96.7641 57.7588 97.7572 70.6381L98.2906 77.5543C98.9292 85.8367 93.368 93.5035 85.1269 94.5478C77.1695 95.5561 70.228 95.5704 62.3508 94.5239C54.4023 93.4679 48.7051 86.4408 48.7769 78.4229C48.8037 75.4291 48.892 72.6002 49.0482 69.7978Z" fill="url(#paint2_linear_713_375)"/>
<path d="M88.0119 71.0114C88.0119 73.6028 85.7791 75.7515 82.9639 75.7515C80.1488 75.7515 77.916 73.6028 77.916 71.0114C77.916 68.42 80.1488 66.2712 82.9639 66.2712C85.7791 66.2712 88.0119 68.42 88.0119 71.0114Z" stroke="white"/>
<path d="M59.158 66.843C62.1122 66.843 64.462 68.9865 64.6027 71.6092C64.2536 71.8445 64.0148 71.8974 63.831 71.8913C63.5918 71.8833 63.343 71.7757 62.9511 71.5502C62.8767 71.5075 62.7996 71.4619 62.7192 71.4145C61.9648 70.9692 60.9219 70.3535 59.186 70.256C57.3424 70.1525 56.2981 70.9809 55.564 71.5633C55.5034 71.6114 55.445 71.6577 55.3883 71.7018C54.9979 72.0055 54.7801 72.1252 54.5787 72.131C54.4196 72.1355 54.1551 72.0659 53.7111 71.652C53.8284 69.0098 56.1877 66.843 59.158 66.843Z" stroke="white"/>
<path d="M66.7231 78.9192C70.1789 79.8755 72.1659 79.8835 75.8016 78.9192V80.1068C72.1171 81.091 70.1367 81.0365 66.7231 80.1068V78.9192Z" fill="#FFFCFC"/>
<path d="M104.185 69.2803C105.304 66.123 108.831 64.7102 112.11 65.3992C115.734 66.1609 118.329 69.3578 118.329 73.0613V77.3654C118.329 80.8936 115.873 83.9459 112.426 84.7004C109.027 85.4444 105.44 83.7965 104.334 80.4979C102.961 76.4063 102.842 73.067 104.185 69.2803Z" fill="url(#paint3_linear_713_375)"/>
<path d="M119.683 74.9767C119.683 79.4603 118.115 83.095 116.181 83.095C114.247 83.095 112.679 79.4603 112.679 74.9767C112.679 70.4931 114.247 66.8584 116.181 66.8584C118.115 66.8584 119.683 70.4931 119.683 74.9767Z" fill="#FFD571"/>
<path d="M125.97 11.1116L139.04 19.5059L125.235 26.6274L125.97 11.1116Z" fill="#006EDD"/>
<path d="M5.37039 57.7705L14.177 63.4268L4.8752 68.2254L5.37039 57.7705Z" fill="#006EDD"/>
<path d="M141.959 4.18029L137.938 11.6979L133.438 4.45742L141.959 4.18029Z" fill="#006EDD"/>
<path d="M14.5649 45.5436L13.7611 52.9627L7.73787 48.5571L14.5649 45.5436Z" fill="#006EDD"/>
<defs>
<linearGradient id="paint0_linear_713_375" x1="46.1547" y1="85.9697" x2="45.1042" y2="50.6201" gradientUnits="userSpaceOnUse">
<stop stop-color="#FFD571"/>
<stop offset="1" stop-color="#F96800"/>
</linearGradient>
<linearGradient id="paint1_linear_713_375" x1="84.2751" y1="69.2964" x2="91.5057" y2="106.616" gradientUnits="userSpaceOnUse">
<stop stop-color="#FFFCFC"/>
<stop offset="1" stop-color="#CEE8FF"/>
</linearGradient>
<linearGradient id="paint2_linear_713_375" x1="108.028" y1="92.014" x2="45.2493" y2="36.3741" gradientUnits="userSpaceOnUse">
<stop stop-color="#9747FF"/>
<stop offset="1" stop-color="#1789FC"/>
</linearGradient>
<linearGradient id="paint3_linear_713_375" x1="111.864" y1="64.2471" x2="112.914" y2="99.5967" gradientUnits="userSpaceOnUse">
<stop stop-color="#FFD571"/>
<stop offset="1" stop-color="#F96800"/>
</linearGradient>
</defs>
</svg>
