<?xml version="1.0" encoding="UTF-8" standalone="no"?>
<svg
   width="867"
   height="963"
   viewBox="0 0 867 963"
   fill="none"
   version="1.1"
   id="svg2016"
   sodipodi:docname="professor.svg"
   xml:space="preserve"
   inkscape:export-filename="uno\professor.svg"
   inkscape:export-xdpi="96"
   inkscape:export-ydpi="96"
   inkscape:version="1.2.1 (9c6d41e410, 2022-07-14)"
   xmlns:inkscape="http://www.inkscape.org/namespaces/inkscape"
   xmlns:sodipodi="http://sodipodi.sourceforge.net/DTD/sodipodi-0.dtd"
   xmlns:xlink="http://www.w3.org/1999/xlink"
   xmlns="http://www.w3.org/2000/svg"
   xmlns:svg="http://www.w3.org/2000/svg"><defs
     id="defs2020"><linearGradient
       id="paint0_linear_188_250"
       x1="7.54478"
       y1="101.538"
       x2="13.9624"
       y2="40.6193"
       gradientUnits="userSpaceOnUse"><stop
         stop-color="#FFD571"
         id="stop2094" /><stop
         offset="1"
         stop-color="#F97700"
         id="stop2096" /></linearGradient><linearGradient
       id="paint1_linear_188_250"
       x1="117.773"
       y1="327.554"
       x2="186.476"
       y2="297.426"
       gradientUnits="userSpaceOnUse"><stop
         stop-color="#FFFCFC"
         id="stop2099" /><stop
         offset="1"
         stop-color="#CEE8FF"
         id="stop2101" /></linearGradient><linearGradient
       id="paint2_linear_188_250"
       x1="180.084"
       y1="446.478"
       x2="271.153"
       y2="434.611"
       gradientUnits="userSpaceOnUse"><stop
         stop-color="#FFFCFC"
         id="stop2104" /><stop
         offset="1"
         stop-color="#CEE8FF"
         id="stop2106" /></linearGradient><linearGradient
       id="paint3_linear_188_250"
       x1="393.72"
       y1="433.239"
       x2="275.261"
       y2="438.26"
       gradientUnits="userSpaceOnUse"><stop
         stop-color="#FFFCFC"
         id="stop2109" /><stop
         offset="1"
         stop-color="#CEE8FF"
         id="stop2111" /></linearGradient><linearGradient
       id="paint4_linear_188_250"
       x1="7.54475"
       y1="101.539"
       x2="13.9624"
       y2="40.6194"
       gradientUnits="userSpaceOnUse"><stop
         stop-color="#FFD571"
         id="stop2114" /><stop
         offset="1"
         stop-color="#F97700"
         id="stop2116" /></linearGradient><linearGradient
       id="paint5_linear_188_250"
       x1="138.544"
       y1="194.935"
       x2="217.638"
       y2="203.04"
       gradientUnits="userSpaceOnUse"><stop
         stop-color="#FFFCFC"
         id="stop2119" /><stop
         offset="1"
         stop-color="#CEE8FF"
         id="stop2121" /></linearGradient><linearGradient
       id="paint6_linear_188_250"
       x1="12.0756"
       y1="11.098"
       x2="-9.36188"
       y2="64.9657"
       gradientUnits="userSpaceOnUse"><stop
         stop-color="#FFD571"
         id="stop2124" /><stop
         offset="1"
         stop-color="#F96800"
         id="stop2126" /></linearGradient><linearGradient
       id="paint7_linear_188_250"
       x1="-14.7644"
       y1="52.4071"
       x2="27.9794"
       y2="13.4246"
       gradientUnits="userSpaceOnUse"><stop
         stop-color="#F96800"
         id="stop2129" /><stop
         offset="1"
         stop-color="#FFD571"
         id="stop2131" /></linearGradient><linearGradient
       id="paint8_linear_188_250"
       x1="321.823"
       y1="116.185"
       x2="393.958"
       y2="336.91"
       gradientUnits="userSpaceOnUse"><stop
         stop-color="#CEE8FF"
         id="stop2134" /><stop
         offset="0.380208"
         stop-color="#FFFCFC"
         id="stop2136" /><stop
         offset="0.635417"
         stop-color="#FFFCFC"
         id="stop2138" /><stop
         offset="1"
         stop-color="#CEE8FF"
         id="stop2140" /></linearGradient><linearGradient
       id="paint9_linear_188_250"
       x1="386.416"
       y1="204.065"
       x2="318.167"
       y2="261.581"
       gradientUnits="userSpaceOnUse"><stop
         stop-color="#FFFCFC"
         id="stop2143" /><stop
         offset="1"
         stop-color="#CEE8FF"
         id="stop2145" /></linearGradient><linearGradient
       id="paint10_linear_188_250"
       x1="416.795"
       y1="308.83"
       x2="435.286"
       y2="372.285"
       gradientUnits="userSpaceOnUse"><stop
         stop-color="#FFFCFC"
         id="stop2148" /><stop
         offset="1"
         stop-color="#CEE8FF"
         id="stop2150" /></linearGradient><linearGradient
       id="paint12_linear_188_250"
       x1="12.0756"
       y1="11.098"
       x2="-9.3619"
       y2="64.9657"
       gradientUnits="userSpaceOnUse"><stop
         stop-color="#FFD571"
         id="stop2158" /><stop
         offset="1"
         stop-color="#F96800"
         id="stop2160" /></linearGradient><linearGradient
       id="paint13_linear_188_250"
       x1="189.463"
       y1="107.739"
       x2="186.798"
       y2="23.0572"
       gradientUnits="userSpaceOnUse"><stop
         stop-color="#FFD571"
         id="stop2163" /><stop
         offset="1"
         stop-color="#F96800"
         id="stop2165" /></linearGradient><linearGradient
       id="paint14_linear_188_250"
       x1="275.718"
       y1="67.7935"
       x2="293.98"
       y2="156.815"
       gradientUnits="userSpaceOnUse"><stop
         stop-color="#FFFCFC"
         id="stop2168" /><stop
         offset="1"
         stop-color="#CEE8FF"
         id="stop2170" /></linearGradient><linearGradient
       id="paint15_linear_188_250"
       x1="329.465"
       y1="122.221"
       x2="180.326"
       y2="-2.61469"
       gradientUnits="userSpaceOnUse"><stop
         stop-color="#9747FF"
         id="stop2173" /><stop
         offset="1"
         stop-color="#1789FC"
         id="stop2175" /></linearGradient><linearGradient
       id="paint16_linear_188_250"
       x1="338.143"
       y1="55.6956"
       x2="340.808"
       y2="140.378"
       gradientUnits="userSpaceOnUse"><stop
         stop-color="#FFD571"
         id="stop2178" /><stop
         offset="1"
         stop-color="#F96800"
         id="stop2180" /></linearGradient><linearGradient
       id="paint17_linear_188_250"
       x1="188.072"
       y1="196.305"
       x2="231.897"
       y2="220.041"
       gradientUnits="userSpaceOnUse"><stop
         stop-color="#F96800"
         id="stop2183" /><stop
         offset="1"
         stop-color="#FFD571"
         id="stop2185" /></linearGradient><linearGradient
       id="paint18_linear_188_250"
       x1="200.397"
       y1="184.435"
       x2="237.603"
       y2="199.968"
       gradientUnits="userSpaceOnUse"><stop
         stop-color="#F96800"
         id="stop2188" /><stop
         offset="1"
         stop-color="#FFD571"
         id="stop2190" /></linearGradient><linearGradient
       inkscape:collect="always"
       xlink:href="#paint7_linear_188_250"
       id="linearGradient2293"
       gradientUnits="userSpaceOnUse"
       x1="-14.7644"
       y1="52.4071"
       x2="27.9794"
       y2="13.4246" /><linearGradient
       inkscape:collect="always"
       xlink:href="#paint7_linear_188_250"
       id="linearGradient2295"
       gradientUnits="userSpaceOnUse"
       x1="-14.7644"
       y1="52.4071"
       x2="27.9794"
       y2="13.4246" /></defs><sodipodi:namedview
     id="namedview2018"
     pagecolor="#505050"
     bordercolor="#eeeeee"
     borderopacity="1"
     inkscape:showpageshadow="0"
     inkscape:pageopacity="0"
     inkscape:pagecheckerboard="0"
     inkscape:deskcolor="#505050"
     showgrid="false"
     inkscape:zoom="0.84527518"
     inkscape:cx="434.76966"
     inkscape:cy="370.29361"
     inkscape:window-width="1920"
     inkscape:window-height="1017"
     inkscape:window-x="-8"
     inkscape:window-y="-8"
     inkscape:window-maximized="1"
     inkscape:current-layer="svg2016" /><path
     d="M 196.11495,62.703948 C 207.50446,15.047671 267.04158,-3.5573836 304.83229,28.731246 L 795.61391,448.06791 c 38.83,33.17662 25.64669,94.87115 -23.55882,110.24786 L 133.36951,757.89973 C 84.162665,773.27515 36.510088,730.59213 48.210985,681.62458 Z"
     fill="#1789fc"
     id="path2008"
     style="stroke-width:1.31245" /><path
     d="m 562.4982,651.5598 c 3.98812,-3.12737 9.96033,-0.88281 10.75077,4.03867 l 3.85372,23.99124 c 0.79044,4.92277 -4.19305,8.832 -8.97028,7.0366 l -23.28603,-8.74786 c -4.77856,-1.79539 -5.76594,-7.94918 -1.77915,-11.07656 z"
     fill="#1789fc"
     id="path2010"
     style="stroke-width:1.31245" /><path
     d="m 70.436434,352.53012 c 0.141055,-1.98826 2.440515,-3.08336 4.141157,-1.97143 l 8.269006,5.40948 c 1.699311,1.11193 1.524989,3.59726 -0.315377,4.4736 l -8.950328,4.26131 c -1.840366,0.87634 -3.965503,-0.51389 -3.824449,-2.50216 z"
     fill="#1789fc"
     id="path2012"
     style="stroke-width:1.31245" /><path
     d="m 439.46646,100.837 c 3.87102,-3.263299 9.92174,-1.227138 10.89182,3.66457 l 1.74855,8.82293 c 0.97009,4.89301 -3.86703,8.9718 -8.70814,7.34339 l -8.72943,-2.93839 c -4.84111,-1.62841 -6.05338,-7.74337 -2.18369,-11.00666 z"
     fill="#1789fc"
     id="path2014"
     style="stroke-width:1.31245" /><g
     style="fill:none"
     id="g2291"
     transform="matrix(1.3307059,0,0,1.2944447,-10.670793,97.541844)"><rect
       width="15.5206"
       height="47.932701"
       rx="7.7603002"
       transform="matrix(0.978908,-0.2043,0.20427,0.978915,119.775,340.177)"
       fill="url(#paint0_linear_188_250)"
       id="rect2022"
       x="0"
       y="0"
       style="fill:url(#paint0_linear_188_250)" /><path
       d="m 117.738,284.725 c 4.118,-15.42 24.084,-19.198 39.38,-14.642 14.999,4.468 29.808,17.816 25.001,32.711 -4.921,15.249 -10.178,28.672 -16.723,44.84 -3.106,7.674 -9.799,13.544 -18.005,14.638 -13.542,1.805 -21.492,-0.149 -32.106,-8.57 -6.156,-4.885 -8.842,-12.888 -7.705,-20.664 2.446,-16.732 5.592,-31.219 10.158,-48.313 z"
       fill="url(#paint1_linear_188_250)"
       id="path2024"
       style="fill:url(#paint1_linear_188_250)" /><path
       d="m 184.845,291.389 c -1.719,5.772 -16.06,6.595 -32.032,1.837 -15.972,-4.757 -27.526,-13.294 -25.806,-19.067 1.719,-5.772 12.215,-9.366 31.371,-3.66 19.157,5.707 28.186,15.117 26.467,20.89 z"
       fill="#d9d9d9"
       id="path2026" /><path
       d="m 114.388,299.472 c 5.647,0.05 11.343,-0.751 14.343,14.259 0,0 1.377,10.799 7.299,13.367 5.923,2.569 12.115,-4.947 12.115,-4.947 9.969,-11.428 22.685,1.802 26.131,3.296"
       stroke="#d9d9d9"
       stroke-width="5"
       id="path2028" /><path
       d="m 262.48,416.158 c 0,-9.123 0,-13.685 -1.167,-17.744 -1.644,-5.724 -4.955,-10.829 -9.51,-14.665 -3.231,-2.72 -7.396,-4.581 -15.726,-8.301 -19.984,-8.927 -29.976,-13.39 -37.725,-12.712 -10.945,0.958 -20.491,7.822 -24.883,17.893 -3.109,7.13 -2.059,18.023 0.042,39.809 l 5.878,60.955 c 1.567,16.258 2.351,24.388 8.76,31.67 0.062,0.072 0.188,0.213 0.252,0.283 6.5,7.202 11.658,8.307 21.975,10.517 7.495,1.605 14.684,1.525 22.328,-0.332 11.224,-2.726 16.836,-4.089 23.236,-12.119 0.063,-0.079 0.185,-0.235 0.247,-0.315 6.293,-8.115 6.293,-16.883 6.293,-34.421 z"
       fill="url(#paint2_linear_188_250)"
       id="path2030"
       style="fill:url(#paint2_linear_188_250)" /><path
       d="m 278.913,413.913 c 0,-9.09 0,-13.635 1.16,-17.684 1.629,-5.685 4.901,-10.762 9.406,-14.593 3.209,-2.729 7.348,-4.605 15.627,-8.359 20.06,-9.097 30.091,-13.645 37.876,-12.991 10.947,0.919 20.517,7.75 24.945,17.804 3.148,7.15 2.107,18.114 0.024,40.042 l -6.008,63.25 c -1.536,16.163 -2.303,24.244 -8.642,31.516 -0.062,0.071 -0.187,0.213 -0.25,0.283 -6.43,7.192 -11.544,8.33 -21.772,10.607 -7.703,1.714 -15.075,1.626 -22.939,-0.366 -11.112,-2.815 -16.669,-4.223 -22.979,-12.221 -0.062,-0.078 -0.183,-0.233 -0.244,-0.313 -6.204,-8.081 -6.204,-16.781 -6.204,-34.18 z"
       fill="url(#paint3_linear_188_250)"
       id="path2032"
       style="fill:url(#paint3_linear_188_250)" /><ellipse
       cx="241.481"
       cy="157.728"
       rx="22.824301"
       ry="10.2717"
       fill="#d9d9d9"
       id="ellipse2034" /><rect
       width="15.5205"
       height="47.9328"
       rx="7.7602701"
       transform="matrix(0.999435,0.0336129,-0.0336077,0.999435,423.861,344.218)"
       fill="url(#paint4_linear_188_250)"
       id="rect2036"
       x="0"
       y="0"
       style="fill:url(#paint4_linear_188_250)" /><path
       d="m 169.241,173.611 c 1.751,-3.28 6.51,-3.908 9.043,-1.366 8.842,8.875 17.104,12.256 30.36,12.545 3.848,0.084 6.347,3.705 4.594,6.989 l -38.972,72.997 c -0.756,1.415 -2.183,2.459 -3.832,2.763 -21.057,3.875 -30.689,0.351 -40.249,-16.602 -0.726,-1.287 -0.698,-2.864 0.033,-4.234 z"
       fill="url(#paint5_linear_188_250)"
       id="path2038"
       style="fill:url(#paint5_linear_188_250)" /><ellipse
       cx="23.750999"
       cy="11.9369"
       rx="23.750999"
       ry="11.9369"
       transform="matrix(0.918528,0.395355,-0.48664,0.873603,177.29,162.803)"
       fill="#d9d9d9"
       id="ellipse2040" /><rect
       width="15.5206"
       height="47.9328"
       rx="7.7602801"
       transform="matrix(0.993758,-0.111558,0.111541,0.99376,104.535,341.384)"
       fill="url(#paint6_linear_188_250)"
       id="rect2042"
       x="0"
       y="0"
       style="fill:url(#paint6_linear_188_250)" /><path
       d="M 4.05197,195.948 9.16098,191.739 165.36,381.384 156.199,388.93 Z"
       fill="#004a95"
       id="path2044" /><rect
       width="15.5206"
       height="33.863499"
       rx="7.7602801"
       transform="matrix(0.995616,0.0935321,-0.0935178,0.995618,149.699,346.5)"
       fill="url(#paint7_linear_188_250)"
       id="rect2046"
       x="0"
       y="0"
       style="fill:url(#linearGradient2293)" /><path
       d="m 356.078,382.346 c 2.043,10.904 -13.094,20.733 -34.514,24.747 -21.421,4.013 -40.441,-1.572 -42.484,-12.476 -2.043,-10.904 13.666,-22.997 35.086,-27.011 21.421,-4.013 39.869,3.836 41.912,14.74 z"
       fill="#d9d9d9"
       id="path2048" /><path
       d="m 261.435,400.685 c -2.043,10.904 -19.71,14.587 -41.131,10.574 -21.42,-4.013 -37.13,-16.105 -35.087,-27.009 2.042,-10.904 21.063,-16.491 42.483,-12.478 21.421,4.013 35.777,18.009 33.735,28.913 z"
       fill="#d9d9d9"
       id="path2050" /><ellipse
       cx="264.534"
       cy="268.66299"
       rx="108.416"
       ry="130.33701"
       fill="url(#paint8_linear_188_250)"
       id="ellipse2052"
       style="fill:url(#paint8_linear_188_250)" /><path
       d="m 417.399,263.037 c -22.224,-1.177 -32.023,3.606 -44.892,21.418 l -45.628,-95.649 c 11.078,-22.367 20.67,-27.605 44.892,-21.418 z"
       fill="url(#paint9_linear_188_250)"
       id="path2054"
       style="fill:url(#paint9_linear_188_250)" /><ellipse
       cx="25.019501"
       cy="13.5169"
       rx="25.019501"
       ry="13.5169"
       transform="matrix(-0.909518,0.415592,-0.415569,-0.909595,422.831,274.555)"
       fill="#d9d9d9"
       id="ellipse2056" /><path
       d="m 376.764,314.643 c -4.98,-15.164 9.673,-29.243 24.971,-33.791 15.003,-4.46 34.699,-1.379 38.816,13.72 4.215,15.46 7.15,29.574 10.508,46.69 1.593,8.124 -0.802,16.698 -7.075,22.101 -10.353,8.916 -18.078,11.626 -31.569,10.378 -7.824,-0.725 -14.449,-5.957 -17.747,-13.09 -7.097,-15.348 -12.382,-29.198 -17.904,-46.008 z"
       fill="url(#paint10_linear_188_250)"
       id="path2058"
       style="fill:url(#paint10_linear_188_250)" /><path
       d="m 434.434,290.115 c 1.716,5.774 -10.146,14.394 -26.494,19.253 -16.348,4.86 -30.992,4.119 -32.708,-1.655 -1.716,-5.773 5.311,-14.582 24.919,-20.41 19.608,-5.829 32.567,-2.962 34.283,2.812 z"
       fill="#fffcfc"
       id="path2060" /><rect
       width="15.5206"
       height="33.863499"
       rx="7.7602801"
       transform="matrix(0.998053,0.0623791,-0.0623696,0.998053,396.516,352.435)"
       fill="url(#paint11_linear_188_250)"
       id="rect2062"
       style="fill:url(#linearGradient2295)"
       x="0"
       y="0" /><rect
       width="15.5205"
       height="47.9328"
       rx="7.7602701"
       transform="matrix(0.993758,-0.111558,0.111541,0.99376,437.771,346.405)"
       fill="url(#paint12_linear_188_250)"
       id="rect2064"
       x="0"
       y="0"
       style="fill:url(#paint12_linear_188_250)" /><path
       d="m 204.687,101.115 c -1.819,4.021 -6.326,5.968 -10.634,5.009 l -13.812,-3.073 c -3.364,-0.749 -6.157,-3.1632 -7.112,-6.4746 -2.85,-9.8894 -2.843,-17.6277 0.134,-29.1696 0.894,-3.4663 3.721,-6.0722 7.208,-6.8805 l 12.864,-2.9819 c 4.639,-1.0752 9.448,1.2493 11.181,5.6843 5.683,14.5419 6.151,24.6672 0.171,37.8863 z"
       fill="url(#paint13_linear_188_250)"
       id="path2066"
       style="fill:url(#paint13_linear_188_250)" /><ellipse
       cx="260.42499"
       cy="81.489098"
       rx="76.917999"
       ry="81.489098"
       fill="url(#paint14_linear_188_250)"
       id="ellipse2068"
       style="fill:url(#paint14_linear_188_250)" /><path
       d="m 196.162,66.2771 c 1.678,-28.4654 21.91,-49.639 50.421,-50.1501 29.12,-0.5221 57.297,22.6869 59.412,51.7353 l 1.467,20.1457 c 1.433,19.676 -11.658,37.962 -31.227,40.468 -16.987,2.176 -32.006,2.2 -48.839,-0.065 -18.818,-2.532 -32.149,-19.311 -32.004,-38.2989 0.064,-8.3116 0.313,-16.0858 0.77,-23.835 z"
       fill="url(#paint15_linear_188_250)"
       id="path2070"
       style="fill:url(#paint15_linear_188_250)" /><path
       d="m 284.304,71.902 c 0,6.3814 -5.173,11.5543 -11.554,11.5543 -6.38,0 -11.553,-5.1729 -11.553,-11.5543 0,-6.3814 5.173,-11.5543 11.553,-11.5543 6.381,0 11.554,5.1729 11.554,11.5543 z"
       stroke="#ffffff"
       stroke-width="2"
       id="path2072" /><path
       d="m 218.885,61.7173 c 6.738,0 12.2,5.2273 12.457,11.7341 -0.853,0.6278 -1.436,0.7723 -1.886,0.7564 -0.562,-0.0199 -1.142,-0.2886 -2.032,-0.8307 -0.169,-0.1026 -0.343,-0.2118 -0.525,-0.3256 -1.704,-1.0647 -4.047,-2.5292 -7.955,-2.7616 -4.14,-0.2462 -6.477,1.7177 -8.132,3.1073 -0.137,0.1153 -0.269,0.2266 -0.398,0.3323 -0.886,0.7302 -1.403,1.0378 -1.888,1.0525 -0.397,0.0119 -1.039,-0.18 -2.101,-1.2469 0.213,-6.5457 5.693,-11.8178 12.46,-11.8178 z"
       stroke="#ffffff"
       stroke-width="2"
       id="path2074" /><path
       d="m 236.003,90.8477 c 7.82,2.2912 12.315,2.3102 20.542,0 v 2.8452 c -8.337,2.3581 -12.818,2.2275 -20.542,0 z"
       fill="#fffcfc"
       id="path2076" /><path
       d="m 322.919,62.32 c 1.819,-4.021 6.326,-5.9682 10.634,-5.0096 l 11.391,2.535 c 4.574,1.0178 7.828,5.0753 7.828,9.7612 v 24.0481 c 0,4.6529 -3.209,8.6913 -7.742,9.7413 l -10.759,2.494 c -4.639,1.076 -9.448,-1.249 -11.182,-5.684 -5.682,-14.5418 -6.151,-24.6671 -0.17,-37.886 z"
       fill="url(#paint16_linear_188_250)"
       id="path2078"
       style="fill:url(#paint16_linear_188_250)" /><path
       d="m 355.834,81.4016 c 0,10.7419 -3.547,19.4504 -7.923,19.4504 -4.376,0 -7.923,-8.7085 -7.923,-19.4504 0,-10.7419 3.547,-19.4499 7.923,-19.4499 4.376,0 7.923,8.708 7.923,19.4499 z"
       fill="#ffd571"
       id="path2080" /><path
       d="m 181.358,233.298 c 2.342,-8.015 9.749,-13.58 18.096,-13.58 h 10.554 c 11.638,0 20,10.549 17.622,22.005 -0.724,3.492 -1.353,6.954 -1.802,10.425 -1.594,12.321 -10.906,23.689 -22.742,23.689 h -11.008 c -8.232,0 -15.441,-5.339 -15.71,-13.041 -0.346,-9.919 2.021,-19.333 4.99,-29.498 z"
       stroke="#d9d9d9"
       stroke-width="3"
       id="path2082" /><rect
       x="188.07201"
       y="203.60899"
       width="43.822701"
       height="9.1304302"
       rx="4.5652199"
       fill="url(#paint17_linear_188_250)"
       id="rect2084"
       style="fill:url(#paint17_linear_188_250)" /><rect
       x="200.397"
       y="191.739"
       width="33.779999"
       height="9.1304302"
       rx="4.5652199"
       fill="url(#paint18_linear_188_250)"
       id="rect2086"
       style="fill:url(#paint18_linear_188_250)" /><path
       d="m 179.171,477.75 c 6.637,-2.193 12.899,-5.181 24.033,7.343 0,0 7.095,9.32 15.334,9.32 8.239,0 11.672,-9.32 11.672,-9.32 5.87,-14.39 27.477,-7.343 32.27,-7.343"
       stroke="#d9d9d9"
       stroke-width="5"
       id="path2088" /><path
       d="m 279.142,479.119 c 6.493,-2.193 25.397,-5.448 36.29,7.076 0,0 6.473,9.359 14.534,9.359 8.061,0 11.486,-7.722 11.486,-7.722 5.743,-14.391 19.414,-5.756 20.085,-7.538"
       stroke="#d9d9d9"
       stroke-width="5"
       id="path2090" /><path
       d="m 382.59,331.462 c 4.458,-3.468 8.425,-7.633 20.096,2.27 0,0 7.784,7.61 14.022,5.946 6.237,-1.664 6.424,-11.401 6.424,-11.401 0.719,-15.148 18.901,-12.674 22.53,-13.643"
       stroke="#d9d9d9"
       stroke-width="5"
       id="path2092" /></g></svg>
