<svg width="399" height="429" viewBox="0 0 399 429" fill="none" xmlns="http://www.w3.org/2000/svg">
<ellipse cx="195.163" cy="343.951" rx="15.072" ry="19.3231" fill="url(#paint0_linear_110_25)"/>
<path fill-rule="evenodd" clip-rule="evenodd" d="M184.922 428.972C224.301 428.972 256.224 391.686 256.224 345.69C256.224 299.694 224.301 262.407 184.922 262.407C145.543 262.407 113.62 299.694 113.62 345.69C113.62 391.686 145.543 428.972 184.922 428.972ZM194.777 402.693C213.772 402.693 229.172 377.778 229.172 347.043C229.172 316.308 213.772 291.392 194.777 291.392C175.781 291.392 160.382 316.308 160.382 347.043C160.382 377.778 175.781 402.693 194.777 402.693Z" fill="#0A1722"/>
<path d="M392.929 74.9734L385.779 93.91L369.548 95.8423L373.413 78.0651L392.929 74.9734Z" fill="#FFDDDD"/>
<path d="M316.125 123.553L373.486 78.0652C375.728 87.8035 378.474 91.2174 385.972 93.811L328.612 139.299L316.125 123.553Z" fill="url(#paint1_linear_110_25)"/>
<path d="M106.583 189.127L117.421 213.38C90.2132 218.924 70.7359 221.329 46.9954 265.656L27.2815 245.244C46.1063 209.377 70.5386 194.813 106.583 189.127Z" fill="url(#paint2_linear_110_25)"/>
<path d="M256.546 220.986L247.659 195.795C276.41 191.034 296.84 189.227 325.756 144.649L344.22 166.206C321.221 202.289 294.474 216.376 256.546 220.986Z" fill="url(#paint3_linear_110_25)"/>
<path d="M188.312 24.9238L197.974 29.2963C188.373 42.3293 184.764 50.8157 179.426 66.6866L169.765 62.3141C175.259 45.732 178.514 36.6329 188.312 24.9238Z" fill="#100051"/>
<path fill-rule="evenodd" clip-rule="evenodd" d="M218.531 320.479C243.849 311.218 263.365 291.463 269.16 265.545C278.805 222.401 246.774 178.517 197.617 167.527C148.459 156.537 100.79 182.603 91.1443 225.747C81.6367 268.275 112.623 311.522 160.592 323.274C153.593 315.391 150.329 304.745 152.703 294.126C156.767 275.949 175.809 264.735 195.236 269.079C214.662 273.422 227.117 291.677 223.053 309.853C222.184 313.742 220.629 317.312 218.531 320.479Z" fill="url(#paint4_linear_110_25)"/>
<rect x="81.9297" y="62.2205" width="185.502" height="135.648" rx="40" fill="url(#paint5_linear_110_25)"/>
<circle cx="110.141" cy="117.484" r="69.1766" fill="url(#paint6_linear_110_25)"/>
<circle cx="110.142" cy="117.484" r="50.6265" fill="white"/>
<circle cx="241.152" cy="117.484" r="69.1766" fill="url(#paint7_linear_110_25)"/>
<circle cx="241.152" cy="117.484" r="50.6265" fill="white"/>
<circle cx="198.835" cy="16.0382" r="16.0382" fill="url(#paint8_linear_110_25)"/>
<ellipse cx="107.823" cy="117.484" rx="22.8012" ry="24.7335" fill="black"/>
<circle cx="125.6" cy="117.484" r="9.66154" fill="white"/>
<ellipse cx="238.833" cy="117.484" rx="22.8012" ry="24.7335" fill="black"/>
<circle cx="256.61" cy="117.484" r="9.66154" fill="white"/>
<path fill-rule="evenodd" clip-rule="evenodd" d="M33.0425 294.87C51.2913 294.87 66.0849 280.076 66.0849 261.827C66.0849 243.579 51.2913 228.785 33.0425 228.785C14.7936 228.785 0 243.579 0 261.827C0 268.684 2.08841 275.053 5.66382 280.332L21.1158 254.292L45.0454 268.491L29.5038 294.683C30.6664 294.806 31.847 294.87 33.0425 294.87Z" fill="url(#paint9_linear_110_25)"/>
<path fill-rule="evenodd" clip-rule="evenodd" d="M343.368 105.185C325.121 105.436 310.532 120.431 310.783 138.678C311.033 156.925 326.029 171.514 344.276 171.264C362.523 171.013 377.112 156.018 376.861 137.77C376.767 130.915 374.592 124.575 370.944 119.345L355.851 145.596L331.729 131.726L346.909 105.324C345.745 105.216 344.564 105.168 343.368 105.185Z" fill="url(#paint10_linear_110_25)"/>
<path d="M392.909 75.0138L389.644 83.6687C386.241 81.8235 384.42 79.7892 383.654 76.326L392.909 75.0138Z" fill="black"/>
<path d="M208.882 275.354C212.747 279.412 216.225 278.639 215.259 296.029C182.41 276.9 163.083 310.182 159.608 344.724L115.552 327.719C123.281 279.412 169.85 253.712 208.882 275.354Z" fill="#0A1722"/>
<defs>
<linearGradient id="paint0_linear_110_25" x1="213.327" y1="331.97" x2="180.091" y2="369.264" gradientUnits="userSpaceOnUse">
<stop stop-color="white"/>
<stop offset="1" stop-color="#ABBDC2"/>
</linearGradient>
<linearGradient id="paint1_linear_110_25" x1="344.806" y1="100.809" x2="357.292" y2="116.555" gradientUnits="userSpaceOnUse">
<stop stop-color="#FFD571"/>
<stop offset="1" stop-color="#E8AA14"/>
</linearGradient>
<linearGradient id="paint2_linear_110_25" x1="94.49" y1="204.631" x2="39.4192" y2="249.654" gradientUnits="userSpaceOnUse">
<stop stop-color="#100051"/>
<stop offset="1" stop-color="#004A95"/>
</linearGradient>
<linearGradient id="paint3_linear_110_25" x1="295.257" y1="179.511" x2="362.694" y2="202.699" gradientUnits="userSpaceOnUse">
<stop stop-color="#100051"/>
<stop offset="1" stop-color="#006EDD"/>
</linearGradient>
<linearGradient id="paint4_linear_110_25" x1="196.553" y1="194.13" x2="225.862" y2="351.2" gradientUnits="userSpaceOnUse">
<stop stop-color="#006EDD"/>
<stop offset="1" stop-color="#1789FC"/>
</linearGradient>
<linearGradient id="paint5_linear_110_25" x1="174.68" y1="62.2205" x2="174.68" y2="179.898" gradientUnits="userSpaceOnUse">
<stop stop-color="#1789FC"/>
<stop offset="0.5" stop-color="#00468D"/>
<stop offset="1" stop-color="#1789FC"/>
</linearGradient>
<linearGradient id="paint6_linear_110_25" x1="191.105" y1="117.484" x2="230.138" y2="17.7774" gradientUnits="userSpaceOnUse">
<stop stop-color="#100051"/>
<stop offset="0.984405" stop-color="#006CD9"/>
</linearGradient>
<linearGradient id="paint7_linear_110_25" x1="216.805" y1="128.885" x2="397.669" y2="12.1737" gradientUnits="userSpaceOnUse">
<stop stop-color="#100051"/>
<stop offset="1" stop-color="#006EDD"/>
</linearGradient>
<linearGradient id="paint8_linear_110_25" x1="208.496" y1="11.2074" x2="185.308" y2="24.3471" gradientUnits="userSpaceOnUse">
<stop stop-color="#E8AA14"/>
<stop offset="1" stop-color="#F96800"/>
</linearGradient>
<linearGradient id="paint9_linear_110_25" x1="-8.30893" y1="312.261" x2="62.9932" y2="208.689" gradientUnits="userSpaceOnUse">
<stop stop-color="#100051"/>
<stop offset="1" stop-color="#004A95"/>
</linearGradient>
<linearGradient id="paint10_linear_110_25" x1="330.425" y1="100.866" x2="368.685" y2="256.417" gradientUnits="userSpaceOnUse">
<stop stop-color="#100051"/>
<stop offset="1" stop-color="#006CD9"/>
</linearGradient>
</defs>
</svg>
