<svg width="410" height="466" viewBox="0 0 410 466" fill="none" xmlns="http://www.w3.org/2000/svg">
<rect x="106.323" y="301.947" width="13.7774" height="42.5461" rx="6.8887" transform="rotate(-11.7876 106.323 301.947)" fill="url(#paint0_linear_110_363)"/>
<path d="M104.515 252.728C108.171 239.041 125.894 235.687 139.472 239.731C152.787 243.697 165.932 255.545 161.664 268.766C157.437 281.864 152.93 293.444 147.379 307.184C144.277 314.86 137.585 320.808 129.359 321.743C118.682 322.956 111.939 321.267 103.443 314.813C97.1862 310.059 94.5365 301.994 95.7032 294.223C97.8454 279.953 100.589 267.427 104.515 252.728Z" fill="url(#paint1_linear_110_363)"/>
<path d="M164.085 258.642C162.559 263.766 149.828 264.497 135.65 260.274C121.472 256.051 111.216 248.474 112.742 243.35C114.269 238.226 123.586 235.035 140.591 240.1C157.596 245.165 165.611 253.518 164.085 258.642Z" fill="#D9D9D9"/>
<path d="M101.541 265.817C106.554 265.861 111.61 265.15 114.273 278.474C114.273 278.474 115.495 288.059 120.753 290.339C126.01 292.619 131.506 285.947 131.506 285.947C140.356 275.804 151.644 287.547 154.702 288.873" stroke="#D9D9D9" stroke-width="5"/>
<path d="M233 369.392C233 363.408 233 360.416 232.495 357.699C231.046 349.898 226.565 342.988 220.033 338.484C217.758 336.914 215.026 335.694 209.562 333.254C196.477 327.409 189.934 324.487 184.908 324.05C170.129 322.763 156.629 332.471 153.145 346.891C151.96 351.795 152.648 358.927 154.024 373.191L158.911 423.866C160.491 440.251 161.281 448.443 168.365 455.928C168.431 455.997 168.577 456.15 168.643 456.217C175.827 463.607 180.597 464.268 190.137 465.589C194.41 466.181 198.616 466.136 202.942 465.433C213.371 463.737 218.586 462.889 225.715 454.626C225.781 454.55 225.924 454.382 225.989 454.304C233 445.942 233 437.094 233 419.399V369.392Z" fill="url(#paint2_linear_110_363)"/>
<path d="M247.588 367.4C247.588 361.433 247.588 358.449 248.091 355.737C249.528 347.986 253.959 341.111 260.425 336.601C262.688 335.023 265.405 333.791 270.839 331.327C283.984 325.367 290.557 322.387 295.606 321.927C310.39 320.581 323.936 330.249 327.467 344.669C328.672 349.593 327.99 356.777 326.625 371.145L321.616 423.878C320.068 440.169 319.294 448.314 312.281 455.793C312.217 455.861 312.072 456.014 312.006 456.082C304.894 463.466 300.166 464.16 290.709 465.546C286.235 466.202 281.838 466.151 277.304 465.367C266.972 463.58 261.805 462.686 254.774 454.452C254.709 454.376 254.568 454.208 254.503 454.131C247.588 445.799 247.588 437.018 247.588 419.457V367.4Z" fill="url(#paint3_linear_110_363)"/>
<ellipse cx="214.36" cy="140.002" rx="20.2609" ry="9.11739" fill="#D9D9D9"/>
<rect x="376.256" y="305.534" width="13.7774" height="42.5461" rx="6.8887" transform="rotate(1.92609 376.256 305.534)" fill="url(#paint4_linear_110_363)"/>
<path d="M149.805 154.902C151.556 151.622 156.308 150.996 158.882 153.502C166.29 160.717 173.354 163.612 184.273 163.996C188.115 164.131 190.612 167.747 188.859 171.03L154.829 234.767C154.073 236.182 152.645 237.227 150.995 237.527C132.605 240.861 124.093 237.737 115.695 222.968C114.964 221.683 114.992 220.104 115.724 218.734L149.805 154.902Z" fill="url(#paint5_linear_110_363)"/>
<ellipse cx="21.0832" cy="10.5956" rx="21.0832" ry="10.5956" transform="matrix(0.918539 0.395329 -0.486668 0.873587 157.378 144.507)" fill="#D9D9D9"/>
<rect x="92.7948" y="303.019" width="13.7774" height="42.5461" rx="6.8887" transform="rotate(-6.40466 92.7948 303.019)" fill="url(#paint6_linear_110_363)"/>
<path d="M3.59689 173.927L8.13209 170.191L146.788 338.524L138.656 345.222L3.59689 173.927Z" fill="#004A95"/>
<rect x="132.886" y="307.56" width="13.7774" height="30.0579" rx="6.8887" transform="rotate(5.36643 132.886 307.56)" fill="url(#paint7_linear_110_363)"/>
<path d="M316.086 339.378C317.9 349.056 304.463 357.781 285.448 361.343C266.434 364.906 249.549 359.948 247.736 350.27C245.923 340.591 259.867 329.857 278.882 326.294C297.896 322.732 314.273 329.7 316.086 339.378Z" fill="#D9D9D9"/>
<path d="M232.072 355.656C230.259 365.335 214.576 368.603 195.561 365.042C176.546 361.48 162.602 350.746 164.415 341.068C166.228 331.389 183.112 326.431 202.127 329.992C221.142 333.554 233.885 345.978 232.072 355.656Z" fill="#D9D9D9"/>
<ellipse cx="234.824" cy="238.471" rx="96.2392" ry="115.69" fill="url(#paint8_linear_110_363)"/>
<path d="M370.52 233.477C350.792 232.432 342.093 236.678 330.669 252.488L290.166 167.589C300.001 147.735 308.515 143.086 330.017 148.577L370.52 233.477Z" fill="url(#paint9_linear_110_363)"/>
<ellipse cx="350.155" cy="242.017" rx="22.2087" ry="11.9982" transform="rotate(155.444 350.155 242.017)" fill="#D9D9D9"/>
<path d="M334.45 279.283C330.029 265.823 343.035 253.326 356.615 249.289C369.932 245.331 387.416 248.066 391.071 261.469C394.692 274.748 397.248 286.908 400.111 301.448C401.711 309.571 399.358 318.21 392.981 323.49C384.705 330.342 378.135 332.615 367.493 331.855C359.655 331.295 353.028 325.991 349.756 318.846C343.749 305.726 339.198 293.737 334.45 279.283Z" fill="url(#paint10_linear_110_363)"/>
<path d="M385.641 257.512C387.165 262.637 376.635 270.288 362.124 274.602C347.612 278.915 334.612 278.257 333.089 273.132C331.566 268.007 337.803 260.189 355.209 255.015C372.615 249.842 384.118 252.387 385.641 257.512Z" fill="#FFFCFC"/>
<rect x="351.983" y="312.828" width="13.7774" height="30.0579" rx="6.8887" transform="rotate(3.57611 351.983 312.828)" fill="url(#paint11_linear_110_363)"/>
<rect x="388.604" y="307.477" width="13.7774" height="42.5461" rx="6.8887" transform="rotate(-6.40466 388.604 307.477)" fill="url(#paint12_linear_110_363)"/>
<path d="M182.038 88.9858C180.276 93.0319 175.752 94.9754 171.444 94.0169L160.605 91.6051C157.241 90.8566 154.437 88.4435 153.515 85.123C151.206 76.8078 151.22 70.1288 153.643 60.4606C154.514 56.9883 157.348 54.386 160.835 53.5777L170.726 51.2852C175.365 50.2101 180.189 52.5351 181.879 56.9864C186.501 69.1571 186.873 77.884 182.038 88.9858Z" fill="url(#paint13_linear_110_363)"/>
<ellipse cx="231.176" cy="72.3313" rx="68.2792" ry="72.3313" fill="url(#paint14_linear_110_363)"/>
<path d="M174.13 58.832C175.62 33.5636 193.58 14.7683 218.888 14.3146C244.738 13.8512 269.75 34.4536 271.629 60.2396L272.931 78.1171C274.203 95.5819 262.582 111.813 245.213 114.038C230.132 115.969 216.799 115.99 201.856 113.98C185.151 111.732 173.319 96.8389 173.448 79.9847C173.504 72.6085 173.725 65.7091 174.13 58.832Z" fill="url(#paint15_linear_110_363)"/>
<circle cx="242.117" cy="63.8217" r="10.1435" stroke="white" stroke-width="2"/>
<path d="M194.301 54.8938C200.204 54.8938 204.988 59.4556 205.245 65.1415C204.528 65.6588 204.048 65.7686 203.689 65.7559C203.223 65.7394 202.73 65.5162 201.94 65.0349C201.791 64.9441 201.636 64.8473 201.474 64.7464C199.961 63.8002 197.859 62.4865 194.361 62.2785C190.64 62.0572 188.534 63.8271 187.064 65.062C186.942 65.1645 186.825 65.2633 186.711 65.3569C185.92 66.0078 185.489 66.2539 185.102 66.2656C184.8 66.2747 184.267 66.1336 183.355 65.2262C183.568 59.5009 188.37 54.8938 194.301 54.8938Z" stroke="white" stroke-width="2"/>
<path d="M209.497 80.6382C216.438 82.6719 220.429 82.6888 227.732 80.6382V83.1637C220.331 85.2568 216.353 85.1409 209.497 83.1637V80.6382Z" fill="#FFFCFC"/>
<path d="M286.311 56.0823C288.073 52.0362 292.598 50.0927 296.905 51.0512L305.323 52.9243C309.897 53.9421 313.151 57.9996 313.151 62.6856V82.2365C313.151 86.8895 309.942 90.9277 305.409 91.9783L297.623 93.7829C292.985 94.858 288.16 92.533 286.47 88.0817C281.848 75.911 281.476 67.1841 286.311 56.0823Z" fill="url(#paint16_linear_110_363)"/>
<path d="M315.87 72.2536C315.87 81.7884 312.721 89.5178 308.836 89.5178C304.952 89.5178 301.803 81.7884 301.803 72.2536C301.803 62.7189 304.952 54.9895 308.836 54.9895C312.721 54.9895 315.87 62.7189 315.87 72.2536Z" fill="#FFD571"/>
<path d="M160.676 208.768C162.974 200.752 170.415 195.194 178.768 195.194H183.682C195.3 195.194 203.553 205.702 201.359 217.236C201.124 218.476 200.905 219.713 200.708 220.95C199.744 227.021 196.902 232.99 192.789 237.422C188.682 241.846 183.378 244.67 177.452 244.67H172.161C163.909 244.67 156.715 239.306 156.698 231.651C156.682 223.992 158.425 216.619 160.676 208.768Z" stroke="#D9D9D9" stroke-width="3"/>
<rect x="166.949" y="180.727" width="38.9009" height="8.10435" rx="4.05218" fill="url(#paint17_linear_110_363)"/>
<rect x="177.89" y="170.191" width="29.9861" height="8.10435" rx="4.05218" fill="url(#paint18_linear_110_363)"/>
<path d="M159.048 424.06C164.939 422.114 170.498 419.461 180.382 430.578C180.382 430.578 186.68 438.851 193.994 438.851C201.307 438.851 204.355 430.578 204.355 430.578C209.566 417.805 228.745 424.06 233 424.06" stroke="#D9D9D9" stroke-width="5"/>
<path d="M247.791 425.276C253.555 423.329 270.335 420.44 280.005 431.556C280.005 431.556 285.751 439.864 292.906 439.864C300.062 439.864 303.103 433.009 303.103 433.009C308.201 420.236 320.336 427.9 320.932 426.318" stroke="#D9D9D9" stroke-width="5"/>
<path d="M339.621 294.211C343.578 291.133 347.099 287.436 357.46 296.227C357.46 296.227 364.369 302.981 369.906 301.504C375.443 300.027 375.609 291.385 375.609 291.385C376.248 277.939 392.387 280.134 395.609 279.275" stroke="#D9D9D9" stroke-width="5"/>
<defs>
<linearGradient id="paint0_linear_110_363" x1="113.02" y1="392.075" x2="118.716" y2="338.001" gradientUnits="userSpaceOnUse">
<stop stop-color="#FFD571"/>
<stop offset="1" stop-color="#F97700"/>
</linearGradient>
<linearGradient id="paint1_linear_110_363" x1="104.546" y1="290.744" x2="165.531" y2="263.999" gradientUnits="userSpaceOnUse">
<stop stop-color="#FFFCFC"/>
<stop offset="1" stop-color="#CEE8FF"/>
</linearGradient>
<linearGradient id="paint2_linear_110_363" x1="159.858" y1="396.302" x2="240.699" y2="385.767" gradientUnits="userSpaceOnUse">
<stop stop-color="#FFFCFC"/>
<stop offset="1" stop-color="#CEE8FF"/>
</linearGradient>
<linearGradient id="paint3_linear_110_363" x1="349.5" y1="384.551" x2="244.346" y2="389.009" gradientUnits="userSpaceOnUse">
<stop stop-color="#FFFCFC"/>
<stop offset="1" stop-color="#CEE8FF"/>
</linearGradient>
<linearGradient id="paint4_linear_110_363" x1="382.953" y1="395.661" x2="388.65" y2="341.588" gradientUnits="userSpaceOnUse">
<stop stop-color="#FFD571"/>
<stop offset="1" stop-color="#F97700"/>
</linearGradient>
<linearGradient id="paint5_linear_110_363" x1="122.984" y1="173.028" x2="193.194" y2="180.223" gradientUnits="userSpaceOnUse">
<stop stop-color="#FFFCFC"/>
<stop offset="1" stop-color="#CEE8FF"/>
</linearGradient>
<linearGradient id="paint6_linear_110_363" x1="103.514" y1="312.869" x2="84.4869" y2="360.684" gradientUnits="userSpaceOnUse">
<stop stop-color="#FFD571"/>
<stop offset="1" stop-color="#F96800"/>
</linearGradient>
<linearGradient id="paint7_linear_110_363" x1="119.78" y1="354.078" x2="157.72" y2="319.473" gradientUnits="userSpaceOnUse">
<stop stop-color="#F96800"/>
<stop offset="1" stop-color="#FFD571"/>
</linearGradient>
<linearGradient id="paint8_linear_110_363" x1="285.678" y1="103.128" x2="349.703" y2="299.051" gradientUnits="userSpaceOnUse">
<stop stop-color="#CEE8FF"/>
<stop offset="0.380208" stop-color="#FFFCFC"/>
<stop offset="0.635417" stop-color="#FFFCFC"/>
<stop offset="1" stop-color="#CEE8FF"/>
</linearGradient>
<linearGradient id="paint9_linear_110_363" x1="343.017" y1="181.132" x2="282.437" y2="232.19" gradientUnits="userSpaceOnUse">
<stop stop-color="#FFFCFC"/>
<stop offset="1" stop-color="#CEE8FF"/>
</linearGradient>
<linearGradient id="paint10_linear_110_363" x1="369.984" y1="274.124" x2="386.395" y2="330.449" gradientUnits="userSpaceOnUse">
<stop stop-color="#FFFCFC"/>
<stop offset="1" stop-color="#CEE8FF"/>
</linearGradient>
<linearGradient id="paint11_linear_110_363" x1="338.877" y1="359.345" x2="376.817" y2="324.741" gradientUnits="userSpaceOnUse">
<stop stop-color="#F96800"/>
<stop offset="1" stop-color="#FFD571"/>
</linearGradient>
<linearGradient id="paint12_linear_110_363" x1="399.323" y1="317.327" x2="380.296" y2="365.142" gradientUnits="userSpaceOnUse">
<stop stop-color="#FFD571"/>
<stop offset="1" stop-color="#F96800"/>
</linearGradient>
<linearGradient id="paint13_linear_110_363" x1="168.184" y1="95.6316" x2="165.819" y2="20.4662" gradientUnits="userSpaceOnUse">
<stop stop-color="#FFD571"/>
<stop offset="1" stop-color="#F96800"/>
</linearGradient>
<linearGradient id="paint14_linear_110_363" x1="244.751" y1="60.1748" x2="260.96" y2="139.192" gradientUnits="userSpaceOnUse">
<stop stop-color="#FFFCFC"/>
<stop offset="1" stop-color="#CEE8FF"/>
</linearGradient>
<linearGradient id="paint15_linear_110_363" x1="292.462" y1="108.485" x2="160.082" y2="-2.33089" gradientUnits="userSpaceOnUse">
<stop stop-color="#9747FF"/>
<stop offset="1" stop-color="#1789FC"/>
</linearGradient>
<linearGradient id="paint16_linear_110_363" x1="300.166" y1="49.4365" x2="302.531" y2="124.602" gradientUnits="userSpaceOnUse">
<stop stop-color="#FFD571"/>
<stop offset="1" stop-color="#F96800"/>
</linearGradient>
<linearGradient id="paint17_linear_110_363" x1="166.949" y1="174.244" x2="205.85" y2="195.315" gradientUnits="userSpaceOnUse">
<stop stop-color="#F96800"/>
<stop offset="1" stop-color="#FFD571"/>
</linearGradient>
<linearGradient id="paint18_linear_110_363" x1="177.89" y1="163.708" x2="210.917" y2="177.497" gradientUnits="userSpaceOnUse">
<stop stop-color="#F96800"/>
<stop offset="1" stop-color="#FFD571"/>
</linearGradient>
</defs>
</svg>
