<?xml version="1.0" encoding="UTF-8" standalone="no"?>
<svg
   width="612"
   height="466"
   viewBox="0 0 612 466"
   fill="none"
   version="1.1"
   id="svg154"
   sodipodi:docname="Group 34.svg"
   xml:space="preserve"
   inkscape:export-filename="ESTUDANTE.svg"
   inkscape:export-xdpi="96"
   inkscape:export-ydpi="96"
   inkscape:version="1.2.1 (9c6d41e410, 2022-07-14)"
   xmlns:inkscape="http://www.inkscape.org/namespaces/inkscape"
   xmlns:sodipodi="http://sodipodi.sourceforge.net/DTD/sodipodi-0.dtd"
   xmlns="http://www.w3.org/2000/svg"
   xmlns:svg="http://www.w3.org/2000/svg"><defs
     id="defs158"><filter
       id="filter0_d_188_197"
       x="0"
       y="0"
       width="370.841"
       height="398.09698"
       filterUnits="userSpaceOnUse"
       color-interpolation-filters="sRGB"><feFlood
         flood-opacity="0"
         result="BackgroundImageFix"
         id="feFlood310" /><feColorMatrix
         in="SourceAlpha"
         type="matrix"
         values="0 0 0 0 0 0 0 0 0 0 0 0 0 0 0 0 0 0 127 0"
         result="hardAlpha"
         id="feColorMatrix312" /><feOffset
         dy="4"
         id="feOffset314" /><feGaussianBlur
         stdDeviation="2"
         id="feGaussianBlur316" /><feComposite
         in2="hardAlpha"
         operator="out"
         id="feComposite318" /><feColorMatrix
         type="matrix"
         values="0 0 0 0 0 0 0 0 0 0 0 0 0 0 0 0 0 0 0.25 0"
         id="feColorMatrix320" /><feBlend
         mode="normal"
         in2="BackgroundImageFix"
         result="effect1_dropShadow_188_197"
         id="feBlend322" /><feBlend
         mode="normal"
         in="SourceGraphic"
         in2="effect1_dropShadow_188_197"
         result="shape"
         id="feBlend324" /></filter><linearGradient
       id="paint0_linear_188_197"
       x1="197.994"
       y1="301.88599"
       x2="157.571"
       y2="358.862"
       gradientUnits="userSpaceOnUse"><stop
         stop-color="white"
         id="stop327" /><stop
         offset="1"
         stop-color="#ABBDC2"
         id="stop329" /></linearGradient><linearGradient
       id="paint1_linear_188_197"
       x1="364.85199"
       y1="84.344704"
       x2="291.24899"
       y2="84.344704"
       gradientUnits="userSpaceOnUse"><stop
         stop-color="#FFD571"
         id="stop332" /><stop
         offset="1"
         stop-color="#F96800"
         id="stop334" /></linearGradient><linearGradient
       id="paint2_linear_188_197"
       x1="89.926804"
       y1="186.08701"
       x2="39.846802"
       y2="227.02901"
       gradientUnits="userSpaceOnUse"><stop
         stop-color="#100051"
         id="stop337" /><stop
         offset="1"
         stop-color="#004A95"
         id="stop339" /></linearGradient><linearGradient
       id="paint3_linear_188_197"
       x1="272.49899"
       y1="163.243"
       x2="333.82501"
       y2="184.33"
       gradientUnits="userSpaceOnUse"><stop
         stop-color="#100051"
         id="stop342" /><stop
         offset="1"
         stop-color="#006EDD"
         id="stop344" /></linearGradient><linearGradient
       id="paint4_linear_188_197"
       x1="182.741"
       y1="176.537"
       x2="209.394"
       y2="319.37299"
       gradientUnits="userSpaceOnUse"><stop
         stop-color="#006EDD"
         id="stop347" /><stop
         offset="1"
         stop-color="#1789FC"
         id="stop349" /></linearGradient><linearGradient
       id="paint5_linear_188_197"
       x1="162.85001"
       y1="56.581501"
       x2="162.85001"
       y2="163.595"
       gradientUnits="userSpaceOnUse"><stop
         stop-color="#1789FC"
         id="stop352" /><stop
         offset="0.5"
         stop-color="#00468D"
         id="stop354" /><stop
         offset="1"
         stop-color="#1789FC"
         id="stop356" /></linearGradient><linearGradient
       id="paint6_linear_188_197"
       x1="177.786"
       y1="106.837"
       x2="213.282"
       y2="16.166"
       gradientUnits="userSpaceOnUse"><stop
         stop-color="#100051"
         id="stop359" /><stop
         offset="0.984405"
         stop-color="#006CD9"
         id="stop361" /></linearGradient><linearGradient
       id="paint7_linear_188_197"
       x1="201.157"
       y1="117.205"
       x2="365.63101"
       y2="11.0702"
       gradientUnits="userSpaceOnUse"><stop
         stop-color="#100051"
         id="stop364" /><stop
         offset="1"
         stop-color="#006EDD"
         id="stop366" /></linearGradient><linearGradient
       id="paint8_linear_188_197"
       x1="193.601"
       y1="10.1917"
       x2="172.515"
       y2="22.1406"
       gradientUnits="userSpaceOnUse"><stop
         stop-color="#E8AA14"
         id="stop369" /><stop
         offset="1"
         stop-color="#F96800"
         id="stop371" /></linearGradient><linearGradient
       id="paint9_linear_188_197"
       x1="-3.5559399"
       y1="283.96301"
       x2="61.2845"
       y2="189.77699"
       gradientUnits="userSpaceOnUse"><stop
         stop-color="#100051"
         id="stop374" /><stop
         offset="1"
         stop-color="#004A95"
         id="stop376" /></linearGradient><linearGradient
       id="paint10_linear_188_197"
       x1="304.48001"
       y1="91.725601"
       x2="339.27301"
       y2="233.17999"
       gradientUnits="userSpaceOnUse"><stop
         stop-color="#100051"
         id="stop379" /><stop
         offset="1"
         stop-color="#006CD9"
         id="stop381" /></linearGradient></defs><sodipodi:namedview
     id="namedview156"
     pagecolor="#505050"
     bordercolor="#eeeeee"
     borderopacity="1"
     inkscape:showpageshadow="0"
     inkscape:pageopacity="0"
     inkscape:pagecheckerboard="0"
     inkscape:deskcolor="#505050"
     showgrid="false"
     inkscape:zoom="0.44903434"
     inkscape:cx="-205.99761"
     inkscape:cy="543.38829"
     inkscape:window-width="1920"
     inkscape:window-height="1017"
     inkscape:window-x="-8"
     inkscape:window-y="-8"
     inkscape:window-maximized="1"
     inkscape:current-layer="svg154" /><path
     d="M 166.302,222.399 C 166.302,99.5717 265.873,0 388.701,0 511.529,0 611.1,99.5715 611.1,222.399 v 193.088 c 0,27.614 -22.385,50 -50,50 H 166.302 Z"
     fill="#9747ff"
     id="path144" /><path
     d="m 0,347.325 c 0,-59.547 48.2717,-107.818 107.818,-107.818 59.546,0 107.818,48.272 107.818,107.818 v 80.498 c 0,20.801 -16.863,37.664 -37.664,37.664 H 37.6633 C 16.8624,465.487 0,448.624 0,427.823 Z"
     fill="#9747ff"
     id="path146" /><circle
     cx="150.388"
     cy="54.903599"
     r="15.9141"
     fill="#9747ff"
     id="circle148" /><circle
     cx="561.36902"
     cy="25.064501"
     r="6.7634802"
     fill="#9747ff"
     id="circle150" /><circle
     cx="125.323"
     cy="95.882301"
     r="9.1505899"
     fill="#9747ff"
     id="circle152" /><g
     style="fill:none"
     id="g456"
     transform="translate(199.8507,62.067402)"><g
       filter="url(#filter0_d_188_197)"
       id="g308"><ellipse
         cx="181.47701"
         cy="312.78"
         rx="13.7061"
         ry="17.571899"
         fill="url(#paint0_linear_188_197)"
         id="ellipse264"
         style="fill:url(#paint0_linear_188_197)" /><path
         fill-rule="evenodd"
         clip-rule="evenodd"
         d="m 172.163,390.097 c 35.811,0 64.841,-33.908 64.841,-75.735 0,-41.827 -29.03,-75.735 -64.841,-75.735 -35.81,0 -64.84,33.908 -64.84,75.735 0,41.827 29.03,75.735 64.84,75.735 z m 9.525,-25.505 c 17.274,0 31.278,-22.657 31.278,-50.607 0,-27.949 -14.004,-50.607 -31.278,-50.607 -17.275,0 -31.279,22.658 -31.279,50.607 0,27.95 14.004,50.607 31.279,50.607 z"
         fill="#0a1722"
         id="path266" /><path
         d="m 361.32,68.1789 -6.502,17.2205 -14.76,1.7572 3.514,-16.1662 z"
         fill="#ffdddd"
         id="path268" /><path
         d="m 291.477,112.357 52.162,-41.3662 c 2.039,8.8558 4.536,11.9602 11.355,14.3188 l -52.162,41.3654 z"
         fill="url(#paint1_linear_188_197)"
         id="path270"
         style="fill:url(#paint1_linear_188_197)" /><path
         d="m 100.924,171.988 9.856,22.055 c -24.7424,5.042 -42.4545,7.229 -64.0436,47.538 L 28.809,223.019 c 17.1189,-32.616 39.337,-45.86 72.115,-51.031 z"
         fill="url(#paint2_linear_188_197)"
         id="path272"
         style="fill:url(#paint2_linear_188_197)" /><path
         d="m 237.297,200.96 -8.082,-22.908 c 26.145,-4.33 44.724,-5.974 71.02,-46.511 l 16.79,19.603 c -20.914,32.813 -45.238,45.623 -79.728,49.816 z"
         fill="url(#paint3_linear_188_197)"
         id="path274"
         style="fill:url(#paint3_linear_188_197)" /><path
         d="m 175.247,22.6648 8.786,3.9763 c -8.732,11.8518 -12.013,19.5692 -16.867,34.0017 l -8.786,-3.9762 c 4.996,-15.0793 7.956,-23.3538 16.867,-34.0018 z"
         fill="#100051"
         id="path276" /><path
         fill-rule="evenodd"
         clip-rule="evenodd"
         d="m 202.727,291.436 c 23.023,-8.422 40.771,-26.386 46.04,-49.956 8.772,-39.234 -20.356,-79.141 -65.059,-89.135 -44.703,-9.994 -88.0522,13.71 -96.8235,52.944 -8.646,38.674 19.5325,78.002 63.1535,88.689 -6.364,-7.169 -9.332,-16.85 -7.174,-26.507 3.696,-16.529 21.012,-26.727 38.679,-22.777 17.666,3.949 28.991,20.55 25.296,37.079 -0.791,3.536 -2.205,6.783 -4.112,9.663 z"
         fill="url(#paint4_linear_188_197)"
         id="path278"
         style="fill:url(#paint4_linear_188_197)" /><rect
         x="78.504898"
         y="56.581501"
         width="168.69099"
         height="123.355"
         rx="40"
         fill="url(#paint5_linear_188_197)"
         id="rect280"
         style="fill:url(#paint5_linear_188_197)" /><circle
         cx="104.16"
         cy="106.837"
         r="62.907501"
         fill="url(#paint6_linear_188_197)"
         id="circle282"
         style="fill:url(#paint6_linear_188_197)" /><circle
         cx="104.16"
         cy="106.837"
         r="46.038502"
         fill="#ffffff"
         id="circle284" /><circle
         cx="223.298"
         cy="106.837"
         r="62.907501"
         fill="url(#paint7_linear_188_197)"
         id="circle286"
         style="fill:url(#paint7_linear_188_197)" /><circle
         cx="223.298"
         cy="106.837"
         r="46.038502"
         fill="#ffffff"
         id="circle288" /><circle
         cx="184.815"
         cy="14.5847"
         r="14.5847"
         fill="url(#paint8_linear_188_197)"
         id="circle290"
         style="fill:url(#paint8_linear_188_197)" /><ellipse
         cx="102.051"
         cy="106.838"
         rx="20.7349"
         ry="22.4921"
         fill="#000000"
         id="ellipse292" /><circle
         cx="118.217"
         cy="106.837"
         r="8.7859697"
         fill="#ffffff"
         id="circle294" /><ellipse
         cx="221.189"
         cy="106.838"
         rx="20.7349"
         ry="22.4921"
         fill="#000000"
         id="ellipse296" /><circle
         cx="237.355"
         cy="106.837"
         r="8.7859697"
         fill="#ffffff"
         id="circle298" /><path
         fill-rule="evenodd"
         clip-rule="evenodd"
         d="m 34.048,268.148 c 16.5951,0 30.048,-13.453 30.048,-30.048 0,-16.595 -13.4529,-30.048 -30.048,-30.048 C 17.453,208.052 4,221.505 4,238.1 c 0,6.235 1.89908,12.026 5.15037,16.827 l 14.05183,-23.68 21.7609,12.912 -14.1334,23.818 c 1.0574,0.113 2.1311,0.171 3.2183,0.171 z"
         fill="url(#paint9_linear_188_197)"
         id="path300"
         style="fill:url(#paint9_linear_188_197)" /><path
         fill-rule="evenodd"
         clip-rule="evenodd"
         d="m 316.251,95.6526 c -16.594,0.2279 -29.861,13.8644 -29.633,30.4574 0.228,16.594 13.864,29.861 30.458,29.633 16.593,-0.228 29.86,-13.864 29.632,-30.458 -0.085,-6.234 -2.064,-12 -5.381,-16.756 l -13.725,23.872 -21.936,-12.612 13.804,-24.0103 c -1.058,-0.098 -2.132,-0.141 -3.219,-0.1261 z"
         fill="url(#paint10_linear_188_197)"
         id="path302"
         style="fill:url(#paint10_linear_188_197)" /><path
         d="m 361.302,68.2157 -2.97,7.8706 c -3.094,-1.678 -4.75,-3.528 -5.447,-6.6773 z"
         fill="#000000"
         id="path304" /><path
         d="m 193.953,250.4 c 3.514,3.69 6.677,2.987 5.798,18.802 -29.872,-17.396 -47.447,12.87 -50.607,44.281 L 109.08,298.02 c 7.029,-43.93 49.377,-67.3 84.873,-47.62 z"
         fill="#0a1722"
         id="path306" /></g></g></svg>
