<svg width="301" height="324" viewBox="0 0 301 324" fill="none" xmlns="http://www.w3.org/2000/svg">
<ellipse cx="147.228" cy="259.784" rx="11.3701" ry="14.5946" fill="url(#paint0_linear_186_143)"/>
<path fill-rule="evenodd" clip-rule="evenodd" d="M139.502 324C169.21 324 193.292 295.837 193.292 261.097C193.292 226.357 169.21 198.195 139.502 198.195C109.795 198.195 85.7131 226.357 85.7131 261.097C85.7131 295.837 109.795 324 139.502 324ZM147.403 302.817C161.734 302.817 173.351 283.998 173.351 260.784C173.351 237.57 161.734 218.752 147.403 218.752C133.073 218.752 121.456 237.57 121.456 260.784C121.456 283.998 133.073 302.817 147.403 302.817Z" fill="#0A1722"/>
<path d="M296.42 56.6269L291.027 70.9296L278.782 72.3891L281.697 58.962L296.42 56.6269Z" fill="#FFDDDD"/>
<path d="M238.481 93.3193L281.752 58.9624C283.444 66.3177 285.515 68.8961 291.172 70.855L247.901 105.212L238.481 93.3193Z" fill="url(#paint1_linear_186_143)"/>
<path d="M80.4044 142.846L88.5806 161.165C68.0555 165.352 53.3621 167.169 35.4526 200.648L20.5807 185.231C34.7819 158.141 53.2133 147.141 80.4044 142.846Z" fill="url(#paint2_linear_186_143)"/>
<path d="M193.535 166.91L186.83 147.883C208.52 144.287 223.932 142.922 245.746 109.253L259.675 125.535C242.325 152.787 222.147 163.428 193.535 166.91Z" fill="url(#paint3_linear_186_143)"/>
<path d="M142.06 18.8246L149.349 22.1271C142.106 31.9708 139.383 38.3806 135.357 50.3677L128.068 47.0652C132.213 34.5409 134.669 27.6684 142.06 18.8246Z" fill="#100051"/>
<path fill-rule="evenodd" clip-rule="evenodd" d="M164.865 242.056C183.969 235.068 198.695 220.152 203.062 200.577C210.332 167.998 186.158 134.853 149.067 126.545C111.977 118.237 76.0159 137.913 68.7461 170.493C61.5815 202.6 84.9578 235.258 121.139 244.149C115.864 238.196 113.404 230.16 115.192 222.146C118.255 208.421 132.62 199.955 147.278 203.239C161.936 206.522 171.336 220.31 168.273 234.035C167.618 236.971 166.446 239.665 164.865 242.056Z" fill="url(#paint4_linear_186_143)"/>
<rect x="61.8067" y="46.9946" width="139.94" height="102.454" rx="40" fill="url(#paint5_linear_186_143)"/>
<ellipse cx="83.0891" cy="88.735" rx="52.1859" ry="52.2486" fill="url(#paint6_linear_186_143)"/>
<ellipse cx="83.0892" cy="88.7352" rx="38.1919" ry="38.2378" fill="white"/>
<ellipse cx="181.922" cy="88.735" rx="52.1859" ry="52.2486" fill="url(#paint7_linear_186_143)"/>
<ellipse cx="181.922" cy="88.7352" rx="38.1919" ry="38.2378" fill="white"/>
<ellipse cx="149.998" cy="12.1135" rx="12.099" ry="12.1135" fill="url(#paint8_linear_186_143)"/>
<ellipse cx="81.34" cy="88.7353" rx="17.2009" ry="18.6811" fill="black"/>
<ellipse cx="94.7509" cy="88.7353" rx="7.28853" ry="7.2973" fill="white"/>
<ellipse cx="180.173" cy="88.7353" rx="17.2009" ry="18.6811" fill="black"/>
<ellipse cx="193.583" cy="88.7353" rx="7.28854" ry="7.2973" fill="white"/>
<path fill-rule="evenodd" clip-rule="evenodd" d="M24.9268 222.713C38.6935 222.713 49.8536 211.54 49.8536 197.757C49.8536 183.973 38.6935 172.8 24.9268 172.8C11.1601 172.8 0 183.973 0 197.757C0 202.935 1.57541 207.745 4.27257 211.733L15.9295 192.065L33.9816 202.789L22.257 222.572C23.1341 222.665 24.0249 222.713 24.9268 222.713Z" fill="url(#paint9_linear_186_143)"/>
<path fill-rule="evenodd" clip-rule="evenodd" d="M259.033 79.4458C245.267 79.6353 234.261 90.9612 234.45 104.743C234.639 118.525 245.951 129.543 259.716 129.354C273.482 129.164 284.488 117.838 284.299 104.057C284.228 98.8782 282.587 94.0899 279.835 90.1397L268.449 109.967L250.251 99.4921L261.703 79.5504C260.825 79.469 259.934 79.4333 259.033 79.4458Z" fill="url(#paint10_linear_186_143)"/>
<path d="M296.405 56.6574L293.942 63.1945C291.375 61.8007 290.001 60.2642 289.423 57.6485L296.405 56.6574Z" fill="black"/>
<path d="M157.578 207.973C160.494 211.038 163.117 210.454 162.389 223.589C137.608 209.14 123.028 234.278 120.407 260.367L87.1708 247.524C93.0017 211.038 128.133 191.627 157.578 207.973Z" fill="#0A1722"/>
<defs>
<linearGradient id="paint0_linear_186_143" x1="160.931" y1="250.735" x2="127.343" y2="298.02" gradientUnits="userSpaceOnUse">
<stop stop-color="white"/>
<stop offset="1" stop-color="#ABBDC2"/>
</linearGradient>
<linearGradient id="paint1_linear_186_143" x1="299.35" y1="70.0537" x2="238.292" y2="70.0537" gradientUnits="userSpaceOnUse">
<stop stop-color="#FFD571"/>
<stop offset="1" stop-color="#F96800"/>
</linearGradient>
<linearGradient id="paint2_linear_186_143" x1="71.2818" y1="154.557" x2="29.6972" y2="188.513" gradientUnits="userSpaceOnUse">
<stop stop-color="#100051"/>
<stop offset="1" stop-color="#004A95"/>
</linearGradient>
<linearGradient id="paint3_linear_186_143" x1="222.738" y1="135.584" x2="273.624" y2="153.06" gradientUnits="userSpaceOnUse">
<stop stop-color="#100051"/>
<stop offset="1" stop-color="#006EDD"/>
</linearGradient>
<linearGradient id="paint4_linear_186_143" x1="148.276" y1="146.635" x2="170.413" y2="265.242" gradientUnits="userSpaceOnUse">
<stop stop-color="#006EDD"/>
<stop offset="1" stop-color="#1789FC"/>
</linearGradient>
<linearGradient id="paint5_linear_186_143" x1="131.777" y1="46.9946" x2="131.777" y2="135.876" gradientUnits="userSpaceOnUse">
<stop stop-color="#1789FC"/>
<stop offset="0.5" stop-color="#00468D"/>
<stop offset="1" stop-color="#1789FC"/>
</linearGradient>
<linearGradient id="paint6_linear_186_143" x1="144.167" y1="88.735" x2="173.674" y2="13.4509" gradientUnits="userSpaceOnUse">
<stop stop-color="#100051"/>
<stop offset="0.984405" stop-color="#006CD9"/>
</linearGradient>
<linearGradient id="paint7_linear_186_143" x1="163.555" y1="97.3458" x2="300.092" y2="9.34395" gradientUnits="userSpaceOnUse">
<stop stop-color="#100051"/>
<stop offset="1" stop-color="#006EDD"/>
</linearGradient>
<linearGradient id="paint8_linear_186_143" x1="157.287" y1="8.46487" x2="139.784" y2="18.3711" gradientUnits="userSpaceOnUse">
<stop stop-color="#E8AA14"/>
<stop offset="1" stop-color="#F96800"/>
</linearGradient>
<linearGradient id="paint9_linear_186_143" x1="-6.26814" y1="235.848" x2="47.609" y2="157.682" gradientUnits="userSpaceOnUse">
<stop stop-color="#100051"/>
<stop offset="1" stop-color="#004A95"/>
</linearGradient>
<linearGradient id="paint10_linear_186_143" x1="249.268" y1="76.1841" x2="278.194" y2="193.653" gradientUnits="userSpaceOnUse">
<stop stop-color="#100051"/>
<stop offset="1" stop-color="#006CD9"/>
</linearGradient>
</defs>
</svg>
