<svg width="1440" height="1037" viewBox="0 0 1440 1037" fill="none" xmlns="http://www.w3.org/2000/svg">
<g clip-path="url(#clip0_903_420)">
<rect width="1440" height="1037" fill="url(#paint0_linear_903_420)"/>
<path d="M93.1838 137.547L149.497 212.779L-37.8019 219.093L-60.1498 163.051L93.1838 137.547Z" fill="url(#paint1_linear_903_420)"/>
<ellipse cx="295.056" cy="228.002" rx="295.056" ry="228.002" transform="matrix(0.930182 0.367098 -0.367092 0.930184 -139.495 796.44)" fill="white"/>
<ellipse cx="295.056" cy="228.002" rx="295.056" ry="228.002" transform="matrix(0.930182 0.367098 -0.367092 0.930184 -132.182 795.847)" fill="#00468D"/>
<path d="M149.419 937.301C138.655 941.178 129.638 933.804 116.706 925.398C111.879 922.167 111.471 920.475 112.139 917.528C97.5999 908.796 93.5686 905.036 99.8755 902.052C107.886 904.514 92.8779 888.931 113.673 901.667C115.002 894.468 117.166 893.956 122.922 897.764C133.301 902.263 147.315 905.971 166.87 915.394C203.26 932.93 205.002 931.364 200.656 935.282C216.088 961.314 178.72 944.004 171.879 947.227C164.072 946.321 167.285 957.504 149.419 937.301Z" fill="#DADADA" fill-opacity="0.66"/>
<path d="M59.5323 932.653C110.499 978.383 90.2178 984.301 93.3335 1005.99C113.635 1034.24 135.5 1051.63 115.458 1062.36L27.5163 1100.28L-28.4096 970.571L-19.0634 929.993C10.8721 914.402 28.12 915.925 59.5323 932.653Z" fill="#00B76A" fill-opacity="0.63"/>
<path d="M117.734 960.747C128.132 970.076 123.994 971.284 124.63 975.709C128.771 981.471 133.232 985.019 129.143 987.209L111.202 994.945L99.7926 968.483L101.699 960.204C107.807 957.023 111.325 957.334 117.734 960.747Z" fill="#00B76A" fill-opacity="0.63"/>
<ellipse cx="20.1332" cy="45.2243" rx="20.1332" ry="45.2243" transform="matrix(0.626364 -0.779531 -0.772797 -0.634653 294.698 267.971)" fill="url(#paint2_linear_903_420)"/>
<path d="M216.296 97.8245C219.594 94.1541 219.08 88.4242 215.183 85.4039L206.389 78.5886C202.105 75.2686 195.058 74.4294 191.405 78.438C187.699 82.5045 190.836 87.9194 195.182 91.2874L204.941 98.8507C208.416 101.544 213.357 101.097 216.296 97.8245Z" fill="#FF6262"/>
<path d="M154.43 88.9634C119.308 107.879 63.3829 154.338 85.8031 184.619C108.223 214.901 205.765 229.311 234.135 208.306C262.505 187.301 280.708 154.044 258.287 123.763C241.343 87.888 211.156 71.5364 154.43 88.9634Z" fill="url(#paint3_linear_903_420)"/>
<ellipse cx="17.0255" cy="38.6611" rx="17.0255" ry="38.6611" transform="matrix(-0.98931 -0.145824 -0.12386 0.9923 354.735 68.6641)" fill="url(#paint4_linear_903_420)"/>
<rect width="127.322" height="98.8593" rx="49.4297" transform="matrix(-0.509853 -0.860262 -0.862601 0.505885 358.466 159.438)" fill="url(#paint5_linear_903_420)"/>
<path d="M313.288 185.931C328.444 176.722 332.902 156.825 323.126 142.021L298.7 105.032C289.792 91.5414 271.836 87.3659 257.894 95.5423C243.459 104.008 238.673 122.542 247.206 136.939L269.801 175.063C278.734 190.136 298.315 195.03 313.288 185.931Z" fill="#100051"/>
<ellipse cx="17.156" cy="38.3615" rx="17.156" ry="38.3615" transform="matrix(-0.866374 -0.499396 -0.485054 0.874484 320.489 28.916)" fill="url(#paint6_linear_903_420)"/>
<path d="M312.792 165.907C314.301 164.465 314.502 162.148 313.358 160.402C311.838 158.08 308.602 157.686 306.489 159.483C301.572 163.663 297.499 166.359 291.987 168.987C289.532 170.158 288.582 173.206 290.072 175.48C291.226 177.242 293.483 177.935 295.411 177.085C302.468 173.974 307.186 171.266 312.792 165.907Z" fill="#00FFD1"/>
<path d="M290.471 126.53C291.98 125.088 292.181 122.771 291.037 121.025C289.517 118.703 286.281 118.309 284.168 120.106C279.251 124.286 275.178 126.982 269.666 129.61C267.211 130.781 266.261 133.829 267.751 136.103C268.905 137.865 271.162 138.558 273.09 137.708C280.147 134.597 284.865 131.889 290.471 126.53Z" fill="#00FFD1"/>
<line y1="-1" x2="13.1904" y2="-1" transform="matrix(-0.547934 -0.836521 -0.837942 0.545759 308.67 169.726)" stroke="#100051" stroke-width="2"/>
<line y1="-1" x2="13.1904" y2="-1" transform="matrix(-0.547934 -0.836521 -0.837942 0.545759 277.427 136.159)" stroke="#100051" stroke-width="2"/>
<line y1="-1" x2="13.1904" y2="-1" transform="matrix(-0.547934 -0.836521 -0.837942 0.545759 286.982 133.083)" stroke="#100051" stroke-width="2"/>
<line y1="-1" x2="13.1904" y2="-1" transform="matrix(-0.547934 -0.836521 -0.837942 0.545759 300.56 175.006)" stroke="#100051" stroke-width="2"/>
<ellipse cx="3.46275" cy="3.3868" rx="3.46275" ry="3.3868" transform="matrix(-0.595047 -0.803691 -0.803691 0.595047 214.436 143.696)" fill="#00DEB6"/>
<ellipse cx="3.46275" cy="3.3868" rx="3.46275" ry="3.3868" transform="matrix(-0.595047 -0.803691 -0.803691 0.595047 203.204 147.499)" fill="#00DEB6"/>
<rect width="13.1751" height="5.16752" rx="2.58376" transform="matrix(-0.390389 -0.92065 -0.92462 0.380891 219.303 159.791)" fill="white"/>
<rect width="9.73852" height="5.16752" rx="2.58376" transform="matrix(-0.390389 -0.92065 -0.92462 0.380891 208.292 160.913)" fill="white"/>
<ellipse cx="94.9751" cy="86.9807" rx="94.9751" ry="86.9807" transform="matrix(-0.595047 -0.803691 -0.803691 0.595047 419.682 132.737)" fill="url(#paint7_linear_903_420)"/>
<ellipse cx="8.9219" cy="8.72622" rx="8.9219" ry="8.72622" transform="matrix(-0.595047 -0.803691 -0.803691 0.595047 318.062 41.8398)" fill="white"/>
<ellipse cx="5.18046" cy="5.06684" rx="5.18046" ry="5.06684" transform="matrix(-0.595047 -0.803691 -0.803691 0.595047 289.457 40.1016)" fill="white"/>
<path d="M254.32 190.751C258.505 189.128 259.774 183.845 256.92 180.376C232.251 150.396 217.09 116.589 206.805 82.5406C204.406 74.5999 193.034 73.6692 189.754 81.2703C189.04 82.9238 188.867 84.7753 189.276 86.5322C199.646 131.103 216.038 155.16 247.214 189.102C249.014 191.062 251.842 191.712 254.32 190.751Z" fill="url(#paint8_linear_903_420)"/>
<ellipse cx="20.2046" cy="47.3853" rx="20.2046" ry="47.3853" transform="matrix(-0.423783 0.905764 0.897843 0.440317 110.473 24.5762)" fill="url(#paint9_linear_903_420)"/>
<path d="M129.644 737.016L205.263 790.655C205.263 790.655 193.184 827.711 183.733 821.007C174.281 814.303 117.977 774.365 108.114 767.368C98.2504 760.372 129.644 737.016 129.644 737.016Z" fill="#9747FF"/>
<path d="M145.53 850.571C135.94 864.089 71.5678 902.969 71.5678 902.969C71.5678 902.969 86.9849 829.364 96.5741 815.845C106.163 802.326 124.896 799.141 138.415 808.73C151.933 818.319 155.119 837.052 145.53 850.571Z" fill="#F97700"/>
<path d="M138.691 844.649C132.066 853.989 87.6125 880.868 87.6125 880.868C87.6125 880.868 98.2866 830.028 104.912 820.688C111.537 811.348 124.47 809.14 133.798 815.757C143.126 822.373 145.316 835.309 138.691 844.649Z" fill="#FFAC5F"/>
<path d="M133.88 842.096C128.948 849.048 95.947 869.118 95.947 869.118C95.947 869.118 103.981 831.338 108.912 824.385C113.844 817.433 123.431 815.761 130.325 820.652C137.22 825.542 138.811 835.143 133.88 842.096Z" fill="#FFD571"/>
<rect x="177.77" y="640.169" width="124.243" height="106.837" rx="30" transform="rotate(35.3492 177.77 640.169)" fill="#4B00AD"/>
<ellipse cx="163.548" cy="783.841" rx="9.04635" ry="11.5979" transform="rotate(35.3492 163.548 783.841)" fill="url(#paint10_linear_903_420)"/>
<path fill-rule="evenodd" clip-rule="evenodd" d="M129.01 821.907C148.288 835.582 176.864 828.413 192.836 805.896C208.809 783.379 206.129 754.039 186.85 740.365C167.572 726.69 138.996 733.858 123.024 756.376C107.051 778.893 109.731 808.233 129.01 821.907ZM142.96 812.464C152.259 819.061 168.45 812.211 179.123 797.164C189.796 782.118 190.909 764.573 181.61 757.977C172.31 751.38 156.119 758.23 145.446 773.277C134.774 788.323 133.66 805.868 142.96 812.464Z" fill="#0A1722"/>
<path d="M173.946 677.286L170.83 692.923C155.585 686.189 145.215 680.603 118.2 694.059L115.637 677.221C137.308 666.199 154.326 667.553 173.946 677.286Z" fill="url(#paint11_linear_903_420)"/>
<path d="M236.298 744.959L240.695 729.54C256.423 737.193 267.053 743.403 296.689 731.621L298.242 748.586C274.453 758.264 256.466 755.872 236.298 744.959Z" fill="url(#paint12_linear_903_420)"/>
<path d="M270.978 625.28L274.189 630.775C264.963 633.822 260.249 636.723 252.125 642.639L248.914 637.143C257.361 630.934 262.115 627.609 270.978 625.28Z" fill="#100051"/>
<path fill-rule="evenodd" clip-rule="evenodd" d="M183.138 780.465C198.749 784.723 215.163 781.829 227 771.153C246.704 753.381 246.262 720.774 226.013 698.324C205.764 675.873 173.375 672.081 153.671 689.853C134.249 707.371 134.401 739.303 153.803 761.713C153.114 755.424 155.213 749.079 160.063 744.705C168.364 737.217 181.58 738.34 189.582 747.212C197.585 756.085 197.342 769.346 189.041 776.834C187.266 778.435 185.265 779.643 183.138 780.465Z" fill="url(#paint13_linear_903_420)"/>
<rect x="205.946" y="606.599" width="111.34" height="81.4172" rx="40" transform="rotate(35.3492 205.946 606.599)" fill="url(#paint14_linear_903_420)"/>
<circle cx="200.566" cy="643.448" r="41.5204" transform="rotate(35.3492 200.566 643.448)" fill="url(#paint15_linear_903_420)"/>
<path d="M225.351 661.03C215.642 674.718 212.07 679.953 198.382 670.243C184.694 660.534 166.073 639.557 175.782 625.869C185.492 612.181 204.459 608.956 218.147 618.665C231.835 628.375 235.061 647.342 225.351 661.03Z" fill="white"/>
<circle cx="264.703" cy="688.943" r="41.5204" transform="rotate(35.3492 264.703 688.943)" fill="url(#paint16_linear_903_420)"/>
<path d="M289.488 706.524C279.779 720.212 255.08 710.093 241.392 700.383C227.704 690.674 230.21 685.052 239.919 671.364C249.628 657.675 268.596 654.45 282.284 664.159C295.972 673.869 299.197 692.836 289.488 706.524Z" fill="white"/>
<circle cx="279.215" cy="624.585" r="9.62625" transform="rotate(35.3492 279.215 624.585)" fill="url(#paint17_linear_903_420)"/>
<ellipse cx="205.714" cy="634.359" rx="13.6855" ry="14.8453" transform="rotate(35.3492 205.714 634.359)" fill="black"/>
<circle cx="214.416" cy="640.532" r="5.79894" transform="rotate(35.3492 214.416 640.532)" fill="white"/>
<ellipse cx="269.671" cy="681.349" rx="13.6855" ry="14.8453" transform="rotate(35.3492 269.671 681.349)" fill="black"/>
<circle cx="278.374" cy="687.521" r="5.79894" transform="rotate(35.3492 278.374 687.521)" fill="white"/>
<path fill-rule="evenodd" clip-rule="evenodd" d="M101.224 703.516C110.158 709.853 122.537 707.748 128.874 698.814C135.211 689.88 133.106 677.501 124.172 671.164C115.238 664.827 102.859 666.932 96.5219 675.866C94.1409 679.222 92.9517 683.065 92.8687 686.892L109.476 679.509L116.26 694.77L99.5565 702.195C100.083 702.66 100.639 703.101 101.224 703.516Z" fill="url(#paint18_linear_903_420)"/>
<path fill-rule="evenodd" clip-rule="evenodd" d="M319.015 718.417C309.995 712.203 297.645 714.478 291.432 723.498C285.218 732.518 287.493 744.867 296.513 751.081C305.533 757.295 317.882 755.02 324.096 746C326.431 742.611 327.567 738.751 327.597 734.924L311.093 742.534L304.1 727.368L320.7 719.714C320.167 719.257 319.605 718.824 319.015 718.417Z" fill="url(#paint19_linear_903_420)"/>
<path d="M194.085 755.022C194.567 758.351 196.539 759.18 190.027 767.358C180.588 746.586 159.569 756.168 145.873 771.872L130.21 748.248C150.769 727.283 182.491 730.873 194.085 755.022Z" fill="#0A1722"/>
<ellipse cx="240.197" cy="655.383" rx="92.1321" ry="75.3262" transform="rotate(35.3492 240.197 655.383)" fill="url(#paint20_linear_903_420)"/>
<circle cx="303.385" cy="647.22" r="11.1039" transform="rotate(35.3492 303.385 647.22)" fill="white"/>
<circle cx="309.319" cy="669.459" r="5.40188" transform="rotate(35.3492 309.319 669.459)" fill="white"/>
<path d="M156.99 675.697C159.413 672.281 164.379 672 167.239 675.06C193.41 703.053 213.055 715.655 245.8 730.599C249.604 732.335 250.922 737.104 248.503 740.515C246.599 743.198 242.999 744.072 240.084 742.547C205.666 724.548 186.174 710.792 157.836 684.204C155.469 681.983 155.112 678.346 156.99 675.697Z" fill="url(#paint21_linear_903_420)"/>
<path d="M156.99 675.697C159.413 672.281 164.379 672 167.239 675.06C193.41 703.053 213.055 715.655 245.8 730.599C249.604 732.335 250.922 737.104 248.503 740.515C246.599 743.198 242.999 744.072 240.084 742.547C205.666 724.548 186.174 710.792 157.836 684.204C155.469 681.983 155.112 678.346 156.99 675.697Z" fill="url(#paint22_linear_903_420)"/>
<rect x="1197.68" y="299.598" width="10.6628" height="32.9279" rx="5.3314" transform="rotate(-9.19314 1197.68 299.598)" fill="url(#paint23_linear_903_420)"/>
<path d="M1190.51 257.54C1193.15 246.898 1206.82 244.058 1217.38 246.999C1227.74 249.884 1238.07 258.871 1234.95 269.161C1232.14 278.457 1229.12 286.78 1225.5 296.295C1222.55 304.032 1215.98 310.366 1207.72 310.899C1202.01 311.267 1197.69 310.225 1192.87 307.186C1186.22 302.998 1183.54 294.757 1184.65 286.977C1186.06 277.034 1187.92 267.998 1190.51 257.54Z" fill="url(#paint24_linear_903_420)"/>
<path d="M1234.77 261.945C1233.66 265.931 1223.82 266.673 1212.79 263.601C1201.76 260.529 1193.72 254.807 1194.83 250.821C1195.94 246.835 1203.11 244.237 1216.34 247.922C1229.57 251.606 1235.88 257.959 1234.77 261.945Z" fill="#D9D9D9"/>
<path d="M1185.83 277.985C1189.58 277.004 1193.22 275.45 1197.9 284.865C1197.9 284.865 1200.75 291.778 1205.14 292.418C1209.53 293.058 1212.29 286.962 1212.29 286.962C1216.85 277.594 1227.65 284.083 1230.21 284.456" stroke="#D9D9D9" stroke-width="2"/>
<path d="M1344.62 271.18C1344.39 270.853 1344.28 270.69 1344.18 270.541C1337.56 261.051 1326.07 256.216 1314.65 258.117C1314.47 258.147 1314.28 258.182 1313.89 258.251C1312.96 258.417 1312.5 258.5 1312.17 258.566C1290.2 262.999 1280.67 289.083 1294.62 306.634C1294.82 306.892 1295.12 307.255 1295.72 307.98L1319.04 336.046C1326.07 344.497 1329.58 348.722 1337.04 351.516C1339.44 352.418 1345.8 353.481 1348.37 353.411C1356.33 353.196 1358.09 352.13 1361.6 349.997C1362.13 349.672 1362.66 349.331 1363.17 348.976C1368.1 345.579 1370.56 343.88 1373.64 333.973C1374.08 332.54 1374.81 328.632 1374.92 327.135C1375.63 316.786 1371.58 310.829 1363.48 298.917L1344.62 271.18Z" fill="url(#paint25_linear_903_420)"/>
<path d="M1353.09 263.555C1352.86 263.22 1352.74 263.052 1352.64 262.896C1346.29 253.303 1345.99 240.924 1351.86 231.03C1351.95 230.869 1352.06 230.696 1352.27 230.35C1352.78 229.514 1353.03 229.096 1353.22 228.808C1365.35 209.918 1393.16 210.551 1404.42 229.973C1404.59 230.269 1404.83 230.698 1405.3 231.557L1423.49 264.655C1428.95 274.599 1431.68 279.571 1431.4 287.811C1431.32 290.157 1430.07 296 1429.18 298.173C1426.05 305.801 1424.34 307.09 1420.91 309.668C1420.44 310.028 1419.95 310.373 1419.45 310.706C1414.36 314.113 1411.81 315.816 1401.26 314.871C1399.95 314.753 1396.48 314.079 1395.22 313.696C1385.09 310.618 1380.96 304.547 1372.7 292.406L1353.09 263.555Z" fill="url(#paint26_linear_903_420)"/>
<ellipse cx="1232.86" cy="132.483" rx="15.6806" ry="7.05627" transform="rotate(-34.2149 1232.86 132.483)" fill="#D9D9D9"/>
<rect x="1408.51" y="167.965" width="10.6628" height="32.9279" rx="5.3314" transform="rotate(-32.2889 1408.51 167.965)" fill="url(#paint27_linear_903_420)"/>
<path d="M1198.22 171.934C1197.83 168.237 1201.41 165.07 1204.98 165.539C1211.41 166.382 1216.52 165.309 1222.43 161.911C1225.75 160 1229.84 161.562 1230.24 165.263L1235.94 218.466C1236.11 220.061 1235.52 221.729 1234.32 222.895C1224.38 232.524 1217.64 234.191 1206.3 228.751C1204.96 228.112 1204.1 226.788 1203.94 225.243L1198.22 171.934Z" fill="url(#paint28_linear_903_420)"/>
<ellipse cx="16.317" cy="8.20029" rx="16.317" ry="8.20029" transform="matrix(0.981865 -0.189583 0.0887747 0.996052 1198.35 160.166)" fill="#D9D9D9"/>
<rect x="1181.27" y="294.846" width="10.6628" height="32.9279" rx="5.3314" transform="rotate(3.31179 1181.27 294.846)" fill="url(#paint29_linear_903_420)"/>
<rect x="1211.95" y="304.06" width="10.6628" height="23.2629" rx="5.3314" transform="rotate(-56.0964 1211.95 304.06)" fill="url(#paint30_linear_903_420)"/>
<path d="M1390.09 219.737C1396.88 226.566 1392.92 238.911 1382.26 249.508C1371.6 260.104 1357.45 263.158 1350.67 256.329C1343.88 249.499 1347.02 235.373 1357.68 224.776C1368.34 214.18 1383.3 212.907 1390.09 219.737Z" fill="#D9D9D9"/>
<path d="M1340 267.273C1343.79 275.932 1335.14 286.1 1320.79 292.371C1306.44 298.643 1291.74 296.707 1287.95 288.047C1284.17 279.387 1292.73 267.283 1307.09 261.012C1321.44 254.74 1336.22 258.613 1340 267.273Z" fill="#D9D9D9"/>
<ellipse cx="1288.81" cy="186.597" rx="74.4828" ry="89.5362" transform="rotate(-34.2149 1288.81 186.597)" fill="url(#paint31_linear_903_420)"/>
<path d="M1373.48 124.346C1360.4 132.263 1356.68 138.766 1356.25 153.855L1293.38 117.147C1291.04 100.16 1294.46 93.4799 1310.61 87.6368L1373.48 124.346Z" fill="url(#paint32_linear_903_420)"/>
<ellipse cx="1364.17" cy="138.675" rx="17.1881" ry="9.28586" transform="rotate(121.229 1364.17 138.675)" fill="#D9D9D9"/>
<path d="M1370.33 169.359C1361.65 162.669 1364.53 149.011 1371.47 140.517C1378.27 132.189 1390.64 126.33 1398.82 133.318C1406.2 139.631 1412.61 145.734 1419.87 152.872C1425.78 158.677 1428.94 167.24 1426.11 175.021C1424.15 180.399 1421.47 183.932 1416.75 187.13C1410.24 191.538 1401.62 190.683 1394.94 186.546C1386.4 181.258 1378.87 175.934 1370.33 169.359Z" fill="url(#paint33_linear_903_420)"/>
<path d="M1393.62 133.147C1396.83 135.764 1393.42 145.243 1386.01 154.318C1378.6 163.394 1369.99 168.63 1366.78 166.013C1363.58 163.396 1364.17 155.678 1373.06 144.792C1381.95 133.907 1390.41 130.53 1393.62 133.147Z" fill="#FFFCFC"/>
<rect x="1396.15" y="183.195" width="10.6628" height="23.2629" rx="5.3314" transform="rotate(-30.6388 1396.15 183.195)" fill="url(#paint34_linear_903_420)"/>
<rect x="1417.26" y="163.836" width="10.6628" height="32.9279" rx="5.3314" transform="rotate(-40.6196 1417.26 163.836)" fill="url(#paint35_linear_903_420)"/>
<path d="M1189.63 112.258C1190.62 116.558 1187.92 120.722 1183.82 122.352L1178.56 124.442C1175.36 125.715 1171.66 125.32 1169.09 123.02C1164.85 119.22 1162.21 115.301 1159.85 109.227C1158.55 105.891 1159.45 102.136 1161.88 99.5066L1165.07 96.0552C1168.3 92.558 1173.62 91.73 1177.44 94.5705C1184.22 99.6105 1187.86 104.577 1189.63 112.258Z" fill="url(#paint36_linear_903_420)"/>
<ellipse cx="1214.17" cy="81.8579" rx="52.8436" ry="55.9797" transform="rotate(-34.2149 1214.17 81.8579)" fill="url(#paint37_linear_903_420)"/>
<path d="M1171.79 98.0453C1161.75 81.2255 1165.06 61.3806 1181.06 50.0766C1197.4 38.5304 1222.38 40.831 1234.8 56.5165L1243.41 67.3913C1251.83 78.0151 1251.45 93.4602 1241.31 102.443C1232.49 110.242 1223.97 116.058 1213.53 121.274C1201.86 127.105 1187.81 122.722 1180.56 111.88C1177.38 107.135 1174.52 102.623 1171.79 98.0453Z" fill="url(#paint38_linear_903_420)"/>
<path d="M1220.48 89.508C1221.08 90.3931 1221.41 91.5979 1221.49 92.9848C1221.57 94.3672 1221.4 95.8969 1221.02 97.3988C1220.26 100.429 1218.7 103.216 1216.87 104.456C1215.06 105.693 1212.01 106.044 1209.03 105.564C1206.05 105.083 1203.33 103.803 1202.1 102.001C1201.51 101.125 1201.42 100.352 1201.61 99.6348C1201.82 98.8885 1202.36 98.1417 1203.15 97.3851C1203.94 96.6327 1204.94 95.9084 1206 95.197C1206.48 94.8797 1206.98 94.5537 1207.48 94.23C1208.07 93.8519 1208.65 93.477 1209.17 93.1232C1209.71 92.7531 1210.27 92.3517 1210.85 91.9431C1212.4 90.8351 1214.02 89.674 1215.58 88.9389C1216.63 88.4394 1217.59 88.1731 1218.4 88.2315C1219.19 88.2874 1219.89 88.644 1220.48 89.508Z" stroke="white"/>
<path d="M1182.83 86.5189C1186.77 83.842 1192.05 84.7487 1194.75 88.4955C1194.5 89.2708 1194.19 89.6409 1193.87 89.8435C1193.49 90.078 1193.01 90.1494 1192.3 90.1853C1192.16 90.1922 1192.02 90.1977 1191.87 90.2034C1190.5 90.2567 1188.64 90.3286 1186.38 91.681C1184 93.1014 1183.44 95.0541 1183.04 96.4795C1183.01 96.5975 1182.98 96.7119 1182.94 96.8221C1182.72 97.5725 1182.54 98.0102 1182.21 98.2485C1181.92 98.4584 1181.4 98.5902 1180.31 98.3681C1177.79 94.4731 1178.88 89.2038 1182.83 86.5189Z" stroke="white"/>
<path d="M1212.09 66.7201C1216.03 64.0432 1221.31 64.9499 1224.02 68.6967C1223.76 69.4719 1223.45 69.842 1223.13 70.0447C1222.76 70.2792 1222.28 70.3506 1221.56 70.3865C1221.43 70.3933 1221.29 70.3988 1221.14 70.4045C1219.76 70.4579 1217.91 70.5298 1215.64 71.8822C1213.26 73.3025 1212.71 75.2553 1212.3 76.6806C1212.27 76.7987 1212.24 76.9131 1212.21 77.0233C1211.99 77.7737 1211.8 78.2114 1211.47 78.4497C1211.18 78.6596 1210.66 78.7914 1209.57 78.5693C1207.05 74.6743 1208.15 69.405 1212.09 66.7201Z" stroke="white"/>
<path d="M1242.73 49.1072C1241.74 44.8074 1244.44 40.6428 1248.54 39.0132L1251.5 37.8386C1255.85 36.1083 1260.82 37.6339 1263.46 41.5089L1269.94 51.0365C1272.55 54.8842 1272.17 60.028 1269.01 63.4456L1267.29 65.31C1264.06 68.8073 1258.74 69.6353 1254.92 66.7947C1248.14 61.7547 1244.51 56.7884 1242.73 49.1072Z" fill="url(#paint39_linear_903_420)"/>
<path d="M1268.34 44.9496C1272.49 51.0518 1273.84 57.369 1271.35 59.0594C1268.87 60.7499 1263.49 57.1735 1259.34 51.0714C1255.19 44.9692 1253.84 38.6521 1256.33 36.9616C1258.81 35.2711 1264.19 38.8475 1268.34 44.9496Z" fill="#FFD571"/>
<path d="M1228.74 201.286C1226.37 194.295 1229.1 186.503 1235.22 182.339L1235.98 181.821C1244.07 176.321 1254.93 180.176 1259.08 189.261C1263.4 198.727 1261.98 210.836 1253.67 216.487L1252.74 217.116C1246.66 221.253 1238.58 220.929 1234.9 215.088C1232.25 210.88 1230.42 206.266 1228.74 201.286Z" stroke="#D9D9D9" stroke-width="2"/>
<rect x="1220.24" y="179.179" width="30.1067" height="6.27224" rx="3.13612" transform="rotate(-34.2149 1220.24 179.179)" fill="url(#paint40_linear_903_420)"/>
<rect x="1222.66" y="167.676" width="23.2073" height="6.27224" rx="3.13612" transform="rotate(-34.2149 1222.66 167.676)" fill="url(#paint41_linear_903_420)"/>
<path d="M1317.97 334.991C1320.89 331.181 1323.3 327.064 1334.46 329.878C1334.46 329.878 1342.09 332.431 1346.77 329.248C1351.45 326.066 1349.8 319.445 1349.8 319.445C1347.58 309.003 1362.58 304.659 1365.3 302.808" stroke="#D9D9D9" stroke-width="2"/>
<path d="M1375.55 296.125C1378.39 292.371 1387.87 283.219 1398.9 286.126C1398.9 286.126 1406.19 288.942 1410.77 285.828C1415.35 282.714 1414.31 277.004 1414.31 277.004C1412.02 266.61 1423.12 266.234 1422.81 264.963" stroke="#D9D9D9" stroke-width="2"/>
<path d="M1380.14 176.663C1381.33 172.971 1381.98 169.072 1392.43 170.189C1392.43 170.189 1399.79 171.506 1402.7 168.151C1405.6 164.796 1401.94 159.193 1401.94 159.193C1396.5 150.309 1407.78 144.691 1409.47 142.739" stroke="#D9D9D9" stroke-width="2"/>
<path d="M1394.13 371.347C1399.62 377.639 1411.06 413.757 1411.06 413.757C1411.06 413.757 1376.83 397.517 1371.35 391.225C1365.86 384.932 1366.51 375.381 1372.8 369.892C1379.09 364.403 1388.64 365.054 1394.13 371.347Z" fill="#1789FC"/>
<path d="M1390.43 373.997C1394.22 378.344 1402.13 403.29 1402.13 403.29C1402.13 403.29 1378.49 392.06 1374.7 387.713C1370.91 383.365 1371.35 376.77 1375.7 372.983C1380.04 369.195 1386.63 369.649 1390.43 373.997Z" fill="#45A2FF"/>
<path d="M1388.61 376.054C1391.43 379.29 1397.36 397.822 1397.36 397.822C1397.36 397.822 1379.81 389.428 1376.98 386.192C1374.16 382.955 1374.48 378.063 1377.68 375.263C1380.89 372.464 1385.78 372.818 1388.61 376.054Z" fill="#79BCFF"/>
<path d="M1452.78 335.906C1456.6 343.331 1459.06 381.139 1459.06 381.139C1459.06 381.139 1429.72 357.169 1425.9 349.744C1422.08 342.32 1425 333.203 1432.42 329.382C1439.85 325.561 1448.96 328.482 1452.78 335.906Z" fill="#1789FC"/>
<path d="M1448.55 337.592C1451.19 342.721 1452.9 368.837 1452.9 368.837C1452.9 368.837 1432.64 352.269 1430 347.14C1427.36 342.01 1429.37 335.714 1434.49 333.078C1439.62 330.441 1445.91 332.462 1448.55 337.592Z" fill="#45A2FF"/>
<path d="M1446.29 339.15C1448.26 342.969 1449.58 362.383 1449.58 362.383C1449.58 362.383 1434.54 350.026 1432.58 346.208C1430.61 342.389 1432.09 337.714 1435.88 335.765C1439.66 333.816 1444.33 335.332 1446.29 339.15Z" fill="#79BCFF"/>
<circle cx="1211.77" cy="81.3122" r="71.202" transform="rotate(-34.2149 1211.77 81.3122)" fill="url(#paint42_linear_903_420)"/>
<circle cx="1214.84" cy="30.0884" r="9.67418" transform="rotate(-34.2149 1214.84 30.0884)" fill="white"/>
<circle cx="1236.06" cy="38.587" r="5.41754" transform="rotate(-34.2149 1236.06 38.587)" fill="white"/>
<path d="M1203.16 158.121C1200.74 154.566 1202.25 149.69 1206.2 148.016C1237.61 134.735 1255.26 122.127 1279.02 98.37C1282.05 95.3399 1287.11 95.7696 1289.52 99.3132C1291.27 101.887 1291.03 105.337 1288.93 107.628C1263.37 135.409 1244.94 147.821 1211.02 160.626C1208.14 161.713 1204.89 160.665 1203.16 158.121Z" fill="url(#paint43_linear_903_420)"/>
<path d="M1402.72 306.409L1423.4 292.349C1423.4 292.349 1449.22 308.093 1438.88 315.123C1428.54 322.153 1425.44 324.262 1418.2 329.184C1410.97 334.105 1402.72 306.409 1402.72 306.409Z" fill="url(#paint44_linear_903_420)"/>
<path d="M1343.8 346.612L1364.48 332.551C1364.48 332.551 1390.31 348.295 1379.97 355.325C1369.63 362.355 1366.53 364.465 1359.29 369.386C1352.05 374.307 1343.8 346.612 1343.8 346.612Z" fill="url(#paint45_linear_903_420)"/>
<rect width="23.8019" height="79.0626" rx="9.66338" transform="matrix(0.474699 0.880148 -0.88015 0.474696 997.587 92)" fill="url(#paint46_linear_903_420)"/>
<ellipse cx="14.0405" cy="14.0406" rx="14.0405" ry="14.0406" transform="matrix(1 0 5.42076e-06 -1 925 153.081)" fill="#747474"/>
<circle cx="3.58471" cy="3.58471" r="3.58471" transform="matrix(1 0 0 -1 833.896 775.243)" fill="white" fill-opacity="0.62"/>
<circle cx="3.58471" cy="3.58471" r="3.58471" transform="matrix(1 0 0 -1 299.263 936.043)" fill="white" fill-opacity="0.62"/>
<circle cx="3.58471" cy="3.58471" r="3.58471" transform="matrix(1 0 0 -1 60.6235 694.331)" fill="white" fill-opacity="0.62"/>
<circle cx="3.58471" cy="3.58471" r="3.58471" transform="matrix(1 0 0 -1 561.459 767.05)" fill="white" fill-opacity="0.62"/>
<circle cx="1.5363" cy="1.5363" r="1.5363" transform="matrix(1 0 0 -1 574.773 746.565)" fill="white" fill-opacity="0.62"/>
<circle cx="3.58471" cy="3.58471" r="3.58471" transform="matrix(1 0 0 -1 41.1638 819.284)" fill="white" fill-opacity="0.62"/>
<circle cx="3.58471" cy="3.58471" r="3.58471" transform="matrix(1 0 0 -1 706 966.169)" fill="white" fill-opacity="0.62"/>
<circle cx="3.58471" cy="3.58471" r="3.58471" transform="matrix(1 0 0 -1 693.581 804.945)" fill="white" fill-opacity="0.62"/>
<ellipse cx="4.09681" cy="4.09683" rx="4.09681" ry="4.09683" transform="matrix(1 0 4.09188e-06 -1 846.187 758.855)" fill="white" fill-opacity="0.62"/>
<ellipse cx="4.09681" cy="4.09683" rx="4.09681" ry="4.09683" transform="matrix(1 0 4.09188e-06 -1 277.755 941.164)" fill="white" fill-opacity="0.62"/>
<ellipse cx="4.09681" cy="4.09683" rx="4.09681" ry="4.09683" transform="matrix(1 0 4.09188e-06 -1 694 941.193)" fill="white" fill-opacity="0.62"/>
<ellipse cx="4.09681" cy="4.09683" rx="4.09681" ry="4.09683" transform="matrix(1 0 4.09188e-06 -1 1195 571.193)" fill="white" fill-opacity="0.62"/>
<ellipse cx="4.09681" cy="4.09683" rx="4.09681" ry="4.09683" transform="matrix(1 0 4.09188e-06 -1 1375 485.193)" fill="white" fill-opacity="0.62"/>
<ellipse cx="4.09681" cy="4.09683" rx="4.09681" ry="4.09683" transform="matrix(1 0 4.09188e-06 -1 1203 624.193)" fill="white" fill-opacity="0.62"/>
<ellipse cx="4.09681" cy="4.09683" rx="4.09681" ry="4.09683" transform="matrix(1 0 4.09188e-06 -1 55.5026 796.752)" fill="white" fill-opacity="0.62"/>
<ellipse cx="4.09681" cy="4.09683" rx="4.09681" ry="4.09683" transform="matrix(1 0 4.09188e-06 -1 662.855 826.453)" fill="white" fill-opacity="0.62"/>
<ellipse cx="4.60889" cy="4.60892" rx="4.60889" ry="4.60892" transform="matrix(1 0 4.09188e-06 -1 340.231 485.395)" fill="#AAAAAA" fill-opacity="0.62"/>
<ellipse cx="2.5605" cy="2.56052" rx="2.5605" ry="2.56052" transform="matrix(1 0 4.09188e-06 -1 353.546 496.66)" fill="#AAAAAA" fill-opacity="0.62"/>
<ellipse cx="7.16942" cy="7.16947" rx="7.16942" ry="7.16947" transform="matrix(1 0 4.09188e-06 -1 143 138.339)" fill="white" fill-opacity="0.4"/>
<rect width="7.86856" height="7.86856" transform="matrix(0.717788 -0.696261 0.696255 0.717794 798.049 729.512)" fill="white"/>
<rect width="7.86856" height="7.86856" transform="matrix(0.717788 -0.696261 0.696255 0.717794 306.432 917.965)" fill="white"/>
<rect width="7.86856" height="7.86856" transform="matrix(0.717788 -0.696261 0.696255 0.717794 1168 590.479)" fill="white"/>
<rect width="7.86856" height="7.86856" transform="matrix(0.717788 -0.696261 0.696255 0.717794 80.0835 681.373)" fill="white"/>
<rect width="7.86856" height="7.86856" transform="matrix(0.717788 -0.696261 0.696255 0.717794 44.2363 841.149)" fill="white"/>
<rect width="7.86856" height="7.86856" transform="matrix(0.717788 -0.696261 0.696255 0.717794 1353 462.479)" fill="white"/>
<rect width="7.86856" height="7.86856" transform="matrix(0.717788 -0.696261 0.696255 0.717794 664 947.479)" fill="white"/>
<rect width="7.86856" height="7.86856" transform="matrix(0.717788 -0.696261 0.696255 0.717794 316.674 506.234)" fill="white"/>
<rect width="7.86856" height="7.86856" transform="matrix(0.717788 -0.696261 0.696255 0.717794 45.2605 390.5)" fill="white"/>
<rect width="7.86856" height="7.86856" transform="matrix(0.717788 -0.696261 0.696255 0.717794 667 93.4785)" fill="white"/>
<rect width="7.86856" height="7.86856" transform="matrix(0.717788 -0.696261 0.696255 0.717794 161 162.479)" fill="white"/>
<ellipse cx="2.56048" cy="2.5605" rx="2.56048" ry="2.5605" transform="matrix(1 0 4.09188e-06 -1 63.6962 381.949)" fill="white" fill-opacity="0.4"/>
<ellipse cx="2.56048" cy="2.5605" rx="2.56048" ry="2.5605" transform="matrix(1 0 4.09188e-06 -1 705 91.1211)" fill="white" fill-opacity="0.4"/>
<ellipse cx="4.03755" cy="4.03758" rx="4.03755" ry="4.03758" transform="matrix(1 0 4.09188e-06 -1 37.0669 412.558)" fill="white" fill-opacity="0.4"/>
<ellipse cx="4.03755" cy="4.03758" rx="4.03755" ry="4.03758" transform="matrix(1 0 4.09188e-06 -1 697 74.0752)" fill="white" fill-opacity="0.4"/>
<path d="M1197.59 938.015L1184.32 972.972C1111.66 975.002 1078.7 963.069 1034.89 916.273L1048.15 881.316C1097.8 925.928 1130.03 939.595 1197.59 938.015Z" fill="url(#paint47_linear_903_420)"/>
<path d="M1117.07 812.875C1117.07 799.068 1128.26 787.875 1142.07 787.875H1187.87V858.676H1142.07C1128.26 858.676 1117.07 847.483 1117.07 833.676V812.875Z" fill="url(#paint48_linear_903_420)"/>
<path d="M1150.35 811.945C1150.35 762.285 1190.6 722.027 1240.27 722.027C1289.93 722.027 1330.18 762.285 1330.18 811.945V915.315H1150.35V811.945Z" fill="url(#paint49_linear_903_420)"/>
<path d="M1150.35 905.403C1216.63 914.688 1255 915.504 1326.64 905.403L1330.54 823.627L1352.48 939.033C1269.34 963.763 1222.46 964.767 1136.19 939.387L1150.35 905.403Z" fill="url(#paint50_linear_903_420)"/>
<circle cx="1275.67" cy="742.335" r="5.3101" fill="white"/>
<path d="M1136.19 938.682C1217 952.174 1264.96 952.326 1352.84 938.682V1123.99C1269.77 1135.32 1136.19 1139.76 1136.19 1123.99C1136.19 1108.23 1136.19 938.682 1136.19 938.682Z" fill="url(#paint51_linear_903_420)"/>
<path d="M1374.79 833.676C1374.79 847.483 1363.59 858.676 1349.79 858.676H1320.37C1312.47 831.673 1311.14 817.318 1320.1 788.936L1349.3 788.369C1363.3 788.098 1374.79 799.368 1374.79 813.365V833.676Z" fill="url(#paint52_linear_903_420)"/>
<circle cx="1187.87" cy="819.027" r="19.8244" fill="#FFD571"/>
<circle cx="1264.69" cy="818.673" r="13.8063" fill="#FFD571"/>
<path d="M1208.4 862.215C1222.42 874.212 1229.59 872.854 1241.68 862.215" stroke="#FFD571" stroke-width="6"/>
<circle cx="1181.5" cy="966.293" r="6.37212" fill="#6F00FF"/>
<circle cx="1181.5" cy="986.117" r="6.37212" fill="#00FFD1"/>
<rect x="1154.59" y="954.966" width="15.5763" height="61.5972" rx="7.78815" fill="#FFAD5A"/>
<path fill-rule="evenodd" clip-rule="evenodd" d="M1043.22 927.491C1062.48 924.075 1075.31 905.701 1071.9 886.45C1068.48 867.2 1050.11 854.363 1030.86 857.778C1028.33 858.227 1025.91 858.935 1023.62 859.868C1031.11 860.813 1037.44 866.518 1038.83 874.342C1040.54 883.967 1034.12 893.154 1024.49 894.862C1014.87 896.57 1005.68 890.151 1003.97 880.526C1003.95 880.4 1003.93 880.275 1003.91 880.149C1001.73 885.91 1001.03 892.315 1002.18 898.819C1005.6 918.07 1023.97 930.907 1043.22 927.491Z" fill="url(#paint53_linear_903_420)"/>
<path d="M1322.58 973.111C1328.92 950.041 1335.95 946.36 1352.7 950.961C1414.82 988.72 1436.01 1016.64 1447.38 1079.73L1417.26 1101.88C1399.8 1037.45 1380.16 1008.47 1322.58 973.111Z" fill="url(#paint54_linear_903_420)"/>
<path d="M1387.15 835.544C1383.25 919.871 1410.43 952.304 1236.66 952.304C1072.61 937.42 1110.03 922.137 1105.62 835.544C1105.62 761.564 1155.74 687 1240.61 687C1325.48 687 1387.15 761.564 1387.15 835.544Z" fill="url(#paint55_linear_903_420)"/>
<path d="M1117.95 943.095C1117.95 935.229 1125.34 929.448 1133.01 931.181C1216.52 950.037 1269.71 949.728 1354.57 931.077C1362.26 929.386 1369.63 935.195 1369.63 943.072C1369.63 949.124 1365.19 954.274 1359.2 955.132C1272.91 967.5 1218.93 967.743 1128.36 955.09C1122.39 954.255 1117.95 949.128 1117.95 943.095Z" fill="url(#paint56_linear_903_420)"/>
<circle cx="1286.6" cy="746.677" r="24.6493" fill="white"/>
<circle cx="1324.22" cy="784.3" r="12.9733" fill="white"/>
</g>
<defs>
<linearGradient id="paint0_linear_903_420" x1="882" y1="149" x2="79.5001" y2="1206" gradientUnits="userSpaceOnUse">
<stop stop-color="#100051"/>
<stop offset="1" stop-color="#006EDD"/>
</linearGradient>
<linearGradient id="paint1_linear_903_420" x1="123.477" y1="153.39" x2="32.8804" y2="197.468" gradientUnits="userSpaceOnUse">
<stop stop-color="#006EDD" stop-opacity="0.47"/>
<stop offset="0.0001" stop-color="#006EDD" stop-opacity="0.78"/>
<stop offset="1" stop-color="#379BFF" stop-opacity="0"/>
</linearGradient>
<linearGradient id="paint2_linear_903_420" x1="-14.4999" y1="11.3493" x2="68.3413" y2="125.203" gradientUnits="userSpaceOnUse">
<stop stop-color="#F9A400"/>
<stop offset="1" stop-color="#FFD878"/>
</linearGradient>
<linearGradient id="paint3_linear_903_420" x1="231.42" y1="73.6739" x2="219.96" y2="260.475" gradientUnits="userSpaceOnUse">
<stop stop-color="#E8AA14"/>
<stop offset="1" stop-color="#F96800"/>
</linearGradient>
<linearGradient id="paint4_linear_903_420" x1="17.0255" y1="0" x2="17.0255" y2="77.3223" gradientUnits="userSpaceOnUse">
<stop stop-color="#E8AA14"/>
<stop offset="1" stop-color="#F96800"/>
</linearGradient>
<linearGradient id="paint5_linear_903_420" x1="125.924" y1="-0.0915663" x2="0.535541" y2="98.1198" gradientUnits="userSpaceOnUse">
<stop stop-color="#E8AA14"/>
<stop offset="1" stop-color="#F96800"/>
</linearGradient>
<linearGradient id="paint6_linear_903_420" x1="19.9888" y1="20.648" x2="-20.5759" y2="23.2767" gradientUnits="userSpaceOnUse">
<stop stop-color="#E8AA14"/>
<stop offset="1" stop-color="#F96800"/>
</linearGradient>
<linearGradient id="paint7_linear_903_420" x1="167.471" y1="12.867" x2="8.05273" y2="218.937" gradientUnits="userSpaceOnUse">
<stop stop-color="#D9D9D9"/>
<stop offset="1" stop-color="#D9D9D9" stop-opacity="0"/>
</linearGradient>
<linearGradient id="paint8_linear_903_420" x1="243.811" y1="150.171" x2="168.22" y2="68.3394" gradientUnits="userSpaceOnUse">
<stop stop-color="#FF4747"/>
<stop offset="0.453125" stop-color="#FF6262"/>
<stop offset="1" stop-color="#FF4747"/>
</linearGradient>
<linearGradient id="paint9_linear_903_420" x1="45.928" y1="84.7046" x2="-20.8046" y2="-29.5811" gradientUnits="userSpaceOnUse">
<stop stop-color="#F9A400"/>
<stop offset="1" stop-color="#FFD878"/>
</linearGradient>
<linearGradient id="paint10_linear_903_420" x1="174.45" y1="776.65" x2="154.501" y2="799.034" gradientUnits="userSpaceOnUse">
<stop stop-color="white"/>
<stop offset="1" stop-color="#ABBDC2"/>
</linearGradient>
<linearGradient id="paint11_linear_903_420" x1="162.642" y1="680.677" x2="120.048" y2="683.594" gradientUnits="userSpaceOnUse">
<stop stop-color="#100051"/>
<stop offset="1" stop-color="#004A95"/>
</linearGradient>
<linearGradient id="paint12_linear_903_420" x1="269.651" y1="738.097" x2="294.614" y2="772.867" gradientUnits="userSpaceOnUse">
<stop stop-color="#100051"/>
<stop offset="1" stop-color="#006EDD"/>
</linearGradient>
<linearGradient id="paint13_linear_903_420" x1="216.254" y1="710.978" x2="176.059" y2="798.051" gradientUnits="userSpaceOnUse">
<stop stop-color="#006EDD"/>
<stop offset="1" stop-color="#1789FC"/>
</linearGradient>
<linearGradient id="paint14_linear_903_420" x1="261.616" y1="606.599" x2="261.616" y2="677.23" gradientUnits="userSpaceOnUse">
<stop stop-color="#1789FC"/>
<stop offset="0.5" stop-color="#00468D"/>
<stop offset="1" stop-color="#1789FC"/>
</linearGradient>
<linearGradient id="paint15_linear_903_420" x1="249.162" y1="643.448" x2="272.589" y2="583.603" gradientUnits="userSpaceOnUse">
<stop stop-color="#100051"/>
<stop offset="0.984405" stop-color="#006CD9"/>
</linearGradient>
<linearGradient id="paint16_linear_903_420" x1="250.09" y1="695.786" x2="358.646" y2="625.735" gradientUnits="userSpaceOnUse">
<stop stop-color="#100051"/>
<stop offset="1" stop-color="#006EDD"/>
</linearGradient>
<linearGradient id="paint17_linear_903_420" x1="285.014" y1="621.686" x2="271.096" y2="629.572" gradientUnits="userSpaceOnUse">
<stop stop-color="#E8AA14"/>
<stop offset="1" stop-color="#F96800"/>
</linearGradient>
<linearGradient id="paint18_linear_903_420" x1="74.941" y1="697.67" x2="145.813" y2="671.726" gradientUnits="userSpaceOnUse">
<stop stop-color="#100051"/>
<stop offset="1" stop-color="#004A95"/>
</linearGradient>
<linearGradient id="paint19_linear_903_420" x1="314.178" y1="711.808" x2="278.892" y2="801.245" gradientUnits="userSpaceOnUse">
<stop stop-color="#100051"/>
<stop offset="1" stop-color="#006CD9"/>
</linearGradient>
<linearGradient id="paint20_linear_903_420" x1="326.027" y1="599.195" x2="149.265" y2="780.984" gradientUnits="userSpaceOnUse">
<stop stop-color="#D9D9D9"/>
<stop offset="1" stop-color="#D9D9D9" stop-opacity="0"/>
</linearGradient>
<linearGradient id="paint21_linear_903_420" x1="168.288" y1="684.994" x2="251.21" y2="757.939" gradientUnits="userSpaceOnUse">
<stop stop-color="#C86DFF"/>
<stop offset="0.536458" stop-color="#DBA2FF"/>
<stop offset="1" stop-color="#9747FF"/>
</linearGradient>
<linearGradient id="paint22_linear_903_420" x1="186.558" y1="690.235" x2="235.818" y2="759.037" gradientUnits="userSpaceOnUse">
<stop stop-color="#FF4747"/>
<stop offset="0.453125" stop-color="#FF6262"/>
<stop offset="1" stop-color="#FF4747"/>
</linearGradient>
<linearGradient id="paint23_linear_903_420" x1="1202.86" y1="369.351" x2="1207.27" y2="327.501" gradientUnits="userSpaceOnUse">
<stop stop-color="#FFD571"/>
<stop offset="1" stop-color="#F97700"/>
</linearGradient>
<linearGradient id="paint24_linear_903_420" x1="1191.06" y1="286.956" x2="1237.88" y2="265.418" gradientUnits="userSpaceOnUse">
<stop stop-color="#FFFCFC"/>
<stop offset="1" stop-color="#CEE8FF"/>
</linearGradient>
<linearGradient id="paint25_linear_903_420" x1="1309.52" y1="320.232" x2="1356.67" y2="278.309" gradientUnits="userSpaceOnUse">
<stop stop-color="#FFFCFC"/>
<stop offset="1" stop-color="#CEE8FF"/>
</linearGradient>
<linearGradient id="paint26_linear_903_420" x1="1425.77" y1="230.181" x2="1360.41" y2="278.795" gradientUnits="userSpaceOnUse">
<stop stop-color="#FFFCFC"/>
<stop offset="1" stop-color="#CEE8FF"/>
</linearGradient>
<linearGradient id="paint27_linear_903_420" x1="1413.7" y1="237.718" x2="1418.1" y2="195.869" gradientUnits="userSpaceOnUse">
<stop stop-color="#FFD571"/>
<stop offset="1" stop-color="#F97700"/>
</linearGradient>
<linearGradient id="paint28_linear_903_420" x1="1188.75" y1="193.386" x2="1236.82" y2="167.437" gradientUnits="userSpaceOnUse">
<stop stop-color="#FFFCFC"/>
<stop offset="1" stop-color="#CEE8FF"/>
</linearGradient>
<linearGradient id="paint29_linear_903_420" x1="1189.57" y1="302.47" x2="1174.84" y2="339.475" gradientUnits="userSpaceOnUse">
<stop stop-color="#FFD571"/>
<stop offset="1" stop-color="#F96800"/>
</linearGradient>
<linearGradient id="paint30_linear_903_420" x1="1201.81" y1="340.061" x2="1231.17" y2="313.28" gradientUnits="userSpaceOnUse">
<stop stop-color="#F96800"/>
<stop offset="1" stop-color="#FFD571"/>
</linearGradient>
<linearGradient id="paint31_linear_903_420" x1="1328.17" y1="81.851" x2="1377.72" y2="233.482" gradientUnits="userSpaceOnUse">
<stop stop-color="#CEE8FF"/>
<stop offset="0.380208" stop-color="#FFFCFC"/>
<stop offset="0.635417" stop-color="#FFFCFC"/>
<stop offset="1" stop-color="#CEE8FF"/>
</linearGradient>
<linearGradient id="paint32_linear_903_420" x1="1333.1" y1="102.815" x2="1316.55" y2="161.855" gradientUnits="userSpaceOnUse">
<stop stop-color="#FFFCFC"/>
<stop offset="1" stop-color="#CEE8FF"/>
</linearGradient>
<linearGradient id="paint33_linear_903_420" x1="1390.83" y1="150.593" x2="1425.84" y2="179.499" gradientUnits="userSpaceOnUse">
<stop stop-color="#FFFCFC"/>
<stop offset="1" stop-color="#CEE8FF"/>
</linearGradient>
<linearGradient id="paint34_linear_903_420" x1="1386.01" y1="219.197" x2="1415.37" y2="192.415" gradientUnits="userSpaceOnUse">
<stop stop-color="#F96800"/>
<stop offset="1" stop-color="#FFD571"/>
</linearGradient>
<linearGradient id="paint35_linear_903_420" x1="1425.56" y1="171.46" x2="1410.83" y2="208.466" gradientUnits="userSpaceOnUse">
<stop stop-color="#FFD571"/>
<stop offset="1" stop-color="#F96800"/>
</linearGradient>
<linearGradient id="paint36_linear_903_420" x1="1184" y1="124.184" x2="1149.77" y2="77.1076" gradientUnits="userSpaceOnUse">
<stop stop-color="#FFD571"/>
<stop offset="1" stop-color="#F96800"/>
</linearGradient>
<linearGradient id="paint37_linear_903_420" x1="1224.68" y1="72.4495" x2="1237.22" y2="133.604" gradientUnits="userSpaceOnUse">
<stop stop-color="#FFFCFC"/>
<stop offset="1" stop-color="#CEE8FF"/>
</linearGradient>
<linearGradient id="paint38_linear_903_420" x1="1269.13" y1="78.3272" x2="1136.18" y2="65.015" gradientUnits="userSpaceOnUse">
<stop stop-color="#9747FF"/>
<stop offset="1" stop-color="#1789FC"/>
</linearGradient>
<linearGradient id="paint39_linear_903_420" x1="1248.36" y1="37.1816" x2="1282.59" y2="84.2577" gradientUnits="userSpaceOnUse">
<stop stop-color="#FFD571"/>
<stop offset="1" stop-color="#F96800"/>
</linearGradient>
<linearGradient id="paint40_linear_903_420" x1="1220.24" y1="174.161" x2="1250.35" y2="190.469" gradientUnits="userSpaceOnUse">
<stop stop-color="#F96800"/>
<stop offset="1" stop-color="#FFD571"/>
</linearGradient>
<linearGradient id="paint41_linear_903_420" x1="1222.66" y1="162.658" x2="1248.22" y2="173.33" gradientUnits="userSpaceOnUse">
<stop stop-color="#F96800"/>
<stop offset="1" stop-color="#FFD571"/>
</linearGradient>
<linearGradient id="paint42_linear_903_420" x1="1298.06" y1="26.7498" x2="1160.3" y2="172.637" gradientUnits="userSpaceOnUse">
<stop stop-color="#D9D9D9"/>
<stop offset="1" stop-color="#D9D9D9" stop-opacity="0"/>
</linearGradient>
<linearGradient id="paint43_linear_903_420" x1="1216.18" y1="142.53" x2="1286.7" y2="129.448" gradientUnits="userSpaceOnUse">
<stop stop-color="#FF4747"/>
<stop offset="0.557292" stop-color="#FD8B8B"/>
<stop offset="1" stop-color="#FF4747"/>
</linearGradient>
<linearGradient id="paint44_linear_903_420" x1="1405.43" y1="327.264" x2="1433.15" y2="294.728" gradientUnits="userSpaceOnUse">
<stop offset="0.368834" stop-color="#263238"/>
<stop offset="0.562033" stop-color="#2F4D5C"/>
<stop offset="0.829904" stop-color="#263238"/>
</linearGradient>
<linearGradient id="paint45_linear_903_420" x1="1346.51" y1="367.466" x2="1374.24" y2="334.93" gradientUnits="userSpaceOnUse">
<stop offset="0.368834" stop-color="#263238"/>
<stop offset="0.562033" stop-color="#2F4D5C"/>
<stop offset="0.829904" stop-color="#263238"/>
</linearGradient>
<linearGradient id="paint46_linear_903_420" x1="14.5062" y1="61.1469" x2="10.5893" y2="16.6267" gradientUnits="userSpaceOnUse">
<stop stop-color="#F96800"/>
<stop offset="1" stop-color="#FFD571" stop-opacity="0.1"/>
</linearGradient>
<linearGradient id="paint47_linear_903_420" x1="1171.11" y1="964.655" x2="1037.8" y2="908.591" gradientUnits="userSpaceOnUse">
<stop stop-color="#017EFC"/>
<stop offset="1" stop-color="#017EFC" stop-opacity="0"/>
</linearGradient>
<linearGradient id="paint48_linear_903_420" x1="1085.56" y1="913.901" x2="1165.57" y2="708.223" gradientUnits="userSpaceOnUse">
<stop stop-color="#1789FC"/>
<stop offset="1" stop-color="#BEDEFF"/>
</linearGradient>
<linearGradient id="paint49_linear_903_420" x1="1315.67" y1="738.312" x2="1126.27" y2="946.114" gradientUnits="userSpaceOnUse">
<stop stop-color="#003F64"/>
<stop offset="1" stop-color="#006EDD"/>
</linearGradient>
<linearGradient id="paint50_linear_903_420" x1="1340.09" y1="873.896" x2="1185.75" y2="966.646" gradientUnits="userSpaceOnUse">
<stop stop-color="#67B3FF"/>
<stop offset="1" stop-color="#007EFD"/>
</linearGradient>
<linearGradient id="paint51_linear_903_420" x1="1337.97" y1="920.526" x2="1197.15" y2="1114.73" gradientUnits="userSpaceOnUse">
<stop stop-color="#379BFF"/>
<stop offset="1" stop-color="#1789FC"/>
</linearGradient>
<linearGradient id="paint52_linear_903_420" x1="1334.78" y1="867.172" x2="1401.8" y2="760.281" gradientUnits="userSpaceOnUse">
<stop stop-color="#1789FC"/>
<stop offset="0.927083" stop-color="white"/>
</linearGradient>
<linearGradient id="paint53_linear_903_420" x1="1068.57" y1="956.768" x2="1052.79" y2="783.233" gradientUnits="userSpaceOnUse">
<stop stop-color="#017EFC"/>
<stop offset="1" stop-color="#017EFC" stop-opacity="0"/>
</linearGradient>
<linearGradient id="paint54_linear_903_420" x1="1484.18" y1="930.182" x2="1358.15" y2="1048.77" gradientUnits="userSpaceOnUse">
<stop stop-color="#017EFC"/>
<stop offset="0.0001" stop-color="#017EFC"/>
<stop offset="1" stop-color="#004A95"/>
</linearGradient>
<linearGradient id="paint55_linear_903_420" x1="1368.99" y1="687" x2="1087.45" y2="970.755" gradientUnits="userSpaceOnUse">
<stop stop-color="#D9D9D9"/>
<stop offset="1" stop-color="#D9D9D9" stop-opacity="0"/>
</linearGradient>
<linearGradient id="paint56_linear_903_420" x1="1243.79" y1="927.655" x2="1341.09" y2="973.062" gradientUnits="userSpaceOnUse">
<stop stop-color="#FF5454"/>
<stop offset="0.557292" stop-color="#FF8585"/>
<stop offset="1" stop-color="#FF5454"/>
</linearGradient>
<clipPath id="clip0_903_420">
<rect width="1440" height="1037" fill="white"/>
</clipPath>
</defs>
</svg>
