<svg width="267" height="267" viewBox="0 0 267 267" fill="none" xmlns="http://www.w3.org/2000/svg">
<circle cx="133.5" cy="133.5" r="133.5" fill="#00FFD1"/>
<path d="M121.125 90.8013C111.241 100.435 100.672 107.286 91.6751 110.648C87.1726 112.33 83.201 113.087 79.9806 112.979C76.7808 112.873 74.5149 111.931 73.0315 110.409C71.5481 108.887 70.6642 106.598 70.6398 103.396C70.6152 100.174 71.4735 96.2231 73.2705 91.7652C76.8611 82.8577 83.9814 72.4671 93.865 62.8336C103.749 53.2001 114.318 46.3485 123.315 42.9872C127.817 41.3051 131.789 40.5483 135.009 40.6555C138.209 40.7619 140.475 41.7042 141.958 43.2261C143.442 44.7481 144.326 47.0373 144.35 50.2388C144.375 53.4609 143.516 57.4117 141.719 61.8697C138.129 70.7772 131.009 81.1678 121.125 90.8013Z" stroke="white" stroke-width="6"/>
<rect x="33.2968" y="95.9106" width="160.623" height="126.212" rx="63.1058" transform="rotate(-5.99249 33.2968 95.9106)" fill="#00FFD1" stroke="white" stroke-width="6"/>
<path d="M39.3102 162.757C37.295 140.249 54.3377 120.553 76.9017 119.313L133.045 116.227C153.558 115.1 171.351 130.259 173.495 150.691C175.718 171.862 160.356 190.827 139.185 193.049L83.2636 198.92C61.0869 201.248 41.2988 184.967 39.3102 162.757Z" stroke="white" stroke-width="4"/>
<path d="M214.471 93.9848C208.859 106.594 201.579 116.873 194.468 123.328C190.909 126.558 187.5 128.732 184.469 129.825C181.458 130.912 179.004 130.876 177.063 130.012C175.121 129.147 173.452 127.348 172.243 124.384C171.027 121.4 170.361 117.413 170.379 112.606C170.414 103.002 173.179 90.7138 178.791 78.1047C184.403 65.4956 191.682 55.2164 198.794 48.7619C202.353 45.5316 205.762 43.3576 208.793 42.2642C211.804 41.1779 214.258 41.2138 216.199 42.0779C218.141 42.9421 219.81 44.7411 221.018 47.7056C222.235 50.6893 222.901 54.677 222.883 59.4834C222.848 69.0871 220.083 81.3758 214.471 93.9848Z" fill="#00FFD1" stroke="white" stroke-width="6"/>
<path d="M58.7947 147.418C59.133 144.696 61.419 142.662 64.1573 142.501C67.7739 142.289 70.702 145.366 70.4595 148.981C69.8718 157.741 70.2107 164.331 71.7758 172.48C72.4456 175.967 69.9739 179.33 66.429 179.539C63.6679 179.701 61.1774 177.857 60.58 175.156C58.3396 165.027 57.5072 157.778 58.7947 147.418Z" fill="white"/>
<path d="M117.577 140.072C117.916 137.35 120.202 135.316 122.94 135.155C126.557 134.943 129.485 138.021 129.242 141.635C128.655 150.395 128.993 156.985 130.559 165.134C131.228 168.621 128.757 171.985 125.212 172.193C122.451 172.355 119.96 170.511 119.363 167.81C117.122 157.681 116.29 150.433 117.577 140.072Z" fill="white"/>
<line x1="57.8323" y1="152.47" x2="75.0617" y2="151.458" stroke="#00FFD1" stroke-width="5"/>
<line x1="117.451" y1="159.339" x2="134.68" y2="158.326" stroke="#00FFD1" stroke-width="5"/>
<line x1="113.246" y1="146.62" x2="130.475" y2="145.607" stroke="#00FFD1" stroke-width="5"/>
<line x1="58.5916" y1="165.393" x2="75.821" y2="164.38" stroke="#00FFD1" stroke-width="5"/>
</svg>
