<svg width="267" height="267" viewBox="0 0 267 267" fill="none" xmlns="http://www.w3.org/2000/svg">
<circle cx="133.5" cy="133.5" r="133.5" fill="#9747FF"/>
<path d="M67.4407 156.631C65.7945 160.164 61.7929 161.943 57.8956 161.075L40.9067 157.295C37.8667 156.618 35.386 154.442 34.5177 151.515C31.1426 140.139 31.1309 131.476 34.6646 118.077C35.4776 114.995 37.9986 112.649 41.1454 111.919L57.1861 108.201C61.3737 107.23 65.6673 109.344 67.2393 113.279C70.6262 121.758 72.4286 128.796 72.5202 135.593C72.6117 142.376 70.9999 148.994 67.4407 156.631Z" stroke="white" stroke-width="2"/>
<path d="M213.791 134.267C213.791 182.932 176.601 222.033 131.144 222.033C85.6865 222.033 48.4966 182.932 48.4966 134.267C48.4966 85.6013 85.6865 46.5 131.144 46.5C176.601 46.5 213.791 85.6013 213.791 134.267Z" fill="#9747FF" stroke="white" stroke-width="7"/>
<path d="M60.9159 117.332C62.7464 86.2833 84.7332 63.3665 115.671 62.8118C147.462 62.2418 178.141 87.6269 180.436 119.132L182.079 141.695C183.626 162.932 169.5 182.482 148.628 185.156C129.747 187.574 113.08 187.599 94.3848 185.084C74.2607 182.377 59.9012 164.404 60.0573 143.938C60.1282 134.656 60.4061 125.979 60.9159 117.332Z" stroke="white" stroke-width="3.5"/>
<path d="M158.007 123.529C158.007 130.742 152.16 136.59 144.947 136.59C137.735 136.59 131.888 130.742 131.888 123.529C131.888 116.316 137.735 110.469 144.947 110.469C152.16 110.469 158.007 116.316 158.007 123.529Z" stroke="white" stroke-width="2"/>
<path d="M84.6187 112.002C92.2499 112.002 98.4355 117.94 98.6925 125.323C97.6963 126.068 97.0032 126.251 96.4541 126.232C95.7901 126.208 95.1161 125.891 94.1196 125.284C93.9303 125.168 93.7343 125.046 93.5304 124.919C91.6242 123.727 89.0232 122.102 84.6781 121.843C80.0903 121.571 77.5054 123.742 75.6539 125.296C75.5005 125.425 75.3521 125.55 75.208 125.669C74.2185 126.483 73.6099 126.857 73.02 126.875C72.5219 126.89 71.7622 126.642 70.5423 125.406C70.7558 117.985 76.959 112.002 84.6187 112.002Z" stroke="white" stroke-width="2"/>
<path d="M103.791 144.748C112.549 147.314 117.584 147.335 126.798 144.748V147.935C117.46 150.576 112.442 150.429 103.791 147.935V144.748Z" fill="#FFFCFC"/>
<path d="M202.412 112.413C204.058 108.881 208.06 107.102 211.957 107.969L226.525 111.211C230.642 112.127 233.57 115.779 233.57 119.996V148.845C233.57 153.033 230.682 156.667 226.602 157.613L212.666 160.843C208.479 161.814 204.185 159.7 202.613 155.765C199.226 147.286 197.424 140.248 197.332 133.452C197.241 126.669 198.853 120.05 202.412 112.413Z" fill="#9747FF" stroke="white" stroke-width="2"/>
<path d="M237 134.169C237 140.087 236.021 145.399 234.475 149.195C233.701 151.095 232.804 152.566 231.86 153.547C230.918 154.524 229.995 154.952 229.126 154.952C228.258 154.952 227.334 154.524 226.392 153.547C225.448 152.566 224.551 151.095 223.777 149.195C222.231 145.399 221.252 140.087 221.252 134.169C221.252 128.25 222.231 122.938 223.777 119.143C224.551 117.242 225.448 115.771 226.392 114.791C227.334 113.813 228.258 113.385 229.126 113.385C229.995 113.385 230.918 113.813 231.86 114.791C232.804 115.771 233.701 117.242 234.475 119.143C236.021 122.938 237 128.25 237 134.169Z" fill="#9747FF" stroke="white" stroke-width="2"/>
</svg>
