<svg width="267" height="267" viewBox="0 0 267 267" fill="none" xmlns="http://www.w3.org/2000/svg">
<circle cx="133.5" cy="133.5" r="133.5" fill="#FFD571"/>
<path d="M144.255 61.5558L152.576 65.3217C144.307 76.5469 141.198 83.8562 136.601 97.5256L128.28 93.7596C133.012 79.4776 135.815 71.6406 144.255 61.5558Z" fill="white"/>
<rect x="58.2827" y="96.5901" width="149.771" height="106.832" rx="35" stroke="#FFFCFC" stroke-width="10"/>
<circle cx="77.5811" cy="139.188" r="54.5811" stroke="white" stroke-width="10"/>
<circle cx="193.581" cy="139.581" r="54.5811" stroke="white" stroke-width="10"/>
<ellipse cx="78" cy="139.5" rx="49" ry="50.5" fill="#FFD571"/>
<ellipse cx="194" cy="138.5" rx="49" ry="50.5" fill="#FFD571"/>
<circle cx="153.972" cy="51.8135" r="13.8135" fill="white"/>
<ellipse cx="75.5838" cy="139.188" rx="19.6385" ry="21.3027" fill="white"/>
<ellipse cx="193.638" cy="140.303" rx="19.6385" ry="21.3027" fill="white"/>
<ellipse cx="7" cy="8" rx="7" ry="8" transform="matrix(-1 0 0 1 95 118)" fill="#FFD571"/>
<ellipse cx="9" cy="8.5" rx="9" ry="8.5" transform="matrix(-1 0 0 1 213 119)" fill="#FFD571"/>
</svg>
