<svg width="267" height="267" viewBox="0 0 267 267" fill="none" xmlns="http://www.w3.org/2000/svg">
<circle cx="133.5" cy="133.5" r="133.5" fill="#FFAD5A"/>
<path d="M36.1128 110.571C36.1128 98.1442 46.1864 88.0706 58.6128 88.0706H86.2993V138.257H58.6128C46.1864 138.257 36.1128 128.183 36.1128 115.757V110.571Z" stroke="white" stroke-width="5"/>
<path d="M63.5508 107.069C63.5508 69.0596 94.3633 38.2471 132.372 38.2471C168.302 38.2471 198.185 65.886 200.985 101.706L207.218 181.455C151.429 188.999 116.399 189.243 63.5508 181.46V107.069Z" fill="#FFAD5A" stroke="white" stroke-width="8"/>
<path d="M132.758 213.627C108.797 213.751 84.4438 209.527 53.2057 200.59L61.9644 182.255C112.517 189.092 147.03 187.22 202.059 179.461L205.638 178.956L205.497 175.344L205.145 166.333L211.553 200.029C180.989 208.943 156.957 213.502 132.758 213.627Z" fill="#FFAD5A" stroke="white" stroke-width="8"/>
<path d="M231.992 115.757C231.992 128.183 221.918 138.257 209.492 138.257H193.953C191.218 128.681 189.683 121.33 189.542 113.933C189.401 106.519 190.658 98.9128 193.715 88.8623L209.055 88.5645C221.65 88.3199 231.992 98.4629 231.992 111.06V115.757Z" fill="#FFAD5A" stroke="white" stroke-width="5"/>
<circle cx="88.7999" cy="109.853" r="12.9522" fill="white" stroke="white" stroke-width="5"/>
<circle cx="148.676" cy="109.576" r="8.26137" fill="white" stroke="white" stroke-width="5"/>
<path d="M104.803 143.517C115.725 152.868 121.318 151.809 130.741 143.517" stroke="white" stroke-width="8"/>
</svg>
