<svg width="85" height="69" viewBox="0 0 85 69" fill="none" xmlns="http://www.w3.org/2000/svg">
<ellipse cx="8.45505" cy="19.2739" rx="8.45505" ry="19.2739" transform="matrix(0.757667 0.652641 -0.773898 0.63331 40.082 0)" fill="url(#paint0_linear_864_399)"/>
<rect width="67.7748" height="45.3269" rx="22.6634" transform="matrix(0.996139 -0.0877923 0.124062 0.992274 0 23.342)" fill="url(#paint1_linear_864_399)"/>
<path d="M2.97104 47.083C2.11187 39.0266 8.08379 32.084 16.195 31.7098L44.3458 30.4108C51.7715 30.0681 58.3579 35.6096 59.2787 42.9745V42.9745C60.2275 50.5632 54.8209 57.2593 47.2026 57.9307L19.1734 60.401C11.1288 61.11 3.82685 55.1079 2.97104 47.083V47.083Z" fill="#100051"/>
<ellipse cx="8.95113" cy="18.0827" rx="8.95113" ry="18.0827" transform="matrix(0.936737 0.350034 -0.468369 0.883533 67.9722 1.771)" fill="url(#paint2_linear_864_399)"/>
<path d="M11.7013 42.0786C11.8505 41.0147 12.7567 40.2493 13.8342 40.1961V40.1961C15.334 40.1221 16.5452 41.4314 16.4452 42.9256C16.2733 45.4953 16.4004 47.5457 16.9103 49.9514C17.2154 51.3908 16.2314 52.7925 14.7659 52.8648V52.8648C13.6764 52.9186 12.676 52.2031 12.401 51.1433C11.5487 47.8581 11.23 45.4401 11.7013 42.0786Z" fill="#00FFD1"/>
<path d="M35.6501 39.5662C35.7992 38.5023 36.7054 37.7368 37.7829 37.6837V37.6837C39.2828 37.6096 40.4939 38.919 40.3939 40.4132C40.222 42.9829 40.3491 45.0332 40.8591 47.4389C41.1642 48.8783 40.1801 50.28 38.7147 50.3523V50.3523C37.6251 50.4061 36.6248 49.6907 36.3498 48.6308C35.4974 45.3457 35.1787 42.9276 35.6501 39.5662Z" fill="#00FFD1"/>
<line y1="-1" x2="7.02801" y2="-1" transform="matrix(0.998784 -0.049294 0.0698444 0.997558 11.3989 44.4558)" stroke="#100051" stroke-width="2"/>
<line y1="-1" x2="7.02801" y2="-1" transform="matrix(0.998784 -0.0492939 0.0698444 0.997558 35.688 46.8052)" stroke="#100051" stroke-width="2"/>
<line y1="-1" x2="7.02801" y2="-1" transform="matrix(0.998784 -0.0492939 0.0698444 0.997558 33.9751 42.4546)" stroke="#100051" stroke-width="2"/>
<line y1="-1" x2="7.02801" y2="-1" transform="matrix(0.998784 -0.0492939 0.0698444 0.997558 11.7075 48.876)" stroke="#100051" stroke-width="2"/>
<defs>
<linearGradient id="paint0_linear_864_399" x1="8.45505" y1="0" x2="8.45505" y2="38.5479" gradientUnits="userSpaceOnUse">
<stop stop-color="#E8AA14"/>
<stop offset="1" stop-color="#F96800"/>
</linearGradient>
<linearGradient id="paint1_linear_864_399" x1="67.0305" y1="-0.041983" x2="8.08247" y2="53.5625" gradientUnits="userSpaceOnUse">
<stop stop-color="#E8AA14"/>
<stop offset="1" stop-color="#F96800"/>
</linearGradient>
<linearGradient id="paint2_linear_864_399" x1="10.4292" y1="9.73298" x2="-10.7156" y2="11.2496" gradientUnits="userSpaceOnUse">
<stop stop-color="#E8AA14"/>
<stop offset="1" stop-color="#F96800"/>
</linearGradient>
</defs>
</svg>
