<svg width="92" height="67" viewBox="0 0 92 67" fill="none" xmlns="http://www.w3.org/2000/svg">
<path d="M50.0665 9.16559L53.3664 10.6309C50.087 14.9986 48.8544 17.8426 47.0315 23.1613L43.7316 21.6959C45.608 16.1389 46.7199 13.0896 50.0665 9.16559Z" fill="#100051"/>
<rect x="13.9912" y="20.8518" width="63.3573" height="45.4588" rx="15" fill="url(#paint0_linear_864_439)"/>
<ellipse cx="23.627" cy="39.3719" rx="23.627" ry="23.1827" fill="url(#paint1_linear_864_439)"/>
<ellipse cx="23.6267" cy="39.3719" rx="17.2913" ry="16.9661" fill="white"/>
<ellipse cx="68.3726" cy="39.3719" rx="23.627" ry="23.1827" fill="url(#paint2_linear_864_439)"/>
<ellipse cx="68.3728" cy="39.3719" rx="17.2913" ry="16.9661" fill="white"/>
<ellipse cx="53.9202" cy="5.37476" rx="5.47777" ry="5.37476" fill="url(#paint3_linear_864_439)"/>
<ellipse cx="22.8341" cy="39.3718" rx="7.78767" ry="8.28879" fill="black"/>
<ellipse cx="28.9063" cy="39.3718" rx="3.29986" ry="3.23781" fill="white"/>
<ellipse cx="67.5811" cy="39.3718" rx="7.78767" ry="8.28879" fill="black"/>
<ellipse cx="73.6529" cy="39.3718" rx="3.29986" ry="3.23781" fill="white"/>
<defs>
<linearGradient id="paint0_linear_864_439" x1="45.6699" y1="20.8518" x2="45.6699" y2="60.2883" gradientUnits="userSpaceOnUse">
<stop stop-color="#1789FC"/>
<stop offset="0.5" stop-color="#00468D"/>
<stop offset="1" stop-color="#1789FC"/>
</linearGradient>
<linearGradient id="paint1_linear_864_439" x1="51.2798" y1="39.3719" x2="64.1784" y2="5.79149" gradientUnits="userSpaceOnUse">
<stop stop-color="#100051"/>
<stop offset="0.984405" stop-color="#006CD9"/>
</linearGradient>
<linearGradient id="paint2_linear_864_439" x1="60.057" y1="43.1925" x2="121.135" y2="3.02327" gradientUnits="userSpaceOnUse">
<stop stop-color="#100051"/>
<stop offset="1" stop-color="#006EDD"/>
</linearGradient>
<linearGradient id="paint3_linear_864_439" x1="57.22" y1="3.75586" x2="49.3741" y2="8.28706" gradientUnits="userSpaceOnUse">
<stop stop-color="#E8AA14"/>
<stop offset="1" stop-color="#F96800"/>
</linearGradient>
</defs>
</svg>
