<svg width="80" height="68" viewBox="0 0 80 68" fill="none" xmlns="http://www.w3.org/2000/svg">
<path d="M15.833 38.891C14.7481 42.7122 10.4873 44.389 6.60338 43.5559V43.5559C3.52285 42.8951 0.821034 40.734 0.27478 37.6311C-0.130727 35.3277 -0.0894163 33.1466 0.409207 30.5552C0.984387 27.5659 3.48459 25.3901 6.45548 24.7263V24.7263C10.3483 23.8565 14.5116 25.7478 15.6317 29.5761C16.6081 32.9133 16.7151 35.784 15.833 38.891Z" fill="url(#paint0_linear_864_453)"/>
<ellipse cx="38.7032" cy="34" rx="33.2935" ry="34" fill="url(#paint1_linear_864_453)"/>
<path d="M10.8438 28.375C11.5455 16.0617 20.3428 6.94342 32.6743 6.72944V6.72944C45.3077 6.51022 57.5384 16.5496 58.4903 29.1489L59.0537 36.6048C59.6773 44.859 54.1519 52.51 45.9404 53.5552C38.3034 54.5271 31.6093 54.5399 24.0467 53.5301C16.1348 52.4738 10.4869 45.458 10.5545 37.4762C10.5813 34.3117 10.6752 31.3324 10.8438 28.375Z" fill="url(#paint2_linear_864_453)"/>
<path d="M48.9713 30.0001C48.9713 32.5997 46.7799 34.7382 44.0377 34.7382C41.2954 34.7382 39.104 32.5997 39.104 30.0001C39.104 27.4004 41.2954 25.262 44.0377 25.262C46.7799 25.262 48.9713 27.4004 48.9713 30.0001Z" stroke="white"/>
<path d="M20.7229 25.8335C23.6032 25.8335 25.9092 27.9693 26.0454 30.6005C25.7049 30.8346 25.4746 30.8854 25.3003 30.8795C25.0715 30.8717 24.8312 30.7664 24.4468 30.5408C24.3741 30.4981 24.2986 30.4526 24.2198 30.4051C23.4811 29.96 22.4565 29.3426 20.7515 29.2448C18.9384 29.1409 17.9111 29.9729 17.1928 30.5546C17.1334 30.6027 17.0761 30.6491 17.0207 30.6931C16.6369 30.9978 16.4275 31.1135 16.2374 31.119C16.0891 31.1233 15.8337 31.0575 15.3984 30.6432C15.5116 27.9925 17.827 25.8335 20.7229 25.8335Z" stroke="white"/>
<path d="M28.1318 37.9048C31.5164 38.8608 33.4625 38.8687 37.0233 37.9048V39.0919C33.4147 40.0758 31.475 40.0213 28.1318 39.0919V37.9048Z" fill="#FFFCFC"/>
<path d="M64.833 28.2372C65.9235 25.1155 69.4016 23.7075 72.6347 24.401V24.401C76.1577 25.1567 78.6743 28.2704 78.6743 31.8735V36.5179C78.6743 39.9509 76.2921 42.9242 72.9417 43.6728V43.6728C69.5937 44.4209 66.0581 42.7852 64.9821 39.5277C63.6204 35.4055 63.5013 32.0496 64.833 28.2372Z" fill="url(#paint3_linear_864_453)"/>
<path d="M79.9999 33.9638C79.9999 38.4457 78.4644 42.079 76.5702 42.079C74.6761 42.079 73.1406 38.4457 73.1406 33.9638C73.1406 29.4819 74.6761 25.8486 76.5702 25.8486C78.4644 25.8486 79.9999 29.4819 79.9999 33.9638Z" fill="#FFD571"/>
<defs>
<linearGradient id="paint0_linear_864_453" x1="7.9867" y1="44.9526" x2="6.91493" y2="9.61797" gradientUnits="userSpaceOnUse">
<stop stop-color="#FFD571"/>
<stop offset="1" stop-color="#F96800"/>
</linearGradient>
<linearGradient id="paint1_linear_864_453" x1="45.3224" y1="28.2857" x2="52.6882" y2="65.5349" gradientUnits="userSpaceOnUse">
<stop stop-color="#FFFCFC"/>
<stop offset="1" stop-color="#CEE8FF"/>
</linearGradient>
<linearGradient id="paint2_linear_864_453" x1="68.586" y1="50.9947" x2="5.99792" y2="-3.35445" gradientUnits="userSpaceOnUse">
<stop stop-color="#9747FF"/>
<stop offset="1" stop-color="#1789FC"/>
</linearGradient>
<linearGradient id="paint3_linear_864_453" x1="72.3424" y1="23.2383" x2="73.4142" y2="58.5729" gradientUnits="userSpaceOnUse">
<stop stop-color="#FFD571"/>
<stop offset="1" stop-color="#F96800"/>
</linearGradient>
</defs>
</svg>
