<svg width="313" height="507" viewBox="0 0 313 507" fill="none" xmlns="http://www.w3.org/2000/svg">
<path d="M309.365 307.402C319.263 377.534 312.208 506.475 246.75 506.475C181.292 506.475 60.3354 382.459 60.3354 319.758C60.3354 257.057 87.9534 195.921 153.411 195.921C221.018 182.192 275.055 208.003 309.365 307.402Z" fill="url(#paint0_linear_110_265)"/>
<ellipse cx="102.901" cy="68.8054" rx="29.913" ry="67.8872" transform="rotate(45.7342 102.901 68.8054)" fill="url(#paint1_linear_110_265)"/>
<rect y="90.6123" width="221.249" height="175.556" rx="87.778" transform="rotate(-5.99249 0 90.6123)" fill="url(#paint2_linear_110_265)"/>
<path d="M9.71746 183.157C6.90748 151.774 30.6707 124.311 62.1324 122.581L136.682 118.484C165.333 116.909 190.185 138.083 193.18 166.62C196.285 196.192 174.829 222.681 145.257 225.785L71.0029 233.579C40.0812 236.825 12.4902 214.125 9.71746 183.157Z" fill="#100051"/>
<ellipse cx="221.26" cy="81.0585" rx="29.9125" ry="67.8857" transform="rotate(23.9925 221.26 81.0585)" fill="url(#paint3_linear_110_265)"/>
<ellipse cx="55.8965" cy="297.389" rx="35.7118" ry="78.6735" transform="rotate(10.0106 55.8965 297.389)" fill="url(#paint4_linear_110_265)"/>
<path d="M38.2345 162.552C38.6837 158.937 41.7192 156.237 45.3551 156.023C50.1574 155.741 54.0455 159.827 53.7235 164.627C52.9431 176.259 53.3931 185.009 55.4713 195.83C56.3606 200.46 53.0787 204.927 48.3717 205.203C44.7053 205.419 41.3982 202.969 40.6051 199.383C37.6302 185.934 36.5248 176.309 38.2345 162.552Z" fill="#00FFD1"/>
<path d="M116.289 152.798C116.738 149.184 119.773 146.483 123.409 146.269C128.211 145.987 132.1 150.073 131.778 154.873C130.997 166.505 131.447 175.255 133.525 186.076C134.415 190.706 131.133 195.173 126.426 195.449C122.759 195.665 119.452 193.215 118.659 189.629C115.684 176.18 114.579 166.555 116.289 152.798Z" fill="#00FFD1"/>
<line x1="37.0051" y1="170.079" x2="59.8831" y2="168.734" stroke="#100051" stroke-width="5"/>
<line x1="116.169" y1="179.2" x2="139.047" y2="177.855" stroke="#100051" stroke-width="5"/>
<line x1="110.585" y1="162.31" x2="133.463" y2="160.966" stroke="#100051" stroke-width="5"/>
<line x1="38.0136" y1="187.238" x2="60.8916" y2="185.893" stroke="#100051" stroke-width="5"/>
<circle cx="176.928" cy="285.609" r="6.01583" fill="#00DEB6"/>
<circle cx="183.23" cy="305.661" r="6.01583" fill="#00DEB6"/>
<rect x="143.411" y="289.654" width="22.9174" height="9.16697" rx="4.58349" transform="rotate(-13.8293 143.411 289.654)" fill="white"/>
<rect x="153.227" y="306.559" width="16.9397" height="9.16697" rx="4.58349" transform="rotate(-13.8293 153.227 306.559)" fill="white"/>
<ellipse cx="215.25" cy="276.097" rx="35.7118" ry="82.7158" transform="rotate(-46.7092 215.25 276.097)" fill="url(#paint5_linear_110_265)"/>
<defs>
<linearGradient id="paint0_linear_110_265" x1="251.123" y1="181.334" x2="-2.40112" y2="389.596" gradientUnits="userSpaceOnUse">
<stop stop-color="#E8AA14"/>
<stop offset="1" stop-color="#F96800"/>
</linearGradient>
<linearGradient id="paint1_linear_110_265" x1="102.901" y1="0.918221" x2="102.901" y2="136.693" gradientUnits="userSpaceOnUse">
<stop stop-color="#E8AA14"/>
<stop offset="1" stop-color="#F96800"/>
</linearGradient>
<linearGradient id="paint2_linear_110_265" x1="218.819" y1="90.4497" x2="-2.64467" y2="260.19" gradientUnits="userSpaceOnUse">
<stop stop-color="#E8AA14"/>
<stop offset="1" stop-color="#F96800"/>
</linearGradient>
<linearGradient id="paint3_linear_110_265" x1="226.199" y1="49.7122" x2="155.463" y2="54.2285" gradientUnits="userSpaceOnUse">
<stop stop-color="#E8AA14"/>
<stop offset="1" stop-color="#F96800"/>
</linearGradient>
<linearGradient id="paint4_linear_110_265" x1="12.9414" y1="334.507" x2="132.897" y2="181.944" gradientUnits="userSpaceOnUse">
<stop stop-color="#F9A400"/>
<stop offset="1" stop-color="#FFD878"/>
</linearGradient>
<linearGradient id="paint5_linear_110_265" x1="179.383" y1="303.443" x2="275.644" y2="264.282" gradientUnits="userSpaceOnUse">
<stop stop-color="#F9A400"/>
<stop offset="1" stop-color="#FFD878"/>
</linearGradient>
</defs>
</svg>
