<svg width="320" height="365" viewBox="0 0 320 365" fill="none" xmlns="http://www.w3.org/2000/svg">
<rect x="83.1408" y="236.113" width="10.7735" height="33.2697" rx="5.38674" transform="rotate(-11.7876 83.1408 236.113)" fill="url(#paint0_linear_188_150)"/>
<path d="M81.7273 197.625C84.5863 186.922 98.4452 184.299 109.063 187.462C119.474 190.563 129.753 199.828 126.416 210.166C123.388 219.549 120.177 227.935 116.322 237.536C113.237 245.219 106.553 251.418 98.284 251.833C92.3966 252.128 88.0054 250.987 83.1054 247.75C76.5482 243.42 74.0112 235.146 75.2534 227.386C76.8656 217.316 78.9057 208.188 81.7273 197.625Z" fill="url(#paint1_linear_188_150)"/>
<path d="M128.309 202.25C127.116 206.257 117.161 206.828 106.074 203.526C94.9874 200.224 86.9675 194.298 88.161 190.292C89.3544 186.285 96.64 183.79 109.937 187.751C123.235 191.711 129.502 198.243 128.309 202.25Z" fill="#D9D9D9"/>
<path d="M79.4018 207.861C83.3217 207.895 87.2753 207.339 89.3579 217.757C89.3579 217.757 90.3134 225.253 94.4246 227.036C98.5359 228.819 102.834 223.602 102.834 223.602C109.754 215.67 118.581 224.852 120.972 225.889" stroke="#D9D9D9" stroke-width="5"/>
<path d="M182.198 288.853C182.198 288.26 182.198 287.964 182.194 287.69C181.985 276.252 175.289 265.928 164.93 261.072C164.682 260.956 164.412 260.836 163.87 260.594C162.576 260.016 161.928 259.726 161.469 259.539C140.981 251.189 118.811 267.132 120.206 289.212C120.237 289.707 120.305 290.412 120.442 291.824L123.981 328.522C125.071 339.832 125.617 345.487 130.419 352.1C131.828 354.041 136.177 358.198 138.179 359.518C145.002 364.017 147.204 364.129 151.608 364.354C152.24 364.386 152.872 364.401 153.505 364.396C159.852 364.354 163.026 364.332 171.238 357.588C172.248 356.759 174.687 354.303 175.51 353.288C182.198 345.031 182.198 337.602 182.198 322.744V288.853Z" fill="url(#paint2_linear_188_150)"/>
<path d="M193.606 287.295C193.606 286.692 193.606 286.39 193.611 286.112C193.822 274.741 200.444 264.468 210.713 259.58C210.964 259.461 211.238 259.336 211.788 259.087C213.114 258.486 213.777 258.185 214.247 257.991C234.725 249.529 256.995 265.425 255.648 287.542C255.617 288.049 255.548 288.774 255.41 290.224L251.801 328.211C250.692 339.885 250.138 345.722 245.062 352.483C243.756 354.223 239.75 358.047 237.951 359.271C230.962 364.027 228.668 364.138 224.08 364.359C223.477 364.388 222.873 364.401 222.269 364.396C215.773 364.346 212.526 364.32 204.24 357.318C203.382 356.592 201.263 354.457 200.544 353.593C193.606 345.254 193.606 337.684 193.606 322.546V287.295Z" fill="url(#paint3_linear_188_150)"/>
<ellipse cx="167.623" cy="109.477" rx="15.8433" ry="7.12951" fill="#D9D9D9"/>
<rect x="294.22" y="238.918" width="10.7735" height="33.2697" rx="5.38674" transform="rotate(1.92609 294.22 238.918)" fill="url(#paint4_linear_188_150)"/>
<path d="M116.311 122.686C118.062 119.406 122.804 118.799 125.49 121.202C130.424 125.615 135.334 127.634 142.273 128.142C146.096 128.422 148.602 132.017 146.849 135.301L121.333 183.089C120.578 184.504 119.153 185.552 117.501 185.84C103.698 188.247 97.122 185.814 90.7244 174.797C89.9818 173.518 90.0135 171.939 90.7451 170.569L116.311 122.686Z" fill="url(#paint5_linear_188_150)"/>
<ellipse cx="16.4864" cy="8.2854" rx="16.4864" ry="8.2854" transform="matrix(0.918539 0.395329 -0.486668 0.873587 123.064 113)" fill="#D9D9D9"/>
<rect x="72.5625" y="236.951" width="10.7735" height="33.2697" rx="5.38674" transform="rotate(-6.40466 72.5625 236.951)" fill="url(#paint6_linear_188_150)"/>
<path d="M2.81265 136.005L6.35903 133.084L114.784 264.715L108.425 269.952L2.81265 136.005Z" fill="#004A95"/>
<rect x="103.913" y="240.502" width="10.7735" height="23.5043" rx="5.38674" transform="rotate(5.36643 103.913 240.502)" fill="url(#paint7_linear_188_150)"/>
<path d="M247.169 265.383C248.587 272.951 238.08 279.773 223.211 282.559C208.343 285.344 195.139 281.468 193.721 273.899C192.303 266.331 203.208 257.937 218.076 255.152C232.945 252.366 245.751 257.814 247.169 265.383Z" fill="#D9D9D9"/>
<path d="M181.473 278.111C180.055 285.68 167.791 288.236 152.923 285.451C138.054 282.665 127.149 274.272 128.567 266.704C129.985 259.135 143.188 255.258 158.057 258.043C172.926 260.829 182.891 270.543 181.473 278.111Z" fill="#D9D9D9"/>
<ellipse cx="183.624" cy="186.476" rx="75.2559" ry="90.4655" fill="url(#paint8_linear_188_150)"/>
<path d="M289.735 182.571C274.308 181.755 267.506 185.074 258.573 197.438L226.9 131.049C234.591 115.524 241.249 111.888 258.063 116.182L289.735 182.571Z" fill="url(#paint9_linear_188_150)"/>
<ellipse cx="273.81" cy="189.249" rx="17.3665" ry="9.38224" transform="rotate(155.444 273.81 189.249)" fill="#D9D9D9"/>
<path d="M261.529 218.39C258.072 207.865 268.242 198.092 278.861 194.936C289.275 191.841 302.947 193.979 305.805 204.46C308.398 213.972 310.294 222.75 312.315 232.897C313.932 241.016 311.724 249.861 305.027 254.729C300.259 258.195 295.958 259.639 290.085 259.608C282.227 259.567 275.58 254.026 272.378 246.849C268.223 237.536 264.941 228.777 261.529 218.39Z" fill="url(#paint10_linear_188_150)"/>
<path d="M301.559 201.366C302.75 205.373 294.517 211.356 283.169 214.729C271.821 218.102 261.656 217.588 260.465 213.58C259.274 209.573 264.151 203.459 277.762 199.414C291.373 195.368 300.368 197.358 301.559 201.366Z" fill="#FFFCFC"/>
<rect x="275.239" y="244.621" width="10.7735" height="23.5043" rx="5.38674" transform="rotate(3.57611 275.239 244.621)" fill="url(#paint11_linear_188_150)"/>
<rect x="303.875" y="240.436" width="10.7735" height="33.2697" rx="5.38674" transform="rotate(-6.40466 303.875 240.436)" fill="url(#paint12_linear_188_150)"/>
<path d="M142.967 68.0871C141.362 72.1983 136.789 74.1246 132.481 73.1661L126.767 71.8945C123.403 71.146 120.57 68.7409 119.736 65.3971C118.334 59.7711 118.355 54.975 119.848 48.5058C120.653 45.0179 123.51 42.4194 126.997 41.6111L131.763 40.5063C136.402 39.4312 141.265 41.7398 142.834 46.2353C145.671 54.3628 145.886 60.6052 142.967 68.0871Z" fill="url(#paint13_linear_188_150)"/>
<ellipse cx="180.772" cy="56.5607" rx="53.3921" ry="56.5607" fill="url(#paint14_linear_188_150)"/>
<path d="M136.164 46.0047C137.329 26.2456 151.373 11.5483 171.163 11.1936C191.377 10.8312 210.936 26.9415 212.405 47.1054L213.423 61.085C214.418 74.7419 205.33 87.4342 191.748 89.1737C179.955 90.684 169.529 90.7006 157.844 89.1285C144.782 87.3711 135.53 75.7248 135.63 62.5454C135.674 56.7775 135.847 51.3824 136.164 46.0047Z" fill="url(#paint15_linear_188_150)"/>
<circle cx="189.328" cy="49.9065" r="7.71384" stroke="white" stroke-width="2"/>
<path d="M151.938 43.1433C156.398 43.1433 160.014 46.5581 160.271 50.8296C159.792 51.155 159.49 51.2084 159.286 51.2012C158.984 51.1905 158.642 51.0458 158.024 50.6691C157.908 50.5987 157.788 50.5233 157.661 50.4444C156.475 49.7024 154.79 48.6483 151.997 48.4822C148.998 48.3039 147.291 49.7398 146.139 50.7083C146.043 50.7888 145.952 50.866 145.863 50.9388C145.239 51.4531 144.956 51.5931 144.737 51.5997C144.594 51.604 144.251 51.5464 143.6 50.9172C143.811 46.6049 147.446 43.1433 151.938 43.1433Z" stroke="white" stroke-width="2"/>
<path d="M163.82 63.0564C169.248 64.6467 172.369 64.6599 178.079 63.0564V65.0313C172.292 66.668 169.181 66.5774 163.82 65.0313V63.0564Z" fill="#FFFCFC"/>
<path d="M223.267 45.3513C224.872 41.2402 229.445 39.3139 233.753 40.2724L237.046 41.0053C241.62 42.0231 244.874 46.0806 244.874 50.7665V62.5735C244.874 67.2265 241.665 71.2646 237.132 72.3152L234.471 72.9321C229.832 74.0073 224.969 71.6987 223.4 67.2032C220.563 59.0757 220.348 52.8333 223.267 45.3513Z" fill="url(#paint16_linear_188_150)"/>
<path d="M247 56.5C247 63.9558 244.538 70 241.5 70C238.462 70 236 63.9558 236 56.5C236 49.0442 238.462 43 241.5 43C244.538 43 247 49.0442 247 56.5Z" fill="#FFD571"/>
<path d="M125.559 164.751C127.497 157.786 134.001 152.962 141.27 152.962H142.199C151.729 152.962 158.442 162.031 156.788 171.729C155.045 181.949 147.118 190.997 137.283 190.997H136.153C128.881 190.997 122.654 186.26 122.884 179.67C123.058 174.706 124.139 169.855 125.559 164.751Z" stroke="#D9D9D9" stroke-width="3"/>
<rect x="130.549" y="141.323" width="30.4192" height="6.33734" rx="3.16867" fill="url(#paint17_linear_188_150)"/>
<rect x="139.105" y="133.084" width="23.4481" height="6.33734" rx="3.16867" fill="url(#paint18_linear_188_150)"/>
<path d="M124.37 331.601C128.977 330.079 133.324 328.005 141.053 336.698C141.053 336.698 145.978 343.167 151.697 343.167C157.416 343.167 159.799 336.698 159.799 336.698C163.873 326.71 178.871 331.601 182.198 331.601" stroke="#D9D9D9" stroke-width="5"/>
<path d="M193.764 332.552C198.272 331.03 211.393 328.77 218.955 337.463C218.955 337.463 223.448 343.959 229.043 343.959C234.639 343.959 237.016 338.599 237.016 338.599C241.003 328.611 250.492 334.604 250.959 333.367" stroke="#D9D9D9" stroke-width="5"/>
<path d="M265.573 230.064C268.666 227.657 271.42 224.766 279.522 231.64C279.522 231.64 284.925 236.922 289.255 235.767C293.584 234.612 293.714 227.854 293.714 227.854C294.213 217.339 306.834 219.056 309.353 218.384" stroke="#D9D9D9" stroke-width="5"/>
<defs>
<linearGradient id="paint0_linear_188_150" x1="88.3779" y1="306.59" x2="92.832" y2="264.306" gradientUnits="userSpaceOnUse">
<stop stop-color="#FFD571"/>
<stop offset="1" stop-color="#F97700"/>
</linearGradient>
<linearGradient id="paint1_linear_188_150" x1="81.7517" y1="227.352" x2="129.44" y2="206.439" gradientUnits="userSpaceOnUse">
<stop stop-color="#FFFCFC"/>
<stop offset="1" stop-color="#CEE8FF"/>
</linearGradient>
<linearGradient id="paint2_linear_188_150" x1="125.004" y1="309.896" x2="188.219" y2="301.657" gradientUnits="userSpaceOnUse">
<stop stop-color="#FFFCFC"/>
<stop offset="1" stop-color="#CEE8FF"/>
</linearGradient>
<linearGradient id="paint3_linear_188_150" x1="273.298" y1="300.707" x2="191.071" y2="304.192" gradientUnits="userSpaceOnUse">
<stop stop-color="#FFFCFC"/>
<stop offset="1" stop-color="#CEE8FF"/>
</linearGradient>
<linearGradient id="paint4_linear_188_150" x1="299.457" y1="309.395" x2="303.911" y2="267.111" gradientUnits="userSpaceOnUse">
<stop stop-color="#FFD571"/>
<stop offset="1" stop-color="#F97700"/>
</linearGradient>
<linearGradient id="paint5_linear_188_150" x1="96.1691" y1="135.302" x2="151.072" y2="140.929" gradientUnits="userSpaceOnUse">
<stop stop-color="#FFFCFC"/>
<stop offset="1" stop-color="#CEE8FF"/>
</linearGradient>
<linearGradient id="paint6_linear_188_150" x1="80.9447" y1="244.654" x2="66.066" y2="282.044" gradientUnits="userSpaceOnUse">
<stop stop-color="#FFD571"/>
<stop offset="1" stop-color="#F96800"/>
</linearGradient>
<linearGradient id="paint7_linear_188_150" x1="93.6639" y1="276.877" x2="123.332" y2="249.818" gradientUnits="userSpaceOnUse">
<stop stop-color="#F96800"/>
<stop offset="1" stop-color="#FFD571"/>
</linearGradient>
<linearGradient id="paint8_linear_188_150" x1="223.391" y1="80.6427" x2="273.456" y2="233.848" gradientUnits="userSpaceOnUse">
<stop stop-color="#CEE8FF"/>
<stop offset="0.380208" stop-color="#FFFCFC"/>
<stop offset="0.635417" stop-color="#FFFCFC"/>
<stop offset="1" stop-color="#CEE8FF"/>
</linearGradient>
<linearGradient id="paint9_linear_188_150" x1="268.228" y1="141.64" x2="220.856" y2="181.565" gradientUnits="userSpaceOnUse">
<stop stop-color="#FFFCFC"/>
<stop offset="1" stop-color="#CEE8FF"/>
</linearGradient>
<linearGradient id="paint10_linear_188_150" x1="289.315" y1="214.356" x2="302.148" y2="258.4" gradientUnits="userSpaceOnUse">
<stop stop-color="#FFFCFC"/>
<stop offset="1" stop-color="#CEE8FF"/>
</linearGradient>
<linearGradient id="paint11_linear_188_150" x1="264.99" y1="280.996" x2="294.659" y2="253.937" gradientUnits="userSpaceOnUse">
<stop stop-color="#F96800"/>
<stop offset="1" stop-color="#FFD571"/>
</linearGradient>
<linearGradient id="paint12_linear_188_150" x1="312.258" y1="248.139" x2="297.379" y2="285.529" gradientUnits="userSpaceOnUse">
<stop stop-color="#FFD571"/>
<stop offset="1" stop-color="#F96800"/>
</linearGradient>
<linearGradient id="paint13_linear_188_150" x1="131.514" y1="74.7808" x2="129.665" y2="16.0038" gradientUnits="userSpaceOnUse">
<stop stop-color="#FFD571"/>
<stop offset="1" stop-color="#F96800"/>
</linearGradient>
<linearGradient id="paint14_linear_188_150" x1="191.387" y1="47.0547" x2="204.062" y2="108.844" gradientUnits="userSpaceOnUse">
<stop stop-color="#FFFCFC"/>
<stop offset="1" stop-color="#CEE8FF"/>
</linearGradient>
<linearGradient id="paint15_linear_188_150" x1="228.696" y1="84.8321" x2="125.179" y2="-1.82269" gradientUnits="userSpaceOnUse">
<stop stop-color="#9747FF"/>
<stop offset="1" stop-color="#1789FC"/>
</linearGradient>
<linearGradient id="paint16_linear_188_150" x1="234.72" y1="38.6577" x2="236.569" y2="97.4346" gradientUnits="userSpaceOnUse">
<stop stop-color="#FFD571"/>
<stop offset="1" stop-color="#F96800"/>
</linearGradient>
<linearGradient id="paint17_linear_188_150" x1="130.549" y1="136.253" x2="160.968" y2="152.73" gradientUnits="userSpaceOnUse">
<stop stop-color="#F96800"/>
<stop offset="1" stop-color="#FFD571"/>
</linearGradient>
<linearGradient id="paint18_linear_188_150" x1="139.105" y1="128.014" x2="164.93" y2="138.797" gradientUnits="userSpaceOnUse">
<stop stop-color="#F96800"/>
<stop offset="1" stop-color="#FFD571"/>
</linearGradient>
</defs>
</svg>
